<svg xmlns="http://www.w3.org/2000/svg" xml:space="preserve" version="1.1" viewBox="0 0 256 256">
  <style>
    .st0{fill:#fff}
  </style>
  <g id="layer1" transform="translate(-81 -161.39)">
    <g id="g8035" transform="translate(-1246.06 -3046.4) scale(8.259)">
      <path id="path4143" d="m170.3 418-8.3-8.3-.1-11.8 8.3-8.4h12l8.2 8.2.1 11.9-8.3 8.4h-11.9z" class="st0"/>
      <path id="path3170" d="m170.6 417.6-8.1-8-.1-11.4 8-8.1 11.4-.1 8.1 8 .1 11.4-8 8.1-11.4.1z" style="fill:red"/>
      <path id="flowRoot6084" d="M169.6 407.3h-3.4l-.5 1.9h-2.2l3.1-10.7h2.6l3.1 10.7h-2.2l-.5-1.9zm-2.8-2h2.3l-1.2-4.3-1.1 4.3zm10-2.6c.3 0 .6-.1.8-.3.2-.2.3-.5.3-.8 0-.4-.1-.6-.3-.8-.2-.2-.4-.3-.8-.3h-1.2v2.3h1.2zm.1 4.7c.4 0 .8-.1 1-.4.2-.2.3-.6.3-1.1 0-.5-.1-.8-.3-1s-.5-.3-1-.3h-1.3v2.8h1.3zm2-3.8c.5.2.8.5 1.1 1 .3.5.4 1 .4 1.7 0 1-.3 1.8-.8 2.3-.6.5-1.4.8-2.5.8h-3.6v-10.7h3.3c1.2 0 2 .2 2.5.7.5.4.8 1.2.8 2.2 0 .5-.1 1-.3 1.3-.2.2-.5.5-.9.7zm3.4-5h3.6c1.1 0 1.9.3 2.5.9.6.6.9 1.5.9 2.6s-.3 2-.9 2.6c-.6.6-1.4.9-2.5.9h-1.4v3.7h-2.2v-10.7zm2.2 2v3h1.2c.4 0 .7-.1 1-.4.2-.3.3-.6.3-1.1s-.1-.8-.3-1.1c-.2-.3-.6-.4-1-.4h-1.2z" class="st0"/>
    </g>
  </g>
</svg>
