<svg xmlns="http://www.w3.org/2000/svg" viewBox="0 0 100 100">
  <g fill="none" fill-rule="evenodd">
    <path fill="#F40D12" d="M28.2 4.4 4.4 28.2a7.17 7.17 0 0 0-2.1 5.07v33.67A7.17 7.17 0 0 0 4.4 72l23.8 23.8a7.17 7.17 0 0 0 5.07 2.1h33.66A7.17 7.17 0 0 0 72 95.8L95.8 72a7.17 7.17 0 0 0 2.1-5.07V33.27a7.17 7.17 0 0 0-2.1-5.07L72 4.4a7.17 7.17 0 0 0-5.07-2.1H33.27a7.17 7.17 0 0 0-5.07 2.1z"/>
    <path fill="#FFF" d="M48.96 84.76c15.84 0 19.6-14.53 19.6-14.53l9.09-26.12s.82-2.7.67-2.74c-8.46-1.58-10.26 4.38-10.26 4.38S64.8 54.2 64.3 54.2s-.57-.62-.57-.62V23.22s.16-3.92-3.86-3.92-3.82 3.93-3.82 3.93v22.43s.06.9-.7.9c-.66 0-.63-.87-.63-.87V18.66s.25-4.4-3.81-4.4c-4.07 0-3.85 4.43-3.85 4.43l-.04 26.67s.05.82-.62.82c-.62 0-.6-.82-.6-.82V23.01s.23-4.55-3.92-4.55c-4.06 0-3.84 4.63-3.84 4.63L38 46.7s.07.7-.57.7c-.68 0-.66-.7-.66-.7l-.03-14.27s.04-3.94-3.38-3.94c-3.64 0-3.57 3.94-3.57 3.94v30.8c.02 0-.92 21.54 19.17 21.54z"/>
  </g>
</svg>
