<svg xmlns="http://www.w3.org/2000/svg" xml:space="preserve" version="1.1" viewBox="0 0 120 163.2">
  <style>
    .st0{fill:#ec1c24}
  </style>
  <path d="M78.8 44.1H34.9l-31 31V119l31 31h43.9l31-31V75.1l-31-31zm22.9 71.4-26.2 26.2H38.3l-26.2-26.2V78.4l26.2-26.2h37.1l26.2 26.2v37.1z" class="st0"/>
  <path id="AD_3_" d="m75.9 129.6 17.7-17.7V82L75.9 64.4H61v65.1l14.9.1zm-6.8-57.1h2.7L85.3 86v21.7l-13.5 13.5h-2.7V72.5zm-31.3-8.1L20.2 82v29.8l8.1 8.1v-21h16.3v30.5h8.1V64.3l-14.9.1zm6.9 8.1v18.3H28.4v-4.7l13.5-13.5 2.8-.1z" class="st0"/>
  <path id="UP_3_" d="M24.3 45.4v-4.1c0-8.8 8.8-17.7 19-17.7h27.2c10.1 0 19 8.8 19 17.7v4.1l8.1 8.1V41.3c0-12.9-12.9-25.8-27.2-25.8H43.3c-14.2 0-27.2 12.9-27.2 25.8v12.3l8.2-8.2z" class="st0"/>
</svg>
