<svg xmlns="http://www.w3.org/2000/svg" width="191.49" height="191.15" viewBox="0 0 179.52 179.2">
  <path fill="#f06a35" d="M20.51 178.5a28.3 28.3 0 0 1-8.93-4c-2.26-1.54-5.56-4.72-6.81-6.57a34.15 34.15 0 0 1-4.01-8.8C.03 156.4.02 155.31 0 89.74 0 24.5 0 23.06.72 20.26A27.04 27.04 0 0 1 21.25.55C24.17-.1 154.33-.21 157.47.43a26.78 26.78 0 0 1 19.07 14.56c3.08 6.14 2.8-.61 2.95 72.23.09 46.35 0 65.81-.3 68.24-1.38 11.34-9.2 20.14-20.46 23.01-2.88.74-3.89.75-69.28.73-63.23-.02-66.47-.05-68.94-.7z"/>
  <path fill="none" d="M-83 87.84v-171.9H937v343.8H-83V87.84z"/>
  <path fill="#fff" d="M115.16 144.83c8.07-1.1 14.39-4.33 20.32-10.38 4.28-4.39 6.97-9.13 8.72-15.42.73-2.62.8-3.9.93-19.25.1-11.58.01-17.01-.29-18.38-.44-1.99-1.68-3.83-3.09-4.6-.44-.24-3.22-.54-6.2-.67-4.98-.22-5.54-.32-7.11-1.24-2.5-1.46-3.18-3.04-3.19-7.33-.01-8.19-3.42-15.79-10.15-22.65a37.84 37.84 0 0 0-16.26-10.05c-1.46-.45-4.74-.6-15.7-.73-17.21-.2-21.03.15-26.89 2.49-10.8 4.3-18.56 13.36-21.39 24.99-.53 2.18-.63 5.68-.76 25.77-.16 25.18.02 28.88 1.6 33.87a29.99 29.99 0 0 0 5.3 10.23c5.15 6.83 12.86 11.77 20.58 13.16 3.67.66 48.94.83 53.58.2z"/>
  <path fill="#f06a35" d="M67.58 75.72c-4.13-1.14-5.67-7.05-2.64-10.11 1.94-1.96 2.47-2.03 14.6-2.03 10.88 0 11.25.02 12.84.83 2.32 1.16 3.32 2.81 3.32 5.43 0 2.37-.94 4.02-3.05 5.36-1.13.71-1.8.76-12.46.82-6.59.04-11.83-.09-12.61-.3zm-.52 39.8a6.94 6.94 0 0 1-3.7-4.8 7 7 0 0 1 2.03-5.56c1.75-1.6 2.53-1.65 24.13-1.66 22.23-.02 22.11-.03 24.22 1.94a6.12 6.12 0 0 1-1.24 9.76l-3.68.6-19.22.22c-16.88.2-21.66-.11-22.54-.5z"/>
</svg>
