<svg xmlns="http://www.w3.org/2000/svg" xml:space="preserve" width="500" height="133.41" baseProfile="tiny" version="1.2">
  <path fill="#2AA9E0" d="M243.94 25h-21.9l.04 40.95c0 11.97-5.13 21.66-17.1 21.66-11.97 0-17.15-9.69-17.15-21.66v-40.9H166v40.91c0 23.66 15.2 42.82 38.85 42.82 23.65 0 39.08-19.16 39.08-42.81V25zM441.31.04h21.78v106.62h-21.78zm37.86 2.02V.15h8.49v1.91h-3.1v8.44h-2.28V2.06h-3.11zM492.05.15l2.42 7.12h.03l2.3-7.12h3.2V10.5h-2.13V3.16h-.03l-2.54 7.34h-1.76l-2.53-7.27h-.03v7.27h-2.13V.15h3.2zM148.2 24.1c-18.78-4.32-30.63 14.33-31.12 15.33-.24.49-.25.78-1.08.75-.69-.01-.77-.75-.77-.75l-2.33-14.27H93.4v81.43h21.86V62.51c0-3.6 9.7-20.87 28.5-16.42 9.5 2.25 13.53 6.28 13.53 6.28v-24.8a34.86 34.86 0 0 0-9.1-3.46zm125.42 109.31V93.14s.04-.87.83-.88c.7-.01.87.46 1.04.88 1.66 4.13 10.78 19.85 31.02 14.92a43.13 43.13 0 0 0-11.71-84.61 43.11 43.11 0 0 0-43.12 43.11v66.85h21.94zm21.2-88.67a21.82 21.82 0 1 1 0 43.65 21.82 21.82 0 0 1 0-43.65z"/>
  <path fill="#2AA9E0" d="M410.54 106.63h21.93V66.56a43.11 43.11 0 1 0-54.82 41.5C397.89 113 407 97.27 408.67 93.15c.17-.43.32-.9 1.03-.9.8.02.83.9.83.9m.63-26.59a21.83 21.83 0 1 1-43.65 0 21.83 21.83 0 0 1 43.65 0zm-386.28 39.9H0V0h26.7c32.32 0 56.84 5.93 56.84 53.23 0 46.84-25.97 53.23-58.66 53.23zm5.94-88h-8.8v69.53l9.04.23c18.52 0 30.45-1.69 30.45-35 0-31.93-10.53-34.77-30.7-34.77z"/>
</svg>
