<svg xmlns="http://www.w3.org/2000/svg" width="256" height="255" preserveAspectRatio="xMidYMid">
  <defs>
    <linearGradient id="a" x1="71%" x2="0%" y1="100%" y2="100%">
      <stop offset="0%" stop-color="#394A9F"/>
      <stop offset="100%" stop-color="#6176B9"/>
    </linearGradient>
  </defs>
  <path fill="#DE5833" d="M128.15 18.84c60 0 108.64 48.64 108.64 108.64s-48.64 108.65-108.64 108.65S19.5 187.49 19.5 127.48c0-60 48.64-108.64 108.65-108.64"/>
  <path fill="#DE5833" d="M128.14 254.92c70.39 0 127.44-57.05 127.44-127.44C255.58 57.1 198.53.04 128.14.04 57.76.04.7 57.1.7 127.48c0 70.39 57.06 127.44 127.44 127.44Zm0-10.62c-64.51 0-116.82-52.3-116.82-116.82S63.62 10.66 128.14 10.66s116.82 52.3 116.82 116.82-52.3 116.82-116.82 116.82Z"/>
  <path fill="#D5D7D8" d="M75.22 54.13c-.02-1.83 1.3-2.85 3.07-3.57a9.2 9.2 0 0 0-2.28.65c-1.84.83-3.21 3.99-3.2 5.48 8.93-.9 22.12-.28 31.77 2.6.71-.1 1.42-.2 2.15-.28-9.63-4.27-21.07-5.92-31.51-4.88m1.83-10.98.6-.1c-1.92.24-2.94.93-4.38 1.17 1.57.14 7.51 2.91 11.25 4.44.52-.2 1-.42 1.38-.68-1.94-.29-6.75-4.64-8.85-4.83m9.28 21.61c-.54.2-1.05.42-1.49.65-14.54 7.66-20.97 25.56-17.14 47 3.5 19.53 17.82 86.21 24.38 117.58 1.92.67 3.85 1.3 5.82 1.86-5.84-28.24-21.79-102.24-25.5-123.02-3.78-21.14-.11-36.31 13.93-44.07"/>
  <path fill="#FFF" d="M145.18 218.62c-.24.16-.52.3-.83.45-.22.88-.57 1.54-1.07 1.88-3 2-11.49 3-15.97 2a4.07 4.07 0 0 1-1.81-.85c-7.65 4.25-18.65 9.9-20.88 8.63-3.5-2-4-28.46-3.5-34.95.38-4.9 17.59 3.04 25.96 7.2 1.85-1.73 6.39-2.88 10.4-3.28-6.06-14.76-10.54-31.64-7.8-43.61-3.79-2.65-8.8-8.77-7.76-15.16.8-4.87 13.38-14.08 22.28-14.63 8.92-.56 11.7-.44 19.14-2.22l1.2-.29c4.58-16.08-6.4-44.07-18.63-56.32-4-3.99-10.13-6.5-17.04-7.83-2.66-3.65-6.95-7.13-13.03-10.37a61.28 61.28 0 0 0-38.19-6.22l-.6.1c2.1.2 6.91 4.54 8.85 4.83-.38.26-.86.48-1.38.68-1.82.7-4.29 1.11-6.23 1.9-1.77.72-3.1 1.74-3.07 3.57 10.44-1.05 21.88.6 31.5 4.88-.72.08-1.43.18-2.14.28-6.83.96-13.1 2.73-17.63 5.12l-.62.35c-14.04 7.76-17.7 22.93-13.94 44.07C76.11 129.61 92.16 204.76 98 233c9.6 2.78 18.58 5 29.08 5 8.91 0 19.63-1.98 27.92-4-2.91-5.61-6.66-11.82-8.96-16.27-.31.37-.55.69-.86.89Zm5.88-106.56a6.92 6.92 0 1 1 .02-13.84 6.92 6.92 0 0 1-.02 13.84Zm4.16-26.01s-4.36-2.49-7.74-2.45c-6.95.1-8.84 3.16-8.84 3.16s1.17-7.32 10.05-5.85c4.82.8 6.53 5.14 6.53 5.14Zm-73.26 9s-3.13-6.98 5.21-10.4c8.35-3.41 12.42 1.95 12.42 1.95s-6.07-2.74-11.96.96c-5.88 3.7-5.67 7.49-5.67 7.49Zm7.3 14.86a8.04 8.04 0 1 1 16.07-.01 8.04 8.04 0 0 1-16.08 0Z"/>
  <path fill="#2D4F8E" d="M105.34 109.9a8.04 8.04 0 1 0-16.08 0 8.04 8.04 0 0 0 16.08 0Zm-4.48-.58a2.09 2.09 0 1 1 .02-4.18 2.09 2.09 0 0 1-.02 4.18Z"/>
  <path fill="#FFF" d="M100.86 105.14a2.08 2.08 0 1 0 .01 4.17 2.08 2.08 0 0 0 0-4.17"/>
  <path fill="#2D4F8E" d="M151.06 98.23a6.91 6.91 0 1 0 .01 13.83 6.91 6.91 0 0 0-.01-13.83Zm3.06 6.4a1.8 1.8 0 0 1 0-3.58c1.02 0 1.8.8 1.8 1.79 0 1-.78 1.79-1.8 1.79Z"/>
  <path fill="#FFF" d="M154.12 101.05a1.8 1.8 0 0 0 0 3.58c1.02 0 1.8-.8 1.8-1.8 0-.97-.78-1.78-1.8-1.78"/>
  <path fill="url(#a)" d="M33.59 44.6s-4.07-5.36-12.42-1.94c-8.34 3.41-5.2 10.39-5.2 10.39s-.22-3.79 5.66-7.49c5.9-3.7 11.96-.96 11.96-.96m49.11-5.69c-8.9-1.46-10.06 5.85-10.06 5.85s1.9-3.07 8.84-3.16c3.38-.04 7.74 2.45 7.74 2.45s-1.71-4.34-6.53-5.14" transform="translate(66 42)"/>
  <path fill="#FDD209" d="M144.2 126.3c-8.9.56-21.48 9.76-22.28 14.63-1.05 6.39 3.97 12.51 7.76 15.16l.03.02c3.8 2.63 29.02 11.15 41.54 10.91 12.53-.24 33.11-7.92 30.85-14.07-2.25-6.15-22.69 5.43-44 3.45-15.8-1.46-18.58-8.54-15.09-13.7 4.4-6.5 12.41 1.23 25.62-2.72 13.23-3.94 31.73-11 38.6-14.84 15.87-8.85-6.64-12.52-11.96-10.07-5.04 2.33-22.59 6.76-30.72 8.72l-1.21.3c-7.44 1.77-10.22 1.65-19.14 2.2"/>
  <path fill="#65BC46" d="M124.32 206.97c0-.92.74-1.74 1.91-2.43a2.4 2.4 0 0 1 .85-1.56c-8.37-4.16-25.58-12.1-25.95-7.2-.51 6.5 0 32.94 3.49 34.94 2.23 1.28 13.23-4.38 20.88-8.62-2.2-1.88-1.18-6.45-1.18-15.13m21.61 10.72.1.04c6.86 2.64 20.5 7.62 23.47 6.54 4-1.53 3-33.46-1.5-34.47-3.58-.8-17.34 8.89-22.75 12.83.96 4.05 2.12 12.05.68 15.06"/>
  <path fill="#43A244" d="M129.21 220.61c-4.5-1-2.99-5.5-2.99-15.97l.01-.1c-1.17.7-1.91 1.5-1.91 2.43 0 8.68-1.03 13.25 1.18 15.13.45.39 1.04.67 1.81.84 4.48 1 12.97 0 15.97-2 .5-.33.85-.99 1.07-1.87-3.51 1.69-11.02 2.48-15.14 1.54"/>
  <path fill="#65BC46" d="M127.08 202.98c-.51.48-.81 1-.85 1.56v.1c0 10.48-1.51 14.98 2.98 15.97 4.12.94 11.63.15 15.14-1.54.3-.14.6-.3.83-.45.3-.2.55-.52.75-.93 1.44-3.01.28-11.01-.68-15.06-.2-.88-.4-1.58-.57-2-.41-1.02-3.6-1.28-7.2-.93-4.01.4-8.55 1.55-10.4 3.28"/>
</svg>
