<svg xmlns="http://www.w3.org/2000/svg" width="106" height="31">
  <g fill="none">
    <path fill="#33475B" d="M11.48 4.97v8.48H3.69V4.97H0v20.24h3.7V17h7.78v8.2h3.7V4.97zM27 18.67a3.06 3.06 0 1 1-6.11 0V10h-3.5v8.67a6.56 6.56 0 0 0 13.1 0V10H27v8.67zm25.97-7.78c0-1.77 1.18-2.34 2.47-2.34 1.03 0 2.4.8 3.3 1.75l2.3-2.7a7.23 7.23 0 0 0-5.38-2.63c-3.8 0-6.55 2.23-6.55 5.92 0 6.85 8.37 4.68 8.37 8.51 0 1.19-1.15 2.23-2.46 2.23-2.07 0-2.75-1.01-3.7-2.09l-2.55 2.65a7.52 7.52 0 0 0 6.05 3.02c3.61 0 6.52-2.26 6.52-5.78 0-7.6-8.37-5.24-8.37-8.54m51.8 11.08c-2.07 0-2.66-.9-2.66-2.26v-6.08h3.22v-3.08h-3.22V6.5l-3.56 1.6v12.37c0 3.17 2.19 4.76 5.18 4.76.47 0 .94-.03 1.4-.11l.87-3.2c-.4.03-.84.06-1.23.06M40.34 10.1a5.4 5.4 0 0 0-4.12 1.65V5.1h-3.5v12.35c0 4.62 3.33 7.78 7.09 7.78 4.16 0 7.82-3.22 7.82-7.56a7.43 7.43 0 0 0-7.29-7.56m-.02 11.6a3.98 3.98 0 1 1 0-7.98 3.98 3.98 0 0 1 0 7.97m38.14-4.21c0-4.35-3.65-7.56-7.82-7.56-3.76 0-7.1 3.16-7.1 7.79v12.35h3.51V23.4a5.39 5.39 0 0 0 4.12 1.65c3.92 0 7.3-3.28 7.3-7.56m-3.33-.04a3.98 3.98 0 1 1-7.97 0 3.98 3.98 0 0 1 7.97 0"/>
    <path fill="#FF7A59" d="M89.8 9.75V6.22a2.72 2.72 0 0 0 1.57-2.44v-.09A2.7 2.7 0 0 0 88.66.98h-.08a2.72 2.72 0 0 0-2.72 2.71v.09a2.72 2.72 0 0 0 1.57 2.44v3.53a7.7 7.7 0 0 0-3.66 1.61L74.1 3.83c.06-.25.1-.5.1-.77a3.06 3.06 0 1 0-3.06 3.06 3.03 3.03 0 0 0 1.5-.41l9.53 7.41a7.71 7.71 0 0 0 .12 8.69l-2.9 2.9a2.49 2.49 0 0 0-.72-.12 2.51 2.51 0 1 0 2.51 2.52 2.48 2.48 0 0 0-.11-.73l2.86-2.87a7.73 7.73 0 1 0 5.88-13.76m-1.2 11.6a3.96 3.96 0 1 1 0-7.93 3.96 3.96 0 0 1 .01 7.93"/>
  </g>
</svg>
