<svg xmlns="http://www.w3.org/2000/svg" xml:space="preserve" viewBox="0 0 80 80">
  <path d="m13.5 37.8-1.4-1.4c-4.5-4.5-5.8-10.8-4.2-16.5A10.03 10.03 0 0 1 10.1.1c5 0 9.1 3.6 9.9 8.4 5.4-1.3 11.3.2 15.5 4.4l.6.6-7.4 7.4-.6-.6a6.16 6.16 0 0 0-8.7 8.7L36 45.6 28.6 53l-7.8-7.8-7.3-7.4z" style="fill:#7ac143"/>
  <path d="M21.8 29.6 38.4 13c4.4-4.4 10.8-5.8 16.4-4.2.7-4.9 4.9-8.6 9.9-8.6 5.5 0 10 4.5 10 10 0 5.1-3.8 9.3-8.7 9.9 1.6 5.6.2 11.9-4.2 16.3l-.6.6-7.2-7.4.6-.6a6.16 6.16 0 0 0-8.7-8.7L29.3 37l-7.5-7.4z" style="fill:#f9a541"/>
  <path d="M55.1 67c-5.7 1.7-12.1.4-16.6-4.1l-.6-.6 7.4-7.4.6.6a6.16 6.16 0 0 0 8.7-8.7L38 30.2l7.4-7.4 16.7 16.7c4.2 4.2 5.7 10.2 4.4 15.7 4.9.7 8.6 4.9 8.6 9.9 0 5.5-4.5 10-10 10-5-.1-9.1-3.6-10-8.1z" style="fill:#f44321"/>
  <path d="M52.2 46.2 35.6 62.8c-4.3 4.3-10.3 5.7-15.7 4.4A10.03 10.03 0 0 1 .1 65c0-4.7 3.3-8.7 7.7-9.7-1.4-5.6 0-11.6 4.3-15.9l.6-.6 7.4 7.4-.6.6a6.16 6.16 0 0 0 8.7 8.7l16.6-16.6 7.4 7.3z" style="fill:#5091cd"/>
</svg>
