<svg xmlns="http://www.w3.org/2000/svg" viewBox="0 0 75.59 75.59">
  <linearGradient id="a" x2="1" gradientTransform="rotate(-90 51.65 27.47) scale(54.944)" gradientUnits="userSpaceOnUse">
    <stop offset="0" stop-color="#ff1b2d"/>
    <stop offset=".3" stop-color="#ff1b2d"/>
    <stop offset=".61" stop-color="#ff1b2d"/>
    <stop offset="1" stop-color="#a70014"/>
  </linearGradient>
  <linearGradient id="b" x2="1" gradientTransform="matrix(0 -48.595 -48.595 0 37.85 76.23)" gradientUnits="userSpaceOnUse">
    <stop offset="0" stop-color="#9c0000"/>
    <stop offset=".7" stop-color="#ff4b4b"/>
    <stop offset="1" stop-color="#ff4b4b"/>
  </linearGradient>
  <path fill="url(#a)" d="M28.35 80.4a28.35 28.35 0 1 1 18.89-49.48 20.45 20.45 0 0 0-11.36-3.47c-6.75 0-12.8 3.35-16.86 8.63-3.14 3.7-5.17 9.17-5.3 15.3v1.34c.13 6.14 2.16 11.6 5.3 15.3 4.06 5.29 10.1 8.64 16.86 8.64 4.15 0 8.04-1.27 11.36-3.48a28.24 28.24 0 0 1-18.79 7.22h-.1z" transform="matrix(1.3333 0 0 -1.3333 0 107.2)"/>
  <path fill="url(#b)" d="M19.02 68.03c2.6 3.07 5.96 4.92 9.63 4.92 8.25 0 14.94-9.36 14.94-20.9s-6.7-20.9-14.94-20.9c-3.67 0-7.03 1.85-9.63 4.93 4.06-5.29 10.1-8.63 16.86-8.63a20.4 20.4 0 0 1 11.36 3.47 28.28 28.28 0 0 1 9.45 21.13c0 8.4-3.65 15.94-9.45 21.13a20.45 20.45 0 0 1-11.36 3.47c-6.75 0-12.8-3.34-16.86-8.63" transform="matrix(1.3333 0 0 -1.3333 0 107.2)"/>
</svg>
