<?xml version="1.0" encoding="utf-8"?>
<svg version="1.1" id="Warstwa_1" xmlns="http://www.w3.org/2000/svg" xmlns:xlink="http://www.w3.org/1999/xlink" x="0px" y="0px"
	 viewBox="0 0 722 722" style="enable-background:new 0 0 722 722;" xml:space="preserve">
<style type="text/css">
	.st0{fill-rule:evenodd;clip-rule:evenodd;fill:#6082BB;}
	.st1{fill:#FFFFFF;}
</style>
<rect id="rect4138" x="0.2" y="0" class="st0" width="722" height="722"/>
<path id="path3486" class="st1" d="M188.8,404.4c16.3,0,28.5-3.4,36.2-10c7.6-6.6,12.9-18,15.6-33.9c2.6-14.9,1.6-25.2-2.9-30.8
	c-4.6-5.7-14.6-8.6-29.6-8.6h-26l-14.4,83.4H188.8z M103.6,507c-1.2,0-2.4-0.6-3.1-1.7c-0.8-1-1.1-2.4-0.9-3.8l38.3-220.9
	c0.4-2.1,2-3.7,4-3.7h82.5c25.9,0,45.2,7.9,57.3,23.5c12.2,15.7,16,37.5,11.2,65.1c-1.9,11.2-5.3,21.6-9.9,30.9
	c-4.6,9.3-10.8,18-18.3,25.7c-8.9,9.4-19.1,16.2-30,20.2c-10.8,4-24.7,6-41.3,6H160l-9.5,55.1c-0.4,2.1-2,3.7-4,3.7L103.6,507
	L103.6,507z"/>
<path id="path3494" class="st1" d="M407.2,457.4c-1.3,0-2.6-0.6-3.4-1.7c-0.8-1.1-1.2-2.4-0.9-3.8l18.5-98.1
	c1.8-9.3,1.3-16-1.2-18.8c-1.6-1.7-6.2-4.6-20.1-4.6h-33.6l-23.3,123.3c-0.4,2.1-2.2,3.7-4.4,3.7h-46.6c-1.3,0-2.6-0.6-3.4-1.7
	c-0.8-1.1-1.2-2.4-0.9-3.8l41.9-221.6c0.4-2.1,2.2-3.7,4.4-3.7h46.6c1.3,0,2.6,0.6,3.4,1.7c0.8,1.1,1.2,2.4,0.9,3.8L375,285.5h36.1
	c27.5,0,46.1,5,57,15.2c11.1,10.5,14.5,27.2,10.3,49.8l-19.5,103.1c-0.4,2.1-2.2,3.7-4.4,3.7H407.2L407.2,457.4z"/>
<path id="path3486_1_" class="st1" d="M554.8,404.4c16.3,0,28.5-3.4,36.2-10c7.6-6.6,12.9-18,15.6-33.9c2.6-14.9,1.6-25.2-2.9-30.8
	c-4.6-5.7-14.6-8.6-29.6-8.6h-26l-14.4,83.4H554.8z M469.6,507c-1.2,0-2.4-0.6-3.1-1.7c-0.8-1-1.1-2.4-0.9-3.8l38.3-220.9
	c0.4-2.1,2-3.7,4-3.7h82.5c25.9,0,45.2,7.9,57.3,23.5c12.2,15.7,16,37.5,11.2,65.1c-1.9,11.2-5.3,21.6-9.9,30.9
	c-4.6,9.3-10.8,18-18.3,25.7c-8.9,9.4-19.1,16.2-30,20.2c-10.8,4-24.7,6-41.3,6H526l-9.5,55.1c-0.4,2.1-2,3.7-4,3.7L469.6,507
	L469.6,507z"/>
</svg>
