<svg xmlns="http://www.w3.org/2000/svg" width="215" height="61" fill="none" viewBox="0 0 61 61">
  <path fill="#95BF47" d="M46.38 11.55a.58.58 0 0 0-.53-.49l-4.49-.08-3.92-3.82c-.36-.35-1.05-.25-1.31-.17l-1.8.56c-.19-.61-.46-1.36-.86-2.11C32.2 3 30.34 1.73 28.1 1.72h-.01c-.16 0-.31.02-.47.03A4.72 4.72 0 0 0 23.66 0c-2.9.09-5.8 2.19-8.14 5.91a23.4 23.4 0 0 0-3.27 8.47l-5.72 1.78c-1.69.53-1.74.58-1.96 2.17L0 53.6 36.94 60l16-3.98-6.56-44.47Zm-13.9-3.43-2.87.89a16 16 0 0 0-.88-5.29c2.2.42 3.3 2.91 3.75 4.4Zm-4.8 1.49-6.16 1.9c.6-2.28 1.72-4.55 3.11-6.04a6.22 6.22 0 0 1 2.1-1.52c.8 1.68.97 4.05.95 5.66Zm-3.96-7.67c.68-.02 1.26.13 1.75.45-.79.41-1.54 1-2.26 1.76a16.96 16.96 0 0 0-3.82 8.02l-5.07 1.57c1-4.67 4.92-11.67 9.4-11.8Z"/>
  <path fill="#5E8E3E" d="M45.85 11.07c-.22-.02-4.49-.09-4.49-.09l-3.92-3.82a.87.87 0 0 0-.5-.23V60l16.01-3.98-6.57-44.46a.58.58 0 0 0-.53-.5Z"/>
  <path fill="#fff" d="m28.07 19.3-1.86 6.95s-2.08-.94-4.54-.79c-3.6.23-3.64 2.5-3.6 3.08.2 3.1 8.38 3.79 8.84 11.08.36 5.73-3.04 9.65-7.95 9.96-5.88.37-9.12-3.1-9.12-3.1l1.25-5.3s3.26 2.46 5.87 2.3A2.3 2.3 0 0 0 19.2 41c-.26-4.06-6.92-3.82-7.34-10.49-.36-5.61 3.33-11.3 11.46-11.81 3.13-.2 4.74.6 4.74.6Z"/>
</svg>
