<svg xmlns="http://www.w3.org/2000/svg" width="203.72" height="203.56">
  <path d="M-129.97 340.07c-1.5.44-2.7.6-4.26.6-12.84 0-31.7-44.87-31.7-59.8 0-5.5 1.3-7.34 3.14-8.91-15.72 1.83-34.58 7.6-40.6 14.93-1.32 1.83-2.1 4.71-2.1 8.38 0 23.32 24.89 76.23 42.44 76.23 8.12 0 21.82-13.36 33.08-31.43m-8.19-69.69c16.24 0 32.48 2.62 32.48 11.8 0 18.6-11.79 41.12-17.81 41.12-10.74 0-24.1-29.86-24.1-44.8 0-6.8 2.62-8.12 9.43-8.12" style="fill:#ff8700;fill-opacity:1;fill-rule:nonzero;stroke:none" transform="translate(258 -219.16)"/>
</svg>
