<svg xmlns="http://www.w3.org/2000/svg" width="64" height="64">
  <path fill="#f9c638" d="M56.78 6.37h-2.86c-2.27 0-4.36 1.72-5.95 3.1a32.47 32.47 0 0 0-4.17 4.56 25.75 25.75 0 0 0-1.68-3.6 6.69 6.69 0 0 0-4.2-3.52c-.95-.13-1.9-.16-2.85-.1h-6.14c-.95-.06-1.9-.03-2.84.1a6.69 6.69 0 0 0-4.21 3.52 25.62 25.62 0 0 0-1.68 3.6 32.49 32.49 0 0 0-4.17-4.56c-1.6-1.38-3.68-3.1-5.95-3.1H3.12c-.99 0-3.19-.25-2.66 1.37.12.39.57.74.82 1.07l.82 1.15 1.15 1.94 2.55 4.82a70.2 70.2 0 0 0 6.57 10.04c1.87 2.3 4.12 4.63 6.9 5.77l-6.3 11.74-5.55 10.08-.27.49a4.1 4.1 0 0 0-.61 1.68c0 1.08 1.6 1.11 2.37 1.12l2.49-.03 4.32-.05c.85 0 1.72.03 2.57-.05a7.51 7.51 0 0 0 5.4-3.06c.42-.58 4.3-6.93 5.86-9.5.6-.97 2.45-3.87 2.45-3.87l2.45 3.88 5.85 9.49a7.51 7.51 0 0 0 5.41 3.06c.85.08 1.72.04 2.57.05l4.32.05 2.49.03c.76 0 2.37-.04 2.37-1.12a4.05 4.05 0 0 0-.6-1.68l-.28-.49a392.8 392.8 0 0 1-5.55-10.08l-6.3-11.74c2.8-1.14 5.04-3.47 6.9-5.77a70.13 70.13 0 0 0 6.58-10.04c.89-1.58 1.64-3.25 2.54-4.83.37-.65.75-1.3 1.15-1.94a13.9 13.9 0 0 1 .82-1.15 4.34 4.34 0 0 0 .83-1.07c.52-1.61-1.68-1.35-2.67-1.36h-4.1z"/>
  <path fill="#2a2d2c" d="m36.73 15.37.44-.07a4.14 4.14 0 0 0 .59-.17 3.45 3.45 0 0 0 1.08-.62 1.31 1.31 0 0 0 .36-.38c-1.27.02-2.21.02-2.83-.03-.17-.03-.3.41-.38 1.3 0 .06.4.02.74-.03m-3.47 6.19zm-2.7 0zm-.21-.3c-.02.02-.03.05-.02.07s.01.06.03.08a1.45 1.45 0 0 0 .2.14 2.38 2.38 0 0 0 1.35.4 2.35 2.35 0 0 0 1.35-.4.95.95 0 0 0 .2-.15c.05-.04.07-.1.04-.14a.12.12 0 0 0-.17 0 2.16 2.16 0 0 1-.18.13 2.31 2.31 0 0 1-2.49 0 1.9 1.9 0 0 1-.17-.13.1.1 0 0 0-.07-.03l-.07.04zm5.55-.84a.11.11 0 0 1-.01-.03l.01.03zm2.98-3.53a1.75 1.75 0 0 0-.49-.63 1.52 1.52 0 0 0-1.91.08 2.56 2.56 0 0 0-.54.82 4.98 4.98 0 0 0-.47 2.22 1.52 1.52 0 0 0 .38.94 2 2 0 0 0 1.1.51c.41.12.85.1 1.24-.05a1.79 1.79 0 0 0 .73-1.2 4.96 4.96 0 0 0 .23-1.73 2.86 2.86 0 0 0-.27-.96z"/>
  <path fill="#fff" d="M37.47 18.3a3.63 3.63 0 0 1 .61-.17c-.45.03-.68-.15-.72-.54l-.09-.82c.02.35-.05.7-.2 1.03a.59.59 0 0 1-.21.22l-.27.08a1.22 1.22 0 0 1-.3.07c.5-.04.75.08.8.35l.13.78c.01-.6.1-.94.24-1m.6 1.22-.05-.51a1.53 1.53 0 0 1-.11.64.43.43 0 0 1-.14.14l-.16.04a.91.91 0 0 1-.2.05c.3-.03.47.05.5.21l.1.48c0-.38.04-.58.14-.61a1.73 1.73 0 0 1 .38-.11c-.28.02-.43-.1-.45-.34"/>
  <path fill="#2a2d2c" d="M27.8 15.4c-.08-.89-.2-1.33-.37-1.3-.63.05-1.57.05-2.83.03.09.15.21.28.35.38.32.27.69.48 1.08.62a4.33 4.33 0 0 0 .6.17l.43.07c.34.05.75.1.74.03m.1 5.02.02-.03-.01.03zm-3.25-2.57a4.89 4.89 0 0 0 .24 1.74c.07.47.33.9.72 1.2.4.15.83.17 1.24.05a2.01 2.01 0 0 0 1.1-.5 1.53 1.53 0 0 0 .38-.95 4.95 4.95 0 0 0-.46-2.23 2.5 2.5 0 0 0-.54-.81 1.51 1.51 0 0 0-1.92-.08 1.71 1.71 0 0 0-.48.63 2.78 2.78 0 0 0-.28.96z"/>
  <path fill="#fff" d="M26.33 18.3c-.2-.08-.4-.13-.62-.17.45.03.69-.15.73-.54l.08-.82a2.22 2.22 0 0 0 .2 1.03.6.6 0 0 0 .21.22l.27.08a1.21 1.21 0 0 0 .31.07c-.5-.04-.76.08-.8.35l-.14.78c0-.6-.1-.94-.24-1m-.6 1.22.05-.51a1.54 1.54 0 0 0 .11.64.44.44 0 0 0 .14.14l.16.04a.97.97 0 0 0 .2.05c-.3-.03-.47.05-.5.21l-.09.48c0-.38-.05-.58-.15-.61a1.75 1.75 0 0 0-.37-.11c.27.02.42-.1.45-.34M7.33 54.95l-.4.8c-.11.24-.18.5-.2.78a.63.63 0 0 0 .2.48 1.35 1.35 0 0 0 .56.28 5.63 5.63 0 0 0 1.41.15h.26l6.55-.08h.98l1.57-.05a7.29 7.29 0 0 0 5.25-2.98c.1-.12.42-.64.86-1.35L26 50.34l3.36-5.5 2.45-3.87c.04-.06.1-.1.18-.1s.14.03.18.1c0 0 1.85 2.9 2.45 3.88l4.98 8.12.86 1.36a7.28 7.28 0 0 0 5.26 2.97c.51.05 1.04.05 1.57.05h.98l4.32.05 2.23.03h.25a6.9 6.9 0 0 0 1.06-.07 1.74 1.74 0 0 0 .9-.36.63.63 0 0 0 .2-.48 2.22 2.22 0 0 0-.19-.79c-.11-.27-.26-.55-.39-.8l-.27-.47a378.3 378.3 0 0 1-5.55-10.1l-6.3-11.74a.21.21 0 0 1 0-.18.21.21 0 0 1 .11-.12c2.73-1.12 4.96-3.42 6.82-5.7a69.77 69.77 0 0 0 6.55-10.02c.67-1.2 1.27-2.46 1.92-3.7a24.38 24.38 0 0 1-5.4 5.81c-3.1 2.5-8.36 4.96-15.73 7.37q-10.65 3.49-15.68 8.12l-3.36 2.99c-.15.15-.86.89-2.1 2.26a69.66 69.66 0 0 0-4.75 6.06l-1.63 2.3-3.68 6.63-.27.48"/>
  <path fill="#2a2d2c" d="M63.19 7.62c-.07.16-.17.3-.29.42l-.47.53c-.3.39-.59.78-.85 1.19l-1.16 1.95-2.54 4.82a70.46 70.46 0 0 1-6.53 10c-1.85 2.28-4.07 4.55-6.76 5.65-.1.04-.17.12-.2.22s-.04.21.01.3q3.16 5.87 6.3 11.75l5.55 10.09.27.47c.13.24.28.5.39.78a2.02 2.02 0 0 1 .18.72v.01a.46.46 0 0 1-.15.36 1.61 1.61 0 0 1-.82.32c-.34.04-.69.07-1.03.06h-.28l-2.2-.02-4.32-.05h-1c-.51 0-1.03-.01-1.53-.06a7.13 7.13 0 0 1-5.14-2.9 13.37 13.37 0 0 1-.3-.45c-1.03-1.63-4.16-6.78-5.53-9.02a369 369 0 0 0-2.46-3.88.38.38 0 0 0-.63 0s-1.85 2.9-2.45 3.88l-3.36 5.5-1.63 2.62-.56.9a13.77 13.77 0 0 1-.29.45 7.13 7.13 0 0 1-5.14 2.9 16.18 16.18 0 0 1-1.54.05h-.99l-4.32.06-2.2.02h-.28c-.46.01-.92-.03-1.37-.14a1.15 1.15 0 0 1-.48-.24.46.46 0 0 1-.15-.36 2 2 0 0 1 .19-.73c.1-.27.25-.54.38-.78l.27-.47a410.8 410.8 0 0 0 5.55-10.1l6.3-11.73a.37.37 0 0 0-.2-.53c-2.68-1.1-4.9-3.37-6.75-5.66a69.82 69.82 0 0 1-6.53-9.99c-.88-1.56-1.63-3.23-2.54-4.83-.37-.65-.76-1.3-1.16-1.95a14.19 14.19 0 0 0-.85-1.18c-.15-.2-.33-.36-.47-.53a1.28 1.28 0 0 1-.29-.42 1.08 1.08 0 0 1-.06-.33.36.36 0 0 1 .08-.25.93.93 0 0 1 .52-.23c.3-.06.6-.08.9-.07h7.83a5.97 5.97 0 0 1 3.04.98c.94.6 1.83 1.28 2.67 2.03a31.9 31.9 0 0 1 4.1 4.52.37.37 0 0 0 .66-.1 25.42 25.42 0 0 1 1.65-3.56v-.01c.78-1.52 2.33-3 3.96-3.32a6.72 6.72 0 0 1 1.36-.12l1.4.03h6.15l1.42-.03a6.69 6.69 0 0 1 1.35.12c1.64.33 3.19 1.8 3.96 3.32v.01a25.37 25.37 0 0 1 1.66 3.55.38.38 0 0 0 .65.1 32.06 32.06 0 0 1 4.1-4.5 20.2 20.2 0 0 1 2.68-2.04 5.97 5.97 0 0 1 3.02-.98h2.88l4.09.01h.03l.84-.01c.38-.02.77.03 1.14.13a.66.66 0 0 1 .28.17c.06.07.09.16.08.25 0 .11-.02.22-.06.33zm.55-1.07a1.63 1.63 0 0 0-.94-.48A5.35 5.35 0 0 0 61.74 6H53.9a6.7 6.7 0 0 0-3.42 1.1 20.98 20.98 0 0 0-2.77 2.1 30.34 30.34 0 0 0-3.8 4.1 27 27 0 0 0-1.47-3.04A7.05 7.05 0 0 0 38 6.54c-.5-.1-1-.14-1.51-.13l-1.4.02h-6.16l-1.4-.02a8.5 8.5 0 0 0-1.52.13 7.05 7.05 0 0 0-4.47 3.72 27.31 27.31 0 0 0-1.46 3.04 30.22 30.22 0 0 0-3.8-4.12 20.65 20.65 0 0 0-2.77-2.1 6.81 6.81 0 0 0-3.42-1.1H7.22L3.12 6H3.1l-.84-.01a4.3 4.3 0 0 0-1.4.17 1.4 1.4 0 0 0-.6.4c-.17.2-.26.46-.26.73 0 .2.04.38.1.56.1.26.25.5.44.7.17.2.34.35.44.48a13.21 13.21 0 0 1 .8 1.12 49.67 49.67 0 0 1 1.15 1.93c.88 1.56 1.64 3.22 2.53 4.83A70.6 70.6 0 0 0 12.06 27c1.8 2.22 3.98 4.47 6.69 5.7l-6.1 11.4-5.82 10.57c-.13.23-.28.52-.42.84a2.7 2.7 0 0 0-.23 1v.02a1.22 1.22 0 0 0 .38.9 2.3 2.3 0 0 0 1.22.51c.38.06.76.08 1.14.08h.29l6.53-.08h.98c.53 0 1.07 0 1.6-.06a7.88 7.88 0 0 0 5.69-3.2l.32-.5c1.04-1.64 4.18-6.78 5.55-9.02l1.44-2.3.68-1.08.68 1.08 1.45 2.3 3.36 5.49 1.62 2.63.57.9.31.49a7.89 7.89 0 0 0 5.68 3.21c.54.05 1.08.06 1.61.06h.98l6.53.08h.29a6.04 6.04 0 0 0 1.57-.17 1.88 1.88 0 0 0 .8-.42 1.21 1.21 0 0 0 .38-.9v-.01a2.7 2.7 0 0 0-.24-1.01c-.13-.32-.3-.61-.42-.85l-.28-.49a424.1 424.1 0 0 1-5.54-10.07l-6.1-11.4c2.71-1.23 4.88-3.49 6.68-5.7a70.65 70.65 0 0 0 6.61-10.1c.9-1.6 1.65-3.27 2.54-4.82.36-.65.75-1.3 1.14-1.93.23-.38.51-.75.8-1.12.1-.13.27-.3.44-.48.2-.2.35-.44.44-.7a1.84 1.84 0 0 0 .1-.56 1.1 1.1 0 0 0-.26-.74z"/>
</svg>
