<svg xmlns="http://www.w3.org/2000/svg" preserveAspectRatio="xMidYMid" viewBox="0 0 256 153">
  <path fill="#7f54b3" d="M23.76 0h208.38A23.85 23.85 0 0 1 256 23.86v79.55a23.85 23.85 0 0 1-23.86 23.86H157.4l10.26 25.12-45.11-25.12h-98.7A23.85 23.85 0 0 1 0 103.4V23.86A23.76 23.76 0 0 1 23.76 0z"/>
  <path fill="#fff" d="M14.58 21.75c1.45-1.98 3.64-3.02 6.55-3.23 5.31-.41 8.33 2.09 9.06 7.5 3.22 21.75 6.76 40.17 10.5 55.26l22.8-43.4c2.08-3.95 4.68-6.04 7.8-6.24 4.58-.32 7.4 2.6 8.54 8.74 2.6 13.84 5.93 25.6 9.88 35.59 2.7-26.43 7.29-45.48 13.74-57.24 1.56-2.91 3.85-4.37 6.87-4.58 2.4-.2 4.58.52 6.55 2.08a8.15 8.15 0 0 1 3.23 5.94c.1 1.87-.2 3.43-1.04 5-4.06 7.48-7.39 20.08-10.1 37.56-2.6 16.96-3.53 30.18-2.9 39.65.2 2.6-.22 4.89-1.26 6.87a6.7 6.7 0 0 1-5.51 3.74c-2.7.21-5.52-1.04-8.22-3.85-9.68-9.88-17.38-24.66-23-44.33a1951.58 1951.58 0 0 0-14.99 29.97c-6.14 11.76-11.34 17.8-15.71 18.1-2.81.22-5.2-2.18-7.28-7.17-5.31-13.64-11.04-39.96-17.18-78.99-.41-2.7.21-5.1 1.67-6.97zm223.64 16.34c-3.75-6.56-9.26-10.51-16.65-12.07a27.32 27.32 0 0 0-5.62-.63c-10 0-18.1 5.2-24.46 15.61a55.14 55.14 0 0 0-8.11 29.35c0 8.01 1.66 14.88 5 20.6 3.74 6.56 9.25 10.51 16.64 12.07 1.98.42 3.85.63 5.62.63 10.1 0 18.21-5.2 24.46-15.61a55.76 55.76 0 0 0 8.11-29.45c.1-8.12-1.66-14.88-5-20.5zM225.1 66.9c-1.46 6.87-4.06 11.97-7.91 15.4-3.02 2.71-5.83 3.86-8.43 3.34-2.5-.52-4.58-2.71-6.14-6.77a26.41 26.41 0 0 1-1.88-9.47c0-2.6.21-5.2.73-7.6.94-4.26 2.7-8.42 5.52-12.38 3.43-5.1 7.08-7.18 10.82-6.45 2.5.52 4.58 2.7 6.14 6.76a26.41 26.41 0 0 1 1.87 9.47c0 2.7-.2 5.31-.72 7.7zm-52.03-28.8c-3.74-6.56-9.36-10.51-16.65-12.07a27.32 27.32 0 0 0-5.62-.63c-9.99 0-18.1 5.2-24.45 15.61a55.14 55.14 0 0 0-8.12 29.35c0 8.01 1.67 14.88 5 20.6 3.74 6.56 9.26 10.51 16.65 12.07 1.97.42 3.85.63 5.62.63 10.09 0 18.2-5.2 24.45-15.61a55.76 55.76 0 0 0 8.12-29.45c0-8.12-1.67-14.88-5-20.5zm-13.21 28.8c-1.46 6.87-4.06 11.97-7.91 15.4-3.02 2.71-5.83 3.86-8.43 3.34-2.5-.52-4.58-2.71-6.14-6.77a26.41 26.41 0 0 1-1.87-9.47c0-2.6.2-5.2.72-7.6a33.78 33.78 0 0 1 5.52-12.38c3.43-5.1 7.08-7.18 10.82-6.45 2.5.52 4.58 2.7 6.14 6.76a26.41 26.41 0 0 1 1.88 9.47c.1 2.7-.21 5.31-.73 7.7z"/>
</svg>
