<svg xmlns="http://www.w3.org/2000/svg" viewBox="0 0 122.52 122.52">
  <g fill="#21759b">
    <path d="M8.7 61.26a52.56 52.56 0 0 0 29.63 47.3L13.26 39.87A52.35 52.35 0 0 0 8.7 61.26zm88.04-2.66c0-6.49-2.33-10.99-4.33-14.49-2.67-4.33-5.17-8-5.17-12.32 0-4.83 3.67-9.33 8.83-9.33.23 0 .45.03.68.04A52.36 52.36 0 0 0 61.26 8.7a52.5 52.5 0 0 0-43.9 23.7c1.22.03 2.39.06 3.37.06 5.5 0 14.01-.67 14.01-.67 2.83-.16 3.17 4 .34 4.33 0 0-2.85.34-6.02.5L48.2 93.55l11.5-34.5-8.19-22.43c-2.83-.17-5.5-.5-5.5-.5-2.84-.17-2.5-4.5.32-4.33 0 0 8.68.67 13.85.67 5.5 0 14-.67 14-.67 2.84-.17 3.17 4 .34 4.33 0 0-2.85.33-6.01.5l18.99 56.5 5.24-17.52c2.27-7.27 4-12.5 4-17z"/>
    <path d="m62.18 65.86-15.76 45.82a52.55 52.55 0 0 0 32.3-.84 4.62 4.62 0 0 1-.38-.73zm45.2-29.81c.22 1.67.35 3.47.35 5.4 0 5.33-1 11.33-4 18.82L87.68 106.7a52.53 52.53 0 0 0 19.7-70.64z"/>
    <path d="M61.26 0A61.33 61.33 0 0 0 0 61.26a61.33 61.33 0 0 0 61.26 61.26 61.33 61.33 0 0 0 61.27-61.26A61.33 61.33 0 0 0 61.26 0zm0 119.72A58.52 58.52 0 0 1 2.81 61.26 58.52 58.52 0 0 1 61.26 2.81a58.52 58.52 0 0 1 58.45 58.45 58.52 58.52 0 0 1-58.45 58.46z"/>
  </g>
</svg>
