<svg xmlns="http://www.w3.org/2000/svg" xml:space="preserve" version="1.1" viewBox="0 0 2600 1300">
  <style>
    .st1{fill:#539156}.st2{fill:#61b876}.st3{fill:#4e844f}.st6{fill:#4b4c5e}.st8{fill:#fa3a30}.st9{fill:#c4deee}.st11{fill:#ba2522}.st14{fill:#fff}.st15{fill:#3c3c4c}.st18{opacity:.67;fill:#4b4c5e;enable-background:new}.st20{fill:#5f6c78}.st21{fill:#e9516b}.st28{fill:#47525e}
  </style>
  <path d="m660.2 1199.6 1243.7-22.9 262.2 39.5-276 5.1 129.3 16.6 374.9-6.9 155 31.3-1591.1 18-124.3-22.7 261.1-2.7-84.3-17.4-496.9 7.9-182.1-39.8 328.5-6z" style="fill:#e8e8e8"/>
  <path d="M445.9 731.8c-4.4 15.9-8.1 32-11.1 48.2-6.1 32.2-9.3 61.6-10.9 83.7h-4.5c.1-1.1.1-2.2.2-3.3.7-9 1.5-19.1 2.8-30 .7-6.1 1.5-12.4 2.4-19 .4-3.1.9-6.3 1.4-9.5.7-4.4 1.4-8.9 2.2-13.6.5-2.6.9-5.3 1.4-8 .3-1.4.5-2.9.8-4.3 3.1-16 7-33.1 12-50.6.3.5 1.6 3.6 3.3 6.4z" class="st1"/>
  <path d="M716.6 537.1c-21.8 1-38.5 11.9-51.2 26.3-27.4 31.1-36.1 78.5-36.1 78.5-26.2-7.8-52.3-1.2-52.3-1.2 26.4 8.7 37.6 27.4 37.6 27.4-96.6 58.1-158.9 63.3-168.6 63.8l.9-4.1c.4-1.6.9-3.2 1.3-4.8l2.6-9.6.6-2.4.8-2.3 1.5-4.7c3.8-12.6 8.7-24.9 13.8-37 5.3-12.1 11.5-23.7 18.4-35 14.1-22.2 31.5-42.5 52-59.3 10.2-8.4 21.1-16 32.6-22.6 5.8-3.2 11.6-6.3 17.7-9l4.6-2c1.5-.6 3.1-1.3 4.6-1.9a104 104 0 0 1 9.4-3.2l-.1-.3c-.1 0 48.3-22.3 109.9 3.4z" class="st2"/>
  <path d="M805.8 609.1s-74.8-51.7-140.4-45.7c12.7-14.4 29.4-25.3 51.2-26.3 28.1 11.7 58.9 33.5 89.2 72z" class="st3"/>
  <path d="M606.1 533.6c-12.8 3.5-24.9 8.9-36.5 15.1-11.7 6.4-23 13.7-33.5 21.9-21 16.5-39.2 36.7-54 59-1.8 2.8-3.5 5.7-5.3 8.5l-1.3 2.1-.7 1.1-.6 1.1-2.4 4.4-2.5 4.4-1.2 2.2-1.1 2.2-4.5 9c-5.6 12.2-10.5 24.7-14.1 37.6L447 707l-.7 2.4-.6 2.4-2.3 9.8c-.3 1.1-.5 2.3-.8 3.4-7.7-28.4-33-141 34.8-184 53.1-33.5 122.6-9.8 128.7-7.4z" class="st2"/>
  <path d="M606.7 534c-3.2.9-6.3 2-9.4 3.2-1.5.6-3.1 1.3-4.6 1.9l-4.5 2c-6 2.7-11.9 5.8-17.7 9.1-11.5 6.6-22.4 14.2-32.6 22.6-15.8 12.9-29.7 27.9-41.8 44.3-3.6 4.9-7 9.8-10.2 14.9-6.9 11.2-13.1 22.9-18.4 35-5.1 12.1-10 24.4-13.8 37l-1.5 4.7-.8 2.3c-.3.8-.4 1.6-.7 2.4l-1.1 4.1-1.5 5.5c-.4 1.6-.9 3.2-1.3 4.8l-.9 4.1c-.1-.2-.2-.3-.3-.5-1.8-2.7-2.6-5.1-2.8-5.9 0-.1-.1-.2-.1-.2.3-1.1.5-2.3.8-3.4l2.3-9.8c.2-.8.4-1.6.6-2.5l.7-2.4 1.4-4.8c3.6-12.9 8.5-25.4 14.1-37.7l4.5-9 1.1-2.2 1.2-2.2 2.5-4.4 2.5-4.4.6-1.1.7-1.1 1.3-2.1c1.8-2.8 3.5-5.7 5.3-8.5 14.8-22.3 32.9-42.5 54-59 10.5-8.2 21.8-15.6 33.5-21.9 11.7-6.2 23.8-11.6 36.5-15.1.1 0 .3-.1.4-.1v.4z" class="st1"/>
  <path d="M537.9 863.7v272.5c0 37.6-30.5 68.1-68.1 68.1h-49.3c37.6 0 68.1-30.5 68.1-68.1V863.7h49.3z" style="fill:#d8d8d8"/>
  <path d="M488.6 863.7v272.5c0 37.6-30.5 68.1-68.1 68.1h-97.8c-37.6 0-68.1-30.5-68.1-68.1V863.7h234z" style="fill:#e4e4e4"/>
  <path d="M425 839c-1.6 6.3-3.3 12.4-5.2 18.5l-1.8 6.1h-8.4c6.1-19.5 11.6-40.4 15.3-61.5 2.1-11.7 3.6-23.5 4.4-35 1.3-19.3.5-38.1-3.3-55.1-.6-2.6-1.2-5.1-2-7.6-5.5-18.8-15.1-35.3-30.3-47.5-49.3-39.7-94.8-.5-95.3-.1a3.93 3.93 0 0 1-5.5-.3c-1.4-1.6-1.3-4.1.3-5.5.5-.4 51-44 105.4-.1 15.7 12.6 26.7 30.1 32.9 51.9.7 2.5 1.4 5 1.9 7.6 1 4.5 1.9 9.2 2.5 14.1 4.4 31.5.7 69.9-10.9 114.5z" class="st1"/>
  <path d="M414 968c-7.9 45-67.9 91.7-67.9 91.7l-31.7-26.4 10.6 41.4c-43.2 26.4-118.2 21.1-118.2 21.1 46.7-162.2 139.3-234.5 139.3-234.5 82 7 75.8 61.7 67.9 106.7z" class="st2"/>
  <path d="M346.1 861.4s-92.6 72.3-139.3 234.5C120.4 961 224.4 838.4 269.4 826c44.9-12.4 76.7 35.4 76.7 35.4z" class="st1"/>
  <path d="M530.4 747a3.93 3.93 0 0 1-5.5-.3c-.4-.4-34-36.7-77.1-37.4-3-.1-6 .1-9 .4-1.7.2-3.4.4-5.2.7-1.8.3-3.6.7-5.4 1.1-.7.2-1.4.4-2.1.5-44.2 12.3-81.4 63.2-110.8 151.6h-8.2c30.6-92.7 69.9-146.2 117.1-159.2l2.3-.6c1.8-.4 3.5-.8 5.2-1.1 2.8-.5 5.7-.9 8.6-1.1 3.1-.3 6.1-.3 9-.3 45.7 1.3 79.8 38.2 81.4 40 1.5 1.6 1.3 4.1-.3 5.7z" class="st3"/>
  <path d="M344.1 661.5c-17.8-10.1-30.2-14.6-33-15.5C247.9 676.3 180 756.6 137 814.5 102.7 860.6 54 912.9 30.7 937c0 .1.1.2.1.2s74.5 6.2 93-38.8c18.4-44.9 18.2-58.3 37.7-56.2 19.4 2.1 2 75.5-15.7 86.5 0 0 75.4 4.1 92.7-56.2 17.3-60.3 5.8-80.8 25.3-84.8 19.4-4 24.1 88.5 2.6 116.4 0 0 82.7-25 107-103.4 24.2-78.3-9-127.9-29.3-139.2zm-16.9 153.3c-26.9-4.5-4.3-62.5-13.2-84-.5-1.3-1-2.6-1.5-3.8-7.6-21 23.9-33.6 32.2-12.9.3.6.5 1.3.7 2 8.3 24.8 8.6 103.1-18.2 98.7z" class="st2"/>
  <path d="M310.5 645.8S298.8 536.7 176 561.1c-1.7.3-2.2 2.6-.8 3.6 13.9 9.6 59.3 43.1 45.3 58.1-16.4 17.6-83.9-45.7-124.4-16.1C55.5 636.3 47 669.2 47 669.2s118.4-4.8 112.8 20.7-71.4-1.1-100.3 15.7c-28.9 16.8-41.9 29.9-44.5 74.1 0 0 62.5-15 83.2 1.8 20.8 16.8-11 15.4-38 21.6-27 6.1-46.1 41-46.2 61 0 19.4 15.5 69.7 16.5 73 23.3-24.3 72-76.5 106.3-122.6 43-57.8 110.9-138.2 174.1-168.5-.2-.2-.4-.2-.4-.2zm-194.6 3.7c-7.9 4.1-19.4 4.2-25-.4-6.9-5.6 5.2-13 15.6-17.8 12-5.7 21.1 12 9.4 18.2zM406.2 845c-14.5 76.5 43.6 134.3 43.6 134.3-5.5-32.9 39.7-108.4 54.1-96.3 14.5 12-4.3 24-16.7 82.3s52.6 88.5 52.6 88.5c-9.9-17.1 8.2-86.4 25.4-79.5 17.2 6.9 11.1 18 6.5 63.9-4.6 45.8 60.6 73.9 60.6 73.9l.1-.1c-8.7-30.7-26.2-96.2-34.4-150.2-10.2-67.6-31.3-165.3-70.7-218.8-2.8-.4-15.2-2.2-34.6-1.7-22 .6-72 27.3-86.5 103.7zm61.1-58.6c.5-.5 1-.9 1.5-1.3 16.2-13.6 37 11 21.2 25.2-.9.8-1.9 1.7-3 2.5-17 14.1-24 72.7-48.5 64.5-24.4-8.3 10.8-73.8 28.8-90.9z" class="st1"/>
  <path d="M527.3 743c39.4 53.6 60.5 151.2 70.7 218.8 8.1 54 25.7 119.4 34.4 150.2 2.4-2.3 37.8-37.5 46.4-53.8 8.9-16.8 8.5-54.5-11.5-71.7-19.9-17.2-47.1-30.2-22.2-35 24.9-4.8 70.5 35.6 70.5 35.6 17.5-38.2 12.4-55-4.3-81.9-16.7-27-83.7-34-77-57.9 6.7-23.9 103.7 33 103.7 33s7.5-31.3-13.3-74.2c-20.7-42.9-105.5-19.9-111.4-42-5-18.8 48-26.6 63.9-28.5 1.7-.2 2.3-2.3 1-3.4-91.9-75.2-150.4 11-150.4 11s-.1-.2-.5-.2zm177.9 79c6.5 8.7 13.4 20.3 5.1 21.9-6.7 1.3-16.3-3.9-21.1-10.8-7-10.4 8.5-21.1 16-11.1z" class="st3"/>
  <path d="M1816.8 997.3c-4.1-2.8-8-5.5-11.5-8-17.5-12.4-27.2-20.2-27.2-20.2-8.2-40.4 4.1-93.6 4.1-93.6s17.5-51.7 45.8-81.7c0 0 12.4-1.6 33.8-2.8 4.3-.3 9-.5 14-.7-11 17-29.5 49.7-45.8 98.9-12.1 50.3-13.6 87.8-13.2 108.1z" class="st6"/>
  <path d="M2351.5 1133.5c-3.6-22.3-5.4-55.9 3.9-94.8 3.7-11.2 8-21.5 12.6-30.9-1.5 21.8 0 40.5 2.3 54.7 27.2-7.2 47.7-16.7 63-26.3 5-3.2 9.5-6.8 13.5-10.9 8.1 30.8-4.4 64.3-32.3 81.9-15.2 9.5-35.7 19.1-63 26.3z" style="fill:#d8211d"/>
  <path d="M2370.3 1062.6c-2.3-14.2-3.8-32.9-2.3-54.7 11-22.4 23.6-39.6 34-51.7 19.4 20.4 31.8 39.3 39.7 55.5 2.2 4.5 3.9 9.1 5.1 13.7-4 4.1-8.5 7.8-13.5 10.9-15.3 9.6-35.7 19.1-63 26.3z" class="st8"/>
  <path d="M1955.1 1076.3c-58.9-27.5-107.1-57.7-138.3-79-.4-20.3 1.2-57.8 13.2-108.2 3.4-10.4 7-20 10.5-28.9-4.5 29.4-5.2 52-4.9 66.1 31.2 21.3 79.4 51.4 138.3 79 68.2 31.9 150.7 60.3 237.3 67.2 57.9 4.6 103.5 1.6 139.2-5.4-3.2 26.8-1.5 49.7 1.2 66.4-38.3 10.1-90 15.5-159.2 10-86.7-7-169.1-35.3-237.3-67.2z" class="st9"/>
  <path d="M1973.8 1005.3c-58.9-27.5-107.1-57.7-138.3-79-.3-14.1.4-36.7 4.9-66.1 13.3-33.4 26.6-56.6 35.3-70 37.7-1.7 94.6-1.9 159.1 5.7 74.8 8.8 159.8 28.2 237.1 67.9 50.3 25.8 86.8 51.8 113.4 76 6.1 5.5 11.6 11 16.7 16.3a245.4 245.4 0 0 0-46.6 82.6c-2.3 9.8-4 19.3-5 28.4-35.8 7-81.4 10.1-139.2 5.4-86.7-6.9-169.1-35.3-237.4-67.2z" style="fill:#e7f2fb"/>
  <path d="m1861.8 790.9 11.7-161.9 45.7 13 115.7 153.9c-73.1-8.6-136.4-7.2-173.1-5z" class="st8"/>
  <path d="m1863.7 764.2-1.9 26.8c36.7-2.2 100-3.6 173.1 5l-20.4-27.1c-50.1-5.4-100.5-7-150.8-4.7z" class="st11"/>
  <path d="m1805.3 989.3-75.3 143.8 45.7 13 179.5-69.8a994.8 994.8 0 0 1-149.9-87z" class="st8"/>
  <path d="M1922.2 1089c-55.1-26.5-100.3-54.9-129.9-75.1l12.9-24.6c30 21.2 83.1 55.8 149.8 87l-32.8 12.7z" class="st11"/>
  <ellipse cx="1877.3" cy="902.6" class="st8" rx="23.6" ry="139.7" transform="rotate(-74.1 1877.42 902.63)"/>
  <circle cx="2203.7" cy="1001.9" r="83.1" class="st9" transform="rotate(-45 2203.68 1001.88)"/>
  <circle cx="2209.6" cy="997.2" r="83.1" class="st6" transform="rotate(-45 2209.56 997.22)"/>
  <path d="M2193.5 1053.8a58.75 58.75 0 0 1-40.4-72.6c.7-2.6 1.6-5 2.6-7.4-4.2 28.7 13.4 56.8 42.1 64.9s58.4-6.4 70-33c-.4 2.6-.9 5.1-1.6 7.7a58.86 58.86 0 0 1-72.7 40.4z" style="fill:#009cae"/>
  <path d="M2197.8 1038.7c-28.3-8-46.3-35.8-42.1-64.9 11.8-27 41.7-41.1 70-33 28.3 8 46.3 35.8 42.1 64.9a58.95 58.95 0 0 1-70 33z" style="fill:#23b4c6"/>
  <path d="M2194.5 956.5c.7-2.5 2.7-4.6 5.3-5.3 8.1-2.3 16.7-2.2 24.8.1 10.5 3 19.6 9.6 25.6 18.7 2.3 3.5 1.4 8.3-2.2 10.7a7.83 7.83 0 0 1-10.7-2.2c-4-6-10-10.4-17-12.4-5.4-1.5-11.1-1.6-16.4-.1a7.74 7.74 0 0 1-9.5-5.3c-.3-1.5-.2-3 .1-4.2z" class="st14"/>
  <path d="m2054.6 798.5-123.3-164.2-50.4-14.4-7.4 9.1 45.7 13.1 115.7 153.8 19.7 2.6zm-99.5 277.7 18.2 8.2-191.5 71.7-50.8-14.5-1-8.6 45.6 13 179.5-69.8z" class="st11"/>
  <path d="M1419.2 1176.7c0 8.7-3.5 16.6-9.3 22.3-5.7 5.7-13.6 9.3-22.3 9.3H526.8c-17.5 0-31.6-14.1-31.6-31.6 0-8.4 3.3-16.5 9.3-22.4 5.7-5.7 13.6-9.3 22.3-9.3h860.8c17.5.1 31.6 14.2 31.6 31.7z" class="st15"/>
  <path d="M2478 1176.7c0 8.7-3.5 16.6-9.3 22.3-5.7 5.7-13.6 9.3-22.3 9.3H1387.6c8.7 0 16.6-3.5 22.3-9.3a31.57 31.57 0 0 0 .2-44.6c-5.9-6-14-9.3-22.5-9.3h1058.8c17.5 0 31.6 14.1 31.6 31.6zm-694.1-31.6H547c-16.9 0-31.1-12.7-33-29.5l-5.9-53.8L494 933.3l-13.5-122.6-7.3-65.9-18.6-169.1-26.7-242.4L415.2 219a33.15 33.15 0 0 1 33-36.8h1236.9c16.9 0 31.1 12.7 33 29.5l78.1 709.1 18.6 169.1 2 18.4c2 18.2-11.1 34.6-29.3 36.6-1.2.1-2.4.1-3.6.2z" class="st6"/>
  <path d="M1755.4 1107.3H569.9c-10.7 0-19.6-8-20.8-18.6l-68.5-621.5-25.3-229.3c-1.1-9.6 6.5-18 16.2-18h1190.7c10.7 0 19.6 8 20.8 18.6l38.3 347.3 54.9 498.3c1.4 12.4-8.3 23.1-20.8 23.2z" style="fill:#eceffa"/>
  <path d="M547 1145.1h-34c-16.9 0-31.1-12.7-33-29.5L381.2 219c-2-18.2 11.1-34.6 29.2-36.6 1.3-.1 2.5-.2 3.8-.2h34c-19.8 0-35.1 17.2-33 36.8l98.8 896.6a33.39 33.39 0 0 0 33 29.5zm1254.1 0h278.5c.1 12.8-10.3 23.2-23.1 23.3h-232c-13 0-23.4-10.4-23.4-23.3z" class="st15"/>
  <path d="M2435.7 1145.1h-1882c0-6.6 5.3-11.9 11.9-11.9h1858.3c3.3 0 6.3 1.3 8.4 3.5 2.1 2.1 3.4 5.1 3.4 8.4z" style="fill:#565666"/>
  <path d="M796.8 1175v6.3c0 3.6-2.9 6.6-6.6 6.6h-61.4c-3.6 0-6.6-3-6.6-6.6v-6.3c0-3.6 2.9-6.6 6.6-6.6h61.4c3.6 0 6.6 3 6.6 6.6zm84.8 0v6.3c0 3.6-2.9 6.6-6.6 6.6h-61.4c-3.6 0-6.6-3-6.6-6.6v-6.3c0-3.6 2.9-6.6 6.6-6.6H875c3.7 0 6.6 3 6.6 6.6z" class="st6"/>
  <circle cx="544.7" cy="1178.1" r="10.9" class="st6"/>
  <path d="M551.5 1178.1c0 3.8-3.1 6.9-6.9 6.9s-6.9-3.1-6.9-6.9 3.1-6.9 6.9-6.9c3.9 0 6.9 3 6.9 6.9z" class="st15"/>
  <path d="M604.9 933.4H494l-13.5-122.6h109.7c9.2 0 17.5 7.4 18.6 16.6l10.7 89.3c1.1 9.3-5.4 16.7-14.6 16.7z" class="st18"/>
  <path d="m586.8 810.5 10.7 89.3c1.1 9.2-5.4 16.6-14.6 16.6h-343c-9.2 0-17.5-7.4-18.6-16.6l-10.7-89.3c-1.1-9.2 5.4-16.6 14.6-16.6h343c9.1 0 17.5 7.4 18.6 16.6z" style="fill:#fecc3b"/>
  <path d="M255.6 869.3c3.1 1.5 7.7 3 12.3 3 4.9 0 7.3-2 6.9-5.2-.4-3-2.8-4.7-8.8-6.7-8.2-2.8-13.9-7.1-14.7-14-1-8.1 5.1-14.3 16.3-14.3 5.4 0 9.5 1.1 12.4 2.4l-1.4 8.7c-2-.9-5.6-2.3-10.2-2.3s-6.7 2.1-6.4 4.6c.4 3 3.2 4.4 9.6 6.7 8.8 3.1 13.2 7.5 14.1 14.2 1 8-4.4 14.7-17.4 14.7-5.4 0-11-1.4-13.8-2.9l1.1-8.9zm33.4-36.5h10.7l2.5 21h.2c.8-1.8 1.8-3.5 2.6-5.2l8.9-15.8h13.2l-13.3 20.3 19.9 27.3h-12.6L307 859.9l-3.5 5 1.9 15.5h-10.7l-5.7-47.6zm54.1 0 5.7 47.6H338l-5.7-47.6h10.8zm9.4.6c3.2-.6 7.9-1 14.4-1 6.6 0 11.5 1.3 15 3.8 3.3 2.4 5.8 6.4 6.4 11 .6 4.7-.5 8.6-3 11.3-3.3 3.5-8.5 5-14.9 5-1.4 0-2.7-.1-3.7-.2l2 17h-10.5l-5.7-46.9zm13.3 21.6c.9.2 2.1.3 3.6.3 5.7 0 8.9-2.9 8.3-7.8-.5-4.4-3.9-7-9.2-7-2.2 0-3.6.2-4.4.4l1.7 14.1zm57.2 13.1-1.9 12.2H410l8.8-47.6h14.1l20.5 47.6h-11.6l-5.1-12.2H423zm11.1-8.1-4.2-10.1c-1.2-2.8-2.5-6.4-3.5-9.2h-.1c-.4 2.8-.6 6.4-1.1 9.2l-1.6 10.1h10.5zm20-26.6c3.9-.6 9-1 14.4-1 9 0 15.1 1.6 20.1 5.1 5.4 3.7 9.2 9.5 10.2 17.9 1.1 9.1-1.5 15.4-5.6 19.3-4.5 4.2-11.9 6.1-21.2 6.1-5.6 0-9.6-.4-12.3-.7l-5.6-46.7zm15.4 38.9c.9.2 2.4.2 3.8.2 9.7.1 15.5-5.3 14.1-16.7-1.1-9.9-7.5-15.1-16.8-15.1-2.4 0-3.9.2-4.8.4l3.7 31.2zm59.4-48.7 7.6 63.1 36.4-31.6-44-31.5z" class="st6"/>
  <path d="M1643.5 996.4H786c-26.3 0-50.2-21.4-53.2-47.7l-88.1-766.6h952.9l88.1 766.6c3.1 26.4-15.8 47.7-42.2 47.7z" class="st18"/>
  <path d="m1550.9 97.9 93.8 816.2c3 26.3-15.9 47.7-42.2 47.7H745c-26.3 0-50.2-21.4-53.2-47.7L598 97.8l952.9.1z" class="st14"/>
  <path d="m1546.1 56.5 4.7 41.3H598l-4.7-41.3c-3-26.3 15.9-47.7 42.2-47.7H1493c26.3 0 50.1 21.4 53.1 47.7z" class="st20"/>
  <path d="M1436.6 55c.5 4.1-2.5 7.5-6.6 7.5s-7.8-3.3-8.3-7.5c-.5-4.1 2.5-7.5 6.6-7.5 4.1.1 7.8 3.4 8.3 7.5zm27.4 0c.5 4.1-2.5 7.5-6.6 7.5s-7.8-3.3-8.3-7.5c-.5-4.1 2.5-7.5 6.6-7.5s7.8 3.4 8.3 7.5z" class="st14"/>
  <ellipse cx="1480.1" cy="55.1" class="st21" rx="7" ry="7.9" transform="rotate(-46.65 1480.05 55.04)"/>
  <path d="M657.7 52.1H636l2.3-3.7c.8-1.4.3-3.3-1.1-4.3-1.5-1-3.3-.7-4.2.6l-5.2 8.3c-.4.6-.5 1.3-.4 1.9v.3c0 .1 0 .2.1.3 0 .1 0 .2.1.3 0 .1.1.2.1.3 0 .1.1.2.1.3 0 .1.1.2.2.2.1.1.1.2.2.3v.1l7.1 8.3c.7.8 1.7 1.2 2.6 1.2.6 0 1.2-.2 1.7-.6 1.2-1 1.3-2.9.1-4.3l-2.9-3.4h21.5c1.7 0 2.9-1.4 2.7-3.1-.1-1.7-1.6-3-3.3-3z" class="st14"/>
  <path d="m1327.7 370.1-121.9-109.3c-7-6.3-16-9.9-24.9-9.9h-154.7c-8.9 0-17.1 3.5-22.7 9.9l-96.8 109.3c-5.6 6.3-8.1 14.9-7.1 23.8l17.8 154.6c1 8.9 5.6 17.5 12.6 23.8l121.9 109.3c7 6.3 16 9.9 24.9 9.9h154.6c8.9 0 17.1-3.5 22.7-9.9l96.8-109.3c5.6-6.3 8.1-14.9 7.1-23.8l-17.8-154.6c-.9-8.9-5.5-17.5-12.5-23.8zm-21.4 165.8c.4 3.7-.6 7.3-3 9.9l-80.9 91.4c-2.3 2.6-5.7 4.1-9.4 4.1h-129.3c-3.7 0-7.4-1.5-10.4-4.1l-101.9-91.4c-2.9-2.6-4.7-6.1-5.2-9.9l-14.9-129.3c-.4-3.7.6-7.3 3-9.9l80.9-91.4c2.3-2.6 5.7-4.1 9.4-4.1h129.3c3.7 0 7.4 1.5 10.4 4.1l101.9 91.4c2.9 2.6 4.8 6.2 5.2 9.9l14.9 129.3z" style="fill:#e8ecee"/>
  <path d="m1291.4 406.6 14.9 129.3c.4 3.7-.6 7.3-3 9.9l-80.9 91.4c-2.3 2.6-5.7 4.1-9.4 4.1h-129.3c-3.7 0-7.4-1.5-10.4-4.1l-101.9-91.4c-2.9-2.6-4.7-6.1-5.2-9.9l-14.9-129.3c-.4-3.7.6-7.3 3-9.9l80.9-91.4c2.3-2.6 5.7-4.1 9.4-4.1h129.3c3.7 0 7.4 1.5 10.4 4.1l101.9 91.4c2.9 2.7 4.8 6.2 5.2 9.9z" style="fill:#e9eaee"/>
  <path d="m1291.4 406.6 14.9 129.3c.4 3.7-.6 7.3-3 9.9l-80.9 91.4c-2.3 2.6-5.7 4.1-9.4 4.1h-129.3c-3.7 0-7.4-1.5-10.4-4.1l-101.9-91.4c-2.9-2.6-4.7-6.1-5.2-9.9l-14.9-129.3c-.4-3.7.6-7.3 3-9.9l80.9-91.4c2.3-2.6 5.7-4.1 9.4-4.1h129.3c3.7 0 7.4 1.5 10.4 4.1l101.9 91.4c2.9 2.7 4.8 6.2 5.2 9.9z" class="st21"/>
  <path d="m1286.2 396.7-101.9-91.4c-2.9-2.6-6.6-4.1-10.4-4.1h-5.6c3.7 0 7.4 1.5 10.4 4.1l101.9 91.4c2.9 2.6 4.8 6.2 5.2 9.9l14.9 129.3c.4 3.7-.6 7.3-3 9.9l-80.9 91.4c-2.3 2.6-5.7 4.1-9.4 4.1h5.6c3.7 0 7.1-1.5 9.4-4.1l80.9-91.4c2.3-2.6 3.4-6.2 3-9.9l-14.9-129.3c-.4-3.7-2.3-7.2-5.2-9.9z" style="fill:#d63c5d"/>
  <path d="M986.6 155.5c2-.4 6.2-.7 10.2-.7 4.9 0 7.9.5 10.6 2 2.6 1.3 4.7 3.7 5 6.9.4 3.1-1.1 6.1-4.9 7.5v.1c4.1 1.1 7.5 4.1 8 8.7.4 3.2-.8 5.7-2.8 7.5-2.3 2-6.5 3.2-13.5 3.2-3.9 0-6.9-.3-8.7-.5l-3.9-34.7zM996 169h2.6c4.2 0 6.2-1.7 5.9-4.3-.3-2.7-2.5-4.1-6.1-4.1-1.7 0-2.7.1-3.4.2l1 8.2zm1.8 15.6c.8.1 1.7.1 3.1.1 3.6 0 6.6-1.4 6.2-5.1-.4-3.6-3.8-5-7.7-5h-2.7l1.1 10zm20.3-29.6h8l3.3 28.5h14l.8 6.7h-22l-4.1-35.2zm58.9 17.3c1.3 11.5-4.9 18.5-15.2 18.5-10.4 0-17.5-7.9-18.6-17.9-1.2-10.5 4.6-18.4 15-18.4 10.8-.1 17.6 8 18.8 17.8zm-25.4.4c.8 6.9 4.6 11.7 9.9 11.7 5.4 0 7.9-5.1 7.1-12-.7-6.3-4.4-11.7-9.9-11.7-5.4.1-7.9 5.2-7.1 12zm58.4 16.5c-1.4.7-4.6 1.5-8.9 1.5-12.2 0-19.3-7.6-20.5-17.6-1.4-12 6.4-18.7 17.1-18.7 4.1 0 7.4.8 8.8 1.6l-.9 6.3c-1.7-.7-4-1.3-6.8-1.3-6.3 0-10.8 3.8-9.9 11.6.8 7 5.5 11.5 12.6 11.5 2.4 0 5-.5 6.5-1.1l2 6.2zm1.3-34.2h7.9l1.8 15.6h.2c.6-1.4 1.3-2.6 2-3.9l6.6-11.7h9.8l-9.9 15 14.6 20.2h-9.3l-10.4-15.2-2.6 3.7 1.3 11.5h-7.9l-4.1-35.2zm55.3 20.4h-12.9l1 8.4h14.5l.8 6.5h-22.5l-4-35.2h21.7l.8 6.5h-13.7l.8 7.3h12.9l.6 6.5zm4.7-19.9c2.9-.5 6.7-.7 10.7-.7 6.7 0 11.2 1.2 14.8 3.8 4 2.7 6.8 7 7.5 13.3.8 6.7-1.1 11.4-4.2 14.3-3.4 3.1-8.8 4.5-15.7 4.5-4.1 0-7.1-.3-9.1-.5l-4-34.7zm11.2 28.7c.7.2 1.8.2 2.8.2 7.2.1 11.5-3.9 10.5-12.3-.8-7.3-5.5-11.2-12.4-11.2-1.8 0-2.9.2-3.6.3l2.7 23zm-290.2 558h3.1l1.3 10.9h5.4l.3 2.6H894l-1.7-13.5zm20.6 8.5c.4 3.6-1.9 5.2-4.6 5.2-2.9 0-5.3-1.9-5.7-5-.4-3.2 1.5-5.2 4.6-5.2s5.4 2.1 5.7 5zm-7.1.1c.2 1.7 1 2.9 2.3 2.9 1.2 0 1.8-1.2 1.6-2.9-.2-1.5-.9-2.9-2.3-2.9s-1.7 1.5-1.6 2.9zm8.8-1.6c-.2-1.4-.3-2.4-.5-3.2h2.6l.3 1.8h.1c.3-1.4 1.5-2 2.4-2h.6l.3 2.9c-.2 0-.5-.1-.8-.1-1.1 0-1.8.6-1.9 1.5v.7l.6 5h-3l-.7-6.6zm10.1 2.6c.2 1.3 1.6 1.9 3 1.9 1 0 1.9-.1 2.7-.4l.6 2.1c-1 .4-2.2.6-3.5.6-3.3 0-5.5-1.9-5.8-5-.3-2.5.9-5.2 4.3-5.2 3.2 0 4.7 2.5 4.9 4.9.1.5.1 1 0 1.2l-6.2-.1zm3.4-2.1c-.1-.7-.5-2-2-2-1.3 0-1.7 1.2-1.7 2h3.7zm4.6-.6c-.1-1.2-.3-2.3-.4-3.1h2.6l.3 1.3h.1c.3-.6 1.1-1.5 2.8-1.5 1.3 0 2.3.6 2.9 1.7.3-.5.7-.9 1.1-1.2.5-.3 1.1-.5 1.8-.5 1.9 0 3.5 1.3 3.8 4.2l.7 5.8h-3l-.6-5.3c-.2-1.4-.7-2.2-1.7-2.2-.7 0-1.1.5-1.3 1.1-.1.2-.1.5 0 .8l.7 5.7h-3l-.6-5.5c-.1-1.2-.7-2.1-1.6-2.1-.8 0-1.2.6-1.3 1.1-.1.2-.1.5 0 .8l.7 5.7h-3l-1-6.8zm23.7-5.9c.1.8-.5 1.5-1.5 1.5s-1.7-.7-1.8-1.5c-.1-.9.4-1.5 1.4-1.5 1.1 0 1.8.6 1.9 1.5zm-1.7 12.5-1.1-9.8h3l1.1 9.8h-3zm4.7-6.5c-.1-1.3-.3-2.4-.5-3.3h2.6l.3 1.4c.6-1 1.7-1.6 3.1-1.6 2.1 0 4.3 1.9 4.6 5 .4 3.6-1.7 5.3-3.8 5.3-1.2 0-2.2-.5-2.7-1.1l.6 4.9h-3l-1.2-10.6zm3.3 2.3c0 .2.1.5.1.6.3.8 1.1 1.4 1.9 1.4 1.3 0 2-1.1 1.8-2.8-.2-1.6-1-2.7-2.4-2.7-.9 0-1.5.6-1.6 1.5v.5l.2 1.5zm9.1 1.6c.6.3 1.8.7 2.7.7.9 0 1.3-.3 1.2-.8-.1-.5-.4-.7-1.6-1.1-2.1-.7-3-1.8-3.1-2.9-.2-1.8 1.2-3.2 3.6-3.2 1.1 0 2.2.3 2.8.6l-.3 2.1c-.5-.2-1.3-.6-2.2-.6-.7 0-1.1.3-1.1.8.1.5.5.7 1.7 1.1 1.9.6 2.8 1.6 3 3 .2 1.8-1.1 3.2-3.9 3.2-1.3 0-2.5-.3-3.2-.7l.4-2.2zm17.9-.5c.1 1.3.3 2.3.4 3.1h-2.6l-.3-1.4h-.1c-.3.6-1.1 1.6-2.9 1.6-2 0-3.6-1.2-3.9-4.3l-.7-5.8h3.1l.6 5.3c.2 1.4.7 2.3 1.8 2.3.8 0 1.3-.6 1.4-1.1.1-.2.1-.4 0-.7l-.7-5.8h3.1l.8 6.8zm2.1-3.5c-.1-1.2-.3-2.3-.4-3.1h2.6l.3 1.3h.1c.3-.6 1.1-1.5 2.8-1.5 1.3 0 2.3.6 2.9 1.7.3-.5.7-.9 1.1-1.2.5-.3 1.1-.5 1.8-.5 1.9 0 3.5 1.3 3.8 4.2l.7 5.8h-3l-.6-5.3c-.2-1.4-.7-2.2-1.7-2.2-.7 0-1.1.5-1.3 1.1-.1.2-.1.5 0 .8l.7 5.7h-3l-.6-5.5c-.1-1.2-.7-2.1-1.6-2.1-.8 0-1.2.6-1.3 1.1-.1.2-.1.5 0 .8l.7 5.7h-3l-1-6.8zm29.9-7.6 1.3 11.3c.1 1.1.3 2.3.4 2.9h-2.7l-.3-1.4c-.5 1.1-1.6 1.7-2.9 1.7-2.3 0-4.4-2-4.8-5-.4-3.3 1.4-5.2 3.8-5.2 1.2 0 2.2.4 2.7 1.1l-.6-5.3 3.1-.1zm-2.1 8.6c0-.2-.1-.4-.1-.5-.3-.8-1-1.5-2-1.5-1.4 0-2 1.2-1.8 2.8.2 1.7 1.1 2.7 2.4 2.7.9 0 1.5-.6 1.6-1.5v-.7l-.1-1.3zm15.3.6c.4 3.6-1.9 5.2-4.6 5.2-2.9 0-5.3-1.9-5.7-5-.4-3.2 1.5-5.2 4.6-5.2s5.3 2.1 5.7 5zm-7.1.1c.2 1.7 1 2.9 2.3 2.9 1.2 0 1.8-1.2 1.6-2.9-.2-1.5-.9-2.9-2.3-2.9s-1.8 1.5-1.6 2.9zm7.9-9.3h3l1.6 14.2h-3l-1.6-14.2zm16.2 9.1c.4 3.6-1.9 5.2-4.6 5.2-2.9 0-5.3-1.9-5.7-5-.4-3.2 1.5-5.2 4.6-5.2 3.2 0 5.4 2.1 5.7 5zm-7 .1c.2 1.7 1 2.9 2.3 2.9 1.2 0 1.8-1.2 1.6-2.9-.2-1.5-.9-2.9-2.3-2.9s-1.8 1.5-1.6 2.9zm8.7-1.6c-.2-1.4-.3-2.4-.5-3.2h2.6l.3 1.8h.1c.3-1.4 1.5-2 2.4-2h.6l.3 2.9c-.2 0-.5-.1-.8-.1-1.1 0-1.8.6-1.9 1.5v.7l.6 5h-3l-.7-6.6zm12.1 3.9c.6.3 1.8.7 2.7.7.9 0 1.3-.3 1.2-.8-.1-.5-.4-.7-1.6-1.1-2.1-.7-3-1.8-3.1-2.9-.2-1.8 1.2-3.2 3.6-3.2 1.1 0 2.2.3 2.8.6l-.3 2.1c-.5-.2-1.3-.6-2.2-.6-.7 0-1.1.3-1.1.8.1.5.5.7 1.7 1.1 1.9.6 2.8 1.6 3 3 .2 1.8-1.1 3.2-3.9 3.2-1.3 0-2.5-.3-3.2-.7l.4-2.2zm10.8-9.9c.1.8-.5 1.5-1.5 1.5s-1.7-.7-1.8-1.5c-.1-.9.4-1.5 1.4-1.5s1.7.6 1.9 1.5zm-1.7 12.5-1.1-9.8h3l1.1 9.8h-3zm7.4-12.6.3 2.8h2.2l.3 2.2h-2.2l.4 3.5c.1 1.2.5 1.7 1.4 1.7.4 0 .7 0 .9-.1l.3 2.3c-.4.2-1.1.3-2 .3-1 0-1.8-.3-2.4-.8-.6-.6-1-1.5-1.2-2.9l-.5-4h-1.3l-.3-2.2h1.3l-.2-2.1 3-.7zm15 12.6-.3-1h-.1c-.6.8-1.5 1.2-2.7 1.2-2 0-3.3-1.4-3.5-3-.3-2.5 1.9-3.8 5.3-3.7v-.1c-.1-.5-.4-1.3-1.9-1.3-1 0-2 .3-2.6.7l-.8-2c1.1-.6 2.4-.9 3.7-.9 3.3 0 4.5 1.9 4.8 4.2l.4 3.4c.1.9.3 1.8.4 2.4h-2.7v.1zm-.9-4.6c-1.6 0-2.8.4-2.7 1.5.1.8.7 1.2 1.3 1.2.8 0 1.3-.5 1.5-1.1v-.5l-.1-1.1zm5.2-2c-.1-1.2-.3-2.3-.4-3.1h2.6l.3 1.3h.1c.3-.6 1.1-1.5 2.8-1.5 1.3 0 2.3.6 2.9 1.7.3-.5.7-.9 1.1-1.2.5-.3 1.1-.5 1.8-.5 1.9 0 3.5 1.3 3.8 4.2l.7 5.8h-3l-.6-5.3c-.2-1.4-.7-2.2-1.7-2.2-.7 0-1.1.5-1.3 1.1-.1.2-.1.5 0 .8l.7 5.7h-3l-.6-5.5c-.1-1.2-.7-2.1-1.6-2.1-.8 0-1.2.6-1.3 1.1-.1.2-.1.5 0 .8l.7 5.7h-3l-1-6.8zm19.8 2.7c.2 1.3 1.6 1.9 3 1.9 1 0 1.9-.1 2.7-.4l.6 2.1c-1 .4-2.2.6-3.5.6-3.3 0-5.5-1.9-5.8-5-.3-2.5.9-5.2 4.3-5.2 3.2 0 4.7 2.5 4.9 4.9.1.5.1 1 0 1.2l-6.2-.1zm3.4-2.1c-.1-.7-.5-2-2-2-1.3 0-1.7 1.2-1.7 2h3.7zm7.3-6.6.3 2.8h2.2l.3 2.2h-2.2l.4 3.5c.1 1.2.5 1.7 1.4 1.7.4 0 .7 0 .9-.1l.3 2.3c-.4.2-1.1.3-2 .3-1 0-1.8-.3-2.4-.8-.6-.6-1-1.5-1.2-2.9l-.5-4h-1.3l-.3-2.2h1.3l-.2-2.1 3-.7zm4.3 15c.4-1.8.7-3.9.8-5.7l3.1-.2c-.4 2-1.1 4.1-1.9 5.7l-2 .2zm17.5-2.5c-.5.2-1.5.4-2.7.4-3.2 0-5.4-1.9-5.8-5-.3-2.9 1.4-5.2 5-5.2.8 0 1.7.1 2.4.4l-.2 2.3c-.4-.2-.9-.3-1.7-.3-1.6 0-2.5 1.1-2.3 2.7.2 1.8 1.5 2.7 3 2.7.7 0 1.3-.1 1.7-.3l.6 2.3zm10.6-4.9c.4 3.6-1.9 5.2-4.6 5.2-2.9 0-5.3-1.9-5.7-5-.4-3.2 1.5-5.2 4.6-5.2s5.4 2.1 5.7 5zm-7.1.1c.2 1.7 1 2.9 2.3 2.9 1.2 0 1.8-1.2 1.6-2.9-.2-1.5-.9-2.9-2.3-2.9s-1.8 1.5-1.6 2.9zm8.8-1.7c-.1-1.2-.3-2.3-.4-3.1h2.6l.3 1.3h.1c.3-.6 1.2-1.6 2.8-1.6 2 0 3.7 1.3 4 4.2l.7 5.8h-3l-.6-5.4c-.1-1.3-.7-2.1-1.8-2.1-.8 0-1.3.6-1.4 1.1-.1.2-.1.5 0 .8l.6 5.7h-3l-.9-6.7zm12.2 4c.6.3 1.8.7 2.7.7.9 0 1.3-.3 1.2-.8-.1-.5-.4-.7-1.6-1.1-2.1-.7-3-1.8-3.1-2.9-.2-1.8 1.2-3.2 3.6-3.2 1.1 0 2.2.3 2.8.6l-.3 2.1c-.5-.2-1.3-.6-2.2-.6-.7 0-1.1.3-1.1.8.1.5.5.7 1.7 1.1 1.9.6 2.8 1.6 3 3 .2 1.8-1.1 3.2-3.9 3.2-1.3 0-2.5-.3-3.2-.7l.4-2.2zm10.9-1.3c.2 1.3 1.6 1.9 3 1.9 1 0 1.9-.1 2.7-.4l.6 2.1c-1 .4-2.2.6-3.5.6-3.3 0-5.5-1.9-5.8-5-.3-2.5.9-5.2 4.3-5.2 3.2 0 4.7 2.5 4.9 4.9.1.5.1 1 0 1.2l-6.2-.1zm3.3-2.1c-.1-.7-.5-2-2-2-1.3 0-1.7 1.2-1.7 2h3.7zm12.7 5.9c-.5.2-1.5.4-2.7.4-3.2 0-5.4-1.9-5.8-5-.3-2.9 1.4-5.2 5-5.2.8 0 1.7.1 2.4.4l-.2 2.3c-.4-.2-.9-.3-1.7-.3-1.6 0-2.5 1.1-2.3 2.7.2 1.8 1.5 2.7 3 2.7.7 0 1.3-.1 1.7-.3l.6 2.3zm4-12.5.3 2.8h2.2l.3 2.2h-2.2l.4 3.5c.1 1.2.5 1.7 1.4 1.7.4 0 .7 0 .9-.1l.3 2.3c-.4.2-1.1.3-2 .3-1 0-1.8-.3-2.4-.8-.6-.6-1-1.5-1.2-2.9l-.5-4h-1.3l-.3-2.2h1.3l-.2-2.1 3-.7zm7.2 8.7c.2 1.3 1.6 1.9 3 1.9 1 0 1.9-.1 2.7-.4l.6 2.1c-1 .4-2.2.6-3.5.6-3.3 0-5.5-1.9-5.8-5-.3-2.5.9-5.2 4.3-5.2 3.2 0 4.7 2.5 4.9 4.9.1.5.1 1 0 1.2l-6.2-.1zm3.3-2.1c-.1-.7-.5-2-2-2-1.3 0-1.7 1.2-1.7 2h3.7zm7.3-6.6.3 2.8h2.2l.3 2.2h-2.2l.4 3.5c.1 1.2.5 1.7 1.4 1.7.4 0 .7 0 .9-.1l.3 2.3c-.4.2-1.1.3-2 .3-1 0-1.8-.3-2.4-.8-.6-.6-1-1.5-1.2-2.9l-.5-4h-1.3l-.3-2.2h1.3l-.2-2.1 3-.7zm14.3 9.5c.1 1.3.3 2.3.4 3.1h-2.6l-.3-1.4h-.1c-.3.6-1.1 1.6-2.9 1.6-2 0-3.6-1.2-3.9-4.3l-.7-5.8h3.1l.6 5.3c.2 1.4.7 2.3 1.8 2.3.8 0 1.3-.6 1.4-1.1.1-.2.1-.4 0-.7l-.7-5.8h3.1l.8 6.8zm4.7-.8c.2 1.3 1.6 1.9 3 1.9 1 0 1.9-.1 2.7-.4l.6 2.1c-1 .4-2.2.6-3.5.6-3.3 0-5.5-1.9-5.8-5-.3-2.5.9-5.2 4.3-5.2 3.2 0 4.7 2.5 4.9 4.9.1.5.1 1 0 1.2l-6.2-.1zm3.3-2.1c-.1-.7-.5-2-2-2-1.3 0-1.7 1.2-1.7 2h3.7zm4.6-.5c-.2-1.4-.3-2.4-.5-3.2h2.6l.3 1.8h.1c.3-1.4 1.5-2 2.4-2h.6l.3 2.9c-.2 0-.5-.1-.8-.1-1.1 0-1.8.6-1.9 1.5v.7l.6 5h-3l-.7-6.6zm18 6.5-.3-1h-.1c-.6.8-1.5 1.2-2.7 1.2-2 0-3.3-1.4-3.5-3-.3-2.5 1.9-3.8 5.3-3.7v-.1c-.1-.5-.4-1.3-1.9-1.3-1 0-2 .3-2.6.7l-.8-2c1.1-.6 2.4-.9 3.7-.9 3.3 0 4.5 1.9 4.8 4.2l.4 3.4c.1.9.3 1.8.4 2.4h-2.7v.1zm-.9-4.6c-1.6 0-2.8.4-2.7 1.5.1.8.7 1.2 1.3 1.2.8 0 1.3-.5 1.5-1.1v-.5l-.1-1.1zm13.8-9.5 1.3 11.3c.1 1.1.3 2.3.4 2.9h-2.7l-.3-1.4c-.5 1.1-1.6 1.7-2.9 1.7-2.3 0-4.4-2-4.8-5-.4-3.3 1.4-5.2 3.8-5.2 1.2 0 2.2.4 2.7 1.1l-.6-5.3 3.1-.1zm-2.1 8.5c0-.2-.1-.4-.1-.5-.3-.8-1-1.5-2-1.5-1.4 0-2 1.2-1.8 2.8.2 1.7 1.1 2.7 2.4 2.7.9 0 1.5-.6 1.6-1.5v-.7l-.1-1.3zm7.9-6.9c.1.8-.5 1.5-1.5 1.5s-1.7-.7-1.8-1.5c-.1-.9.4-1.5 1.4-1.5s1.7.6 1.9 1.5zm-1.7 12.5-1.1-9.8h3l1.1 9.8h-3zm4.7-6.5c-.1-1.3-.3-2.4-.5-3.3h2.6l.3 1.4c.6-1 1.7-1.6 3.1-1.6 2.1 0 4.3 1.9 4.6 5 .4 3.6-1.7 5.3-3.8 5.3-1.2 0-2.2-.5-2.7-1.1l.6 4.9h-3l-1.2-10.6zm3.3 2.4c0 .2.1.5.1.6.3.8 1.1 1.4 1.9 1.4 1.3 0 2-1.1 1.8-2.8-.2-1.6-1-2.7-2.4-2.7-.9 0-1.5.6-1.6 1.5v.5l.2 1.5zm11.1-8.4c.1.8-.5 1.5-1.5 1.5s-1.7-.7-1.8-1.5c-.1-.9.4-1.5 1.4-1.5 1.1 0 1.8.6 1.9 1.5zm-1.7 12.5-1.1-9.8h3l1.1 9.8h-3zm5.2-2.6c.6.3 1.8.7 2.7.7.9 0 1.3-.3 1.2-.8-.1-.5-.4-.7-1.6-1.1-2.1-.7-3-1.8-3.1-2.9-.2-1.8 1.2-3.2 3.6-3.2 1.1 0 2.2.3 2.8.6l-.3 2.1c-.5-.2-1.3-.6-2.2-.6-.7 0-1.1.3-1.1.8.1.5.5.7 1.7 1.1 1.9.6 2.8 1.6 3 3 .2 1.8-1.1 3.2-3.9 3.2-1.3 0-2.5-.3-3.2-.7l.4-2.2zm16.3 2.5c-.5.2-1.5.4-2.7.4-3.2 0-5.4-1.9-5.8-5-.3-2.9 1.4-5.2 5-5.2.8 0 1.7.1 2.4.4l-.2 2.3c-.4-.2-.9-.3-1.7-.3-1.6 0-2.5 1.1-2.3 2.7.2 1.8 1.5 2.7 3 2.7.7 0 1.3-.1 1.7-.3l.6 2.3zm3.5-12.4c.1.8-.5 1.5-1.5 1.5s-1.7-.7-1.8-1.5c-.1-.9.4-1.5 1.4-1.5s1.7.6 1.9 1.5zm-1.8 12.5-1.1-9.8h3l1.1 9.8h-3zm4.8-6.6c-.1-1.2-.3-2.3-.4-3.1h2.6l.3 1.3h.1c.3-.6 1.2-1.6 2.8-1.6 2 0 3.7 1.3 4 4.2l.7 5.8h-3l-.6-5.4c-.1-1.3-.7-2.1-1.8-2.1-.8 0-1.3.6-1.4 1.1-.1.2-.1.5 0 .8l.6 5.7h-3l-.9-6.7zm20.7-3.1c0 .6.1 1.4.3 2.9l.6 5.5c.2 1.9 0 3.4-1 4.4-1 .9-2.4 1.2-3.8 1.2-1.3 0-2.7-.3-3.6-.8l.3-2.3c.7.4 1.8.7 2.9.7 1.4 0 2.5-.8 2.2-2.6l-.1-.6c-.5.8-1.4 1.3-2.5 1.3-2.4 0-4.4-2-4.7-4.8-.4-3.1 1.5-5.1 3.9-5.1 1.3 0 2.3.6 2.8 1.4v-1.2h2.7zm-2.7 4c0-.2-.1-.4-.1-.6-.3-.8-1-1.3-1.8-1.3-1.1 0-1.9 1-1.7 2.8.2 1.5 1 2.6 2.3 2.6.8 0 1.3-.5 1.5-1.2.1-.2 0-.5 0-.8l-.2-1.5zm12.1 1.9c.2 1.3 1.6 1.9 3 1.9 1 0 1.9-.1 2.7-.4l.6 2.1c-1 .4-2.2.6-3.5.6-3.3 0-5.5-1.9-5.8-5-.3-2.5.9-5.2 4.3-5.2 3.2 0 4.7 2.5 4.9 4.9.1.5.1 1 0 1.2l-6.2-.1zm3.4-2.1c-.1-.7-.5-2-2-2-1.3 0-1.7 1.2-1.7 2h3.7zm3.7-8.2h3l1.6 14.2h-3l-1.6-14.2zm8.8 1.7c.1.8-.5 1.5-1.5 1.5s-1.7-.7-1.8-1.5c-.1-.9.4-1.5 1.4-1.5 1.1 0 1.8.6 1.9 1.5zm-1.7 12.5-1.1-9.8h3l1.1 9.8h-3zm7.5-12.6.3 2.8h2.2l.3 2.2h-2.2l.4 3.5c.1 1.2.5 1.7 1.4 1.7.4 0 .7 0 .9-.1l.3 2.3c-.4.2-1.1.3-2 .3-1 0-1.8-.3-2.4-.8-.6-.6-1-1.5-1.2-2.9l-.5-4h-1.3l-.3-2.2h1.3l-.2-2.1 3-.7zm4.3 15c.4-1.8.7-3.9.8-5.7l3.1-.2c-.4 2-1.1 4.1-1.9 5.7l-2 .2zm9.8-5c.6.3 1.8.7 2.7.7.9 0 1.3-.3 1.2-.8-.1-.5-.4-.7-1.6-1.1-2.1-.7-3-1.8-3.1-2.9-.2-1.8 1.2-3.2 3.6-3.2 1.1 0 2.2.3 2.8.6l-.3 2.1c-.5-.2-1.3-.6-2.2-.6-.7 0-1.1.3-1.1.8.1.5.5.7 1.7 1.1 1.9.6 2.8 1.6 3 3 .2 1.8-1.1 3.2-3.9 3.2-1.3 0-2.5-.3-3.2-.7l.4-2.2zm11-1.3c.2 1.3 1.6 1.9 3 1.9 1 0 1.9-.1 2.7-.4l.6 2.1c-1 .4-2.2.6-3.5.6-3.3 0-5.5-1.9-5.8-5-.3-2.5.9-5.2 4.3-5.2 3.2 0 4.7 2.5 4.9 4.9.1.5.1 1 0 1.2l-6.2-.1zm3.3-2.1c-.1-.7-.5-2-2-2-1.3 0-1.7 1.2-1.7 2h3.7zm13.2-8.2 1.3 11.3c.1 1.1.3 2.3.4 2.9h-2.7l-.3-1.4c-.5 1.1-1.6 1.7-2.9 1.7-2.3 0-4.4-2-4.8-5-.4-3.3 1.4-5.2 3.8-5.2 1.2 0 2.2.4 2.7 1.1l-.6-5.3 3.1-.1zm-2.1 8.6c0-.2-.1-.4-.1-.5-.3-.8-1-1.5-2-1.5-1.4 0-2 1.2-1.8 2.8.2 1.7 1.1 2.7 2.4 2.7.9 0 1.5-.6 1.6-1.5v-.7l-.1-1.3zm-473.9 15.5 1.3 11.3c.1 1.1.3 2.3.4 2.9h-2.7l-.3-1.4c-.5 1.1-1.6 1.7-2.9 1.7-2.3 0-4.4-2-4.8-5-.4-3.3 1.4-5.2 3.8-5.2 1.2 0 2.2.4 2.7 1.1l-.6-5.3 3.1-.1zm-2 8.5c0-.2-.1-.4-.1-.5-.3-.8-1-1.5-2-1.5-1.4 0-2 1.2-1.8 2.8.2 1.7 1.1 2.7 2.4 2.7.9 0 1.5-.6 1.6-1.5v-.7l-.1-1.3zm7.8-6.8c.1.8-.5 1.5-1.5 1.5s-1.7-.7-1.8-1.5c-.1-.9.4-1.5 1.4-1.5 1.1-.1 1.8.6 1.9 1.5zm-1.7 12.5-1.1-9.8h3l1.1 9.8h-3zm11.1 0-.3-1h-.1c-.6.8-1.5 1.2-2.7 1.2-2 0-3.3-1.4-3.5-3-.3-2.5 1.9-3.8 5.3-3.7v-.1c-.1-.5-.4-1.3-1.9-1.3-1 0-2 .3-2.6.7l-.8-2c1.1-.6 2.4-.9 3.7-.9 3.3 0 4.5 1.9 4.8 4.2l.4 3.4c.1.9.3 1.8.4 2.4h-2.7v.1zm-.9-4.7c-1.6 0-2.8.4-2.7 1.5.1.8.7 1.2 1.3 1.2.8 0 1.3-.5 1.5-1.1v-.5l-.1-1.1zm5.1-2c-.1-1.2-.3-2.3-.4-3.1h2.6l.3 1.3h.1c.3-.6 1.1-1.5 2.8-1.5 1.3 0 2.3.6 2.9 1.7.3-.5.7-.9 1.1-1.2.5-.3 1.1-.5 1.8-.5 1.9 0 3.5 1.3 3.8 4.2l.7 5.8h-3l-.6-5.3c-.2-1.4-.7-2.2-1.7-2.2-.7 0-1.1.5-1.3 1.1-.1.2-.1.5 0 .8l.7 5.7h-3l-.6-5.5c-.1-1.2-.7-2.1-1.6-2.1-.8 0-1.2.6-1.3 1.1-.1.2-.1.5 0 .8l.7 5.7h-3l-1-6.8zm21.3 0c-.1-1.2-.3-2.3-.4-3.1h2.6l.3 1.3h.1c.3-.6 1.2-1.6 2.8-1.6 2 0 3.7 1.3 4 4.2l.7 5.8h-3l-.6-5.4c-.1-1.3-.7-2.1-1.8-2.1-.8 0-1.3.6-1.4 1.1-.1.2-.1.5 0 .8l.6 5.7h-3l-.9-6.7zm21.6 1.7c.4 3.6-1.9 5.2-4.6 5.2-2.9 0-5.3-1.9-5.7-5-.4-3.2 1.5-5.2 4.6-5.2s5.4 2 5.7 5zm-7.1.1c.2 1.7 1 2.9 2.3 2.9 1.2 0 1.8-1.2 1.6-2.9-.2-1.5-.9-2.9-2.3-2.9-1.4-.1-1.8 1.4-1.6 2.9zm8.8-1.9c-.1-1.2-.3-2.3-.4-3.1h2.6l.3 1.3h.1c.3-.6 1.2-1.6 2.8-1.6 2 0 3.7 1.3 4 4.2l.7 5.8h-3l-.6-5.4c-.1-1.3-.7-2.1-1.8-2.1-.8 0-1.3.6-1.4 1.1-.1.2-.1.5 0 .8l.6 5.7h-3l-.9-6.7zm21.4 3.5c.1 1.3.3 2.3.4 3.1h-2.6l-.3-1.4h-.1c-.3.6-1.1 1.6-2.9 1.6-2 0-3.6-1.2-3.9-4.3l-.7-5.8h3.1l.6 5.3c.2 1.4.7 2.3 1.8 2.3.8 0 1.3-.6 1.4-1.1.1-.2.1-.4 0-.7l-.7-5.8h3.1l.8 6.8zm2-3.5c-.1-1.2-.3-2.3-.4-3.1h2.6l.3 1.3h.1c.3-.6 1.1-1.5 2.8-1.5 1.3 0 2.3.6 2.9 1.7.3-.5.7-.9 1.1-1.2.5-.3 1.1-.5 1.8-.5 1.9 0 3.5 1.3 3.8 4.2l.7 5.8h-3l-.6-5.3c-.2-1.4-.7-2.2-1.7-2.2-.7 0-1.1.5-1.3 1.1-.1.2-.1.5 0 .8l.7 5.7h-3l-.6-5.5c-.1-1.2-.7-2.1-1.6-2.1-.8 0-1.2.6-1.3 1.1-.1.2-.1.5 0 .8l.7 5.7h-3l-1-6.8zm17.2 0c-.1-1.2-.3-2.3-.4-3.1h2.6l.3 1.3h.1c.3-.6 1.1-1.5 2.8-1.5 1.3 0 2.3.6 2.9 1.7.3-.5.7-.9 1.1-1.2.5-.3 1.1-.5 1.8-.5 1.9 0 3.5 1.3 3.8 4.2l.7 5.8h-3l-.6-5.3c-.2-1.4-.7-2.2-1.7-2.2-.7 0-1.1.5-1.3 1.1-.1.2-.1.5 0 .8l.7 5.7h-3l-.6-5.5c-.1-1.2-.7-2.1-1.6-2.1-.8 0-1.2.6-1.3 1.1-.1.2-.1.5 0 .8l.7 5.7h-3l-1-6.8zm18.8-3 2 4.8c.2.6.5 1.3.7 1.8h.1c.1-.5.2-1.3.2-1.8l.6-4.8h3.3l-1.5 6.5c-1 3.9-1.7 5.5-2.7 6.4-.8.7-1.8 1.2-2.8 1.3l-.9-2.6c.4-.1.8-.2 1.3-.5.4-.2.9-.7 1.1-1.2.1-.1.1-.3.1-.4s0-.3-.2-.5l-4.6-9h3.3zm12.6 3c-.1-1.2-.3-2.3-.4-3.1h2.6l.3 1.3h.1c.3-.6 1.2-1.6 2.8-1.6 2 0 3.7 1.3 4 4.2l.7 5.8h-3l-.6-5.4c-.1-1.3-.7-2.1-1.8-2.1-.8 0-1.3.6-1.4 1.1-.1.2-.1.5 0 .8l.6 5.7h-3l-.9-6.7zm14.2-5.8c.1.8-.5 1.5-1.5 1.5s-1.7-.7-1.8-1.5c-.1-.9.4-1.5 1.4-1.5 1.1-.1 1.8.6 1.9 1.5zm-1.7 12.5-1.1-9.8h3l1.1 9.8h-3zm5.4 0c0-.6-.1-1.8-.3-2.9l-1.3-11.3h3l.6 5.6c.5-.8 1.4-1.4 2.8-1.4 2.3 0 4.3 1.9 4.6 4.9.4 3.5-1.6 5.3-3.9 5.3-1.1 0-2.3-.4-3.1-1.6v1.4h-2.4zm2.7-4.2c0 .2.1.4.1.5.3.8 1.1 1.4 1.9 1.4 1.3 0 2-1 1.8-2.8-.2-1.5-1-2.7-2.4-2.7-.8 0-1.5.6-1.6 1.5v.6l.2 1.5zm7.8-10h3l.6 5.6c.3-.4.6-.7 1.1-1 .4-.2 1-.4 1.5-.4 1.9 0 3.6 1.3 3.9 4.3l.7 5.7h-3l-.6-5.4c-.1-1.3-.7-2.2-1.8-2.2-.8 0-1.2.5-1.4 1.1-.1.2 0 .5 0 .7l.7 5.8h-3l-1.7-14.2zm19.3 10.4c.2 1.3 1.6 1.9 3 1.9 1 0 1.9-.1 2.7-.4l.6 2.1c-1 .4-2.2.6-3.5.6-3.3 0-5.5-1.9-5.8-5-.3-2.5.9-5.2 4.3-5.2 3.2 0 4.7 2.5 4.9 4.9.1.5.1 1 0 1.2l-6.2-.1zm3.3-2.1c-.1-.7-.5-2-2-2-1.3 0-1.7 1.2-1.7 2h3.7zm14.2 2.8c.1 1.3.3 2.3.4 3.1h-2.6l-.3-1.4h-.1c-.3.6-1.1 1.6-2.9 1.6-2 0-3.6-1.2-3.9-4.3l-.7-5.8h3.1l.6 5.3c.2 1.4.7 2.3 1.8 2.3.8 0 1.3-.6 1.4-1.1.1-.2.1-.4 0-.7l-.7-5.8h3.1l.8 6.8zm4.6-9.3c.1.8-.5 1.5-1.5 1.5s-1.7-.7-1.8-1.5c-.1-.9.4-1.5 1.4-1.5 1-.1 1.7.6 1.9 1.5zm-1.8 12.5-1.1-9.8h3l1.1 9.8h-3zm5.2-2.7c.6.3 1.8.7 2.7.7.9 0 1.3-.3 1.2-.8-.1-.5-.4-.7-1.6-1.1-2.1-.7-3-1.8-3.1-2.9-.2-1.8 1.2-3.2 3.6-3.2 1.1 0 2.2.3 2.8.6l-.3 2.1c-.5-.2-1.3-.6-2.2-.6-.7 0-1.1.3-1.1.8.1.5.5.7 1.7 1.1 1.9.6 2.8 1.6 3 3 .2 1.8-1.1 3.2-3.9 3.2-1.3 0-2.5-.3-3.2-.7l.4-2.2zm8.3-4c-.1-1.2-.3-2.3-.4-3.1h2.6l.3 1.3h.1c.3-.6 1.1-1.5 2.8-1.5 1.3 0 2.3.6 2.9 1.7.3-.5.7-.9 1.1-1.2.5-.3 1.1-.5 1.8-.5 1.9 0 3.5 1.3 3.8 4.2l.7 5.8h-3l-.6-5.3c-.2-1.4-.7-2.2-1.7-2.2-.7 0-1.1.5-1.3 1.1-.1.2-.1.5 0 .8l.7 5.7h-3l-.6-5.5c-.1-1.2-.7-2.1-1.6-2.1-.8 0-1.2.6-1.3 1.1-.1.2-.1.5 0 .8l.7 5.7h-3l-1-6.8zm27.1 1.7c.4 3.6-1.9 5.2-4.6 5.2-2.9 0-5.3-1.9-5.7-5-.4-3.2 1.5-5.2 4.6-5.2s5.3 2 5.7 5zm-7.1.1c.2 1.7 1 2.9 2.3 2.9 1.2 0 1.8-1.2 1.6-2.9-.2-1.5-.9-2.9-2.3-2.9-1.4-.1-1.8 1.4-1.6 2.9zm17.4-9.4 1.3 11.3c.1 1.1.3 2.3.4 2.9h-2.7l-.3-1.4c-.5 1.1-1.6 1.7-2.9 1.7-2.3 0-4.4-2-4.8-5-.4-3.3 1.4-5.2 3.8-5.2 1.2 0 2.2.4 2.7 1.1l-.6-5.3 3.1-.1zm-2 8.5c0-.2-.1-.4-.1-.5-.3-.8-1-1.5-2-1.5-1.4 0-2 1.2-1.8 2.8.2 1.7 1.1 2.7 2.4 2.7.9 0 1.5-.6 1.6-1.5v-.7l-.1-1.3zm12.1-6.9.3 2.8h2.2l.3 2.2h-2.2l.4 3.5c.1 1.2.5 1.7 1.4 1.7.4 0 .7 0 .9-.1l.3 2.3c-.4.2-1.1.3-2 .3-1 0-1.8-.3-2.4-.8-.6-.6-1-1.5-1.2-2.9l-.5-4h-1.3l-.3-2.2h1.3l-.2-2.1 3-.7zm7.1.1c.1.8-.5 1.5-1.5 1.5s-1.7-.7-1.8-1.5c-.1-.9.4-1.5 1.4-1.5s1.8.6 1.9 1.5zm-1.7 12.5-1.1-9.8h3l1.1 9.8h-3zm4.7-6.7c-.1-1.2-.3-2.3-.4-3.1h2.6l.3 1.3h.1c.3-.6 1.2-1.6 2.8-1.6 2 0 3.7 1.3 4 4.2l.7 5.8h-3l-.6-5.4c-.1-1.3-.7-2.1-1.8-2.1-.8 0-1.3.6-1.4 1.1-.1.2-.1.5 0 .8l.6 5.7h-3l-.9-6.7zm19.9 6.5c-.5.2-1.5.4-2.7.4-3.2 0-5.4-1.9-5.8-5-.3-2.9 1.4-5.2 5-5.2.8 0 1.7.1 2.4.4l-.2 2.3c-.4-.2-.9-.3-1.7-.3-1.6 0-2.5 1.1-2.3 2.7.2 1.8 1.5 2.7 3 2.7.7 0 1.3-.1 1.7-.3l.6 2.3zm3.4-12.2c.1.8-.5 1.5-1.5 1.5s-1.7-.7-1.8-1.5c-.1-.9.4-1.5 1.4-1.5 1.1-.1 1.8.6 1.9 1.5zm-1.7 12.5-1.1-9.8h3l1.1 9.8h-3zm13.3-14.2 1.3 11.3c.1 1.1.3 2.3.4 2.9h-2.7l-.3-1.4c-.5 1.1-1.6 1.7-2.9 1.7-2.3 0-4.4-2-4.8-5-.4-3.3 1.4-5.2 3.8-5.2 1.2 0 2.2.4 2.7 1.1l-.6-5.3 3.1-.1zm-2 8.5c0-.2-.1-.4-.1-.5-.3-.8-1-1.5-2-1.5-1.4 0-2 1.2-1.8 2.8.2 1.7 1.1 2.7 2.4 2.7.9 0 1.5-.6 1.6-1.5v-.7l-.1-1.3zm15 2.5c.1 1.3.3 2.3.4 3.1h-2.6l-.3-1.4h-.1c-.3.6-1.1 1.6-2.9 1.6-2 0-3.6-1.2-3.9-4.3l-.7-5.8h3.1l.6 5.3c.2 1.4.7 2.3 1.8 2.3.8 0 1.3-.6 1.4-1.1.1-.2.1-.4 0-.7l-.7-5.8h3.1l.8 6.8zm2-3.5c-.1-1.2-.3-2.3-.4-3.1h2.6l.3 1.3h.1c.3-.6 1.2-1.6 2.8-1.6 2 0 3.7 1.3 4 4.2l.7 5.8h-3l-.6-5.4c-.1-1.3-.7-2.1-1.8-2.1-.8 0-1.3.6-1.4 1.1-.1.2-.1.5 0 .8l.6 5.7h-3l-.9-6.7zm14.4-5.9.3 2.8h2.2l.3 2.2h-2.2l.4 3.5c.1 1.2.5 1.7 1.4 1.7.4 0 .7 0 .9-.1l.3 2.3c-.4.2-1.1.3-2 .3-1 0-1.8-.3-2.4-.8-.6-.6-1-1.5-1.2-2.9l-.5-4h-1.3l-.3-2.2h1.3l-.2-2.1 3-.7zm18.3 9.4c.1 1.3.3 2.3.4 3.1h-2.6l-.3-1.4h-.1c-.3.6-1.1 1.6-2.9 1.6-2 0-3.6-1.2-3.9-4.3l-.7-5.8h3.1l.6 5.3c.2 1.4.7 2.3 1.8 2.3.8 0 1.3-.6 1.4-1.1.1-.2.1-.4 0-.7l-.7-5.8h3.1l.8 6.8zm4.8-9.4.3 2.8h2.2l.3 2.2h-2.2l.4 3.5c.1 1.2.5 1.7 1.4 1.7.4 0 .7 0 .9-.1l.3 2.3c-.4.2-1.1.3-2 .3-1 0-1.8-.3-2.4-.8-.6-.6-1-1.5-1.2-2.9l-.5-4h-1.3l-.3-2.2h1.3l-.2-2.1 3-.7zm7.8-1.6h3l1.6 14.2h-3l-1.6-14.2zm12.7 14.2-.3-1h-.1c-.6.8-1.5 1.2-2.7 1.2-2 0-3.3-1.4-3.5-3-.3-2.5 1.9-3.8 5.3-3.7v-.1c-.1-.5-.4-1.3-1.9-1.3-1 0-2 .3-2.6.7l-.8-2c1.1-.6 2.4-.9 3.7-.9 3.3 0 4.5 1.9 4.8 4.2l.4 3.4c.1.9.3 1.8.4 2.4h-2.7v.1zm-.9-4.7c-1.6 0-2.8.4-2.7 1.5.1.8.7 1.2 1.3 1.2.8 0 1.3-.5 1.5-1.1v-.5l-.1-1.1zm15-.3c.4 3.6-1.9 5.2-4.6 5.2-2.9 0-5.3-1.9-5.7-5-.4-3.2 1.5-5.2 4.6-5.2s5.4 2 5.7 5zm-7.1.1c.2 1.7 1 2.9 2.3 2.9 1.2 0 1.8-1.2 1.6-2.9-.2-1.5-.9-2.9-2.3-2.9-1.4-.1-1.8 1.4-1.6 2.9zm8.8-1.7c-.2-1.4-.3-2.4-.5-3.2h2.6l.3 1.8h.1c.3-1.4 1.5-2 2.4-2h.6l.3 2.9c-.2 0-.5-.1-.8-.1-1.1 0-1.8.6-1.9 1.5v.7l.6 5h-3l-.7-6.6zm10.1 2.7c.2 1.3 1.6 1.9 3 1.9 1 0 1.9-.1 2.7-.4l.6 2.1c-1 .4-2.2.6-3.5.6-3.3 0-5.5-1.9-5.8-5-.3-2.5.9-5.2 4.3-5.2 3.2 0 4.7 2.5 4.9 4.9.1.5.1 1 0 1.2l-6.2-.1zm3.3-2.1c-.1-.7-.5-2-2-2-1.3 0-1.7 1.2-1.7 2h3.7zm7.3 2.1c.2 1.3 1.6 1.9 3 1.9 1 0 1.9-.1 2.7-.4l.6 2.1c-1 .4-2.2.6-3.5.6-3.3 0-5.5-1.9-5.8-5-.3-2.5.9-5.2 4.3-5.2 3.2 0 4.7 2.5 4.9 4.9.1.5.1 1 0 1.2l-6.2-.1zm3.3-2.1c-.1-.7-.5-2-2-2-1.3 0-1.7 1.2-1.7 2h3.7zm7.3-6.6.3 2.8h2.2l.3 2.2h-2.2l.4 3.5c.1 1.2.5 1.7 1.4 1.7.4 0 .7 0 .9-.1l.3 2.3c-.4.2-1.1.3-2 .3-1 0-1.8-.3-2.4-.8-.6-.6-1-1.5-1.2-2.9l-.5-4h-1.3l-.3-2.2h1.3l-.2-2.1 3-.7z" class="st20"/>
  <path d="m1421.9 836.3 6.4 56.1c1 8.8-5.3 16-14.2 16h-192.3c-8.8 0-16.8-7.2-17.9-16l-6.4-56.1c-1-8.9 5.3-16 14.2-16H1404c8.9-.1 16.9 7.1 17.9 16z" style="fill:#fccc3a"/>
  <path d="m1267 848.2 2.8 24.5h-5.6l-2.8-24.5h5.6zm22.4 6.8c.1 1.1.2 2.6.5 5.3l1.1 9.9c.4 3.4 0 6.2-1.8 8-1.8 1.7-4.4 2.2-7 2.2-2.3 0-4.9-.5-6.6-1.4l.6-4.2c1.2.7 3.2 1.3 5.3 1.3 2.6 0 4.5-1.4 4.1-4.7l-.1-1.2h-.1c-.9 1.5-2.5 2.3-4.5 2.3-4.4 0-7.9-3.6-8.5-8.7-.7-5.7 2.6-9.4 7-9.4 2.4 0 4.1 1.1 5.2 2.5h.1l-.1-2.1h4.8v.2zm-4.9 7.2c0-.4-.1-.7-.2-1-.6-1.5-1.7-2.4-3.3-2.4-2 0-3.4 1.8-3.1 5.1.3 2.7 1.9 4.7 4.2 4.7 1.4 0 2.4-.9 2.7-2.3.1-.4.1-1 0-1.5l-.3-2.6zm9.8-1.6c-.3-2.2-.5-4.1-.8-5.7h4.8l.5 2.4h.1c.6-1.1 2.2-2.8 5.2-2.8 3.6 0 6.6 2.4 7.2 7.6l1.2 10.6h-5.5l-1.1-9.9c-.3-2.3-1.2-3.9-3.2-3.9-1.5 0-2.3 1.1-2.6 2.1-.1.3-.1.9-.1 1.4l1.2 10.3h-5.5l-1.4-12.1zm39.3 3.1c.7 6.5-3.5 9.5-8.3 9.5-5.2 0-9.6-3.4-10.3-9.2-.7-5.8 2.7-9.4 8.4-9.4 5.5 0 9.5 3.7 10.2 9.1zm-12.9.1c.4 3.1 1.9 5.4 4.3 5.4 2.1 0 3.3-2.1 2.9-5.4-.3-2.7-1.6-5.4-4.1-5.4-2.7.1-3.4 2.8-3.1 5.4zm16-3c-.3-2.6-.6-4.3-.8-5.9h4.8l.6 3.3h.1c.6-2.6 2.7-3.7 4.4-3.7.5 0 .8 0 1.2.1l.6 5.2c-.4-.1-.9-.1-1.5-.1-2 0-3.3 1.1-3.5 2.8v1.2l1 9h-5.5l-1.4-11.9zm18.3 4.8c.4 2.3 2.8 3.4 5.4 3.4 1.9 0 3.4-.3 4.8-.7l1.2 3.7c-1.7.7-3.9 1.1-6.3 1.1-6 0-9.9-3.5-10.5-9.1-.5-4.5 1.7-9.5 7.9-9.5 5.8 0 8.4 4.5 9 8.9.1.9.1 1.8.1 2.2H1355zm6.1-3.8c-.2-1.3-1-3.6-3.5-3.6-2.3 0-3 2.1-3 3.6h6.5z" class="st14"/>
  <path d="m1144 836.3 6.4 56.1c1 8.8-5.3 16-14.2 16H943.9c-8.8 0-16.8-7.2-17.9-16l-6.4-56.1c-1-8.9 5.3-16 14.2-16h192.4c8.8-.1 16.8 7.1 17.8 16z" class="st21"/>
  <path d="M983.5 848h5.6l2.3 19.9h9.8l.5 4.7h-15.3l-2.9-24.6zm24.4 17.4c.4 2.3 2.8 3.4 5.4 3.4 1.9 0 3.4-.3 4.8-.7l1.2 3.7c-1.7.7-3.9 1.1-6.3 1.1-6 0-9.9-3.5-10.5-9.1-.5-4.5 1.7-9.5 7.9-9.5 5.8 0 8.4 4.5 9 8.9.1.9.1 1.8.1 2.2h-11.6zm6.1-3.9c-.2-1.3-1-3.6-3.5-3.6-2.3 0-3 2.1-3 3.6h6.5zm19.8 11-.5-1.8h-.1c-1 1.4-2.7 2.2-4.8 2.2-3.6 0-6.1-2.6-6.4-5.5-.5-4.6 3.4-6.8 9.7-6.8v-.3c-.1-.9-.8-2.3-3.5-2.3-1.8 0-3.7.6-4.8 1.3l-1.4-3.6c1.2-.7 3.5-1.6 6.7-1.6 5.9 0 8.2 3.5 8.7 7.7l.7 6.2c.2 1.7.5 3.3.8 4.3h-5.1v.2zm-1.6-8.4c-2.9 0-5.1.7-4.8 2.8.1 1.2 1.2 2.2 2.4 2.1 1.4 0 2.4-.9 2.6-2v-.9l-.2-2zm12.3-9.4 3.4 8.3c.6 1.5 1.1 2.9 1.5 4.3h.1c.1-1.5.3-2.8.5-4.3l1.3-8.3h5.8l-4.6 17.8h-5.5l-8.5-17.8h6zm20.1 10.6c.4 2.3 2.8 3.4 5.4 3.4 1.9 0 3.4-.3 4.8-.7l1.2 3.7c-1.7.7-3.9 1.1-6.3 1.1-6 0-9.9-3.5-10.5-9.1-.5-4.5 1.7-9.5 7.9-9.5 5.8 0 8.4 4.5 9 8.9.1.9.1 1.8.1 2.2h-11.6zm6.1-3.8c-.2-1.3-1-3.6-3.5-3.6-2.3 0-3 2.1-3 3.6h6.5zm149.7-459.1-34.2-30.7-60.9 68.8-76.6-68.8-27.1 30.7 76.6 68.8-60.8 68.7 34.1 30.7 60.9-68.8 76.6 68.8 27.2-30.7-76.7-68.7 60.9-68.8z" class="st14"/>
  <path d="M591.4 745H473.2l-18.6-169.1H572c14.3 0 27.3 11.6 29 26L614.5 719c1.6 14.2-8.7 26-23.1 26z" class="st18"/>
  <path d="m577.9 580.2 13.5 117.2c1.7 14.3-8.6 26-23 26H213c-14.3 0-27.3-11.6-29-26l-13.5-117.2c-1.6-14.3 8.6-26 23-26H549c14.3 0 27.3 11.7 28.9 26z" class="st21"/>
  <path d="m331.2 665-47.8-69c-3.9-6.4-9.7-10-16.3-10-6.2 0-11.3 3.4-13.6 9l-33 71.2a14.9 14.9 0 0 0-1.5 8.8c1 8.9 9 16.2 17.9 16.4h85.6c3.9-.3 7.4-2 9.9-4.8 2.7-3.1 4-7.2 3.5-11.6-.5-4-2.4-7-4.7-10zm-2.9 10c.6 4.9-2.9 8.8-7.8 8.9h-84.1c-2.4 0-4.7-.9-6.6-2.6-1.8-1.6-3-3.9-3.3-6.3-.2-1.7.1-3.3.8-4.7l32-69.1 1.3-2.6c1.5-3.2 4.1-5 7.4-5 3.6 0 6.4 1.8 8.9 5.6l48.6 70.1c1.1 1.6 2.6 3.7 2.8 5.7z" class="st14"/>
  <path d="M270.4 649.3c1.2 1.1 2.6 1.7 4.3 1.7 1.6 0 3-.6 3.8-1.7.8-1 1.2-2.5 1.2-4.3l-1.5-30.2-.1-.5c-.2-1.6-.9-3-2.1-4.2a5.6 5.6 0 0 0-4.2-1.8h-4.5c-1.6 0-2.9.6-3.8 1.7-.9 1.1-1.2 2.5-1 4.2l.1.4 5.5 30.4c.4 1.8 1.1 3.3 2.3 4.3zm7.3 11.1h-4c-1.7 0-3.1.6-4 1.7s-1.3 2.6-1 4.4l.3 2.6c.2 1.7.9 3.2 2.1 4.4 1.2 1.2 2.7 1.8 4.4 1.8h4c1.7 0 3-.6 4-1.8 1-1.2 1.3-2.6 1.1-4.4l-.3-2.6c-.2-1.8-.9-3.2-2.1-4.4a6.81 6.81 0 0 0-4.5-1.7zm277.7-47.7c.5 4.7-.9 8.9-3.6 12-2.9 3.2-7.1 5.1-11.4 5H373.9c-9.4 0-17.9-7.6-18.9-17-.5-4.7.9-8.9 3.6-12 2.9-3.2 7.1-5.1 11.4-5h166.5c9.3 0 17.8 7.5 18.9 17zm5.5 47.7c.5 4.7-.9 8.9-3.6 12-2.9 3.2-7.1 5.1-11.4 5H379.4c-9.4 0-17.9-7.6-18.9-17-.5-4.7.9-8.9 3.6-12 2.9-3.2 7.1-5.1 11.4-5H542c9.3 0 17.8 7.6 18.9 17z" class="st14"/>
  <path d="M578 1046.3h371.1v55H578v-55z" style="fill:#ffc929"/>
  <path d="m604.5 1094.1-14.7.1 9.5-55.1 14.7-.1-9.5 55.1zm30.2-.3-14.7.1 9.5-55 14.7-.1-9.5 55zm30-.2-14.7.1 9.5-55 14.7-.2-9.5 55.1zm30.2-.2-14.7.1 9.5-55.1 14.7-.1-9.5 55.1zm30.2-.3-14.7.1 9.5-55 14.7-.1-9.5 55zm30.2-.2-14.7.1 9.5-55.1 14.7-.1-9.5 55.1zm30-.3-14.7.1 9.5-55 14.7-.1-9.5 55zm30.2-.2-14.7.1 9.4-55.1 14.8-.1-9.5 55.1zm30.6-.3-14.7.2 9.5-55.1 14.7-.1-9.5 55zm30.2-.2-14.7.1 9.5-55 14.7-.2-9.5 55.1zm30-.2-14.7.1 9.4-55.1 14.8-.1-9.5 55.1zm30.1-.3-14.7.1 9.5-55 14.7-.1-9.5 55z" style="fill:#17171c"/>
  <path d="M587 1029.8h19v227h-19v-227zm358.9 0h19v227h-19v-227z" class="st28"/>
  <path d="M618.5 1258.4v3.9h-44v-3.9c0-3.9 3.2-7 7-7h29.9c3.9 0 7.1 3.2 7.1 7zm358.9 0v3.9h-44v-3.9c0-3.9 3.2-7 7-7h29.9c4 0 7.1 3.2 7.1 7z" class="st28"/>
</svg>
