<svg xmlns="http://www.w3.org/2000/svg" xml:space="preserve" version="1.1" viewBox="0 0 520 290">
  <style>
    .st0{fill:#ffd375}.st1{fill:#ddf6ff}.st2{fill:#f16367}.st3{fill:#605790}.st4{fill:#ffcb2a}.st5{fill:#267a9e}.st6{fill:#bbe2ff}.st7{fill:#9ec5f0}.st8{fill:#ffa685}.st9{fill:#714641}.st11{fill:#fff}.st12{fill:#1e466e}.st13{fill:#9b6151}.st14{fill:#fb6d71}.st16{fill:#ffe7db}.st17{fill:#ffa2ad}.st18{fill:#a0bad8}.st19{fill:#2c4e78}.st20{fill:#ffcfce}.st21{fill:#55a0d9}.st22{fill:#78dbf9}.st23{fill:#7498be}.st25{fill:#4e353c}.st26{fill:#0e0f2d}.st28{fill:#ff932d}
  </style>
  <path d="M509.4 237.3H18.8c-8.7 0-18 9.6-15.7 20.9 5.2 26.1 58.6 15.9 98.8 16.5 31.7.5 58 9.3 97.3 7.9 67.4-2.4 124-9.4 156-7.4 43.7 2.7 95.9 17.4 138.9 6.4 7.9-2 22.8-13.6 22.8-30.3v-3.8c.1-5.6-3.3-10.2-7.5-10.2z" class="st0"/>
  <path d="M494 237.6H29.8s-14.2-41.5-10.2-75.9c2.9-24.8 25.8-38.6 57.5-36.2 32.8 2.5 75.7 11 110 6.1 126.5-18.2 190-18.5 243.6-6.1 50.2 11.7 67.1 44.4 69.3 62.6 3.7 28.9-6 49.5-6 49.5zM446.9 71h-98c-1.8 0-3.2-1.4-3.2-3.2V7.7c0-1.8 1.4-3.2 3.2-3.2h98c1.8 0 3.2 1.4 3.2 3.2v60.1c0 1.7-1.4 3.2-3.2 3.2z" class="st1"/>
  <path d="M375.4 14.2a23.36 23.36 0 0 0-13.1 39.6c9.1 9.1 23.9 9.1 33 0l-16.4-16.5-3.5-23.1z" class="st2"/>
  <path d="M402 39.9c.8-6.8-1.5-13.9-6.7-19.1-3.7-3.7-8.3-5.9-13.2-6.6l-3.2 23.1 23.1 2.6z" class="st3"/>
  <path d="m378.9 37.3 16.5 16.5c3.9-3.9 6.1-8.8 6.7-13.9l-23.2-2.6z" class="st4"/>
  <path d="M382.2 14.2c-2.2-.3-4.5-.3-6.7 0l3.4 23.1 3.3-23.1z" class="st5"/>
  <path d="M422.5 34.7h-9.8c-.9 0-1.7-.8-1.7-1.7V14.4c0-.9.8-1.7 1.7-1.7h9.8c.9 0 1.7.8 1.7 1.7v18.5c0 1-.7 1.8-1.7 1.8zm17.2-9.4h-9.8c-.9 0-1.7-.8-1.7-1.7v-9.2c0-.9.8-1.7 1.7-1.7h9.8c.9 0 1.7.8 1.7 1.7v9.2c-.1.9-.8 1.7-1.7 1.7zm-1.3 14.1-21.6 11.8c-1.6.9-1.7 3.1-.2 4.2L419 57c1.3.9 1.6 2.6.8 3.9l-66.1 104.6a4.3 4.3 0 0 1-5.7 1.3L217.2 76.1c-4.3-2.5-9.6-1.8-13.2 1.5L88.7 177.4a5.1 5.1 0 0 0-.2 7.3l1.8 1.9a5.1 5.1 0 0 0 7.3.2l111.3-96c1.7-1.6 4.2-1.9 6.3-.7l132 91.3c4.6 2.7 10.5 1.3 13.5-3.1l69.8-110c.9-1.3 2.6-1.6 3.9-.8l2.4 1.6c1.5 1 3.6.1 3.8-1.7l3-24.5c.5-2.8-2.6-4.9-5.2-3.5z" class="st6"/>
  <path d="M441.1 39.1 437.7 66l-3.8-2.5c-1.5-1-3.5-.6-4.4.8l-1.5 2.2-69.8 110c-2.1 3.1-6.2 4-9.4 2.2l-132-91.3a8.45 8.45 0 0 0-9.9 1.1L95.4 184.7c-.5.5-1.1.6-1.7.5-1.2-.2-2.3.4-3.2 1.2l-.3.3a5.1 5.1 0 0 0 7.3.2l111.4-96.1c1.7-1.6 4.2-1.9 6.3-.7l132 91.3c4.6 2.7 10.5 1.3 13.5-3.1l69.8-110c.9-1.3 2.6-1.6 3.9-.8l2.4 1.6c1.5 1 3.6.1 3.8-1.7l3-24.5c.4-1.8-.9-3.3-2.5-3.8z" class="st7"/>
  <path d="M470.8 145.2c-.1-.6-.3-1.2-.6-1.8-.3-.6-.4-1.4-.2-2l.8-3.5c.1-.6.1-1.1-.1-1.7l-.4-1.3c-.2-.8.4-1.7 1.3-1.6 1 .1 1.9.4 2.7.9 1.5.9 2.1 2.6 1.6 4.1-1.3 3.6-2.2 2-.8 7.9l-4.2.4-.1-1.4z" class="st8"/>
  <path d="m475.8 149.5-4.8.3.3 11.3 10.8 7.4 7.3-6.4-12.2-5.3z" class="st9"/>
  <path d="m475.1 146.3-4.2.4.1 3.1 4.8-.3z" class="st6"/>
  <path d="m453.5 152.4-6.2-5.4-2.2 2.5c-.7.8-.7 2.1.2 2.9l3.1 2.7c.8.7 2.1.7 2.9-.2l2.2-2.5z" class="st3"/>
  <path d="m466.1 146.9-15-13.1-6.4 7.3c-1.9 2.1-1.7 5.4.5 7.3l7.2 6.3c2.1 1.9 5.4 1.7 7.3-.5l6.4-7.3z" class="st6"/>
  <path d="M488.9 134.9c7.1-8.1 6.1-20.6-2.3-27.5a19.17 19.17 0 0 0-31.2 14.9c0 4.2-1.5 8.3-4.3 11.5l15 13.1c2.7-3.1 6.5-5.2 10.6-5.7 4.6-.5 8.9-2.6 12.2-6.3z" class="st4"/>
  <path d="M476.2 139.2c4.4-.6 8.5-2.6 11.4-6 1.3-1.5 2.2-3.1 2.9-4.9.4-1 1.5-1.6 2.6-1.2-.7 2.8-2.1 5.4-4.1 7.7-3.3 3.7-7.6 5.9-12.2 6.4-4.1.5-7.9 2.6-10.6 5.7l-1.6-1.4c3-3.5 7.1-5.7 11.6-6.3z" style="fill:#ff9e37"/>
  <path d="M462 143.3c3.7-4.7 9.1-7.8 14.8-8.4a5.75 5.75 0 0 0 3.3-9.9l-8.3-7.8a5.95 5.95 0 0 0-6.6-1.1c-2.3 1-3.7 3.1-3.7 5.6v.1c0 5.9-2.2 11.6-6.2 15.8l1.5 1.4c4.4-4.7 6.8-10.8 6.8-17.3v-.1c0-1.9 1.2-3.2 2.4-3.7s2.9-.6 4.3.8l8.3 7.8c1.1 1 1.4 2.5 1 3.9-.5 1.4-1.6 2.3-3.1 2.5-6.2.7-12.1 4.1-16.2 9.2l1.7 1.2z" class="st11"/>
  <path d="M461.6 152.1 445 140.8l2.4-2.8 16.6 11.3z" class="st7"/>
  <path d="M483.8 245.8c-.1-.8-.5-2.5-.3-4.4l.2-2.4-4.5.1c-.3 1 .8 3.6-2.3 6.1 1.9 2.2 4 3.4 6.9.6z" class="st6"/>
  <path d="M483.8 245.8c-1.3.6-2.8 1-4.2.8-1.3-.2-1.4-1.1-2.8-1.3l-.2.2c-1 .8-2.2 1.3-3.4 1.7-2.3.7-2.7 1.5-2.8 2.4h13c.4-.3.5-2 .3-3.6.1-.1.1-.1.1-.2z" class="st12"/>
  <path d="M492.2 187.4c.9-.3 1.9.4 1.9 1.4l.1 2.4c.2 4.2-1 8.6-3.8 12.1-1.1 1.4-1.8 3-2 4.7l-4.4 35.7-8.1-.2 4.2-49c0-.9.3-2.5.7-4.1l11.4-3z" class="st9"/>
  <path d="M491.4 245.8c-.3-.8-1-2.6-1.2-4.4l-.3-2.5-4.5.1c-.1 1 1.5 3.6-1.1 6.2 2.3 2.1 4.7 3.4 7.1.6z" class="st6"/>
  <path d="M491.4 245.8c-1.1.6-2.6 1-4 .8-1.3-.2-1.6-1.1-3-1.4l-.2.2c-.8.8-1.9 1.3-3 1.7-2.2.7-2.4 1.5-2.3 2.4h13c.4-.3.1-2.1-.4-3.6-.1 0-.1-.1-.1-.1z" class="st12"/>
  <path d="M486.5 191.5c3 .6 4.9 3.5 4.3 6.5-.3 1.6-.9 3.1-1.7 4.5s-1.2 3-1.1 4.8l2.7 36.5-8.3-.2-5.5-49.9c-.1-.9-.2-2.5-.1-4.2l9.7 2z" class="st13"/>
  <path d="m478.9 150.3 1.3-1.2c.4-.3.6-.8.7-1.3.4-2 1.3-3.7 3.1-5.4l1.2-1.1 3 1c4.1 1.4 6.1 5.9 4.3 9.9-.3.6-.5 1.3-.7 1.9-.1.6-.3 1.1-.6 1.6-.6 1-.9 2.1-1 3.2l-.2 2.8-7.1-.2.3-2.4c.1-.7-.4-1.4-1-1.6l-.6-.2c-1.3-.4-2.1-1.7-2-3l.1-1.5c0-.3-.1-.5-.3-.7l-.6-.5c-.3-.3-.3-.9.1-1.3z" class="st8"/>
  <path d="M490.5 158.4c-1.5-1-6.2-.3-9.1 2.4l.3.7 9.9-.5-1.1-2.6z" class="st6"/>
  <path d="m461.7 152.3-3.7 2.6c-3-6.2-2.1-4.3-4-7.9-.8-1.6-.3-3.6 1.2-4.8.1-.1.3-.2.4-.3 1.1-.8 2.6-.3 3.1 1l1.6 4.4c.1.3.2.7.2 1-.2 1.5.3 2.8 1.2 4z" class="st8"/>
  <path d="M476.9 192.3c0-.8 0-1.7.1-2.7l9.6 2c2.7.6 4.6 3 4.4 5.8l-7.4-1.2c-2.7-.6-5.1-2-6.7-3.9z" class="st9"/>
  <path d="M479.1 160.3h12.1c3.3 2.2 4.9 6.1 4.3 10l-1.1 6.4c-.5 2.7-.5 5.5-.1 8.2l1.3 9.1c.2 1.3-1 2.5-2.3 2.3l-9.6-1.6c-4.7-.8-8.2-4.9-8.2-9.7v-6.8c0-2.1.3-4.2.8-6.2l.6-2.6 2.2-9.1z" class="st13"/>
  <path d="M479.1 160.3h4.4l.5.5c1 1.3 1.5 2.9 1.2 4.5-.6 3.3-3.5 5.7-6.8 5.7-.3 0-.6 0-.9-.1l-.9-.1.4-1.4 2.1-9.1z" class="st9"/>
  <path d="M482.9 141.7c.7-.8 1.8-1.2 2.8-.8l3.3 1.1c4.1 1.4 6.1 5.8 4.4 9.8-1.8 4.3-2.5 5.6-3.6 5.6-3.4 0-.7-5.1-1.4-6.4-.7-1.2-1.7-.7-2.3-.2l-1.3 1.3c-.2.2-.5.3-.7.2-.4-.1-.5-.5-.3-.9l.6-1.1c.3-.6.2-1.3-.3-1.8-.6-.5-.9-1.3-.9-2 0-.5-.2-1.1-.5-1.5-.7-1-.6-2.3.2-3.3z" class="st12"/>
  <path d="m459.5 158-1.6-3.2 3.7-2.6c.7.8 1.3 1.5 1.9 2.3l-4 3.5z" class="st6"/>
  <path d="M491.5 184.2c.4-.1.7.2.8.6l1.7 11.5h-.6l-.8-.1-1.6-11.1c-.1-.5.1-.9.5-.9zm-8.2 1.2h-.2l-4.2-.3c-1.6-.1-2.8-1.5-2.7-3.1v-.7c0-.4.3-.6.7-.6l8.6.5c.2 0 .4.1.5.2.1.1.2.3.2.5l-.1.8c0 1.5-1.3 2.7-2.8 2.7zm-5.7-3.3c-.1.8.6 1.6 1.4 1.6l4.2.3c.8 0 1.5-.6 1.6-1.4v-.1l-7.2-.4z" class="st9"/>
  <path d="m477.7 169.4-9.3-1.2c-2.5-.3-4.8-1.9-5.9-4.2l-2.9-6 4.1-3.4 4.5 5.6h11.7c2.5 0 4.4 2.3 3.9 4.7-.6 2.9-3.2 4.9-6.1 4.5z" class="st13"/>
  <circle cx="258.2" cy="162.9" r="77.5" class="st14"/>
  <path d="M258.2 240.4c-25.4 0-47.9-12.3-62-31.2 23.3 21 49.6 30.1 75.3 25.4a72.95 72.95 0 0 0 57.6-54.3c6.5-26.8-2.3-54.7-24.4-79.3a77.36 77.36 0 0 1 31.1 61.9c-.1 42.8-34.8 77.5-77.6 77.5z" style="fill:#f15663"/>
  <circle cx="258.2" cy="162.9" r="50.7" class="st11"/>
  <circle cx="258.2" cy="162.9" r="26.4" class="st14"/>
  <path d="M203.8 124c-4.8-6.9-10.2-13-15.7-18.8-5.6-5.7-11.3-11.2-17.8-15.6-6.2-4.3-14.8-2.7-19 3.6-4.3 6.2-2.7 14.8 3.6 19 .2.1.4.3.6.4 6.7 4.1 14 7.1 21.5 9.8 7.6 2.7 15.3 5.1 23.6 6.7 1.8.3 3.5-.8 3.8-2.6.1-.9-.2-1.8-.6-2.5z" class="st3"/>
  <path d="M258.2 165.9c1 0 2-.5 2.6-1.4.9-1.4.5-3.3-.9-4.2l-79.1-51.2c-1.4-.9-3.3-.5-4.2.9s-.5 3.3.9 4.2l79.1 51.2c.5.4 1.1.5 1.6.5z" class="st12"/>
  <path d="M112.8 22.6v35.5c0 1.1.9 2.1 2.1 2.1h50.3c1.1 0 2.1-.9 2.1-2.1V22.6h-54.5z" class="st16"/>
  <path d="M165.9 54.9h-51.8c-.3 0-.6-.3-.6-.6s.3-.6.6-.6h51.8c.3 0 .6.3.6.6 0 .4-.2.6-.6.6zm0-8h-51.8c-.3 0-.6-.3-.6-.6s.3-.6.6-.6h51.8c.3 0 .6.3.6.6s-.2.6-.6.6zm0-8.1h-51.8c-.3 0-.6-.3-.6-.6s.3-.6.6-.6h51.8c.3 0 .6.3.6.6s-.2.6-.6.6zm0-8.1h-51.8c-.3 0-.6-.3-.6-.6s.3-.6.6-.6h51.8c.3 0 .6.3.6.6s-.2.6-.6.6z" class="st11"/>
  <path d="M120.6 38.8c-.3 0-.6-.3-.6-.6v-4.8c0-.3.3-.6.6-.6s.6.3.6.6v4.8c0 .3-.3.6-.6.6zm7.7 0c-.3 0-.6-.3-.6-.6v-4.8c0-.3.3-.6.6-.6s.6.3.6.6v4.8c.1.3-.2.6-.6.6zm7.8 0c-.3 0-.6-.3-.6-.6v-4.8c0-.3.3-.6.6-.6s.6.3.6.6v4.8c0 .3-.2.6-.6.6zm7.8 0c-.3 0-.6-.3-.6-.6v-4.8c0-.3.3-.6.6-.6s.6.3.6.6v4.8c0 .3-.3.6-.6.6zm7.8 0c-.3 0-.6-.3-.6-.6v-4.8c0-.3.3-.6.6-.6s.6.3.6.6v4.8c0 .3-.3.6-.6.6zm7.8 0c-.3 0-.6-.3-.6-.6v-4.8c0-.3.3-.6.6-.6s.6.3.6.6v4.8c0 .3-.3.6-.6.6zm-38.9-8.1c-.3 0-.6-.3-.6-.6v-4.8c0-.3.3-.6.6-.6s.6.3.6.6v4.8c0 .3-.3.6-.6.6zm7.7 0c-.3 0-.6-.3-.6-.6v-4.8c0-.3.3-.6.6-.6s.6.3.6.6v4.8c.1.3-.2.6-.6.6zm7.8 0c-.3 0-.6-.3-.6-.6v-4.8c0-.3.3-.6.6-.6s.6.3.6.6v4.8c0 .3-.2.6-.6.6zm7.8 0c-.3 0-.6-.3-.6-.6v-4.8c0-.3.3-.6.6-.6s.6.3.6.6v4.8c0 .3-.3.6-.6.6zm7.8 0c-.3 0-.6-.3-.6-.6v-4.8c0-.3.3-.6.6-.6s.6.3.6.6v4.8c0 .3-.3.6-.6.6zm7.8 0c-.3 0-.6-.3-.6-.6v-4.8c0-.3.3-.6.6-.6s.6.3.6.6v4.8c0 .3-.3.6-.6.6zm-38.9 16.2c-.3 0-.6-.3-.6-.6v-4.8c0-.3.3-.6.6-.6s.6.3.6.6v4.8c0 .3-.3.6-.6.6zm7.7 0c-.3 0-.6-.3-.6-.6v-4.8c0-.3.3-.6.6-.6s.6.3.6.6v4.8c.1.3-.2.6-.6.6zm7.8 0c-.3 0-.6-.3-.6-.6v-4.8c0-.3.3-.6.6-.6s.6.3.6.6v4.8c0 .3-.2.6-.6.6zm7.8 0c-.3 0-.6-.3-.6-.6v-4.8c0-.3.3-.6.6-.6s.6.3.6.6v4.8c0 .3-.3.6-.6.6zm7.8 0c-.3 0-.6-.3-.6-.6v-4.8c0-.3.3-.6.6-.6s.6.3.6.6v4.8c0 .3-.3.6-.6.6zm7.8 0c-.3 0-.6-.3-.6-.6v-4.8c0-.3.3-.6.6-.6s.6.3.6.6v4.8c0 .3-.3.6-.6.6zm-38.9 8c-.3 0-.6-.3-.6-.6v-4.8c0-.3.3-.6.6-.6s.6.3.6.6v4.8c0 .4-.3.6-.6.6zm7.7 0c-.3 0-.6-.3-.6-.6v-4.8c0-.3.3-.6.6-.6s.6.3.6.6v4.8c.1.4-.2.6-.6.6zm7.8 0c-.3 0-.6-.3-.6-.6v-4.8c0-.3.3-.6.6-.6s.6.3.6.6v4.8c0 .4-.2.6-.6.6zm7.8 0c-.3 0-.6-.3-.6-.6v-4.8c0-.3.3-.6.6-.6s.6.3.6.6v4.8c0 .4-.3.6-.6.6zm7.8 0c-.3 0-.6-.3-.6-.6v-4.8c0-.3.3-.6.6-.6s.6.3.6.6v4.8c0 .4-.3.6-.6.6zm7.8 0c-.3 0-.6-.3-.6-.6v-4.8c0-.3.3-.6.6-.6s.6.3.6.6v4.8c0 .4-.3.6-.6.6z" class="st11"/>
  <path d="M125.9 45h-3c-.7 0-1.3-.6-1.3-1.3v-3c0-.7.6-1.3 1.3-1.3h3c.7 0 1.3.6 1.3 1.3v3c.1.7-.5 1.3-1.3 1.3zm7.8 0h-3c-.7 0-1.3-.6-1.3-1.3v-3c0-.7.6-1.3 1.3-1.3h3c.7 0 1.3.6 1.3 1.3v3c.1.7-.5 1.3-1.3 1.3zm-15.8-8.1h-3c-.7 0-1.3-.6-1.3-1.3v-3c0-.7.6-1.3 1.3-1.3h3c.7 0 1.3.6 1.3 1.3v3c0 .7-.5 1.3-1.3 1.3zm23.6-7.9h-3c-.7 0-1.3-.6-1.3-1.3v-3c0-.7.6-1.3 1.3-1.3h3c.7 0 1.3.6 1.3 1.3v3c0 .7-.6 1.3-1.3 1.3zm7.8 0h-3c-.7 0-1.3-.6-1.3-1.3v-3c0-.7.6-1.3 1.3-1.3h3c.7 0 1.3.6 1.3 1.3v3c0 .7-.6 1.3-1.3 1.3zm0 24.1h-3c-.7 0-1.3-.6-1.3-1.3v-3c0-.7.6-1.3 1.3-1.3h3c.7 0 1.3.6 1.3 1.3v3c0 .7-.6 1.3-1.3 1.3zm7.8 0h-3c-.7 0-1.3-.6-1.3-1.3v-3c0-.7.6-1.3 1.3-1.3h3c.7 0 1.3.6 1.3 1.3v3c0 .7-.6 1.3-1.3 1.3zm0-8.1h-3c-.7 0-1.3-.6-1.3-1.3v-3c0-.7.6-1.3 1.3-1.3h3c.7 0 1.3.6 1.3 1.3v3c0 .7-.6 1.3-1.3 1.3z" class="st0"/>
  <path d="M116.6 18.2c-.3 0-.6-.3-.6-.6s.3-.6.6-.6c.4 0 1-.9 1-2.4 0-1.4-.6-2.4-1-2.4-.3 0-.6-.3-.6-.6s.3-.6.6-.6c1.3 0 2.3 1.6 2.3 3.6 0 2.1-1 3.6-2.3 3.6zm15.6 0c-.3 0-.6-.3-.6-.6s.3-.6.6-.6c.4 0 1-.9 1-2.4 0-1.4-.6-2.4-1-2.4-.3 0-.6-.3-.6-.6s.3-.6.6-.6c1.3 0 2.3 1.6 2.3 3.6 0 2.1-1 3.6-2.3 3.6zm15.6 0c-.3 0-.6-.3-.6-.6s.3-.6.6-.6c.4 0 1-.9 1-2.4 0-1.4-.6-2.4-1-2.4-.3 0-.6-.3-.6-.6s.3-.6.6-.6c1.3 0 2.3 1.6 2.3 3.6 0 2.1-1 3.6-2.3 3.6zm15.6 0c-.3 0-.6-.3-.6-.6s.3-.6.6-.6c.4 0 1-.9 1-2.4 0-1.4-.6-2.4-1-2.4-.3 0-.6-.3-.6-.6s.3-.6.6-.6c1.3 0 2.3 1.6 2.3 3.6 0 2.1-1 3.6-2.3 3.6z" class="st5"/>
  <path d="M165.2 15h-50.3c-1.1 0-2.1.9-2.1 2.1v5.6h54.5v-5.6c-.1-1.2-1-2.1-2.1-2.1zm-48.6 4.6c-.7 0-1.3-.6-1.3-1.3s.6-1.3 1.3-1.3 1.3.6 1.3 1.3-.6 1.3-1.3 1.3zm15.6 0c-.7 0-1.3-.6-1.3-1.3s.6-1.3 1.3-1.3 1.3.6 1.3 1.3-.6 1.3-1.3 1.3zm15.6 0c-.7 0-1.3-.6-1.3-1.3s.6-1.3 1.3-1.3 1.3.6 1.3 1.3-.5 1.3-1.3 1.3zm15.6 0c-.7 0-1.3-.6-1.3-1.3s.6-1.3 1.3-1.3 1.3.6 1.3 1.3-.5 1.3-1.3 1.3z" class="st17"/>
  <path d="M163.4 18.2c-1.3 0-2.3-1.6-2.3-3.6 0-2.1 1-3.6 2.3-3.6.3 0 .6.3.6.6s-.3.6-.6.6c-.4 0-1 .9-1 2.4 0 1.4.6 2.4 1 2.4.3 0 .6.3.6.6.1.3-.2.6-.6.6zm-15.6 0c-1.3 0-2.3-1.6-2.3-3.6 0-2.1 1-3.6 2.3-3.6.3 0 .6.3.6.6s-.3.6-.6.6c-.4 0-1 .9-1 2.4 0 1.4.6 2.4 1 2.4.3 0 .6.3.6.6s-.2.6-.6.6zm-15.6 0c-1.3 0-2.3-1.6-2.3-3.6 0-2.1 1-3.6 2.3-3.6.3 0 .6.3.6.6s-.3.6-.6.6c-.4 0-1 .9-1 2.4 0 1.4.6 2.4 1 2.4.3 0 .6.3.6.6s-.3.6-.6.6zm-15.6 0c-1.3 0-2.3-1.6-2.3-3.6 0-2.1 1-3.6 2.3-3.6.3 0 .6.3.6.6s-.3.6-.6.6c-.4 0-1 .9-1 2.4 0 1.4.6 2.4 1 2.4.3 0 .6.3.6.6s-.3.6-.6.6z" class="st18"/>
  <path d="M77.7 205.6c-.3 0-.6-.3-.6-.6s.3-.6.6-.6.7-.7.7-1.9-.5-1.9-.7-1.9c-.3 0-.6-.3-.6-.6s.3-.6.6-.6c1.1 0 2 1.3 2 3.1s-.9 3.1-2 3.1zm15 0c-.3 0-.6-.3-.6-.6s.3-.6.6-.6.8-.7.8-1.9-.5-1.9-.8-1.9-.6-.3-.6-.6.3-.6.6-.6c1.1 0 2 1.3 2 3.1s-.9 3.1-2 3.1zm15 0c-.3 0-.6-.3-.6-.6s.3-.6.6-.6.7-.7.7-1.9-.5-1.9-.7-1.9c-.3 0-.6-.3-.6-.6s.3-.6.6-.6c1.1 0 2 1.3 2 3.1s-.8 3.1-2 3.1zm15 0c-.3 0-.6-.3-.6-.6s.3-.6.6-.6.8-.7.8-1.9-.5-1.9-.8-1.9-.6-.3-.6-.6.3-.6.6-.6c1.1 0 2 1.3 2 3.1s-.8 3.1-2 3.1z" class="st17"/>
  <path d="M117.5 246H133c1.6 0 2.9-1.5 2.5-3.1l-8.7-39.5-9.3 42.6z" class="st5"/>
  <path d="m128.5 210.8-1.7-7.4-9.3 42.6h4.1z" class="st19"/>
  <path d="M117.5 246H67.9c-1.7 0-3-1.6-2.6-3.2l8.6-39.4h52.8l-9.2 42.6z" class="st16"/>
  <path d="M114.5 242.3h-45c-.2 0-.4-.1-.5-.2s-.2-.3-.1-.5l7.4-33.8c.1-.3.3-.5.6-.5h45c.2 0 .4.1.5.2.1.1.2.3.1.5l-7.4 33.8c-.1.3-.3.5-.6.5zM70.3 241H114l7.1-32.6H77.4L70.3 241z" class="st18"/>
  <path d="M76 242.3c-.4-.1-.7-.4-.6-.8l7.4-33.8c.1-.3.4-.6.8-.5.3.1.6.4.5.8l-7.4 33.8c-.2.3-.5.5-.7.5zm6.4 0c-.4-.1-.7-.4-.6-.8l7.4-33.8c.1-.3.4-.6.8-.5.3.1.6.4.5.8l-7.4 33.8c-.2.3-.4.5-.7.5zm6.4 0h-.1c-.3-.1-.6-.4-.5-.8l7.4-33.8c.1-.3.4-.6.8-.5.3.1.6.4.5.8l-7.4 33.8c-.1.3-.4.5-.7.5zm6.4 0h-.1c-.3-.1-.6-.4-.5-.8l7.4-33.8c.1-.3.4-.6.8-.5.3.1.6.4.5.8l-7.4 33.8c-.1.3-.4.5-.7.5zm6.4 0h-.1c-.3-.1-.6-.4-.5-.8l7.4-33.8c.1-.3.4-.6.8-.5.3.1.6.4.5.8l-7.4 33.8c-.1.3-.4.5-.7.5zm6.5 0h-.1c-.3-.1-.6-.4-.5-.8l7.4-33.8c.1-.3.4-.6.8-.5.3.1.6.4.5.8l-7.4 33.8c-.2.3-.4.5-.7.5z" class="st18"/>
  <path d="M120.4 215.2h-45c-.3 0-.6-.3-.6-.6s.3-.6.6-.6h45c.3 0 .6.3.6.6.1.3-.2.6-.6.6zM119 222H74c-.3 0-.6-.3-.6-.6s.3-.6.6-.6h45c.3 0 .6.3.6.6s-.3.6-.6.6zm-1.5 6.7h-45c-.3 0-.6-.3-.6-.6s.3-.6.6-.6h45c.3 0 .6.3.6.6s-.3.6-.6.6zm-1.5 6.8H71c-.3 0-.6-.3-.6-.6s.3-.6.6-.6h45c.3 0 .6.3.6.6s-.3.6-.6.6z" class="st18"/>
  <path d="M122.7 205.6c-1.1 0-2-1.3-2-3.1s.9-3.1 2-3.1c.3 0 .6.3.6.6s-.3.6-.6.6-.7.7-.7 1.9.5 1.9.7 1.9c.3 0 .6.3.6.6.1.3-.2.6-.6.6zm-15 0c-1.1 0-2-1.3-2-3.1s.9-3.1 2-3.1c.3 0 .6.3.6.6s-.3.6-.6.6-.7.7-.7 1.9.5 1.9.7 1.9c.3 0 .6.3.6.6s-.2.6-.6.6zm-15 0c-1.1 0-2-1.3-2-3.1s.9-3.1 2-3.1c.3 0 .6.3.6.6s-.3.6-.6.6-.7.7-.7 1.9.5 1.9.7 1.9c.3 0 .6.3.6.6s-.3.6-.6.6zm-15 0c-1.1 0-2-1.3-2-3.1s.9-3.1 2-3.1c.3 0 .6.3.6.6s-.3.6-.6.6-.8.7-.8 1.9.5 1.9.8 1.9.6.3.6.6-.3.6-.6.6z" class="st20"/>
  <path d="M101.2 215.2c-.2 0-.4-.1-.5-.3l-4.9-6.8c-.2-.3-.1-.7.1-.9.3-.2.7-.1.9.1l4.9 6.8c.2.3.1.7-.1.9-.1.1-.3.2-.4.2z" class="st17"/>
  <path d="M94.8 215.2c-.2 0-.4-.1-.5-.2-.2-.3-.2-.7.1-.9l7.9-6.8c.3-.2.7-.2.9.1s.2.7-.1.9l-7.9 6.8c-.1 0-.3.1-.4.1zm-3 13.5c-.2 0-.4-.1-.5-.3l-4.9-6.8c-.2-.3-.1-.7.1-.9.3-.2.7-.1.9.1l4.9 6.8c.2.3.1.7-.1.9-.1.2-.3.2-.4.2z" class="st17"/>
  <path d="M85.4 228.7c-.2 0-.4-.1-.5-.2-.2-.3-.2-.7.1-.9l7.9-6.8c.3-.2.7-.2.9.1s.2.7-.1.9l-7.9 6.8c-.1.1-.3.1-.4.1z" class="st17"/>
  <path d="M106.3 235.5c-.3 0-.5-.2-.6-.5l-1.7-6.8c-.1-.3.1-.7.5-.8.3-.1.7.1.8.5l1.7 6.8c.1.3-.1.7-.5.8h-.2z" class="st21"/>
  <path d="M106.3 235.5c-.1 0-.2 0-.4-.1-.3-.2-.4-.6-.2-.9l4.7-6.8a.65.65 0 1 1 1.1.7l-4.7 6.8c-.1.2-.3.3-.5.3zm-7.9 6.8c-.3 0-.5-.2-.6-.5l-1.7-6.8c-.1-.3.1-.7.5-.8.3-.1.7.1.8.5l1.7 6.8c.1.3-.1.7-.5.8-.1-.1-.1 0-.2 0z" class="st21"/>
  <path d="M98.4 242.3c-.1 0-.3 0-.4-.1-.3-.2-.4-.6-.2-.9l4.7-6.8a.65.65 0 1 1 1.1.7l-4.7 6.8c-.1.2-.3.3-.5.3z" class="st21"/>
  <path d="M269.4 41.6h17.4c1.5 0 2.8-1.2 2.8-2.8V20c0-1.5-1.2-2.8-2.8-2.8h-17.4a2.8 2.8 0 0 0-2.8 2.8v18.8c.1 1.6 1.3 2.8 2.8 2.8z" class="st0"/>
  <path d="M284.8 27.3h-13.2a1 1 0 0 1 0-2h13.2c.5 0 1 .4 1 1-.1.6-.5 1-1 1zm-4-4h-2.5a1 1 0 0 1 0-2h2.5c.5 0 1 .4 1 1s-.5 1-1 1zm-6.2 0h-3a1 1 0 0 1 0-2h3c.5 0 1 .4 1 1-.1.6-.5 1-1 1zm3.9 8.1h-6.9a1 1 0 0 1 0-2h6.9c.5 0 1 .4 1 1s-.5 1-1 1zm38.4 3c.4 0 .8.4.8.8V57c0 .8-.6 1.5-1.4 1.5h-20.1c-.8 0-1.4-.7-1.4-1.5V40.2c0-3.2 2.4-5.7 5.4-5.7l16.7-.1z" class="st19"/>
  <path d="M317.8 34.4v.4c0 3.6-.3 7.2-.8 10.7l-1.4 8.9c-.1.7-.7 1.2-1.4 1.2h-20.3c-.7 0-1.3-.7-1.2-1.4l1.3-8.7c.6-3.5.8-7.1.8-10.7v-.4c0-.8.6-1.5 1.4-1.5h20.1c.9.1 1.5.7 1.5 1.5z" class="st0"/>
  <path d="M312.2 43.9H299a1 1 0 0 1 0-2h13.2c.5 0 1 .4 1 1 0 .5-.5 1-1 1zM301 51.1h-3a1 1 0 0 1 0-2h3c.5 0 1 .4 1 1s-.5 1-1 1zm4.9-11.4H299c-.5 0-1-.4-1-1s.4-1 1-1h6.9c.5 0 1 .4 1 1s-.5 1-1 1z" class="st11"/>
  <path d="M261.4 27.3c.4 0 .8.4.8.8v22.1c0 .8-.6 1.5-1.4 1.5h-20.1c-.8 0-1.4-.7-1.4-1.5V33c0-3.2 2.4-5.7 5.4-5.7h16.7z" class="st19"/>
  <path d="M262.3 27.3v.4c0 3.6-.3 7.2-.8 10.7l-1.4 8.9c-.1.7-.7 1.2-1.4 1.2h-20.3c-.7 0-1.3-.7-1.2-1.4l1.3-8.7c.6-3.5.8-7.1.8-10.7v-.4c0-.8.6-1.5 1.4-1.5h20.2c.7 0 1.4.7 1.4 1.5z" class="st0"/>
  <path d="M256.6 36.4H244c-.5 0-1-.4-1-1s.4-1 1-1h12.6c.5 0 1 .4 1 1s-.5 1-1 1zm-6.3-4.1H244c-.5 0-1-.4-1-1s.4-1 1-1h6.3c.5 0 1 .4 1 1s-.5 1-1 1z" class="st11"/>
  <path d="M90.2 140.1a22.1 22.1 0 0 1-16.7-36.6l5.5 4.8c-2.3 2.7-3.6 6.1-3.6 9.7 0 8.2 6.6 14.8 14.8 14.8S105 126.2 105 118s-6.6-14.8-14.8-14.8v-7.3a22.1 22.1 0 0 1 0 44.2z" class="st22"/>
  <path d="m79 108.4-5.5-4.8A21.9 21.9 0 0 1 90.2 96v7.3c-4.3-.1-8.4 1.8-11.2 5.1z" class="st16"/>
  <path d="M90.2 103.2c-.3 0-.5-.2-.5-.5V87.5c0-.3.2-.5.5-.5s.5.2.5.5v15.2c-.1.3-.3.5-.5.5z" class="st19"/>
  <path d="M92.5 91.8c-.3 0-.5-.2-.5-.5v-3.7c0-.3.2-.5.5-.5s.5.2.5.5v3.7c0 .3-.2.5-.5.5zm2.6 0c-.7 0-1.3-.6-1.3-1.3v-2c0-.7.6-1.3 1.3-1.3s1.3.6 1.3 1.3v1.9c.1.8-.5 1.4-1.3 1.4zm0-3.7c-.2 0-.4.2-.4.4v1.9c0 .2.2.4.4.4s.4-.2.4-.4v-1.9c.1-.2-.1-.4-.4-.4zm3.6 3.7c-.7 0-1.3-.6-1.3-1.3v-2c0-.7.6-1.3 1.3-1.3s1.3.6 1.3 1.3v1.9c0 .8-.6 1.4-1.3 1.4zm0-3.7c-.2 0-.4.2-.4.4v1.9c0 .2.2.4.4.4s.4-.2.4-.4v-1.9c0-.2-.2-.4-.4-.4zm3.4 3.7h-.2c-.2-.1-.3-.4-.2-.6l1.8-3.7c.1-.2.4-.3.6-.2.2.1.3.4.2.6l-1.8 3.7c-.1.1-.3.2-.4.2zm2 0c-.4 0-.7-.3-.7-.7 0-.4.3-.7.7-.7s.7.3.7.7c.1.3-.3.7-.7.7zm0-.9c-.1 0-.2.1-.2.2s.1.2.2.2.2-.1.2-.2c0-.2-.1-.2-.2-.2zm-2.3-2.3c-.4 0-.7-.3-.7-.7s.3-.7.7-.7.7.3.7.7-.3.7-.7.7zm0-.9c-.1 0-.2.1-.2.2s.1.2.2.2.2-.1.2-.2-.1-.2-.2-.2z" class="st21"/>
  <path d="M22.9 185.9c.1-1.7.3-3.5.6-5.6l5.3 1.1-.7 5c-.2 1.4-1.4 2.3-2.8 2.2-1.4-.1-2.5-1.3-2.4-2.7z" class="st17"/>
  <path d="m28.7 168.1.3 1.4c1 .8 1.6 1.9 1.7 3.2L29.4 184l-8.2-1 2.3-9.9c.5-2.3 1.9-4.3 3.9-5.6.5-.4 1.2-.1 1.3.6z" class="st21"/>
  <path d="M78.3 209.9c.6.4 1.2.9 1.7 1.5l3.1 3.6c.5.6-.1 1.5-.8 1.2l-4.6-1.3c-.7-.2-1.4-.5-2.1-.9l2.7-4.1z" class="st19"/>
  <path d="m75.7 213.9-56.2-36c-1.1-.7-1.5-2.2-.7-3.4.7-1.1 2.2-1.5 3.4-.7l56.2 36c1.7 1.2-1 5.3-2.7 4.1z" class="st5"/>
  <path d="M16.4 252c0 1-1.3 1.6-2 1l-1.3-1.1c-1-.9-1.7-2.2-1.9-3.8-.1-1-.5-1.9-1-2.7l-.6-.8c-.6-.9-.2-2.1.8-2.7 1-.5 2-.9 3.1-1.1l2 2.6-.4 3.9c-.2 1.5.2 2.9 1 4 .2.2.3.4.3.7z" class="st19"/>
  <path d="M15.3 244c-.7.5-1.4.3-1.6-.3-.2-.6.4-2.1-.7-2.9 4.9-6.3 8.9-12.3 13.3-15.9 1.3-1.1 2-2.7 1.9-4.3L27 198.8l5.7.5c2.9.3 5 2.8 4.7 5.7l-1.3 18.9c-.1 1.8-1 3.5-2.4 4.7L15.3 244zM30 166c1.7-2.8 1.1-4.7.9-5.7 1.5-3.5 3.9-1.7 6.7.7.4.6 0 4.2-1.1 6.1l-.3.5c-1.4.5-2.7.6-4 .1L30 166z" class="st17"/>
  <path d="M61.8 250.3c-1.6-.2-3.1-.9-4.4-1.9l-1.7-1.4-4.3.6c-.7 1.3-1.1 2.7-1.1 4.1 0 .5.4 1 .9 1l1.8-.1h2.3l4.2.4 2.7-.2c.6 0 1.1-.7.9-1.3-.2-.6-.6-1.1-1.3-1.2z" class="st19"/>
  <path d="m51.4 247.7 4.3-.3 1.6-26.1c.1-1.7-.3-3.4-1.2-4.8l-11.3-18.4 1.1-1-.5-1-6.6 1.7-11.7 1.1c0 5.2 3 8 6.7 8 3.3 0 6.5 1.5 8.4 4.3l5.6 8.2c.9 1.3 1.3 2.8 1.2 4.3-.4 8.9 1 16.4 2.4 24z" class="st17"/>
  <path d="M26 181.9c1.8 5.7 2.2 10 .8 14.3l19.2 1.2c-1.6-5.5-2.4-11.8-2.1-17.6-.2-1.4 1-7.9-.1-8.8-1.3-1.2-5.2-2.5-7.1-4.3-2.6.4-4.2.2-6.5-.6l-2.4 1.2c-1.7.8-2.8 2.5-3 4.3-.3 3.5.1 7 1.2 10.3z" class="st22"/>
  <path d="M26.8 196.2c-3.8 8 2.1 22.1 1.2 26.5 7.1-.2 14.5.3 21.3-4.9 3.2-2.5 3.9-7.4 1.6-11.1-2.8-4.6-4.7-7.8-5.7-12l-18.4 1.5z" class="st19"/>
  <path d="M34.1 163.3c-1.8-.4-3.2-2-3.2-3.9 0-1-.2-2.1-.4-3.1-1.3-4.6.8-7.1 3.9-8.5 3.4-1.6 7.4.2 8.4 3.8.2.8.3 1.8.3 2.8 0 .6.1 1.1.4 1.6l1.3 2.1c.3.5.1 1.1-.4 1.3l-.5.2c-.3.1-.5.4-.6.6l-.7 2.3c-.4 1.4-1.9 2.2-3.4 1.9l-2.6-.6-2.5-.5z" class="st17"/>
  <path d="M37.9 156.1c.6-.5.9-1.1 1.2-1.8.3-.7.9-1.3 2-1.8.3-.2.6-.4 1-.7.7-.5.8-1.4.4-2-2.2-3.4-5.5-3.1-7-2.9-6 .5-8.7 5.8-5.7 10 1.1 1.6 1.3 4 1.3 4l.6-.1c1.2-.3 2.1-1.2 2.4-2.5.1-.8.6-1.5 1.2-2h.1c.5-.4 1.2-.4 1.8-.1 0 .1.4.1.7-.1z" class="st19"/>
  <path d="M32.7 160c-2.2 1.6-4.7 1.7-7.4.7-2.5-.9-4.5-3-3.9-5.8.9-4.1 4.8-3.5 7.7-2.2 5.4 2.6 4.8 7.1 3.6 7.3z" class="st19"/>
  <path d="m58.5 197.2-.2 1.1c-.1 1-1 1.6-2 1.5l-2.4-.4c-1.4-.2-2.3-1.5-2.1-2.8l.4-2.7 4.2-.3c1.7 1.8 2.3 2.3 2.1 3.6z" class="st17"/>
  <path d="m44.5 172.5 1.5 9.3 10.5 11.7-3.5 1.9-9.1-7.7c-1.6-1.5-2.8-3.4-3.4-5.5l-2.3-7.9 6.3-1.8z" class="st17"/>
  <path d="M40.9 170.2a7.02 7.02 0 0 0-4.4 9.8l1.3 3.6c.6 1.6 2.5 2.1 3.9 1.1l4.2-3.4c-.3-3.7-.4-6.2-1.4-9.2-.5-1.5-2.1-2.3-3.6-1.9z" class="st22"/>
  <path d="M38.8 186.6c-.2 0-.3-.1-.3-.2l-2.3-6.2c-.9-1.9-1-4.1-.1-6.1.1-.2.3-.3.5-.2s.3.3.2.5a7 7 0 0 0 .1 5.5c0 .1 2.1 5.8 2.1 5.8l6.1-4.7c.2-.1.4-.1.5.1.1.2.1.4-.1.5l-6.5 5h-.2z" class="st19"/>
  <path d="M39.2 17.5H14.8c-1.8 0-3.3-1.5-3.3-3.3v-.4c0-1.8 1.5-3.3 3.3-3.3h24.5c1.8 0 3.3 1.5 3.3 3.3v.4c-.1 1.8-1.5 3.3-3.4 3.3z" class="st22"/>
  <path d="M46.6 27.5H14.8c-1.8 0-3.3-1.5-3.3-3.3v-.4c0-1.8 1.5-3.3 3.3-3.3h31.8c1.8 0 3.3 1.5 3.3 3.3v.4c0 1.8-1.5 3.3-3.3 3.3z" class="st0"/>
  <path d="M46.6 71.1H14.8c-1.8 0-3.3-1.5-3.3-3.3v-.4c0-1.8 1.5-3.3 3.3-3.3h31.8c1.8 0 3.3 1.5 3.3 3.3v.4c0 1.8-1.5 3.3-3.3 3.3z" class="st16"/>
  <path d="M35.6 37.5H14.8c-1.8 0-3.3-1.5-3.3-3.3v-.4c0-1.8 1.5-3.3 3.3-3.3h20.8c1.8 0 3.3 1.5 3.3 3.3v.4c-.1 1.8-1.5 3.3-3.3 3.3z" class="st0"/>
  <path d="M39.2 47.5H14.8c-1.8 0-3.3-1.5-3.3-3.3v-.4c0-1.8 1.5-3.3 3.3-3.3h24.5c1.8 0 3.3 1.5 3.3 3.3v.4c-.1 1.8-1.5 3.3-3.4 3.3z" class="st18"/>
  <path d="M39.2 57.5H14.8c-1.8 0-3.3-1.5-3.3-3.3v-.4c0-1.8 1.5-3.3 3.3-3.3h24.5c1.8 0 3.3 1.5 3.3 3.3v.4c-.1 1.9-1.5 3.3-3.4 3.3z" class="st19"/>
  <path d="M39.2 80.3H14.8c-1.8 0-3.3-1.5-3.3-3.3v-.4c0-1.8 1.5-3.3 3.3-3.3h24.5c1.8 0 3.3 1.5 3.3 3.3v.4c-.1 1.9-1.5 3.3-3.4 3.3z" class="st16"/>
  <path d="M17.8 44c0-1.1-.9-2-2-2s-2 .9-2 2 .9 2 2 2c1.1.1 2-.8 2-2zm0 10.1c0-1.1-.9-2-2-2s-2 .9-2 2 .9 2 2 2 2-.9 2-2zm0-30.1c0-1.1-.9-2-2-2s-2 .9-2 2 .9 2 2 2 2-.9 2-2z" class="st11"/>
  <path d="M289.1 233.6c1.8-1.6 1.8-4.2 0-5.9l-6.2-5.7c-6.9-6.3-7.4-16.2-1.7-23 .9-1.1 2.5-1.7 4-1.7h15.5c1.6 0 3.1.6 4 1.7 5.8 6.9 5.2 16.8-1.7 23l-6.2 5.7c-1.8 1.6-1.8 4.2 0 5.9l6.2 5.7c6.9 6.3 7.4 16.2 1.7 23-.9 1.1-2.5 1.7-4 1.7h-15.5c-1.6 0-3.1-.6-4-1.7-5.8-6.9-5.2-16.8 1.7-23l6.2-5.7z" class="st16"/>
  <path d="M292.1 234.5V233c0-1.6-.7-3.1-1.9-4.2l-7.4-6.7c-3.1-2.8-4.9-6.3-5.4-9.9h31c-.6 3.6-2.4 7.1-5.4 9.9 0 0-4.6 4.2-7.4 6.7a5.7 5.7 0 0 0-1.9 4.2v1.5h-1.6zM305 262a16 16 0 0 0 3.6-9.1h-31.2c.3 3.2 1.5 6.4 3.6 9.1h24z" class="st17"/>
  <path d="M281 262c.1.1.2.2.2.3.9 1.1 2.5 1.8 4 1.8h15.5c1.6 0 3.1-.6 4-1.8.1-.1.2-.2.2-.3H281z" class="st19"/>
  <path d="m308.6 253-11-10c-2.4-2.2-3.8-5.3-3.8-8.4 0-.8-1.7-.8-1.7 0 0 3.2-1.4 6.2-3.8 8.4l-11 10h31.3z" class="st20"/>
  <path d="M299.5 251.5c0 .3-.2.5-.5.5s-.5-.2-.5-.5.2-.5.5-.5.5.2.5.5z" class="st17"/>
  <path d="M299 252.2c-.4 0-.7-.3-.7-.7 0-.4.3-.7.7-.7.4 0 .7.3.7.7 0 .4-.3.7-.7.7zm0-1c-.2 0-.3.2-.3.3 0 .2.2.3.3.3.2 0 .3-.2.3-.3 0-.2-.1-.3-.3-.3zm-2-.7c0 .3-.2.5-.5.5s-.5-.2-.5-.5.2-.5.5-.5.5.2.5.5z" class="st17"/>
  <path d="M296.5 251.2c-.4 0-.7-.3-.7-.7 0-.4.3-.7.7-.7.4 0 .7.3.7.7 0 .3-.3.7-.7.7zm0-1.1c-.2 0-.3.2-.3.3 0 .2.2.3.3.3.2 0 .3-.2.3-.3.1-.1-.1-.3-.3-.3zm-6.5-5.4c0 .3-.2.5-.5.5s-.5-.2-.5-.5.2-.5.5-.5.5.2.5.5z" class="st17"/>
  <path d="M289.5 245.4c-.4 0-.7-.3-.7-.7 0-.4.3-.7.7-.7.4 0 .7.3.7.7 0 .4-.3.7-.7.7zm0-1.1c-.2 0-.3.2-.3.3 0 .2.2.3.3.3.2 0 .3-.2.3-.3.1-.1-.1-.3-.3-.3z" class="st17"/>
  <path d="M283.6 216.5c0 .3-.2.5-.5.5s-.5-.2-.5-.5.2-.5.5-.5.5.2.5.5z" class="st20"/>
  <path d="M283.1 217.2c-.4 0-.7-.3-.7-.7s.3-.7.7-.7c.4 0 .7.3.7.7 0 .4-.3.7-.7.7zm0-1c-.2 0-.3.2-.3.3s.2.3.3.3c.2 0 .3-.2.3-.3s-.1-.3-.3-.3zm21-1.7c0 .3-.2.5-.5.5s-.5-.2-.5-.5.2-.5.5-.5.5.2.5.5z" class="st20"/>
  <path d="M303.6 215.2c-.4 0-.7-.3-.7-.7s.3-.7.7-.7c.4 0 .7.3.7.7 0 .4-.3.7-.7.7zm0-1.1c-.2 0-.3.2-.3.3s.2.3.3.3c.2 0 .3-.2.3-.3s-.1-.3-.3-.3zm0 2.3c0 .3-.2.5-.5.5s-.5-.2-.5-.5.2-.5.5-.5.5.3.5.5z" class="st20"/>
  <path d="M303.1 217.1c-.4 0-.7-.3-.7-.7s.3-.7.7-.7c.4 0 .7.3.7.7 0 .4-.4.7-.7.7zm0-1c-.2 0-.3.2-.3.3 0 .2.2.3.3.3.2 0 .3-.2.3-.3s-.2-.3-.3-.3z" class="st20"/>
  <circle cx="290.5" cy="221.2" r=".5" class="st20"/>
  <path d="M290.5 221.9c-.4 0-.7-.3-.7-.7s.3-.7.7-.7c.4 0 .7.3.7.7 0 .4-.3.7-.7.7zm0-1c-.2 0-.3.2-.3.3 0 .2.2.3.3.3.2 0 .3-.2.3-.3.1-.1-.1-.3-.3-.3z" class="st20"/>
  <circle cx="286.4" cy="256.9" r=".5" class="st20"/>
  <path d="M286.4 257.6c-.4 0-.7-.3-.7-.7 0-.4.3-.7.7-.7.4 0 .7.3.7.7 0 .4-.3.7-.7.7zm0-1c-.2 0-.3.2-.3.3 0 .2.2.3.3.3.2 0 .3-.2.3-.3.1-.2-.1-.3-.3-.3zm-3.3 2.3c0 .3-.2.5-.5.5s-.5-.2-.5-.5.2-.5.5-.5.5.3.5.5z" class="st20"/>
  <path d="M282.6 259.6c-.4 0-.7-.3-.7-.7 0-.4.3-.7.7-.7.4 0 .7.3.7.7 0 .4-.3.7-.7.7zm0-1c-.2 0-.3.2-.3.3 0 .2.2.3.3.3.2 0 .3-.2.3-.3 0-.1-.1-.3-.3-.3zm2.1-3.8c0 .3-.2.5-.5.5s-.5-.2-.5-.5.2-.5.5-.5.5.2.5.5z" class="st20"/>
  <path d="M284.2 255.5c-.4 0-.7-.3-.7-.7 0-.4.3-.7.7-.7.4 0 .7.3.7.7s-.3.7-.7.7zm0-1c-.2 0-.3.2-.3.3 0 .2.2.3.3.3.2 0 .3-.2.3-.3 0-.2-.1-.3-.3-.3z" class="st20"/>
  <circle cx="294" cy="256.9" r=".5" class="st20"/>
  <path d="M294 257.5c-.4 0-.6-.3-.6-.6s.3-.6.6-.6.6.3.6.6-.3.6-.6.6zm0-.9c-.2 0-.3.1-.3.3 0 .2.1.3.3.3.2 0 .3-.1.3-.3-.1-.2-.2-.3-.3-.3zm7.9-41.2c0 .3-.2.5-.5.5s-.5-.2-.5-.5.2-.5.5-.5.5.3.5.5z" class="st20"/>
  <path d="M301.4 216.1c-.4 0-.6-.3-.6-.6 0-.4.3-.6.6-.6.4 0 .6.3.6.6.1.3-.2.6-.6.6zm0-1c-.2 0-.3.1-.3.3s.1.3.3.3c.2 0 .3-.1.3-.3 0-.1-.1-.3-.3-.3zm-15.5-5-8.4 2h31l-8.4-2c-4.7-1.1-9.6-1.1-14.2 0z" class="st20"/>
  <path d="M299.3 237.6c.3.4.5.7.8 1.2.3.4.6.8.8 1.3.5.9.9 1.8 1.3 2.7.8 1.9 1.3 3.8 1.6 5.8.2 1.1-.5 2.1-1.6 2.2s-2-.5-2.2-1.6v-.2c-.1-1.7-.4-3.5-.8-5.1-.2-.8-.5-1.6-.9-2.4l-.6-1.2c-.2-.4-.5-.8-.7-1.2-.4-.6-.1-1.4.5-1.8.7-.4 1.5-.2 1.8.3zm2.2-38.1c.6.6 1 1.4 1.3 2.1.3.8.6 1.5.7 2.3.2.8.2 1.6.2 2.4 0 .8-.1 1.6-.4 2.4-.2.7-1 1.1-1.7.8-.4-.1-.6-.4-.8-.7-.3-.7-.5-1.4-.7-2.1-.2-.7-.3-1.4-.5-2.1-.1-.7-.3-1.4-.4-2.1-.1-.7-.2-1.4-.2-2.2v-.1c0-.8.6-1.4 1.3-1.4.5.2.9.4 1.2.7z" class="st11"/>
  <path d="m488.9 61.1-3.4 10.6c-.2.5.2 1.1.8 1.1h19.4c.8 0 1.6-.5 1.8-1.3l3.4-10.6c.2-.5-.2-1.1-.8-1.1h-19.4c-.8 0-1.5.5-1.8 1.3z" class="st16"/>
  <path d="m465 39.8-2.8 8.5c-.2.7.3 1.3 1 1.3h16c.9 0 1.6-.6 1.9-1.4l2.8-8.5c.2-.7-.3-1.3-1-1.3h-16c-.9.1-1.7.6-1.9 1.4zm34.1 27.8c-.2 0-.4-.1-.6-.2l-7.8-5.1c-.5-.3-.7-1-.3-1.6.3-.5 1-.7 1.6-.3l7.3 4.8 9.2-4.8c.6-.3 1.2-.1 1.5.5s.1 1.2-.5 1.5l-9.8 5.1c-.3.1-.4.1-.6.1z" class="st0"/>
  <path d="M473 45.2c-.2 0-.4-.1-.6-.2l-6.5-3.8c-.5-.3-.7-1-.4-1.6.3-.5 1-.7 1.6-.4l6 3.5 8.5-3.5c.6-.2 1.2 0 1.5.6.2.6 0 1.2-.6 1.5l-9.1 3.8c-.1.1-.2.1-.4.1z" class="st11"/>
  <path d="m179.8 214.7-15.1 30.8-3.4 1.1c1.9-10.1 4.9-24.2 11.4-33.9l-9-25.2L175 185l4.8 29.7z" class="st17"/>
  <path d="M169.1 249.7c-.9-.6-1.3-1.3-1.9-2.3-2.5-4.1-.4-5.8-.4-7l-3.7-2.7-.7 2.5c-.5 1.9-1.6 3.5-1.9 4.2 2.7 3.8 5.6 6.5 8.6 5.3z" class="st17"/>
  <path d="m162.2 251.8-1.9-.5-.4-3.4c.7-.4 2.3.3 2.9.9l-.6 3z" class="st19"/>
  <path d="M160 248.2c-.4-.7.3-2.9.5-3.7v-.1c3.4 2.5 3.9 5.5 7.7 5.5.3 0 .6-.1.8-.2.3.2.5.3.8.4 2.3 1.2 2.8 2.1 2.9 3h-6.1c-2-.4-.9-1.9-6.6-4.9z" class="st19"/>
  <path d="M179.6 249.7c-.9-.6-1.8-1.2-2.6-2-3.4-3.4-2.8-6.2-3.3-7.2l-4.5-.3.7 2.4c.6 1.9 0 3.1 0 3.9 3.4 3 6.7 4.4 9.7 3.2z" class="st17"/>
  <path d="M173.2 253.2h-1.9l-1.2-3.2c.6-.5 2.3-.3 3.1.2v3z" class="st19"/>
  <path d="M170.2 250.2c-.5-.6-.5-2.9-.4-3.7v-.1c3.9 1.6 5.1 3.4 9 3.4.3 0 .6-.1.8-.2.3.2.5.3.8.4 2.3 1.2 2.8 2.1 2.9 3h-5.5c-2.1.2-1.3-1.2-7.6-2.8z" class="st19"/>
  <path d="m172.8 219.5 1.6 26.9-4.1.1c-2.1-10-6-18.1-5.3-27.1.1-1.4 1-2.6 2.3-3.2 2.4-1.1 5.3.6 5.5 3.3z" class="st17"/>
  <path d="M176.2 181.7c.2 1.2.5 2.4.9 3.6l.3.9c4 12 5.5 24.2 4.8 36.8l-17.6 2.4c0-13.7-8.3-24.8-6.7-35 .7-3.8 1.6-6.4 2.6-8.8l15.7.1z" class="st5"/>
  <path d="m185.5 178.2-2.3.2c-.6.1-1.1-.2-1.4-.8l-5.6-10.3c.5-3 1.5-5.2 3.9-5.1l6.9 13.1c.6 1.4-.2 2.8-1.5 2.9z" class="st17"/>
  <path d="M166.1 156.6v-5.9h-7c-2.2 0-3.9 1.7-3.9 3.9 0 3.3 2.6 5.9 5.9 5.9h1.1c2.1 0 3.9-1.7 3.9-3.9z" class="st19"/>
  <path d="M178 167.9v-.2c0-2 1.1-3 2.6-4.3l-.5-.9c-1.3-2.5-3.6-4.4-6.3-5.1l-4.8-1.3-8.8 2.1c-1.2.3-2.2 1.1-2.8 2.1-.5.9-.6 2-.4 3l3 14.6c.5 2.6.2 5.3-1 7.7-.9 1.9.5 4.1 2.6 4.1l15.2-4.9c-1-3.7-.8-6.8.4-9.6 1-2.4 1.2-4.9.8-7.3z" class="st5"/>
  <path d="m169.3 153.9-3.2-.5c-2.8-.4-4.8-2.9-4.6-5.8.1-2.2.2-4.3.3-4.9 1.5-7.4 14.5-6.3 15 1l-.1 3.7c-.1 4-3.5 7.1-7.4 6.5z" class="st19"/>
  <path d="M165.2 154.5c.1-1 .1-3.4-.3-4.9-1.6-.3-2.4-3.9-.8-4.4.7-.2.9.5 1.4 1.1l2.7-.7h.3c2 .2 3.5 2.1 3.3 4.1l-.2 5.5c0 .8.5 1.6 1.3 1.8l1.1.4c-.9 1.5-2.5 2.5-4.2 2.7-.9.1-1.7.2-2.6.1-2-.1-3.9-1.1-5.2-2.7l.9-.3c1.3-.3 2.2-1.4 2.3-2.7z" class="st17"/>
  <path d="m175.2 152-.4 1c-.5 1.1-1.6 1.8-2.9 1.8a6.1 6.1 0 0 1-5.5-3.7l-.7-1.7-.1-3.5c.6-.3 1-1 1-1.7 0-2 1.5-3.6 3.4-3.6h1.9c2 0 3.6 1.6 3.6 3.5v2c0 .6 0 1.2.1 1.7.4 1.5.2 3-.4 4.2z" class="st17"/>
  <path d="M165.8 147.3c1.5-.2 3.1-2.4 3.8-3.6 1-1.6 1.6-3.5 1.5-5.4-2.8-.4-6.8 2.6-6.6 5.5.1.8.8 2.9 1.3 3.5z" class="st19"/>
  <path d="M173.6 150.5c.3 0 .5.4.3.6-.5.6-1.3 1-2.2 1-.8 0-1.5-.4-2-1-.2-.2 0-.6.3-.6h3.6z" class="st11"/>
  <path d="m173 165.5-9.3 9.8.6 2.9.9.7c1.5 1.1 3.6.7 4.5-.9l6.5-10.8-3.2-1.7zm16.5-.3-6 7.8-1.6 4.9.3.4c1.5 1.8 4.3 1.5 5.3-.6l5.8-11.6-3.8-.9z" class="st17"/>
  <path d="m164.4 167.2 5.6 9.7-5.7 1.2c-1.9-2.2-3.5-4.3-4.9-6.5-.9-1.3-.6-3.1.6-4l1.3-1c1-.8 2.5-.5 3.1.6z" class="st17"/>
  <path d="M178.3 175.6h11.5c.9 0 1.6-.6 1.9-1.4l5.3-16.4c.2-.7-.3-1.4-1-1.4h-11.5c-.9 0-1.6.6-1.9 1.4l-5.3 16.4c-.2.7.3 1.4 1 1.4z" class="st22"/>
  <path d="M193.6 162.7c.3.1.7.3 1.1.5.9.5 1.2 1.7.7 2.6l-2 3.2c-.3-.7-.7-1.4-1.2-2l-.8-1.1c-1.4-1.5.2-3.8 2.2-3.2zm-21.2 3.6c.3-.4.6-1.1.7-1.6.1-1 .2-2.3.2-2.3.2-1.5 1.4-2.6 3-2.8.9-.1 1.8 0 2.6.3s1 1.3.5 1.9l-.9.9c-.4.4-.6.9-.7 1.4l-.8 3.3c-.3 1.1-1.3 2.2-2.5 2.1-1.5 0-2.5-1.5-2.2-2.9l.1-.3z" class="st17"/>
  <path d="M185.7 166.5c-.3 1.1.3 2 1.3 2s2.1-.9 2.4-2c.3-1.1-.3-2-1.3-2s-2.1.9-2.4 2z" class="st11"/>
  <path d="m407.2 187.4 6.5-16.3-3.6-1.6c-1.9-.9-4.2.2-5 2.2l-3.8 11.1-10.1-2.3-1.3 3.4 12.1 5.6c2 .9 4.4-.1 5.2-2.1z" class="st23"/>
  <path d="M408.4 258.7c-.5 2.2-3.5 1.5-3.5-.7l.1-27-.7-17.1 7.6.3-.5 9.8c-.1 1.6 0 3.2.2 4.8.9 9-.6 17.5-3.2 29.9zm14.7.2c-.9 1.9-2 .4-3.6-.9l-1.7-26.6c-.1-1.7-.4-3.5-.7-5.1a48 48 0 0 1-1.1-10.2l8.2-1.7-.3 8.7c-.1 2.7.2 5.3.7 7.9 1.9 9.2-.3 17.4-1.5 27.9z" class="st17"/>
  <path d="M403.1 232.9h-2.7l3.3-38.3h10.2c3.1 0 6.2-.6 9-1.9.3 1.4.7 2.8 1.2 4.2 1.2 3 1.7 6.3 1.5 9.6l-.7 12.1c-.3 5-.7 9.5-.1 14.3h-21.7z" class="st5"/>
  <path d="M419.7 194.6a4 4 0 0 1-3.5 2.7c-1 .1-1.9.1-2.7.1h-10.1l1.3-10.7c.3-2.1-.2-4.1-1.1-6-.5-1.1-.6-2.5-.1-4.2l2.8-8.1c.6-1.1 1.5-1.9 2.7-2.2l1.1-.3c.7-.2 1.4-.5 2-.9l1-.6c1.3-.8 3-.7 4.1.2l1.3 1.1c.6.5 1.2.9 1.9 1.2l3.5 1.8c1.9.9 2 2.5 1.6 4.6l-2.3 10.5c-.7 2.9.1 9.1.5 12-.9.4-1.9.1-2.5-.7l-1.1-1.5-.4 1z" class="st18"/>
  <path d="M425.4 170.6c-.7-.5-1.6-.5-2.4-.2l-.9.4c-3 1.4-5 4.2-5.3 7.5l-.6 6-7.6 10.3c-.3.4-.3.9.1 1.3l1.4 1.5h3.2c4-3.1 7.1-6 9.5-8.8-.1-1.8 0-3.6.2-4.8l2.3-10.5c.3-1 .4-1.9.1-2.7zm-13.6-.4-1 .4c-1.2.5-2.6-.4-2.6-1.8 0-.9.3-1.8 1-2.7l.8-.2c.5-.1 1-.3 1.5-.5-1.7 1.3-2.2 2.3-2.3 3.5 0 .6.6 1 1.2.8l1.6-.6.9.7.5.5c.6.6 1.4.7 2.1.3 1.7-.9 3.5-2.2 4-4.1.3.2.5.3.8.5l.1.1c-.7 2.1-2.5 3.5-4.5 4.5-1.1.5-2.4.3-3.2-.5l-.9-.9z" class="st23"/>
  <path d="m409.4 195.3 7.8-10.5.6-6.3c.3-2.9 2.1-5.4 4.7-6.6l.9-.4c1.1-.5 2.3.4 2.1 1.6l-2.7 14.2c-3.1 3.8-7 7.2-11.2 10.4l-2.2-2.4z" class="st18"/>
  <path d="m402.1 193.5 13.8 10.5-5 11-13.8-10.5z" class="st16"/>
  <path d="M409.4 195.3c-1.4.4-3.6 1.8-4.2 2.8-.5.9-.3 2.2.1 3.1.3.6 1.2 2 2.2 1.8s1.8-1.8 2.2-2.5c.6-1.1 1-2 1.9-3l-2.2-2.2z" class="st17"/>
  <path d="M419.3 162.6c3.4-.6 5-4.3 3.1-6.9-.3-.4-.6-.8-1-1.2-.7-.9-.7-1.9-.9-2.9-1.3-6.1-13-4.8-13.4 1.3-.2 3.3-1.4 4.1-2.1 5.7-.8 1.7.4 3.6 2.3 3.8 4 .2 8.4.9 12 .2z" class="st19"/>
  <path d="M417.7 167.3c.5-.6.7-1.5.4-2.2-.1-.3-.3-.8-.3-1.1l-.8-4.9h-5.7l.7 4.6c.1.6-.1 1.1-.5 1.5-.5.5-.8 1.2-.9 2l.3 1c.3 1 1.4 1.4 2.3 1l4.5-1.9z" class="st17"/>
  <path d="m418.6 157.5-.3 2.2a4.3 4.3 0 0 1-4.2 3.7 5.7 5.7 0 0 1-5.6-4.9c-.2-1.4-.2-2.9-.2-4.4.1-2.4 2.1-4.3 4.5-4.4h1.1l3.1 3.1c1.2 1.3 1.8 3 1.6 4.7z" class="st17"/>
  <path d="M417.8 159c1.3 0 2.3-1.1 2.4-2.3 0-.9-.8-1.6-1.6-1.4-.7.1-1.2.8-1.2 1.5v1.9c0 .1.2.3.4.3zm-27.9 24.8c-1.4.5-3.1.4-4.1-.1-.9-.5-1.4-1.7-1.5-2.7-.1-.7-.1-2.4.8-2.8.9-.4 2.4.5 3.1.8 1.1.5 1.9 1.2 3.1 1.4l-1.4 3.4zm10.9 76c.8-.5 1.5-1.1 2.2-1.9 2.8-3.2 1.8-5.8 2.1-6.8l4.2-.5-.2 2.3c-.2 1.8.3 3.1.5 3.8-2.9 2.9-5.8 4.2-8.8 3.1z" class="st17"/>
  <path d="M407.3 263h1.8l.7-3c-.6-.5-2.2-.2-2.9.2l.4 2.8z" class="st19"/>
  <path d="M409.7 260.3c.4-.5 0-2.7-.1-3.5v-.1c-3.4 1.5-4.3 3.2-7.9 3.2-.3 0-.6-.1-.8-.2-.2.1-.4.3-.7.4-2 1.2-2.3 2-2.2 2.9h5.2c1.7 0 .8-1.3 6.5-2.7z" class="st19"/>
  <path d="M416.8 259.8c.5-.5 1-1.1 1.4-1.9 1.7-3.2 1.1-5.8 1.3-6.8l4.2-.5-.1 2.3c-.1 1.8.2 3.1.3 3.8-1.6 2.5-3.2 3.9-4.9 3.3-.8.3-1.5.2-2.2-.2z" class="st17"/>
  <path d="m416.4 260.2.6-.6c.5.4 2.2.2 2.7 0 1.8-.8 3.5-2.4 4.1-2.8.1.5.2 1.8.2 2.7 0 .5-.1.6-.5 1.3-.3.7-.4.8-.8 2.4h-1.1v-1.5c-1.1.9-1.1 1.5-1.9 1.5H415c-.1-1 .1-1.9 1.4-3z" class="st19"/>
  <path d="M414.6 158.9c.3 0 .5.3.3.6-.5.6-1.3 1.1-2.2 1-.8 0-1.5-.4-2-.9-.2-.2 0-.6.3-.6l3.6-.1z" class="st11"/>
  <path d="M346.7 239.1c0-.1 0-.1 0 0 .1-1 .9-3.1.9-5.3l.1-2.7 5 .4c.2 1.1-1.4 3.9 1.8 6.8 2.3 4.7-1.5 3.9-7.8.8z" class="st17"/>
  <path d="M346.7 239.1c3.5.6 6.2 1.7 6.5 1.1.2-.4-.1-.9-.1-1.2-.2-.6.6-.9 1.4-.7.1.1.2.1.2.2 1.1.9 2.3 1.5 3.6 1.9 2.5.8 2.9 1.7 2.9 2.7h-14.4c-.4-.5-.4-2.3-.1-4z" class="st12"/>
  <path d="M338 239.2v-.2c0-.9.4-1.8-.2-3.8l-.7-2.5 4.3-1.9c.4 1 1.2 4.8 2.1 7.8.1.4.2.7.4 1-2.5 1-4.9 2.2-5.9-.4z" class="st17"/>
  <path d="M339.2 239.7c.5-.6 2.7-2.9 4.6-.3.2.4.4.7.6.9.7.8.8 1.7.8 2.7H338c-.1-.4-.1-2.1 0-3.8.4.6.8.9 1.2.5z" class="st12"/>
  <path d="M323 187.1c1.1 2.9 3 3.5 7.2 5.2 5 1.9 9 5.9 10.9 10.1l1.9 4.2c1.6 3.5 2.4 7.2 2.5 11l.3 18.2 7.9-.2-.1-26.7-8.9-24.1c-.6-1.7-2.6-3.2-4.6-3.5l-9.3-1.1c-2-.2-4-1-5.6-2l-2.2 8.9z" class="st19"/>
  <path d="m325.8 183.9 1 .1c4 .6 7.6 3.6 8.2 7.1l7.9 43.6-7.1 1.9-13.5-52 3.5-.7z" class="st19"/>
  <path d="m322.3 158.8.6-2.5c.7-2.6 2.6-4.6 5.2-5.3l6.6-1.9 8.2 2.2c2.8.7 4.5 3.6 3.8 6.3l-1.2 4.8c-1.2 4.7-1.8 9.7-1.7 14.6l.5 7-16.3 2.8c-2.1.4-4.3-.5-5.6-2.1v-25.9h-.1z" class="st18"/>
  <path d="M322.3 184.7v-25.9l.6-2.5c.1-.4.2-.7.4-1.1 1.1-.3 2.3 0 3.1.9a8.9 8.9 0 0 1 2.1 8.9l-2.9 8.9 5.1 9.7c.5.9.1 1.9-.7 2.4l-1.1.6-1.1.2c-2.1.4-4.2-.5-5.5-2.1z" class="st23"/>
  <path d="M325.7 188.6c.7.4 1.5.6 2.5.5.5 0 1.2-.2 1.8-.4 1.2-.3 1.7-1.7 1-2.8-.4-.6-.9-1.2-1.5-1.5-1.1-.6-3 1.2-4.2 2.5l.4 1.7z" class="st17"/>
  <path d="m329.7 184.6-5.6-10.6 3-9.5c.8-2.6.2-5.5-1.8-7.5-.9-1-2.5-.6-3 .6l-4.5 11.5c-1.4 3.7-.8 7.8 1.7 10.8l5.8 7.1 4.4-2.4z" class="st18"/>
  <path d="M341.7 150.9c1.9 2.6-1 6.3-2.7 8.4-.5-.3-4-3.3-5.7-6.2-.7-1.1-.2-2.6.9-3.2.6-.4 1.2-.6 1.2-.6l6.3 1.6z" style="fill:#d8e5ea"/>
  <path d="m337.2 155.3 2.1-1 1.4 1-.7 1.3c.2.3.3.7.4 1.1-.5.6-.9 1.2-1.3 1.7-.1-.1-.5-.4-1-.9.2-.3.4-.7.4-1 .1-.4-.1-.9-.4-1.2l-.9-1zm-3.5-11.7c.2 2 1.5 3.8 3.5 4.3 1 .3 2 .4 2.8.4 1.6 0 3-1.2 4-2.4s1.9-2.5 2.7-3.9c1-.6 2-1.4 2.6-2.3 1.3-1.8.2-4.4-2-5l-6.1-1.5c-1.2-.3-2.4.1-3.2 1-.7.8-.6.6-1.6.5-.8-.1-1.5.3-2 .8-.8.9-1.2 2.1-1.1 3.3l.4 4.8z" class="st19"/>
  <path d="M333.2 153c.9 1.6 2 2.7 2.4 3.1l3.7-1.7 2 1.7c.5-.6.8-1.4 1-2.3.1-.3.2-.6.2-.9-.3-2.1-1.9-3.8-3.9-4.3l-4-.6-1.1 1.4c-.8 1-1 2.4-.3 3.6z" class="st11"/>
  <path d="m342.8 147.2-1.7 4.1c-.4.9-1.2 2.4-1.8 3.1l-4.3-3.8c-.5-.8-.6-1.8-.3-2.7l1-2.8c-1.6-.8-1.3-4.6.5-4.7.8 0 .7.8 1.1 1.5l5.5 5.3z" class="st17"/>
  <path d="m341.9 137.6 4.4 1c.8.2 1.4 1 1.2 1.8-.3 2.2-.9 4.3-1.7 6.4l-.9 2.5c-.6 1.5-2.2 2.4-3.7 2-2.8-.6-4.8-3.1-4.8-6v-.4l.7-3.3 1.2-.3v-.2c0-.7.2-1.5.5-2.1.5-1.1 1.9-1.7 3.1-1.4z" class="st17"/>
  <path d="M353.1 171.8c-1.8.4-3.7-.4-4.7-2.1l-4.9-6.8 2.3-9.6 8.5 14.3c.6 1.2.1 3.9-1.2 4.2z" class="st23"/>
  <path d="M348.7 169.5c0-3.2 2.6-5.7 5.7-5.6h.1l.5 4.3c.3 2.2-1.5 4.1-3.7 4.1-1.4 0-2.6-1.2-2.6-2.8z" class="st18"/>
  <path d="M347.5 164.7h2.7c.9 0 1.6-.5 2-1.3l2.9-6.9c.3-.8-.3-1.7-1.1-1.7h-2.7c-.9 0-1.6.5-2 1.3l-2.9 6.9c-.4.8.2 1.7 1.1 1.7z" class="st22"/>
  <path d="M354.7 166.6c.2-.5 0-1.1 0-1.6-.1-2.9-.5-3.1-1.1-3.9-.3-.4-.7-1.1-1.2-1.4-.7-.4-2.6 1.2-3.5 2.9-.5.9 0 1.3.4 2.2.5 1.1 1.1 2.6 2.2 3.2 1.2.6 2.8-.4 3.2-1.4z" class="st17"/>
  <path d="M340.2 147c-.3 0-.5.3-.3.6.5.7 1.3 1.1 2.2 1.1.8 0 1.6-.3 2.1-.9.2-.2.1-.6-.3-.6l-3.7-.2z" class="st11"/>
  <path d="M217.3 266.7c0-.8.1-1.9 0-3.4-.1-1.3.8-2.5 2.1-2.8.9-.2 1.8.5 1.9 1.5.1 1.4.2 3.2.7 4.8v.1c-2.4 2.8-4 2.9-4.7-.2z" class="st2"/>
  <path d="M217.3 266.7c.2.5.5 1.3 1 1s.4-1.3 1.5-1.4c.9-.1 1.6.2 2.2.7.2.7.5 1.2.8 1.5.6.7.7 1.5.7 2.4h-6.2c-.1-.3-.1-2 0-3.5v-.7z" class="st25"/>
  <path d="M229.6 267.1c.1-.8.6-2.5.6-4.3v-2.4l4.4.1c.2 1-1 3.5 1.9 6-2.1 2.1-4.2 3.3-6.9.6z" class="st2"/>
  <path d="M229.6 267.1c1.2.6 2.7 1 4 .8s1.4-1.1 2.8-1.3l.2.2c.9.8 2 1.3 3.2 1.6 2.2.7 2.6 1.5 2.6 2.4h-12.6c-.4-.3-.3-2-.1-3.5-.1-.1-.1-.2-.1-.2z" class="st25"/>
  <path d="M217 212.5v2.6c0 3.3 1.3 5.4 4.8 6.9 3.2 1.4 5.3 4.3 5.5 7.8l1.9 35.5 8-.2-.9-48.5c0-.9-.1-2.4-.5-4l-18.8-.1z" class="st26"/>
  <path d="M223.9 265.2h-7.1l.2-50.1 4.1.7c3.4.5 5.8 3.6 5.6 7l-2.8 42.4z" style="fill:#252736"/>
  <path d="M217 212.5h19v-2.4c-6-1.3-12.4-.8-19 0v2.4z" class="st25"/>
  <path d="m235.6 196.9.4 13.3h-19c-.7-1.2-1.2-2.6-1.2-4v-25.9l9.7-2.1 9.5 1.9.6 16.8z" class="st9"/>
  <path d="m228.6 179 15.8 2.6 9.7-5a2.21 2.21 0 0 1 2.4 3.7c-4.9 4.1-11 8.4-15.9 8.1l-13.6-.1 1.6-9.3z" class="st9"/>
  <path d="M218.7 179.6c0 .1.1.1.1.2 4.6 7.5 12 5.8 11.6-.7l-5-1-6.7 1.5z" class="st6"/>
  <path d="m227.7 184.4-.6-1.3.6-1.1-1.1-.8-1.5 1.1.6.8-.1 1.6c.8.1 1.5 0 2.1-.3z" class="st26"/>
  <path d="M220.3 179.2c.8 2.4 3.1 3.9 3.2 4.2l3.1-2.1 1.7 1.2c.4-.6.7-1.3.8-2.1 0-.3.1-.6.1-.8l-1.7-2.2-2.1-1-3.3.1-1.8 2.7z" class="st1"/>
  <path d="M240.7 207.9h-11.6l5.3-16.2H246z" class="st6"/>
  <path d="m226 202.8-.5-4.9-7.2-1.1-.5-15c0-1.1-1.1-1.9-2.2-1.6-1.9.7-3.2 2.4-3.4 4.4-.3 3.9-.3 7.3.1 11.5.2 1.7.3 3.1.5 4.3.2 2 2 3.4 4 3.2l9.2-.8z" class="st13"/>
  <path d="m226 202.8 3.1-.4v-3.2c0-.4-.3-.7-.7-.7l-2.8-.6c-1.8.6-1.8 4.5.4 4.9z" class="st11"/>
  <path d="m233.5 199.4-1.9.5-2.6-1.2c-1.3-.6-2.8.7-2.2 2.1.3.7.8 1.3 1.5 1.7l2 1.3c1 .7 2.5.5 3.4-.5.6-.7 1.1-1.5 1.3-2.4.2-.9-.6-1.7-1.5-1.5zm21.4-23.1c-.9.2-1.7 1-1.8 1.9 0 .4 0 .8.2 1.2.4.8 1.3 1.3 2.2 1.2l4.6-.4c1.4-.1 2.6-1.3 2.8-2.7.1-.4.1-.9 0-1.3-.1-.9-1-1.5-1.8-1.3l-6.2 1.4zm-29.8-6h.3c1.8.2 3.1 1.8 2.9 3.6l-.4 3.6c-.1.8-.3 1.5-.7 2.2l-.8 1.6-3.4-3.1c-.6-.5-.9-1.3-.9-2.1l.1-2.4.6-2.8 2.3-.6z" class="st8"/>
  <path d="M231.3 169.3c.7 0 1.3-.3 1.7-.9a2 2 0 0 0-.5-2.7c.3-.5.5-1 .4-1.7a2.65 2.65 0 0 0-3.8-2.2c-.6.3-1.4.3-2 0-.1 0-.2-.1-.3-.1-1.3-.4-2.5.1-3.3.9-.4.5-1.1.8-1.8.8-1 0-1.9.7-2.2 1.6-.3.8-.1 1.7.5 2.3.6.7 1 1.5 1 2.4.6.2.9.4 1 .7h.2l9.1-1.1z" class="st28"/>
  <path d="M231.4 173.9c-.4 1.2-1 2.2-1.9 3.1-1 1-2.4 1.3-3.7.7-7-3.4-5-13.8-1-13.7l4.3.2c.8 0 1.5.6 1.6 1.4.2 1.2.4 2.4.4 3.5.7 1.5.9 3.3.3 4.8z" class="st8"/>
  <path d="M221.1 169.8c.8.2 1 .5 1.2 1.1.1.2.2.3.4.2.2 0 .3-.2.3-.4l.1-2c0-1.4 1-2.5 2.3-2.9 1.9-.5 4.4-.7 5.9-.2.4-.9.5-1.9.4-2.9l-7.2.4c-1.9.1-3.4 1.7-3.4 3.6v3.1z" class="st28"/>
  <path d="M222 173.7c-1.3 0-2.3-1.1-2.3-2.4 0-.9.8-1.6 1.7-1.4.7.1 1.2.8 1.1 1.5l-.1 1.9c0 .2-.2.4-.4.4z" class="st8"/>
  <path d="M223.2 163.5c-.5 1.4.3 3 1.8 3.5 1.4.5 3-.3 3.5-1.8.5-1.4-.3-3-1.8-3.5-1.5-.4-3 .4-3.5 1.8z" class="st28"/>
</svg>
