<svg xmlns="http://www.w3.org/2000/svg" xml:space="preserve" version="1.1" viewBox="0 0 610 390">
  <style>
    .st0{fill:none}.st1{fill:#ffd4b3}.st2{fill:#0086ff}.st4{opacity:.7;fill:none;stroke:#ffc55e;stroke-miterlimit:10;enable-background:new}.st7{fill:#fa7561}.st9{fill:#83a1b7}.st10{fill:#fff}.st12{fill:#64bdff}.st13{fill:#0f3871}.st14{fill:#bcbcbc}.st15,.st21{fill:#5e98ff}.st21{opacity:.16;enable-background:new}.st26{opacity:.9}.st27{fill:#b5cee5}.st29{fill:#a5c6e5}.st30{fill:#364254}
  </style>
  <g id="Layer_4">
    <path d="M8.2 346.9c-13.8.4-5.8 6.2 250.8 4.5 17.6-.1 47.4 1.7 67.3 1.3 136.8-2.7 268.1.6 268.1-4.8 0-4.8-239-11.4-338.3-5.1-40.4 2.5-215 3.2-247.9 4.1z" class="st0"/>
    <path d="M594.7 330c-3.8 4.7-10.4 7.9-13.7 3.7-3.1-4-.7-12.7 3.3-17.1 9.4-10.3 22.4-8.1 22.4-8.1-4.7 5.8-8.2 16.9-12 21.5z" class="st1"/>
    <path d="M581 333.8c-3.1-4-.7-12.7 3.3-17.1 9.4-10.3 22.4-8.1 22.4-8.1-19.5 9.5-25.7 25.2-25.7 25.2z" class="st1"/>
    <path d="M582.2 330.9s.2-.4.6-1.1c.2-.3.4-.8.7-1.2.3-.5.6-1 1-1.5l.6-.9c.2-.3.5-.6.7-.9.5-.6 1-1.3 1.6-1.9 1.2-1.3 2.5-2.7 3.9-4 2.9-2.6 5.6-4.7 7.6-6.2 2-1.4 3.2-2.3 3.2-2.3s-1.3.8-3.3 2.2c-2 1.4-4.8 3.4-7.7 6-1.4 1.3-2.8 2.7-3.9 4.1-.6.6-1.1 1.3-1.6 2-.2.3-.5.6-.7.9l-.6.9c-.4.6-.7 1.1-1 1.6s-.5.9-.7 1.2c-.1.4-.2.7-.4 1.1z" class="st1"/>
    <path d="M589.7 330.8c-3.2 13.4-10.7 25.5-16.7 18-5.7-7-5.9-28.8-2.3-41.7 8.4-30.3 26.5-34.2 26.5-34.2-4 16.6-4.3 44.5-7.5 57.9z" class="st1"/>
    <path d="M559.1 343.1c3.7 3.6 10 5.1 13-.2 2.8-4.9.3-13.1-3.6-16.4-9.1-7.8-21.2-1.8-21.2-1.8 4.5 4.5 8.1 14.7 11.8 18.4z" class="st1"/>
    <path d="M572.1 342.9c2.8-4.9.3-13.1-3.6-16.4-9.1-7.8-21.2-1.8-21.2-1.8 18.6 4 24.8 18.2 24.8 18.2z" class="st1"/>
    <path d="m570.8 340.4-.6-.9c-.2-.3-.4-.6-.7-1s-.6-.8-1-1.3c-.2-.2-.4-.5-.6-.7-.2-.2-.4-.5-.7-.7l-1.5-1.5c-1.1-1-2.4-2-3.8-2.9-2.8-1.9-5.4-3.2-7.3-4.1-1.9-.9-3.1-1.4-3.1-1.4s1.2.4 3.1 1.2c1.9.8 4.6 2 7.4 3.9 1.4.9 2.7 2 3.8 3 .5.5 1.1 1 1.5 1.6.2.3.5.5.7.8s.4.5.6.7c.4.5.7.9 1 1.3s.5.8.7 1.1c.3.5.5.9.5.9z" class="st1"/>
    <path d="M573 348.8c-5.7-7-5.9-28.8-2.3-41.7 8.4-30.3 26.5-34.2 26.5-34.2-22.2 35.5-24.2 75.9-24.2 75.9z" class="st1"/>
    <path d="M573 348.8c-5.7-7-5.9-28.8-2.3-41.7 8.4-30.3 26.5-34.2 26.5-34.2-22.2 35.5-24.2 75.9-24.2 75.9z" class="st1"/>
    <path d="M573.5 341.4s.1-1 .4-2.8c.1-.9.3-2 .5-3.3s.4-2.7.7-4.3c.2-.8.3-1.6.5-2.4s.4-1.7.6-2.6c.4-1.8.9-3.6 1.3-5.6 1-3.8 2.2-7.9 3.6-11.9 2.8-8.1 5.6-14.7 7.7-19.5l3.4-7.6s-1.4 2.7-3.5 7.2c-2.1 4.6-5.1 11-7.8 19.2-1.4 4.1-2.6 8.2-3.6 12.1-.5 2-.9 3.9-1.3 5.7-.2.9-.4 1.8-.5 2.6-.2.9-.3 1.7-.4 2.5-.3 1.6-.5 3.1-.7 4.4s-.3 2.4-.4 3.4c-.4 1.8-.5 2.9-.5 2.9z" class="st1"/>
    <path d="M589.7 351.4c-.1-5.7-.6-10.5-8.5-11.9-2.3-.4-6.6.2-8.4 1.6-7.1-6.2-11.6-10.6-19-10.6-8.7 0-12 7.6-12 16.3 0 1.7.3 3.2.7 4.7h47.2v-.1zm-181.8 40.1c-.2-7.1 2.5-11.4-9.9-13.2-3.7-.5-8.9 2.7-16.7.3-11.2-7.7-11.2-13.2-22.9-13.2-13.7 0-22 9.4-22 20.2 0 2.1-.6 4 .1 5.9h71.4z" class="st2"/>
    <path d="M519.5 212.6V38.8c-28.2 12.4-47.8 70.7-71 121.3-23.2 50.5-68 31.4-91.5 23.1-115.2-50.1-138.4 90.4-209.3 82-95.2-11.3-136.4 78.1-136.4 78.1l86.1-15.7s209.6-73.3 273.3-76.7c63.8-3.5 140.3-43.5 148.8-38.3z" style="opacity:.55;fill:#ffd4b3;enable-background:new"/>
    <path d="M79.2 272.8v57.3m56.5-67.3v51.7m53.3-61.9v44.5m56.4-98.8V291M349 180.2v116.9m56.5-96.5v96.5M465.8 119v109.5" class="st4"/>
    <path d="M519.5 343.2V212.6s-51 0-124.3 64.1c-76.7 67-130.3-31.3-200.7 12.4-77.2 47.9-183.1 54.2-183.1 54.2h508.1v-.1z" style="opacity:.62;fill:#fff;enable-background:new"/>
    <path d="M109.8 322.9v19.8m56.5-39.6v39.6m53.3-63.9v63.9m160-54.5v54.5m56.4-96.2v96.2m58.4-124.6v120.1M327.6 301v41.7" style="fill:none;stroke:#ddb6c0;stroke-miterlimit:10"/>
    <path d="m11.5 345.8-.2-5.2c1.1-.1 106.4-6.8 182.4-53.9 33-20.5 62.9-10.2 91.8-.2 33.5 11.6 68.1 23.5 108.7-12 38.1-33.3 70.1-49.1 90.2-56.4 21.9-8 34.6-8.1 35.2-8.1v5.2c-.5 0-51.3.8-123.2 63.7-42.1 36.8-77.6 24.6-111.9 12.7-29.5-10.2-57.4-19.8-89.1-.1-76.8 47.5-182.8 54.3-183.9 54.3z" class="st7"/>
    <path d="M297 173.8v129.1" class="st4"/>
    <path d="M276 286.2v56.5" style="fill:none;stroke:#fff;stroke-miterlimit:10"/>
    <path d="M13.1 344.7 9.8 342c.4-.9 10.8-23.1 33-44.1 20.5-19.4 55.4-41.2 105.2-35.3 28.3 3.4 49.2-18.1 71.3-40.8 32.5-33.3 69.4-71.1 138.3-41.1 1.1.4 2.3.8 3.5 1.3 24.1 8.7 64.5 23.2 85.7-23.2 4.5-9.8 8.9-20.1 13.2-30 18.2-42.2 35.4-82.1 58.8-92.4l1.2 4.9c-22 9.7-38.8 48.7-56.7 90-4.3 9.9-8.7 20.2-13.3 30.1-9.9 21.6-25 33.3-44.7 34.7-16.5 1.2-33.2-4.8-45.4-9.2-1.2-.4-2.4-.9-3.5-1.3h-.1c-67-29.2-103 7.7-134.8 40.3-21.1 21.7-41.2 42.2-67.8 42.2-2.1 0-4.2-.1-6.3-.4-48.6-5.8-82.6 15.5-102.6 34.3-21.4 20.5-31.6 42.5-31.7 42.7z" class="st1"/>
    <path d="m451 149.2-3.4-57.7H164.5v9.8h-49.9l-.4 193.1h160.4l-7.4 21-14.8 15.7 53.4 3.5 9.6-40.2h147.1l.4-172.2-11.9 27z" class="st9"/>
    <path d="m520.9 47 4.9-11.4c.6-1.3.1-2.4-1.1-2.4 0 0-7-.2-9.9-.1-1.4.1-2.8.6.6 8.2 3.3 7.7 4.6 7.6 5.5 5.7z" class="st1"/>
    <path d="m519.2 220.2 8.2-7.4c.9-.9.9-2.1-.1-2.8 0 0-6.2-4.3-8.9-5.9-1.3-.7-2.7-1.1-2.2 7.7.4 8.9 1.6 9.6 3 8.4z" class="st7"/>
    <path d="m237.2 109.9 20.5-14.5c-.1 0-.2-.1-.3-.1-3.1-1.4-6.2-2.4-9.3-3.5h-.5c-2.6-.9-5.2-1.6-7.9-1-1.9.4-3.8 1.2-5.7 1.6-5.9 1.1-12-.2-15.8-5.1-.7-.9.7-2.1 1.4-1.1 4.2 5.2 11.1 5.6 17.1 3.7 1.7-.5 3.3-.8 4.8-.9-2.6-1.4-5.1-3.1-7.3-5.4-.8-.8.6-2 1.4-1.1 6.4 6.8 15.7 8.1 23.9 11.9-.8-1.5-1.5-3.2-1.9-4.9-1-4.3-.1-10.2-4.7-12.6-1-.5-.4-2.2.6-1.7 3.8 2 4.8 5.6 5.3 9.6.4 3 1 5.9 2.3 8.4l17.7-12.5c-4.2-4.4-2.9-12-21.1-16.2-8.1-1.9-27.1-5.5-31.4-8.9-3.8-3.5-13.2-10-17.8-6.7-7.5 5.5 1.6 15.3.7 21.2-3.2 21.5 14.7 33.6 22.3 36.8 2.2.9 4.1 1.9 5.7 3z" class="st1"/>
    <path d="m259.5 94.1 1.6-1.1c-1.3-2.5-1.9-5.4-2.3-8.4-.5-4-1.4-7.7-5.3-9.6-1-.5-1.6 1.2-.6 1.7 4.6 2.4 3.7 8.3 4.7 12.6.5 1.7 1.1 3.3 1.9 4.8z" class="st10"/>
    <path d="M234.1 92.2c2-.4 3.8-1.2 5.7-1.6 2.7-.6 5.3.1 7.9 1 .2.1.4.1.5 0 3.1 1.1 6.2 2.2 9.3 3.5.1 0 .2.1.3.1l1.7-1.2c-8.2-3.8-17.4-5.1-23.9-11.9-.8-.8-2.2.3-1.4 1.1 2.2 2.3 4.7 4 7.3 5.4-1.5.1-3.1.3-4.8.9-6 1.9-12.9 1.5-17.1-3.7-.7-.9-2.1.2-1.4 1.1 3.9 5.1 10 6.4 15.9 5.3z" class="st10"/>
    <path d="m410.3 97.5.3-1.4c-.1-.1-.1-.3 0-.5.5-2.7.9-5.3 0-7.9-.6-1.9-1.7-3.6-2.3-5.5-1.8-5.7-1.2-11.9 3.1-16.3.8-.8 2.1.4 1.3 1.3-4.7 4.8-4.2 11.7-1.5 17.4.7 1.6 1.2 3.1 1.5 4.6 1-2.8 2.4-5.4 4.4-7.9.7-.9 2.1.3 1.3 1.3-3.6 4.4-5.1 9.7-6.3 15h27.4c.8-9.4 2.1-23.7 4.5-27.6 3-4.2 8.3-14.4 4.4-18.5-6.4-6.8-15 3.5-21 3.3-21.8-.5-31.5 18.7-33.8 26.7-2.9 10-8.4 14.3-13.7 16.1h30.4v-.1z" class="st1"/>
    <path d="M410.6 87.6c.9 2.6.5 5.3 0 7.9v.5l-.3 1.4h1.8c1.2-5.4 2.7-10.6 6.3-15 .7-.9-.6-2.2-1.3-1.3-2 2.5-3.4 5.1-4.4 7.9-.3-1.5-.7-3-1.5-4.6-2.6-5.7-3.1-12.6 1.5-17.4.8-.8-.5-2.1-1.3-1.3-4.3 4.4-4.9 10.6-3.1 16.3.6 2.1 1.6 3.8 2.3 5.6z" class="st10"/>
    <path d="M223.4 23.6c-2.3 21.6 16 33 23.7 35.9 17.8 6.7 16 20.8 14.6 26.4-.7 2.8-.2 7.1 1.4 11.6h45.3c-1.1-1.3-2.2-2.6-3.2-3.9-2.7-3.4-4.9-7.2-6.7-11.2-.4-.9-.8-1.9-1.1-2.8-.1-.1-.2-.2-.2-.4-.1-.4-.2-.7-.3-1-.1-.2-.1-.3-.2-.5-3.5-11-16.9-11.7-25.6-5.5-.9.7-2.2-.7-1.2-1.4 4.8-3.4 11.1-5.4 17-4.2 3.2.7 5.9 2.2 7.9 4.3-.2-.8-.5-1.7-.7-2.5-1.4-4.6-5.4-8.6-8.6-12.1a37.1 37.1 0 0 0-5-4.7h-.1c-.9-.6-1.8-1.2-2.6-1.9-1.7-1.1-3.4-2-5.3-2.7-3.1-1.2-6.3-2.2-9.4-3.2h-.5c-2.6-.8-5.2-1.4-7.9-.7-1.9.5-3.7 1.3-5.6 1.8-5.8 1.3-12 .2-16-4.4-.8-.9.6-2.1 1.4-1.2 4.4 5 11.3 5.1 17.2 3 1.7-.6 3.2-.9 4.7-1.1-2.7-1.3-5.2-2.9-7.5-5.1-.8-.8.5-2 1.4-1.2 6.7 6.5 16 7.5 24.3 10.9h.1c-.9-1.5-1.6-3.1-2.1-4.9-1.2-4.2-.5-10.2-5.2-12.4-1-.5-.5-2.2.6-1.7 3.9 1.8 5 5.4 5.6 9.4.7 4.6 2.1 8.8 5.3 11.8 2.3 1.5 4.4 3.4 6.4 5.3 3.1 3 6.3 6.6 8.6 10.3 2.4 3.8 3.3 8.5 4.4 12.9.3.7.5 1.4.6 2.2 1.3 4 3.5 7.9 5.8 11.4 1.4 2.1 3.1 4 4.8 5.9-1.1-4.6-.2-9.7 2.2-14 .9-1.7 2.1-3.2 3.5-4.5 2-1.9 4.6-3.2 6.3-5.4 3.8-4.9-.9-10.2-3.3-14.4-.6-1 1-1.8 1.6-.8 2.1 3.6 4.9 6.8 4.9 11.2 0 5.4-4.8 7.7-8.3 10.8-5 4.6-6.9 12.5-4.4 18.7h15.2c5.7-8.3 8.7-18 7.9-27.2-3-34.3-27.3-31.7-39.3-37.2-7.6-3.5-3-13.1-24.2-17.1-8.2-1.6-27.3-4.4-31.7-7.6-4-3.3-13.6-9.5-18-5.9-7.4 5.6 2.1 15 1.5 21z" style="fill:#b3deff"/>
    <path d="M287.2 58c2.8 3.1 5.8 6.5 7 10.3.3.8.5 1.7.7 2.5-2.9-3-6.9-4.6-11.1-4.6.1-.4.3-.9.4-1.4.8-2.5 1.8-4.8 3-6.8zm-2.7 27.8c.5 4 .7 7.8.4 11.7h23.5c-1.1-1.3-2.2-2.6-3.2-3.9-2.7-3.4-4.9-7.2-6.7-11.2-.4-.9-.8-1.9-1.1-2.8-.1-.1-.2-.2-.2-.4-.1-.4-.2-.7-.3-1-.1-.2-.1-.3-.2-.5-2.1-6.5-7.6-9.4-13.6-9.4-.5 1.9-.5 2.9-.4 5.2.2 4 1.2 8.2 1.8 12.3zm13.8-9.4c.3.7.5 1.4.6 2.2 1.3 4 3.5 7.9 5.8 11.4 1.4 2.1 3.1 4 4.8 5.9-1.1-4.6-.2-9.7 2.2-14 .9-1.7 2.1-3.2 3.5-4.5 2-1.9 4.6-3.2 6.3-5.4 3.8-4.9-.9-10.2-3.3-14.4-.6-1 1-1.8 1.6-.8 2.1 3.6 4.9 6.8 4.9 11.2 0 5.4-4.8 7.7-8.3 10.8-5 4.6-6.9 12.5-4.4 18.7h15.2c5.7-8.3 8.7-18 7.9-27.2-2.2-25.6-16.3-30.6-28.3-33.8-5.3 5.1-10.7 10.2-15.5 15.8a40.1 40.1 0 0 0-3.1 4.1c2.1 2.3 4.1 4.7 5.7 7.2 2.4 3.8 3.3 8.5 4.4 12.8z" class="st12"/>
    <path d="M249.1 44.8c1.9-.4 3.7-1.3 5.6-1.8 2.7-.7 5.3-.1 7.9.7.2.1.4 0 .5 0 3.1 1 6.3 1.9 9.4 3.2 1.8.7 3.6 1.6 5.3 2.7.8.7 1.7 1.3 2.6 1.9h.1c1.8 1.4 3.4 3 5 4.7 3.2 3.5 7.2 7.5 8.6 12.1.3.8.5 1.7.7 2.5-2-2.1-4.7-3.6-7.9-4.3-5.9-1.2-12.2.7-17 4.2-1 .7.3 2 1.2 1.4 8.7-6.2 22.1-5.5 25.6 5.5.1.2.1.3.2.5l.3 1c0 .2.1.3.2.4.3 1 .7 1.9 1.1 2.8 1.7 4 4 7.8 6.7 11.2 1 1.3 2.1 2.6 3.2 3.9h3.6c-2.5-6.2-.6-14.1 4.4-18.7 3.5-3.2 8.3-5.4 8.3-10.8 0-4.4-2.8-7.6-4.9-11.2-.6-1-2.2-.2-1.6.8 2.4 4.2 7.2 9.5 3.3 14.4-1.7 2.2-4.3 3.5-6.3 5.4-1.4 1.3-2.6 2.8-3.5 4.5-2.3 4.3-3.2 9.4-2.2 14-1.7-1.9-3.3-3.8-4.8-5.9-2.4-3.5-4.5-7.3-5.8-11.4-.2-.8-.4-1.5-.6-2.2-1.1-4.3-2-9-4.4-12.9-2.3-3.7-5.5-7.2-8.6-10.3-2-1.9-4.1-3.8-6.4-5.3-3.2-3.1-4.6-7.2-5.3-11.8-.6-4-1.7-7.6-5.6-9.4-1.1-.5-1.6 1.2-.6 1.7 4.7 2.2 4 8.1 5.2 12.4.5 1.7 1.2 3.4 2.1 4.9h-.1c-8.3-3.4-17.6-4.4-24.3-10.9-.8-.8-2.2.4-1.4 1.2 2.3 2.2 4.8 3.8 7.5 5.1-1.5.1-3.1.5-4.7 1.1-5.9 2.1-12.8 2-17.2-3-.8-.9-2.1.3-1.4 1.2 4 4.7 10.2 5.8 16 4.5z" class="st10"/>
    <path d="M299.4 97.5h22.8c-.7-1.5-1.4-2.9-2-4.4-.1-.1-.2-.2-.3-.4-1.2-2.4-2.5-4.8-4.8-6.3-1.7-1.1-3.5-1.8-5.1-3-4.9-3.4-8.3-8.7-7.5-14.8.1-1.2 1.9-1 1.8.2-.8 6.6 3.8 11.8 9.4 14.7a16 16 0 0 1 4 2.8c-.9-2.8-1.4-5.8-1.3-9 0-1.2 1.8-1 1.8.2-.2 7.3 3.1 13.5 6.1 19.9h4.9c2.5-3.5 6.7-6.9 5.2-11.6-.3-1.1 1.3-1.9 1.6-.8 1.3 4.1-.6 7.4-3.1 10.5-.5.6-.9 1.2-1.3 1.8H352c.4-3.9-.5-8.9-5.4-16.9-4.4-7.1-15.2-23.1-15.8-28.6-.3-5.2-2.2-16.4-7.8-17.3-9.2-1.5-9.7 11.9-14.6 15.4-17.8 13.1-13.8 34.3-10.7 42 .8 2 1.3 3.8 1.7 5.6z" class="st1"/>
    <path d="M329 97.5h2.4c.4-.6.9-1.2 1.3-1.8 2.5-3.2 4.4-6.4 3.1-10.5-.4-1.1-2-.3-1.6.8 1.5 4.6-2.8 8-5.2 11.5zm-19.1-14c1.6 1.1 3.5 1.9 5.1 3 2.3 1.5 3.6 3.9 4.8 6.3.1.2.2.3.3.4.7 1.4 1.3 2.9 2 4.4h1.9c-3-6.4-6.3-12.6-6.1-19.9 0-1.2-1.8-1.4-1.8-.2-.1 3.2.4 6.1 1.3 9-1.1-1-2.4-1.9-4-2.8-5.6-2.9-10.2-8.1-9.4-14.7.1-1.2-1.7-1.3-1.8-.2-.6 6 2.8 11.2 7.7 14.7z" class="st10"/>
    <path d="M111.3 80.7h341.9v209.4H111.3V80.7z" class="st13"/>
    <path d="M102.9 80.7h341.9v209.4H102.9V80.7z" class="st12"/>
    <path d="M118.5 86.9h310.7v190.3H118.5V86.9z" class="st10"/>
    <path d="M286.3 336.7h-41.7l8.4-46.6h41.7l-8.4 46.6z" class="st12"/>
    <path d="M291.5 290.1H253l-8 44.3c14.5-15.8 32.5-28.2 46.5-44.3zm-28.2 46.6h23l4.5-24.9c-9.2 8.3-18.8 16.2-27.5 24.9z" class="st13"/>
    <path d="M333.1 344.4c-2.2-9-31.3-16.1-66.8-16.1s-64.6 7.1-66.8 16.1h133.6z" class="st12"/>
    <path d="M414.5 223.4c0 .5-.5.9-1.1.9-22.2-.1-44.4.1-66.6.4-.6 0-1.1-.4-1.1-.9s.5-1 1.1-1c22.2-.3 44.4-.4 66.5-.3.7 0 1.2.4 1.2.9zm-.1-6.1c0 .5-.5.9-1.1.9-22.2-.1-44.4 0-66.5.3-.6 0-1.1-.4-1.1-.9s.5-1 1.1-1c22.2-.3 44.3-.4 66.5-.3.6.1 1.1.5 1.1 1zm.2 12.2c0 .5-.5.9-1.1.9-22.2-.1-44.4.1-66.6.4-.6 0-1.1-.4-1.1-.9s.5-1 1.1-1c22.2-.3 44.4-.5 66.6-.4.6.1 1.1.5 1.1 1zm.2 6.2c0 .5-.5.9-1.1.9-22.2 0-44.4.2-66.6.5-.6 0-1.1-.4-1.1-.9s.5-1 1.1-1c22.2-.3 44.4-.5 66.6-.4.6-.1 1 .4 1.1.9zm.1 6.1c0 .5-.5.9-1.1.9-22.2 0-44.4.2-66.6.5-.6 0-1.1-.4-1.1-.9s.5-1 1.1-1c22.2-.3 44.4-.5 66.6-.5.6.1 1.1.5 1.1 1zm-36.7 8.6c0 .5-.5.9-1.1.9-10-.1-20-.3-30-.3-.6 0-1.1-.4-1.1-1 0-.5.5-1 1.1-.9 10 .1 20 .2 30 .4.6-.1 1.1.3 1.1.9z" class="st14"/>
    <path d="M296.6 218.5c0 1.1-.8 1.9-1.9 1.9-13.3-.1-26.5-.1-39.8 0-1.1 0-2-.8-2-1.9-.1-1.1.8-1.9 1.9-1.9 13.3-.1 26.5-.1 39.8 0 1.1-.1 2 .8 2 1.9zm25.4 8c0 1.1-.8 1.9-1.9 1.9-21.9-.7-43.8-.9-65.7-.7-1.1 0-2-.8-2-1.9-.1-1.1.8-1.9 1.9-1.9 21.9-.2 43.8 0 65.7.6 1.1 0 2 1 2 2z" class="st7"/>
    <path d="M321.8 242.8c0 .5-.5.9-1.1.9-22.3-.9-44.6-1.1-66.9-.8-.6 0-1.1-.4-1.1-.9s.4-1 1-1c22.3-.2 44.6 0 67 .8.5 0 1 .4 1.1 1zm-.3-7.3c0 .5-.5.9-1.1.9-22.3-.8-44.6-1-67-.8-.6 0-1.1-.4-1.1-.9s.4-1 1-1c22.4-.2 44.7 0 67 .7.6.1 1.1.6 1.2 1.1zm.6 14c0 .5-.5.9-1.1.9-22.3-.9-44.6-1.1-66.9-.9-.6 0-1.1-.4-1.1-.9s.4-1 1-1c22.3-.2 44.6 0 66.9.9.6.1 1.1.5 1.2 1zm-25.5 6.3c0 .5-.4.9-1 .9-13.7-.2-27.4-.3-41.1-.1-.6 0-1.1-.4-1.1-.9s.4-1 1-1c13.7-.2 27.4-.1 41.1.1.6 0 1.1.5 1.1 1z" class="st14"/>
    <path d="M139.8 239.7c.8 11.8 11 20.7 22.8 19.8 11.8-.8 20.7-11 19.8-22.8-.8-11.8-11-20.7-22.8-19.8l1.5 21.3-21.3 1.5z" class="st7"/>
    <path d="M196.6 255.7c3.9 2.7 8.7 4.2 13.7 3.8 11.8-.8 20.7-11 19.8-22.8-.8-11.8-11-20.7-22.8-19.8l1.5 21.3-12.2 17.5z" class="st15"/>
    <path d="M133.2 138.7h21.3v57h-21.3v-57z" class="st1"/>
    <path d="M162.4 126.3h21.3v69.4h-21.3v-69.4z" class="st7"/>
    <path d="M191.6 163.2h21.3v32.6h-21.3v-32.6z" class="st15"/>
    <path d="M220.8 109.1h21.3v86.7h-21.3v-86.7z" class="st13"/>
    <path d="M154.3 204.3c0 .5-.4.8-.8.8H134c-.5 0-.8-.4-.8-.8 0-.5.4-.8.8-.8h19.5c.5 0 .8.3.8.8zm29.2 0c0 .5-.4.8-.8.8h-19.5c-.5 0-.8-.4-.8-.8 0-.5.4-.8.8-.8h19.5c.4 0 .8.4.8.8zm29.3 0c0 .5-.4.8-.8.8h-19.5c-.5 0-.8-.4-.8-.8 0-.5.4-.8.8-.8H212c.4 0 .8.4.8.8zm29.2 0c0 .5-.4.8-.8.8h-19.5c-.5 0-.8-.4-.8-.8 0-.5.4-.8.8-.8h19.5c.4 0 .8.4.8.8z" style="fill:#23575d"/>
    <path d="M414.7 116.5c-13.6 0-5.4 17.8-49.2 23.2-19.7 2.5-18.9 24.1-32.5 24.1s-19.8-4.3-28.3-1.9c-13.1 3.6-12.6 11.4-26.2 11.4-10.8 0-17.1-13.8-25.5-17.6v49.4h161.8l-.1-88.6z" class="st13"/>
    <path d="M414.8 205.1c0-21.8 0-78-.1-78-13.6 0-7.3 44.5-49.2 39.1C352 164.5 346.6 185 333 185s-16.4-10.4-28.3-5.1c-12.4 5.6-12.6 15.6-26.2 15.6-10.8 0-17.1-15.9-25.5-19.7V205l161.8.1z" class="st15"/>
    <path d="M410.4 307.6c4.4 3.1 9.5 4.1 14.3 3.3l21.9 32.8 24-.4-32.6-41.7c.1-.1.1-.2.2-.3 2.7-4.6 3.5-10 2.7-15 8.2-11.6 12.2-26.7 10-42.5-4.3-31.3-31.1-53.6-60-49.6-28.8 3.9-48.7 32.5-44.4 63.8 4.3 31.3 31.1 53.6 60 49.6 1.1-.1 2.2-.3 3.3-.6.1.2.3.4.6.6zM353.2 257c-3.7-27.3 13.6-52.2 38.7-55.6s48.5 16 52.2 43.3-13.6 52.2-38.7 55.6-48.5-16-52.2-43.3z" class="st9"/>
    <path d="m450.8 360.7-39.5-67.3c.4 0 .7-.1 1.1-.1 3.6-.6 6.7-2.7 8.8-5.5 1.8-.9 3.4-2.2 4.7-3.7l39.8 67.9c1 1.8.4 4.1-1.3 5.1L456 362c-1.8 1.1-4.1.5-5.2-1.3z" class="st13"/>
    <path d="M456 344.7c-4.3-9-16.8-30.7-21.5-35.5-4.9-5-8.2-2.1-13.9.1l-9.3-15.8c.4 0 .7-.1 1.1-.1 3.6-.6 6.7-2.7 8.8-5.5 1.8-.9 3.4-2.2 4.7-3.7l39.8 67.9c1 1.8.4 4.1-1.3 5.1l-8.4 4.9c-.9.5-1.9.6-2.8.4 8.2-8.6 7.5-8 2.8-17.8z" class="st13"/>
    <path d="M396.4 296.7c3.5.8 7.2.5 10.4-1.1 10.9-5.3 20.9-12.5 24.9-24.3 1.1 1.9 1.9 4.1 2.4 6.4 2.4 11.8-5.3 23.3-17.1 25.7-7.9 1.7-15.6-1.2-20.6-6.7z" class="st15"/>
    <path d="M396.5 296.9c3.5.8 7.2.5 10.4-1.1 10.9-5.3 20.9-12.5 24.9-24.3 1.1 1.9 1.9 4.1 2.4 6.4 2.4 11.8-5.3 23.3-17.1 25.7-7.9 1.6-15.6-1.2-20.6-6.7z" class="st13"/>
    <path d="M435.7 273.9c15.3-27.7 5.2-62.5-22.5-77.8s-62.5-5.2-77.8 22.5-5.2 62.5 22.5 77.8a57.33 57.33 0 0 0 77.8-22.5zm-74.2 16c-24.1-13.3-32.9-43.7-19.6-67.8s43.7-32.9 67.8-19.6a49.95 49.95 0 0 1 19.6 67.8 49.93 49.93 0 0 1-67.8 19.6z" class="st13"/>
    <circle cx="385.5" cy="246.2" r="49.9" style="opacity:.55;fill:#a9e1ea;enable-background:new"/>
    <path d="M384.9 295.8c-17.2-.2-33.2-9.3-42.1-24 14.1 8.1 28.1 16.1 42.1 24zm-49.1-53.9c.9-10.8 5.2-20.9 12.2-28.9 28.3 16.2 56.6 32.3 85 48.3-3.3 10.1-9.8 19-18.5 25.3-26.4-14.8-52.5-29.8-78.7-44.7zm33.2-42c1.1-.4 2.3-.8 3.4-1.1 26.6-7.3 54.1 8.2 61.4 34.8.3 1.2.6 2.4.8 3.6-21.9-12.4-43.8-24.8-65.6-37.3z" style="opacity:.77;fill:#fff;enable-background:new"/>
    <path d="M42.3 183.9c2.3-.9 4.8 1 5.4 2.2s-4.5 1.4-6.4 2.4-3.2-.2-3.9-1.4c-.6-1.1 1.7-1.9 4.9-3.2z" style="fill:#fdc8a8"/>
    <path d="M142.2 290.1v-92.2c0-7.6-5.9-13.9-13.2-13.9H59.4c-7.2 0-13.2 6.3-13.2 13.9v92.3l96-.1z" class="st9"/>
    <path d="M131.6 339.4c0 7.6-5.9 13.9-13.2 13.9H48.8c-7.2 0-13.2-6.3-13.2-13.9V192.6c0-7.6 5.9-13.9 13.2-13.9h69.6c7.2 0 13.2 6.3 13.2 13.9v146.8z" class="st13"/>
    <path d="M129.1 335.6c0 7.2-5.6 13.2-12.5 13.2h-66c-6.9 0-12.5-5.9-12.5-13.2V196.4c0-7.2 5.6-13.2 12.5-13.2h66c6.9 0 12.5 5.9 12.5 13.2v139.2z" class="st10"/>
    <path d="M129.1 335.6c0 7.2-5.6 13.2-12.5 13.2h-66c-6.9 0-12.5-5.9-12.5-13.2V196.4c0-7.2 5.6-13.2 12.5-13.2h66c6.9 0 12.5 5.9 12.5 13.2v139.2z" style="opacity:9.000000e-02;fill:#5e98ff;enable-background:new"/>
    <path d="M104.3 183.7H50.8c-12.1 0-12.5 12.6-12.5 15.9v51.8c22.8-22.9 43.1-44.8 66-67.7z" class="st21"/>
    <path d="M124.6 227.8H43c-.7 0-1.4-.6-1.4-1.4 0-.7.6-1.4 1.4-1.4h81.6c.7 0 1.4.6 1.4 1.4 0 .7-.7 1.4-1.4 1.4z" style="opacity:.43;fill:#3c7bd6;enable-background:new"/>
    <path d="M101.6 190.4a2 2 0 0 1-2 2h-3.4a2 2 0 0 1-2-2c0-1.1.9-2 2-2h3.4a2 2 0 0 1 2 2zm-39.1 0a2 2 0 0 1-2 2H49.9a2 2 0 0 1-2-2c0-1.1.9-2 2-2h10.6a2 2 0 0 1 2 2zm56.5 0a2 2 0 0 1-2 2h-10.6a2 2 0 0 1-2-2c0-1.1.9-2 2-2H117a2 2 0 0 1 2 2z" style="fill:#d0d6e2"/>
    <path d="M129 295v-4.8l-8.5 7.3c-14.2 12.1-43.9 38.6-58.1 50.7H67c15.2-12.9 46.8-40.2 62-53.2zm-.8-25.4v-38.4c-1.2 1-90.2 82.5-90.2 82.5-.2.1-.2 14.6-.2 21.3s6.1 10.7 6.1 10.7l84.3-76.1z" class="st21"/>
    <path d="M132.1 320.1c.1-.2.3-.2.4-.1.6-1.1 1.3-2.1 2-3.1 1.6-2.3 2.8-4.7 3.5-7.4.5-2.2.9-4.5 1.3-6.7-2.1-2.1-5.2-2.8-7.7-1.3-2.8 1.7-2.8 11.3-.8 16l.5 3c.5-.6.4.2.8-.4z" style="fill:#e5a67c"/>
    <path d="M131.4 320.5c5.7-.7 10.8-10.3 10.8-14 0-5.8-5.7-9.5-10-6.9-2.8 1.7-2.8 11.3-.8 16v4.9z" style="fill:#fcddd0"/>
    <g class="st26">
      <path d="M93 298.9c0-.1 0-.1 0 0z" class="st27"/>
    </g>
    <path d="M95 300c-.1 0-.1 0 0 0z" class="st29"/>
    <path d="M139.3 304.7c0-2.4-1.5-4.4-2.5-4.4-2.3 0-2.3 0-2.3 4.6 0 4.5-.1 4.1 2.4 4.1 1.1 0 2.4-1.9 2.4-4.3z" class="st10"/>
    <g class="st26">
      <path d="M91.3 301.3c0-.1 0-.1 0 0z" class="st27"/>
    </g>
    <path d="M93.4 302.4c-.1 0-.1 0 0 0z" class="st29"/>
    <path d="M131.5 311.7s3.4-.2 5.5-2.7 17.3 4.6 17.3 4.6h-10.2v-10.2h-19.5v-58.3c0-2.4-1.9-4.3-4.3-4.3-.3 0-.5 0-.8.1l-75.6-14.5c2 .4 2.1 5.2 2.1 7.3l-2.4 78.1c0 6.4 2.3 8.8 7.7 8.8h28.9c.1 10.8 8.4 10.8 8.4 10.8h42.8v-19.7h.1z" class="st9"/>
    <path d="M57.2 286.7h51.5v26.8H57.2v-26.8z" class="st13"/>
    <path d="M126.7 230.3c0-2.3-1.8-4.1-4.1-4.1-.3 0-.5 0-.7.1H44c1.9.3 3.4 2 3.4 4.1v73.9c.3 5.1 4.6 9.2 9.8 9.2s9.5-4.1 9.8-9.2v-7.9l59.7-.8v-65.3z" class="st10"/>
    <path d="M67 296.4v7.6c3.7 0 18 2.7 19.7-.3v-7.3c0-5.4-4.4-9.8-9.8-9.8-5.5 0-9.9 4.4-9.9 9.8z" class="st13"/>
    <path d="M135.6 296.4c0 5.4 4.4 9.8 9.8 9.8s9.8-4.4 9.8-9.8-4.4-9.8-9.8-9.8-9.8 4.4-9.8 9.8z" class="st10"/>
    <path d="M86.7 296.4h68.6v20.5H86.7v-20.5z" class="st10"/>
    <path d="M86.7 302h58.8v-15.5H76.9s3.4-.4 6.8 2.7c3 2.8 3 7.1 3 7.1v5.7z" class="st10"/>
    <path d="M91.8 316.9h63.4v5.2H91.8v-5.2z" class="st13"/>
    <path d="M86.6 316.9c0 2.9 2.3 5.2 5.2 5.2s5.2-2.3 5.2-5.2c0-2.9-2.3-5.2-5.2-5.2-2.8 0-5.2 2.3-5.2 5.2z" class="st10"/>
    <path d="M152.6 319.5c0 1.4 1.2 2.6 2.6 2.6s2.6-1.2 2.6-2.6-1.2-2.6-2.6-2.6-2.6 1.2-2.6 2.6zm-38.5-84.8h6.7v27h-6.7v-27z" class="st13"/>
    <path d="M95.6 315.4s1.2 2.7-1.3 5.1c-2.2 2.1-5.6.5-5.6.5 2.2 1.8 5.4 1.6 7.3-.6.8-1 1.2-2.2 1.2-3.4h58.1v-.8l-59.7-.8z" class="st0"/>
    <path d="M75.1 272.1H58c-.5 0-.9-.4-.9-.9s.4-.9.9-.9h17.1c.5 0 .9.4.9.9s-.4.9-.9.9zm-6 6.8H58c-.5 0-.9-.4-.9-.9s.4-.9.9-.9h11.1c.5 0 .9.4.9.9s-.4.9-.9.9zm24.5 0H73.4c-.5 0-.9-.4-.9-.9s.4-.9.9-.9h20.2c.5 0 .9.4.9.9s-.4.9-.9.9zm24.8 0H98.1c-.5 0-.9-.4-.9-.9s.4-.9.9-.9h20.3c.5 0 .9.4.9.9s-.4.9-.9.9z" class="st14"/>
    <path d="M86.6 285.6H67.8c-.5 0-.9-.4-.9-.9s.4-.9.9-.9h18.8c.5 0 .9.4.9.9-.1.5-.5.9-.9.9zm-23 0h-5.2c-.5 0-.9-.4-.9-.9s.4-.9.9-.9h5.2c.5 0 .9.4.9.9-.1.5-.4.9-.9.9zm45.1 0H92c-.5 0-.9-.4-.9-.9s.4-.9.9-.9h16.7c.5 0 .9.4.9.9s-.4.9-.9.9zm-39.6 4.8H58c-.5 0-.9.4-.9.9s.4.9.9.9h10.1c.3-.7.6-1.3 1-1.8z" class="st7"/>
    <path d="M126.3 297.8h-15.7c-.4 0-.8-.3-.8-.8 0-.4.3-.8.8-.8h15.6c.4 0 .8.3.8.8.1.5-.3.8-.7.8zm7.5 5.4h-23.2c-.4 0-.8-.3-.8-.8 0-.4.3-.8.8-.8h23.1c.4 0 .8.4.8.8.1.4-.3.8-.7.8zm16.7 0h-12.4c-.4 0-.8-.3-.8-.8 0-.4.3-.8.8-.8h12.4c.4 0 .8.4.8.8-.1.4-.4.8-.8.8zm-29.7 5.6h-10.2c-.4 0-.8-.3-.8-.8s.3-.8.8-.8h10.1c.4 0 .8.3.8.8s-.3.8-.7.8zm7.7 0h-3.8c-.4 0-.8-.3-.8-.8s.4-.8.8-.8h3.8c.4 0 .8.3.8.8s-.4.8-.8.8zm22 0h-18c-.4 0-.8-.3-.8-.8s.3-.8.8-.8h18c.4 0 .8.3.8.8s-.4.8-.8.8z" class="st14"/>
    <path d="M92.3 310.1v-14.7H107v14.7H92.3zm13.4-1.4v-11.9H93.8v11.9h11.9z" class="st15"/>
    <path d="M106.5 309.5H92.9v-13.6h13.6v13.6zm-12.7-.9h11.8v-11.7H93.8v11.7z" class="st15"/>
    <path d="m94.4 302.4 1.1-1 3.4 3.2 4.9-6.2 1.2 1-5.9 7.7-4.7-4.7z" class="st15"/>
    <path d="m99 306.2-3.7-3.8.6-.6 3.1 3 4.5-5.8.7.5-5.2 6.7zm-42.1-52.3c.2 6.3 5.6 11.3 11.9 11 6.3-.2 11.3-5.6 11-11.9-.2-6.3-5.6-11.3-11.9-11l.4 11.5-11.4.4z" class="st15"/>
    <path d="M86.7 243.9h6.7v17.8h-6.7v-17.8z" class="st1"/>
    <path d="M95.8 240.1h6.7v21.6h-6.7v-21.6z" class="st7"/>
    <path d="M104.9 251.6h6.7v10.2h-6.7v-10.2z" class="st15"/>
    <path d="M93.3 264.8c0 .2-.1.3-.3.3h-6.1c-.1 0-.3-.1-.3-.3 0-.2.1-.3.3-.3H93c.1 0 .3.1.3.3zm9.1 0c0 .2-.1.3-.3.3H96c-.1 0-.3-.1-.3-.3 0-.2.1-.3.3-.3h6.1c.2 0 .3.1.3.3zm9.2 0c0 .2-.1.3-.3.3h-6.1c-.1 0-.3-.1-.3-.3 0-.2.1-.3.3-.3h6.1c.2 0 .3.1.3.3z" class="st30"/>
    <path d="M8.1 356.4c2.3 4.8 7.3 8.9 10.9 6 3.4-2.7 3.2-10.7.6-15.2-5.9-10.7-17.4-11.5-17.4-11.5 2.8 5.8 3.6 16 5.9 20.7z" class="st1"/>
    <path d="M19 362.4c3.4-2.7 3.2-10.7.6-15.2-5.9-10.7-17.4-11.5-17.4-11.5C16.9 347.8 19 362.4 19 362.4z" class="st1"/>
    <path d="M18.5 359.7s-.1-.4-.3-1c-.1-.3-.2-.7-.4-1.2s-.3-1-.6-1.5l-.3-.9c-.1-.3-.3-.6-.4-.9-.3-.6-.6-1.3-1-2-.7-1.4-1.6-2.8-2.5-4.2-1.6-2.4-3.3-4.6-5.2-6.8-1.4-1.6-2.3-2.7-2.3-2.7s.9.9 2.4 2.5c1.4 1.6 3.4 3.8 5.3 6.7 1 1.4 1.8 2.9 2.5 4.3.3.7.7 1.4.9 2 .1.3.3.6.4.9l.3.9c.2.6.4 1.1.5 1.6.2.5.3.9.3 1.2.3.7.4 1.1.4 1.1z" class="st1"/>
    <path d="M14.1 350.2c.4 10.2 4.7 20.4 11.1 16.3 6-3.9 10-19.4 9.2-29.3-2-23.4-16.7-29.9-16.7-29.9.5 12.6-4.1 32.7-3.6 42.9z" class="st1"/>
    <path d="M39.9 356.1c-3.1 4.3-8.8 7.4-11.8 3.9-2.9-3.3-1.2-11.1 2.1-15.1 7.8-9.5 19.2-8.2 19.2-8.2-3.8 5.3-6.4 15.2-9.5 19.4z" class="st1"/>
    <path d="M28.1 360c-2.9-3.3-1.2-11.1 2.1-15.1 7.8-9.5 19.2-8.2 19.2-8.2C32.8 346 28.1 360 28.1 360z" class="st1"/>
    <path d="M29.1 357.5s.2-.3.5-.9c.2-.3.3-.7.6-1.1.2-.4.5-.9.8-1.4.2-.3.3-.5.5-.8s.4-.5.6-.8c.4-.6.8-1.2 1.3-1.8.9-1.2 2-2.5 3.2-3.7 2.4-2.4 4.7-4.4 6.4-5.8s2.7-2.2 2.7-2.2-1.1.7-2.8 2-4 3.2-6.5 5.6c-1.2 1.2-2.3 2.5-3.2 3.8-.5.6-.9 1.2-1.3 1.8l-.6.9c-.2.3-.3.6-.5.8-.3.5-.6 1-.8 1.4s-.4.8-.6 1.1l-.3 1.1z" class="st1"/>
    <path d="M25.2 366.5c6-3.9 10-19.4 9.2-29.3-2-23.4-16.7-29.9-16.7-29.9 12.8 29.9 7.5 59.2 7.5 59.2z" class="st1"/>
    <path d="M25.2 366.5c6-3.9 10-19.4 9.2-29.3-2-23.4-16.7-29.9-16.7-29.9 12.8 29.9 7.5 59.2 7.5 59.2z" class="st1"/>
    <path d="M26.1 361.1s.1-.8.2-2.1c.1-.7.1-1.5.1-2.5 0-.9.1-2 .1-3.2v-3.8c0-1.4-.1-2.8-.2-4.3-.2-2.9-.5-6.1-1-9.3-1-6.3-2.2-11.7-3.2-15.5l-1.6-6.1s.7 2.2 1.7 5.9 2.4 8.9 3.4 15.3c.5 3.2.8 6.4 1 9.4.1 1.5.1 2.9.1 4.3v2c0 .7 0 1.3-.1 1.9 0 1.2-.1 2.3-.2 3.3s-.1 1.8-.2 2.5c-.1 1.4-.1 2.2-.1 2.2z" class="st1"/>
    <path d="M46.5 369.1c-.1-4.2 1-6.7-4-7.7-1.5-.3-3.6 1.6-6.7.2-4.5-4.5-4.5-7.7-9.2-7.7-5.5 0-8.8 5.5-8.8 11.8 0 1.2-.2 2.4.1 3.4h28.6z" class="st2"/>
    <path d="M120.7 264.8c0 .2-.1.3-.3.3h-6.1c-.1 0-.3-.1-.3-.3 0-.2.1-.3.3-.3h6.1c.2 0 .3.1.3.3z" class="st30"/>
  </g>
</svg>
