<svg xmlns="http://www.w3.org/2000/svg" xml:space="preserve" viewBox="0 0 430 270">
  <style>
    .st0{fill:#f0f5f7}.st3{fill:#dfe7ea}.st4{fill:#93aab2}.st5{fill:#fff}.st6{fill:#c6d4db}.st7{fill:#1c2b49}.st8{fill:#ffbf9f}.st9{opacity:.8;fill:#ed8772}.st10{fill:#132060}.st11{fill:#333c7f}.st12{fill:#5259b2}.st14{fill:#0f1a42}.st15{fill:#d697f7}.st16{fill:#a366d3}.st17{fill:#563689}.st21{fill:#f6ccff}.st26{fill:#6f47a8}.st30{fill:#42bca4}.st36{fill:#f48d2f}.st37{fill:#c6c6c6}.st38{fill:#a3a3a3}
  </style>
  <g id="Layer_2">
    <path d="M403.2 248.7c32.1-54.8-9.6-96.8-25.9-138.3C358 61.3 362.9 7.5 310.9 3.7 265.1.4 214.4 59.1 152.5 41.8 98 26.6 16.2 29.6 44.1 116.8c21.2 66.3-67.2 70.2-32.4 131.8h391.5z" class="st0"/>
    <ellipse cx="207.4" cy="248.7" rx="195.8" ry="9" style="fill:#dfeaef"/>
    <ellipse cx="210.2" cy="246.9" rx="147.8" ry="4.4" style="fill:#b2cbd3"/>
    <path d="M265.9 29h137.2v98.7H265.9z" class="st3"/>
    <path d="M265.7 23.6h138.6v6H265.7zm0 104.1h138.6v8.6H265.7z" class="st4"/>
    <path d="M313.4 55.3h6.5v14.1h-6.5zm10.5-3.8h6.5v17.9h-6.5zm10.5 1.8h6.5v16.1h-6.5zm10.5-4.5h6.5v20.6h-6.5zm10.5-4.3h6.5v24.8h-6.5zm-42 27.2H362v1.6h-48.6zm78.9-27.2h-22.2c-1.3 0-2.3 1-2.3 2.3V71c0 1.3 1 2.3 2.3 2.3h22.2c1.3 0 2.3-1 2.3-2.3V46.9c0-1.3-1-2.4-2.3-2.4z" class="st5"/>
    <path d="M298.6 87.2h-22.2c-1.3 0-2.3 1-2.3 2.3v24.1c0 1.3 1 2.3 2.3 2.3h22.2c1.3 0 2.3-1 2.3-2.3v-24c0-1.3-1.1-2.4-2.3-2.4zm26.5-3.8h69.6v3.5h-69.6zm-5 9.7h74.6v3.5h-74.6zm7.2 9.7h67.4v3.5h-67.4zm13.7 9.7h53.6v3.5H341z" class="st6"/>
    <path d="M304.3 58.2a15.18 15.18 0 0 1-15.1 15.2c-7 0-12.9-4.8-14.6-11.2a15.09 15.09 0 0 1 14.6-19h.6c.8 0 1.5.1 2.2.2a15.07 15.07 0 0 1 12.3 14.8z" class="st5"/>
    <path d="m289.8 43-1.3 14.6-13.9 4.5a15.09 15.09 0 0 1 14.6-19c.1-.1.3-.1.6-.1z" class="st6"/>
    <path d="m298.2 46-9.8 11.6 1.3-14.6 2.2.2c2.4.5 4.5 1.5 6.3 2.8z" class="st4"/>
    <path d="M304.3 58.2c0 1.8-.3 3.5-.9 5.2l-14.9-5.7 9.8-11.6c3.6 2.7 6 7.1 6 12.1z" class="st0"/>
    <path d="M247.8 62.9s-5.5 2.6-4.6 5.4c.9 2.9 2 3.5 2 3.5s8.7 3.4 9 6.4 5.4 4.1 5.4 4.1 2.6-3.2 2.6-7.5.6-8-1.7-9.1-10-3.3-12.7-2.8z" class="st7"/>
    <path d="M245.3 71.9s.5 9.2 2 12.7c1.4 3.4 4.9 3.4 4.9 3.4l-.1 3.4s-2.4 1.9 1.8 4.1 4.6 3.9 6.3 1.6c1.8-2.3.5-6.3.5-6.3s-.8-7.6-.9-8.3-1.9-1.4-1.4-2.5 1.6-2.2 1-2.9-3.2.4-3.4-.8.4-5.1-2.7-4.9c-3.3.2-6.4 1.2-8 .5z" class="st8"/>
    <path d="M252.1 87.9s1.8-.2 2.6-.9c.8-.8 2-1.8 2-1.8s-2.4 8-3.5 6.2c-1.1-1.8-1.1-3.5-1.1-3.5z" class="st9"/>
    <path d="M245.9 233.6s0 1.8.4 2.8c.4 1 1.8 6.5.4 6.9-1.3.5-6 .4-6.1 0-.1-.4.1-.2-.7-.2-.8 0-10.8 1.9-11.5 1-.6-.9-.6-2.4 1.2-3 1.8-.7 7.5-3.1 8.4-3.8.8-.7 2.7-4.7 2.7-4.7l5.2 1zm26.5 0s0 1.8.4 2.8 1.8 6.5.4 6.9c-1.3.5-6 .4-6.1 0-.1-.4.1-.2-.7-.2-.8 0-10.8 1.9-11.5 1-.6-.9-.6-2.4 1.2-3 1.8-.7 7.5-3.1 8.4-3.8.8-.7 2.7-4.7 2.7-4.7l5.2 1z" class="st10"/>
    <path d="M274.6 232.9c0 1.9-9 .8-9.5.2s-4.9-28.2-5.2-33.4c-.4-5.1-4.1-36.6-4.1-37.3 0 0 0 .2-.1.6v.2c-.9 7.6-8.1 68.5-8.6 70.2-.4 1.3-3.4 1.1-5.6.6-1-.2-1.8-.4-2.1-.6-.6-.4-.1-50.6.2-69.2v-1.3c0-3.4.1-5.4.1-5.4l6.2-18 21.7 2.2 2.7 16.6c-.1.2 4.3 72.7 4.3 74.6z" class="st10"/>
    <path d="M252 92.1s1.1 2.5 4.3 2.4c3.1-.1 4.3-2.4 4.3-2.4s2 23.7 3 30.1c.9 6.4-2.5 21.2-2.5 21.2s-9.7.1-10.9-.5c-1.2-.7-.2-49.7 1.8-50.8z" class="st5"/>
    <path d="M309 103.4s2.1.1 3.8-1.6 1.8-2.5 3.2-2.2 3.9-1.2 4.7-1.8 1.6.1 1.4.9c-.3.8-3.2 2.8-3.9 3s-1.6.6-2.3 1.1-4.8 4.4-4.8 4.4l-2.1-3.8z" class="st8"/>
    <path d="M311.4 108.9c-.9 1-22.8 11.9-23.2 11.9s-13.1-9.2-13.6-8.9-1.6 24-1.2 26.1c.4 2.1 1.4 18.6.6 18.9-.8.3-12.3.7-13.4-1.8-.5-1.1-.5-6.3-.4-11.8.1-6.6.4-13.6.4-14.3V90.8s12.5 5.1 14.4 6.6c1.9 1.5 13.4 14 14 13.6.6-.4 20.1-9.5 20.4-8.8s2.9 5.7 2 6.7z" class="st11"/>
    <path d="M273.4 138c.4 2.1 1.4 18.6.6 18.9-.8.3-12.3.7-13.4-1.8-.5-1.1-.5-6.3-.4-11.8 1.9 3.1 5.4 8.1 9.2 11.8 5.9 5.7.5-10.4-1.8-13.2-2.3-2.8 1.5-3.2 2.7-6.2 1.2-3 3.8-27.1 3.8-27.1l.6 3.3c-.7.3-1.8 24.1-1.3 26.1z" class="st10"/>
    <path d="M264.5 92.4c.2.3 1.8 8 1 8.6s-2.7 1.6-2.5 1.8 3.1 3.1 3 4.7c-.2 1.6-5.3 19.6-5.3 19.6V90.8l3.8 1.6z" class="st12"/>
    <path d="M252.4 123.3v.2c0 .6 0 1.5-.1 2.7 0 .4 0 .8-.1 1.3-.3 8.7-1.4 26.3-2.1 28.6-.3.9-1.2 1.4-2.5 1.6-3.1.7-8.1-.1-9-.1-1.3 0 1.3-28.7 1.3-28.7s-1.7.4-3.8.6c-2.7.2-5.9 0-7-2.2-1.8-3.8 7-27 7.9-28.4.6-.9 6.7-3.9 10.9-5.8l.4-.2.8-.4c.5-.2 1-.5 1.4-.7l.2-.1.4-.2.8-.3s.1 17.5.3 26.5c0 2.6.1 4.5.1 5 .1.3.1.4.1.6z" class="st11"/>
    <path d="M254.3 127.3s-.8 0-1.9.2c-2.9.4-8.4 1.9-10.1 6.4-2.4 6.2-.3 15.8 2.6 17.7 2.9 1.9-5.2-.4-2.8 2.4 1.8 1.9 3.3 3.5 5.6 3.8-3.1.7-8.1-.1-9-.1-1.3 0 1.3-28.7 1.3-28.7s-1.7.4-3.8.6c1.3-5.1 3-8.5 5.4-8.2 4 .5 8.4.5 10.8 1.9 1.4.8 2.2 2 1.9 4z" class="st10"/>
    <path d="M252.4 123.5c-.2-.5-4.1-15.1-4.6-16-.5-1 1.6-4.7 1.6-4.7s-1.4-.8-2.3-1.5.9-8.1.9-8.1l.4-.2.8-.4 1.4-.7.2-.1.4-.2.8-.3s.1 17.5.3 26.5c0 2.6.1 4.5.1 5v.7z" class="st12"/>
    <path d="M258.5 106.7s12.4-.9 12.7-.4-1.5 19.8-1.9 20c-.4.2-12.6.8-12.3 0s1.5-19.6 1.5-19.6z" style="fill:#ddd"/>
    <path d="M253.4 119.1s1.6-.3 2.1-.8 2.1-1.5 2-.9c0 .6.7 1.7.9 1.7.2 0 4.6-2.7 5.1-1.6.5 1.2-.9 4.4-1.9 4.7-1 .3-4.1.3-5 .2-.8-.1-2.4 1.1-2.4 1.1l-.8-4.4z" class="st8"/>
    <path d="M253.9 125.6c-.2.1-.7.3-1.5.6-3.6 1.1-12.4 2.8-12.4 2.8s-8.9 2.2-10.8-1.6c-1.8-3.8 7-27 7.9-28.4 0 0 4.3 8.2 3.5 13.5-.8 5.2-1 7.8-1 7.8s9.4-3.3 12.6-2.5c.5.1.8.4.9.8.9 2.8 1.7 6.2.8 7z" class="st12"/>
    <path d="m239.8 120.4-4.1 1.8 4.6-6.5z" class="st11"/>
    <path d="M255.6 163.1v.2c-.9 7.6-8.1 68.5-8.6 70.2-.4 1.3-3.4 1.1-5.6.6.3-.4.6-.7.9-1 3.3-3 10-54.7 7.2-63.2-1.7-5.1-6.4-5.8-10-5.6V163h16.1z" class="st14"/>
    <path d="M55.2 119.6s-2.4-.9-2.9-2.8 1.3-2.6 2.2-1.6 1.4.9 1.8-.9c.4-1.8 2.2-7.2 5.1-8.2 2.9-1.1 4.5.4 5.7 4.2s1.9 11.2.8 13.1-5 2.5-5 2.5l.1 4.1s2.6 5.8 1.3 8.7c-1.2 2.9.1 8.8-4 3.5s-6.9-12.4-6.9-12.4l1.8-10.2z" class="st9"/>
    <path d="M74.5 209.1s13.5.8 16.3-5.3-2.6-14.5-10.7-16.9c-8-2.4-26.1-19.8-27.3-28.9-1.3-9.1.3-9.6-6.4-11.6s-8.1 0-8 3.1c.1 3-1.3 27.3 6.9 37.4 8.2 10.1 29.2 22.2 29.2 22.2z" class="st14"/>
    <path d="M75.4 148.4s-.4 3.1-.8 7c-.1 1-.2 2-.4 3.1-.3 2.2-.5 4.5-.8 6.6-.3 2.9-.6 5.3-.8 6.5 0 .5-.1.8-.1.8 0 .5-4.2.2-6.7.2-2.5-.1-14.4 2-16.3 2.2-1.9.2-.7-9.8-1.5-12.8-.2-.8-.5-2.1-.7-3.5-.3-1.8-.6-3.7-.8-5.4-.3-2.3-.5-4-.5-4h1l28.4-.7z" class="st15"/>
    <path d="M65.9 163.1s.4 4.9.4 5.4v4.1l-2 .1s1.2-2.9.7-3.7c-.5-.8-.6-.9-1-1.9-.3-1-.3.7-.3-1v-3h2.2z" class="st16"/>
    <path d="M74.5 155.4c-.1 1-.2 2-.4 3.1-.3 2.2-.5 4.5-.8 6.6-5.6-.4-21.2-1.2-21.2 2.8 0 4.2 16.5 2.2 20.4 3.7 0 .5-.1.8-.1.8 0 .5-4.2.2-6.7.2-2.5-.1-14.4 2-16.3 2.2-1.9.2-.7-9.8-1.5-12.8-.2-.8-.5-2.1-.7-3.5-.3-1.8-.6-3.7-.8-5.4-.3-2.3-.5-4-.5-4h1c2.5 4.1 8.7 8 14.6 8 6.2-.1 10.3-4.1 13-1.7z" class="st16"/>
    <path d="M116.2 246.2c-2.1.3-13.6.4-15.8-.1-1.9-.4-1.6-4.7-1.5-6.9v-.9c0-1.5-.9-3.9-.9-3.9l5.4-1.8s1 3.1 1.7 4.1c.7 1 4.2 3.7 6.5 4.7.6.3 1.3.5 1.9.8 2 .8 4.1 1.5 4.5 2.2.7 1.1.3 1.5-1.8 1.8z" class="st9"/>
    <path d="M116.2 246.2c-2.1.3-13.6.4-15.8-.1-1.9-.4-1.6-4.7-1.5-6.9.9 0 2 .1 2.7.7 1.5 1.2 4.1 2 6.9 2.7 2.1.5 4 0 5-.4 2 .8 4.1 1.5 4.5 2.2.7 1.1.3 1.5-1.8 1.8z" class="st17"/>
    <path d="M126.8 216.2c-1.9 1-12.8 4.5-15.1 4.7-1.9.2-2.9-4-3.5-6.1-.1-.3-.2-.6-.2-.8-.5-1.5-2.1-3.5-2.1-3.5l4.5-3.4s1.9 2.6 2.9 3.4 5.2 2.2 7.6 2.5c.6.1 1.4.1 2.1.2 2.1.1 4.3.2 5 .7.9.8.7 1.3-1.2 2.3z" class="st9"/>
    <path d="M126.8 216.2c-1.9 1-12.8 4.5-15.1 4.7-1.9.2-2.9-4-3.5-6.1.9-.3 1.9-.5 2.8-.1 1.8.7 4.6.6 7.4.4 2.2-.1 3.8-1.2 4.7-1.9 2.1.1 4.3.2 5 .7.8.8.6 1.3-1.3 2.3z" class="st17"/>
    <path d="M104.9 233.5c-.6.3-6.4 2-7 1.3-.6-.7-9.4-31.7-10.1-32.8-.7-1.2-.2-1.8-2-2.3-1.8-.5-17-.8-20.3-2.2-3.3-1.4-10.6-7.4-10.6-7.4s9.2-3.2 17.2-5.5c4.4-1.2 8.5-2.2 10.6-2.1 5.8.2 10.2-1.5 13.5 3.1 3.2 4.6 3.8 19.4 3.8 19.4s5.5 28.1 4.9 28.5z" class="st14"/>
    <path d="M104.9 233.5c-.6.3-6.4 2-7 1.3-.6-.7-9.4-31.7-10.1-32.8-.7-1.2-.2-1.8-2-2.3-1.8-.5-17-.8-20.3-2.2-3.3-1.4-10.6-7.4-10.6-7.4s9.2-3.2 17.2-5.5c5.2 0 9.1.8 8.7 2.1 0 0-8.5 5.9-5.1 8.4 3.3 2.5 13.8-.2 12.8 1.8-.9 2-2.5 1.7.4 3.4 3 1.6 9 35.8 16 33.2z" style="fill:#0e1528"/>
    <path d="M48.9 174.8s-.2 7.1 2.7 11.9c2.9 4.8 15.1 9.4 19.3 6.1s13.8-8.4 13.8-8.4 11.2.9 11.8 2.4c.6 1.5 3.6 18.1 3.6 18.1s4.2 6.1 5.4 6c1.2-.1 5.9-1.9 5.9-3.2 0-1.3-16.9-38.6-19.7-38.6s-19.2 3.4-19.2 3.4-5.8-.6-13-.7c-7.1-.3-10.6 3-10.6 3z" class="st10"/>
    <path d="m58.7 177.1 13.8-4.7s-14.8 2.6-13.8 2.8c1 .2 3.4.2-.7 1.2-4.1.9-2.5 1.8.7.7z" class="st14"/>
    <path d="m84.8 184.4 4.2-4-2.1 4z" style="fill:none;stroke:#000;stroke-width:.5;stroke-miterlimit:10"/>
    <path d="M59 124.4c.4.1 4 1.6 4 1.6l.1 4.1-4.1-5.7z" style="opacity:.8;fill:#c96353"/>
    <path d="M63 128.3s3.5 2.5 4.8 1.3 2.1-14.4 1.3-18.2-2.5-9.1-8.8-10-9.9.6-11.7 5.2-2.1 15.7-.6 18.4 5.2 4.7 6.8 5c1.6.3 1.3.3.9-1.6-.4-1.9-.1-3.4 0-5.2s-.5-3.7-.5-3.7-3.5-1.6-3-3.4 1.5-1.9 2.3-.9 1.2 1.1 1.5.1c.3-1 2.8-8.7 5.4-8.8 2.6-.2 3.7-1.2 5.6 4.6s2.2 11.9.4 13c-1.8 1.1-4.5 1.8-4.5 1.8l.1 2.4z" class="st14"/>
    <path d="M74.4 135.9c-1.5-2.4-6.1-3.5-7.2-3.4-1 .1-1.3.5-1.9 1.6-.6 1.1-1.9 1.6-1.9 1.6s-.6 2.6-.6 2.7c-.1 0-2.8-2.4-2.8-2.4l-8.8-3.9s-6.4 2.4-7 2.8c-.1.1-.3.2-.4.3-.8.5-2 1.5-2.6 2.8-.8 1.6-12.4 13.9-13.2 16.6-.7 2.7 1.8 4 1.8 4h52.1c0-.1-6-20.2-7.5-22.7zm-32.7 17.2s1-1.4 4.1-4.1c0 0 .2 1.7.5 4-2.4 0-4.6.1-4.6.1z" class="st15"/>
    <path d="M60.8 208.6h2.7v37h-2.7z" class="st11"/>
    <path d="M77.6 248.7c.9 0 1.4-1.2.6-1.8-1-.8-2.3-1.3-3.7-1.3H50.3c-1.4 0-2.7.5-3.7 1.3-.7.6-.3 1.8.6 1.8h30.4z" class="st12"/>
    <path d="M38 147.4s-11.4-2.7-11.3 5.4c.1 8.1 5.4 46.6 11.8 53.2s37.1 5.2 37.5 2-1.9-2.5-2.7-9.4c-.9-6.9-.3-6-6.1-7.7s-18.5-4.8-21.8-13.3c-3.3-8.5 1.5-29.8-7.4-30.2z" class="st11"/>
    <path d="M53.4 129.9s1.2 2.2 2.2 2.7c.9.5 5.9 3.1 5.8 3.5-.1.3-3.1 1.2-3.6 1.7s-2.6 2.8-3.5 1.1c-.9-1.7-3.4-5.2-3.1-6.8.3-1.7 1.7-3.1 2.2-2.2zm9.6.2c.1.1 3.8 1.8 4.5 2.7.7.9 1.8 4.4.7 4.3s-1.9-1.3-2.7-1.3-2.7.5-2.5.1.5-1.8.1-3.1c-.3-1.3-.1-2.7-.1-2.7z" class="st21"/>
    <path d="M64.6 136s-.8 3.4-.6 3.5c.2.2.4-.4.3 1-.1 1.4 1.1 1.5.9 2.4-.2.9-.6 1.2-.2 1.8.4.5-.2 1.4.2 1.9s.5 1 .3 1.5c-.2.6 0 1 .1 1.5s-.6 1.1-.5 1.3c.1.2.7.9.7 1.4 0 .5.3.4.4 1.1s-.4 1.2 0 1.8c.4.6-.2 1.8-.2 1.8h-1.2s.1-1.8 0-2.2c-.2-.4-.2-.5-.5-1.1-.2-.6-.8-.8-.7-1.2.1-.4.7-.8.4-1.4-.2-.7-.4-.5-.4-1s-.1-.4 0-1 .2-.6-.4-1.2c-.5-.6-1-.5-.5-1.1.4-.7.4-.9.3-1.3 0-.4-.4-.6-.2-1.2s-.2-.5-.3-1.2 0-.7.3-1.2-.4-.6-.3-1.1c.1-.5.4-2.4.4-2.4l.5-2.3 1.2-.1z" class="st16"/>
    <path d="M54.9 154.3s1.5.3 2.3 0 3.1-1.3 4.5-.7c1.4.6 4.4 2.1 4.1 2.5s-1.5.5-2.5 0-2-.5-2.9 0-.1.7-1.8.9c-1.7.2-4.7.1-4.7 0-.1-.1 1-2.7 1-2.7z" class="st9"/>
    <path d="M52.3 153.9s2.1-1.6 2.2-.9c.1.7-.2 1.1.2 1.3.3.2.8.4.5.8-.3.4-.3.7-.1.9.2.3.1 1.1-.1 1.2-.2.2.3 1.3.3 1.3h-3v-4.6z" class="st21"/>
    <path d="M52.4 158.5H29.8s-2.6-1.3-1.8-4 12.4-15 13.2-16.6c.7-1.3 1.9-2.3 2.6-2.8 1 .5 2 1.7 2.9 4 2.9 7.2 2.2 7.3-.9 9.9-3.1 2.6-4.1 4.1-4.1 4.1s2.2-.1 4.7-.1c2.9.1 6.1.3 6.3 1.2.3 1.3-.1 3.3-.3 4.3z" style="fill:#dda9ff"/>
    <path d="m41.7 153.1-5.3.3 8.9-3.9z" style="fill:#bf80e8"/>
    <path d="M116 131.2H76c-.9 0-1.7.6-1.9 1.5L68.4 157s-21.2-.2-22.6 0c-1.3.2-.9 1.6-.9 1.6h66.9l6.1-24.8c.3-1.4-.6-2.6-1.9-2.6z" style="fill:#d7dadb"/>
    <path d="M314.1 163.1H13.9c-.6 0-1-.4-1-1v-2.6c0-.6.4-1 1-1h300.2c.6 0 1 .4 1 1v2.6c0 .6-.5 1-1 1z" style="fill:#b7b7b7"/>
    <path d="m256.4 136.1 8.9 22.4h26.2s.5-1.3 0-1.3h-24.9l-8.5-21.8c-.2-.5-.8-.7-1.3-.4-.5.3-.6.7-.4 1.1z" class="st3"/>
    <path d="M301.6 211.7s-17.6 25.2-17.5 26.5c0 .4.2 1.6.4 3 .3 2.6.6 5.9-.4 6.1-1.5.2-18 .8-18.1 0-.1-.8.2-1.8 1-2.4.8-.6 7.6-5.2 7.8-4.2.2 1 4.8-4.1 5.6-5.6.8-1.5 14.6-36.2 14.6-36.2s8.7-.3 6.6 12.8z" class="st9"/>
    <path d="M310 239.1c.4 3 1.3 7.4.7 8.1-.8.8-18.8.9-19.1 0-.2-.9.7-2.8 1.9-3.1 1.2-.3 3-.8 4.1-1.5 1.1-.8 1.8-2.1 2-1 .1.4.2.6.4.5.3-.2.8-.9 1.6-1.9 1.4-1.7 2.4-1.3 2.5-3.2.1-1.9-4.1-33.8-4.1-33.8l11.6 6.3s-1.8 25.1-1.8 27.2c0 .5.1 1.4.2 2.4z" class="st8"/>
    <path d="M310.7 247.1c-.8.8-18.8.9-19.1 0-.2-.9.7-2.8 1.9-3.1 1.2-.3 3-.8 4.1-1.5 1.1-.8 1.8-2.1 2-1 .1.4.2.6.4.5-1.3 2.8 2.2 2.1 5.2 1.3 2.3-.6 4.1-3.1 4.8-4.2.5 3 1.3 7.4.7 8z" class="st26"/>
    <path d="M340.9 207.9h2.7v37h-2.7z" class="st11"/>
    <path d="M357.7 248c.9 0 1.4-1.2.6-1.8-1-.8-2.3-1.3-3.7-1.3h-24.2c-1.4 0-2.7.5-3.7 1.3-.7.6-.3 1.8.6 1.8h30.4z" class="st12"/>
    <path d="M351.9 177s2.2 6.2-3.8 13.2-35 12.2-35 14.3.2 6.8-.9 6.2c-1.2-.7-18.8-9.4-18.6-11.8.2-2.3 3.7-9.4 10-12.1 6.3-2.7 25.6-5.8 27.8-8.1s20.5-1.7 20.5-1.7z" class="st10"/>
    <path d="M351.6 174.3s.9 2.1.3 2.7-13.8 2.4-16.6 2.3c-2.8 0-3.9-.2-3.9-.6s-.2-2.5-.2-2.5 20.1-2.5 20.4-1.9z" style="fill:#d0eae9"/>
    <path d="M322.3 117.5s-.1 7.6 1.6 10.1c1.8 2.4 5.2 1.3 5.2 1.3l1.7 6.6s5-.7 5.8-4.3c.8-3.7 1.4-3.4.7-7.7s-2.2-14.4-7.8-14.8-8.1 2-7.2 8.8z" class="st8"/>
    <path d="M343.3 117.1s2.1-1.7 4.8 3.1c2.7 4.8 3.4 14.5 2.9 17.3-.5 2.8-9.7-17.6-7.7-20.4z" style="fill:#492019"/>
    <path d="M303.6 142.2s-8.8-4.2-9.3-5.9-2.4-4.2-2.6-3.4.8 2.1 0 1.9-5.2-4.6-5.9-1.7c-.7 2.9 5 4.9 6.2 5.7s9.2 8.4 9.4 8.2 2.2-4.8 2.2-4.8z" class="st9"/>
    <path d="m330.9 135.5.5-2.6 3.5-2.1 4 .8s-3.5 3.4-4.8 3.9c-1.2.5-3.2 0-3.2 0z" class="st5"/>
    <path d="M352.2 174.2c-.1.2-1.2.4-3 .7-5.4.8-16.3 1.7-17.7 1.6-1.8-.1-3.2-13.2-4.1-17.3-.6-3.3.6-10.7 1.2-13.8 0-.1 0-.2.1-.3.1-.7.2-1 .2-1l4.7-9.5s4.5-4.7 10.3-2.5c5.8 2.2 5.3 15.2 5.3 15.2s3.3 26.1 3 26.9zm-34.6-28.8c-3.2 2.7-5.8 5-6.2 5.3-.6.4-2.5.7-4.5.9 0 0-2.2-1.3-4-2.3-1-.6-1.9-1.1-2.1-1.3-.5-.4 2.6-5.8 3.1-6.1.2-.1 1.4.4 2.6 1 1.6.9 3.5 2.1 3.9 2.4.7.8 7.2.1 7.2.1z" style="fill:#359d9e"/>
    <path d="M306.5 143c-.9 2.1-2.4 5.2-3.7 6.3-1-.6-1.9-1.1-2.1-1.3-.5-.4 2.6-5.8 3.1-6.1.4-.1 1.5.4 2.7 1.1z" class="st30"/>
    <path d="M334.2 117.9s-2.2 13.3 1 14.3 6.4 1.6 7.6 4.7c1.2 3.1-.9 13.1 2.3 15 3.2 1.9 8.2-.8 7.4-4.6-.8-3.8-2.1-4.2-1.6-6.8s.8-4.1-.9-6.1-2.2-2.8-3-6.5c-.8-3.7-.3-6.5-2.6-7.7-2.3-1.2-10.2-2.3-10.2-2.3z" style="fill:#662d20"/>
    <path d="M324.7 107.2s-4.1 1.8-3.7 5.5c.4 3.8 1.2 4.8 1.2 4.8s.8-5.2 1.3-5.8c.6-.6 3.2-.7 3.7.2.4.9 2.1 6.1 6.5 8.3 4.4 2.2 9.2.3 10.3-.9s.7-2.4.3-2.8c-.3-.3-.8-1-1.2-3-.4-2-3-6.2-7.3-7.7-4.2-1.2-9.7 2.2-11.1 1.4z" style="fill:#7f3926"/>
    <path d="m329.2 128.9 2.8-1.2-2.1 4.1z" class="st9"/>
    <path d="M382.4 148c-.8 8.6-14.2 51.7-22.7 58.2-9 7-38 4.2-42.1 2.8-3.3-1.1-7.4-8.7-8.4-14.2-.2-1.4-.3-2.6-.1-3.5 1.1-4.7 38.2-8.8 43-10.3 4.8-1.5 5.5-12 6.7-19.3 1.2-7.3 3.2-13.2 9.7-16.6 6.5-3.4 13.8 1.7 13.8 1.7.1.2.1.6.1 1.2z" class="st12"/>
    <path d="M382.4 148c-.8 8.6-14.2 51.7-22.7 58.2-9 7-38 4.2-42.1 2.8-3.3-1.1-7.4-8.7-8.4-14.2 7.5-2.9 27.8-4.6 38.8-4.7 13.1 0 12-47.4 34.4-42.1z" class="st11"/>
    <path d="M284.1 247.3c-1.5.2-18 .8-18.1 0-.1-.8.2-1.8 1-2.4.8-.6 7.6-5.2 7.8-4.2 0 0-3.1 3.2 2 2.2 2.9-.6 5.8-1.9 7.7-1.7.3 2.7.6 5.9-.4 6.1z" class="st17"/>
    <path d="M349.2 174.9c-5.4.8-16.3 1.7-17.7 1.6-1.8-.1-3.2-13.2-4.1-17.3-.6-3.3.6-10.7 1.2-13.8 3.2-6.7 6.8-10.1 8.7-4.7 0 0-.3 8.3-3.5 12.7-3.2 4.4-3.9 6.8-2.9 7.5s4.3 1 2 3.8 15.5 6.2 11.9 7.5c-3.6 1.2-11.1 3-5.1 3.1 2.9 0 6.6-.3 9.5-.4z" style="opacity:.37;fill:#215273"/>
    <path d="M301.7 152.7s-12 2.1-13 2-3.2-2.4-5.8-2-5.9 3.6-5.2 3.8 4.7-1.4 5.2-.6 1.2 1.3 3.2 1.6 6.1-.6 8.2 0 8 0 8 0l-.6-4.8z" class="st8"/>
    <path d="M337.7 138.4s-.6 6.4-2.6 8.6c-2 2.2-17.1 11.4-18.7 11.4-1.1 0-8.5.3-12.7.1-1.8-.1-3-.3-3-.6.2-1.2.2-5.6.8-5.8.2-.1.9-.1 2-.2.9-.1 2.1-.1 3.3-.3 2-.2 3.9-.5 4.5-.9.5-.3 3-2.6 6.2-5.3 6-5.1 14.4-11.8 16.7-10.8 3.6 1.5 3.2 2.5 3.5 3.8z" class="st30"/>
    <path d="M303.7 158.4c-1.8-.1-3-.3-3-.6.2-1.2.2-5.6.8-5.8.2-.1.9-.1 2-.2.3 2 .6 4.7.2 6.6z" style="fill:#7ce496"/>
    <path d="M164.9 104.7c.3 0 3.2 4.6 4 10.2.9 5.6 1.1 8.8-.4 9.9-1.5 1-3.8 1.3-4.1 2.1-.3.8 0 3.7 0 3.7l-10.2-.6v-4.8c.1 0-9.3-20.7 10.7-20.5z" class="st8"/>
    <path d="M185.2 236s1.3 3.4.6 6.6c-.8 3.2-.4 5.8.9 5.9 1.3.2 6.3 1 6.6 0 .3-1 .2-1.6.7-1.1s6.8 2 9.5 1.2 2.5-2.9 1.4-3.5c-1.1-.6-5.5-2-7-2.3s-3.5-1.5-4.1-2.5-1.5-4.2-1.5-4.2h-7.1z" class="st17"/>
    <path d="M205.7 236s1.3 3.4.6 6.6c-.8 3.2-.4 5.8.9 5.9 1.3.2 6.3 1 6.6 0 .3-1 .2-1.6.7-1.1.5.5 6.8 2 9.5 1.2s2.5-2.9 1.4-3.5c-1.1-.6-5.5-2-7-2.3-1.6-.3-3.5-1.5-4.1-2.5-.7-1-1.5-4.2-1.5-4.2h-7.1z" class="st26"/>
    <path d="M188.8 211.4s6.8 23.9 5.7 24.6-8.9 2.4-9.5 1.7-6.2-14.4-8.1-20.9-3.6-6.2-1.8-7.2c1.8-.9 10.9-5.5 13.7 1.8z" class="st14"/>
    <path d="M173.5 175.1s5.9 6.4 12.1 8.2 17.5 6.8 19.2 10.4 9.7 42.9 8.9 43.5c-.8.6-7.6 1.7-8.5.8-.9-.8-9.7-28.6-10.7-30.5-1-2-4.9-14.1-11.1-16.6s-11.1 1.2-14.5-4.4-5.4-9.9 4.6-11.4z" class="st10"/>
    <path d="M206.4 140s1.1-3.9 1.8-4.8 6.7-3.9 7.7-3 1.9 3.7-.2 4.5c-2.1.8-3.8 2.5-2.7 2.6 1 .1-1.1 2.3-2.2 3s-2.2 1.8-2.2 1.8l-2.2-4.1z" class="st8"/>
    <path d="M209.9 145.3c.4 2.1-17 13.3-18.7 13.6-1.7.2-14.2-6.8-15.7-8.2-1.4-1.3.8 20.1.7 24.7 0 .3 0 .6-.1.7-.5 2-5.2 1.8-15.3 1.2-9.1-.5-19-26.2-21-31.6-.2-.6-.4-1-.4-1s2.2-10.6 3.3-11.7c1.1-1.2 11-1.4 11.3-1.3 0 0-.1-.5-.3-1.2-.2-.7 1.9-.8 4-.9 2.2-.1 5.8.7 6.2.7.4 0 .3-.3.9.2.6.5.2 1.3.2 1.3s8.7.4 10.8 1.3c2.1.9 12.2 13.1 12.8 13.8.7.8 16.4-6.9 17.2-7 1-.2 3.6 3.3 4.1 5.4z" style="fill:#ffc033"/>
    <path d="M176.2 175.4c0 .3 0 .6-.1.7-.5 2-5.2 1.8-15.3 1.2-9.1-.5-19-26.2-21-31.6.5-.5 1-.7 1.5-.9l1.1-3.9s-.2 2.6 3.6 3.2c3.9.7 12.9-2.1 16.8 7.2 3.6 8.6 7.3 23.8 13.4 24.1z" class="st36"/>
    <path d="M199.2 194.6c-.8 5.1-3.7 12.5-6.3 15.2-3.9 3.9-29 3.1-39.6 2.6-10.6-.5-12 .1-18.6-10.6-6.6-10.8-15.1-43.3-13.9-51.8 1.2-8.5 19.3-5.1 19.3-5.1 18.7.4 21.9 6.5 22.7 12.2.7 5.8 4.7 20.6 7.5 23.9 2.7 3.3 26.5 6.1 28.6 8.6.6.8.7 2.7.3 5z" class="st12"/>
    <path d="M165.1 131.7s-.7.3-1.9.6c-1.2.2-2.5.2-2.5.2s2 .6 5.8-.7l-1.4-.1zm-11 0s1.4.8 2.5.9l1.1.2s-2.6.3-5.1-1.1h1.5z" class="st36"/>
    <path d="M160.3 113.8c-.2-.1-2.8-.2-2.8 1.2-.1 1.4.8 3 1.7 3.7 1 .6 1 .5 1 2.7-.1 2.2-3.4 4.8-6.2 4.4-2.8-.3-3.3-3.8-4.8-5.4-1.5-1.6-4.9-7.5-4.1-10 .8-2.5 1.9-5.2 5.4-6 3.5-.8 3.8-3.5 7.2-3.5 3.4 0 4.2-3.8 6.3-2.5s4.4 3 3.2 6.4c-1.2 3.4-2.7 4.2-4.8 4.9s-.3 5-2.1 4.1z" class="st7"/>
    <path d="M163.4 212.7h2.7v37h-2.7z" class="st11"/>
    <path d="M180.2 252.8c.9 0 1.4-1.2.6-1.8-1-.8-2.3-1.3-3.7-1.3h-24.2c-1.4 0-2.7.5-3.7 1.3-.7.6-.3 1.8.6 1.8h30.4z" class="st12"/>
    <path d="M199.2 194.6c-.8 5.1-3.7 12.5-6.3 15.2-3.9 3.9-29 3.1-39.6 2.6-10.6-.5-12 .1-18.6-10.6-6.6-10.8-15.1-43.3-13.9-51.8 0 0 21.2-6.4 24.2 3.6 3 10.1 8.3 34.1 22.6 33.7 13.2-.2 29.5 0 31.6 7.3z" class="st11"/>
    <path d="m38.7 163.1-12 85.9h-5l11.7-85.9z" class="st37"/>
    <path d="m32.6 169 4 9.5 2.1-15.4h-5.3z" class="st38"/>
    <path d="M298.1 163.1 310 249h5.1l-11.8-85.9z" class="st37"/>
    <path d="m304.1 169-3.9 9.5-2.1-15.4h5.2z" class="st38"/>
    <path d="M97.2 145.2c-.5 1.9-2.5 3.5-4.4 3.5s-3.1-1.6-2.6-3.5 2.5-3.5 4.4-3.5 3.2 1.6 2.6 3.5z" class="st0"/>
  </g>
</svg>
