<svg xmlns="http://www.w3.org/2000/svg" xml:space="preserve" id="Warstwa_1" x="0" y="0" version="1.1" viewBox="0 0 800 560">
  <style>
  .st1{fill:#9f41d9}.st2{fill:#6e08b1}.st3{fill:#801ca9}.st4{fill:#2554a9}.st5{fill:#05385f}.st6{fill:#0f3871}.st11{fill:#dea481}.st12{fill:#e6b48f}.st13{fill:#053249}.st14{fill:#d09271}.st15{fill:#222}
  *{transform-box:fill-box}@keyframes scale{from{transform:scale(0)}}@keyframes scaleY{from{transform:scaleY(0)}}@keyframes scaleX{from{transform:scaleX(0)}}@keyframes opacity{from{opacity:0}}@keyframes clip{from{clip-path:inset(0 100% 0 0)}to{clip-path:inset(0 0 0 0)}}.b{transform-origin:bottom}.a1{animation:2s ease-in-out .5s backwards scaleY}.a2{animation:2s ease-in-out backwards clip}.a3{animation:2s ease-in-out 1s backwards scaleY}.a4{animation:2s ease-in-out .7s backwards scaleX}.a5{animation:2s ease-in-out scaleX}.a6{animation:2s ease-in-out opacity}.a7{animation:2s ease-in-out 1s backwards opacity}.a8{animation:2s ease-in-out 1.5s backwards opacity}.a9{animation:1s ease-in-out 2s backwards opacity}.a10{animation:1s ease-in-out 2.2s backwards opacity}
  </style>
  <path d="M599.8 184.4c-25.5-13.5 29.2-82.5-30.3-115.2-74.2-40.7-90.5 20-120.8 4.3-67.8-34.8-5.6-61.8-95.9-70.8-31.9-3.2-69 5.2-96.9 20.2-65.1 35 38.9 41.8 5.9 67.7s-120.3 22.1-120.2 46.3c.1 14.6 60.6 5.8 50.7 29.6-18 43.1-36.2 44.2-41.6 75.2-7.6 42.7 16 101.9 66.8 119.8 58.5 20.7 71.1-28.9 188.4-34.2 106.4-4.8 107 49.9 207.7 28.2 35.1-7.6 40.8-49.1 31.4-94.5-11.1-52.9-15.9-61.1-45.2-76.6z" style="fill:#eaf3f9"/>
  <path d="m70.3 122.7 10.5 2.9c1.8.5 3.1 2 3.3 3.8 0 .3.1.6.1.8.2 1.8-.7 3.5-2.2 4.4l-9.5 5.4a4.52 4.52 0 0 0-1.7 6.1l9.3 16.4c1.2 2.1 3.9 2.9 6.1 1.7l8.9-5.1c1.6-.9 3.7-.7 5.1.5.3.3.7.5 1 .8 1.4 1.1 2 3 1.5 4.7L100 175c-.7 2.4.7 4.8 3.1 5.5l18.2 5c2.4.7 4.8-.7 5.5-3.1l2.5-9a4.6 4.6 0 0 1 3.9-3.3c.7-.1 1.3-.1 2-.2 1.8-.2 3.6.7 4.5 2.2l4.6 8c1.2 2.1 3.9 2.9 6.1 1.7l16.4-9.3c2.1-1.2 2.9-3.9 1.7-6.1l-4.2-7.5c-.9-1.6-.7-3.7.5-5.1.5-.6 1-1.3 1.5-1.9 1.1-1.5 3-2.1 4.8-1.6l8.2 2.3c2.4.7 4.8-.7 5.5-3.1l5-18.2c.7-2.4-.7-4.8-3.1-5.5l-8.2-2.3c-1.8-.5-3.1-2-3.3-3.8l-.3-2.4c-.3-1.8.6-3.7 2.2-4.6l7.5-4.2c2.1-1.2 2.9-3.9 1.7-6.1L177 86a4.52 4.52 0 0 0-6.1-1.7l-8 4.6c-1.6.9-3.5.7-5-.4-.5-.4-1-.8-1.6-1.2-1.5-1.1-2.2-3-1.7-4.8l2.5-9c.7-2.4-.7-4.8-3.1-5.5l-18.2-5c-2.4-.7-4.8.7-5.5 3.1l-2.7 9.9c-.5 1.7-1.9 3-3.7 3.2-.4.1-.8.1-1.3.2-1.8.3-3.7-.6-4.6-2.2l-5.1-8.9a4.52 4.52 0 0 0-6.1-1.7L88.2 77.2c-.9.5-1.3 1.7-.7 2.6l6.6 11.7c.9 1.6.8 3.5-.4 4.9-.2.2-.3.4-.5.7-1.1 1.5-3 2.1-4.8 1.6l-10.5-2.9c-2.4-.7-4.8.7-5.5 3.1l-5 18.2c-.8 2.5.6 4.9 2.9 5.6zm41.1-3.7c3-9.6 12.9-15.3 22.7-12.9 10.3 2.6 16.5 13 14 23.3l-.3.9c-3 9.6-12.9 15.3-22.7 12.9-10.3-2.6-16.5-13-14-23.3.2-.3.2-.6.3-.9z" class="st1"/>
  <path d="M129.7 163.5c-14 0-26.9-7.5-33.8-19.7-5.1-9-6.4-19.5-3.6-29.5 2.8-10 9.3-18.3 18.3-23.4 9-5.1 19.5-6.4 29.5-3.6 10 2.8 18.3 9.3 23.4 18.3s6.4 19.5 3.6 29.5-9.3 18.3-18.3 23.4c-6 3.3-12.5 5-19.1 5zm-.1-75.1c-6.2 0-12.3 1.6-17.8 4.7A36.15 36.15 0 0 0 94.7 115c-2.6 9.3-1.4 19.1 3.4 27.6 4.8 8.4 12.5 14.5 21.9 17.1 9.3 2.6 19.1 1.4 27.6-3.4 8.4-4.8 14.5-12.5 17.1-21.9 2.6-9.3 1.4-19.1-3.4-27.6a35.83 35.83 0 0 0-31.7-18.4z" class="st2"/>
  <path d="M129.6 152.2c-2.4 0-4.9-.3-7.3-1l.7-2.4c6.4 1.8 13.2 1 19-2.3s10-8.7 11.8-15.1l2.4.7a27.54 27.54 0 0 1-26.6 20.1z" class="st2"/>
  <path d="m67.4 171.2 7.1.1c1.2 0 2.2.7 2.7 1.9.1.2.1.3.2.5.4 1.1.2 2.3-.7 3.1l-5 4.9a2.96 2.96 0 0 0-.1 4.1l8.5 8.7c1.1 1.1 2.9 1.2 4.1.1l4.7-4.6c.9-.8 2.2-1.1 3.3-.5.2.1.5.2.8.3 1.1.5 1.7 1.5 1.7 2.7l-.1 6.6c0 1.6 1.3 2.9 2.9 2.9l12.2.2c1.6 0 2.9-1.3 2.9-2.9l.1-6c0-1.2.8-2.3 1.9-2.7.4-.1.8-.3 1.2-.4 1.1-.4 2.3-.2 3.2.7l4.2 4.3c1.1 1.1 2.9 1.2 4.1.1l8.7-8.5c1.1-1.1 1.2-2.9.1-4.1l-3.9-4c-.8-.9-1.1-2.2-.5-3.2l.6-1.5c.4-1.1 1.5-1.8 2.7-1.8l5.5.1c1.6 0 2.9-1.3 2.9-2.9l.2-12.2c0-1.6-1.3-2.9-2.9-2.9l-5.5-.1c-1.2 0-2.2-.8-2.7-1.9l-.6-1.5c-.5-1.1-.2-2.4.6-3.2l4-3.9c1.1-1.1 1.2-2.9.1-4.1l-8.5-8.7a2.96 2.96 0 0 0-4.1-.1l-4.3 4.2c-.8.8-2.1 1-3.2.6-.4-.2-.8-.3-1.2-.5-1.1-.4-1.9-1.5-1.9-2.7l.1-6c0-1.6-1.3-2.9-2.9-2.9l-12.2-.2a2.9 2.9 0 0 0-2.9 2.9l-.1 6.6c0 1.2-.7 2.2-1.8 2.6-.3.1-.5.2-.8.3-1.1.5-2.4.2-3.2-.6l-4.6-4.7a2.96 2.96 0 0 0-4.1-.1L71 140c-.5.5-.5 1.3 0 1.8l6.1 6.2c.8.8 1.1 2.1.6 3.1-.1.2-.1.3-.2.5-.4 1.1-1.5 1.8-2.7 1.8l-7.1-.1a2.9 2.9 0 0 0-2.9 2.9l-.2 12.2c-.1 1.5 1.2 2.8 2.8 2.8zm25-9c.3-6.5 5.6-11.7 12.1-11.8 7.1-.1 12.8 5.8 12.5 12.8-.3 6.5-5.6 11.7-12.1 11.8-7 .1-12.8-5.8-12.5-12.8z" class="st3"/>
  <path d="M104.7 188.2h-.3c-14-.2-25.3-11.7-25.2-25.8.1-6.8 2.8-13.2 7.7-17.9 4.9-4.8 11.3-7.3 18.1-7.2 14 .2 25.3 11.7 25.2 25.8-.1 6.8-2.8 13.2-7.7 17.9-4.8 4.6-11.1 7.2-17.8 7.2zm-23-25.8c-.1 6.1 2.2 11.9 6.5 16.3s10 6.9 16.2 6.9c6.1.1 11.9-2.2 16.3-6.5s6.9-10 6.9-16.2c.1-6.1-2.2-11.9-6.5-16.3s-10-6.9-16.2-6.9c-6.1-.1-11.9 2.2-16.3 6.5-4.3 4.3-6.8 10.1-6.9 16.2z" class="st2"/>
  <path d="M104.7 180.9h-.2v-2.5c4.2.1 8.2-1.5 11.2-4.5 3-2.9 4.7-6.9 4.7-11.1h2.5c-.1 4.9-2 9.4-5.5 12.8-3.4 3.5-7.9 5.3-12.7 5.3z" class="st2"/>
  <path d="M446.5 139.2 583 61.5c-14.5 82.8-105.6 101.7-136.5 77.7z" class="st1"/>
  <path d="m583 61.5-136.5 77.7c-.1-.1-.1-.1-.2-.1C445.2 106.5 502 27.3 583 61.3v.2z" class="st3"/>
  <path d="m445.7 137.7 111.5-63.4 1.7 3-111.5 63.4-1.7-3z" class="st2"/>
  <path d="m527.8 94.3.9-3.3 23.9 6.4-.9 3.3-23.9-6.4zm-8.2 1.9 9.3-30.5 3.2 1-9.3 30.5-3.2-1zm-34.3 22.4.6-3.3 43.4 8.3-.6 3.3-43.4-8.3zm-5.1-.1 15.5-36.8 3.1 1.3-15.5 36.8-3.1-1.3z" class="st2"/>
  <path d="m451.6 138.4 73.7-110.3c20.4 68-41.3 116.8-73.7 110.3z" class="st1"/>
  <path d="m525.3 28.1-73.7 110.3h-.2c-13.2-24.2-.3-105.5 73.8-110.5 0 0 0 .1.1.2z" class="st3"/>
  <path d="m450.2 137.5 60.2-90.1 2.8 1.9-60.2 90-2.8-1.8z" class="st2"/>
  <path d="m495.4 70.7 20.6-4.2.7 3.3-20.6 4.2-.7-3.3zm-9.6-19 3.3-.6 4.5 26.6-3.4.6-4.4-26.6zm-13.5 53.4 35.9-10.2.9 3.3-35.9 10.2-.9-3.3zm-5.6-28.7 3.4-.2 2.2 33.6-3.3.2-2.3-33.6z" class="st2"/>
  <path d="m667.8 219.8 126.9-49.9c-2.9-15-37.7 10.1-46.7 4.4-9.1-5.8 16.1-22 2.5-21-12.7 1-34 37.8-47.7 35.9-13.7-1.8 15.3-25.4-1.9-24.6-17.1.9-42.3 36.5-33.1 55.2z" class="st4"/>
  <path d="m794.7 169.8-126.9 49.9c0 .1.1.1.1.2 9.3 18.6 40.6 32 55.1 19s-29.5-11.9-12.5-23c17-11 48.9 8.9 61.1-2.1 12.2-11-27-10.3-12.1-18.4 14.9-8.1 37.4-8.9 35.3-25.1-.1-.1-.1-.3-.1-.5z" class="st5"/>
  <path d="m645 227.2 130-51.1 1 2.6-129.9 51.1-1.1-2.6z" class="st6"/>
  <path d="M753.8 211.3c-2.5-.3-5.7-.9-9.1-1.8-4.2-1.2-7.7-2.7-10.4-4.6-3.5-2.5-5.7-5.5-6.5-9-1.4-6.1.8-13.9 6.5-23.2 4.2-6.8 8.7-11.8 8.9-12l2.1 1.9c-.2.2-17.7 19.7-14.7 32.7.6 2.8 2.5 5.3 5.4 7.3 2.4 1.7 5.6 3.1 9.5 4.2 6.7 1.9 13.2 2.2 13.2 2.2l-.1 2.8c-.2 0-2.1-.1-4.8-.5zm-43 24.9c-.3 0-6.5-1.2-13.4-4.3-4.1-1.9-7.6-4-10.3-6.5-3.5-3.1-5.9-6.7-7.1-10.6-1.2-3.9-1.3-8.3-.5-13.3.7-3.9 1.9-8.2 3.8-12.6 3.1-7.5 6.8-13 7-13.2l2.3 1.6c0 .1-3.7 5.5-6.7 12.8-2.8 6.6-5.5 16.1-3.2 24 4.5 15 28.4 19.4 28.7 19.5l-.6 2.6z" class="st6"/>
  <path d="m674.1 195.2 64.1-85.2c-9.7-10.4-18.5 18.8-24.8 18.6-6.4-.2.4-10.2-9.7-8.6-11.7 1.8-9 27.9-15.2 32.5s-2.5-10.7-12.6-10.9c-10.1-.1-18.2 43.5-1.8 53.6z" class="st4"/>
  <path d="m738.3 110-64.2 85.2c.1 0 .1.1.2.1 16.6 10 48.2-9.2 46.6-18.1-1.5-8.9-18.2 5.8-9.4-10.9 3.3-6.3 24.1-4.5 27.3-14.1s-22.5 4.3-9.9-16c8.3-13.4 19.4-14 9.7-25.7-.1-.3-.2-.4-.3-.5z" class="st5"/>
  <path d="m659.9 212.2 72-95.7 2.2 1.7-72 95.7-2.2-1.7z" class="st6"/>
  <path d="M711.4 158.9c-2.9-.4-5.2-1.5-6.7-3.4-2.5-3.1-3.9-8.4-4.1-15.8-.2-5.4.4-9.9.4-10l2.8.3s-.5 4.5-.4 9.7c.2 6.7 1.4 11.5 3.5 14.1 2.6 3.2 8.2 2.7 12.4 1.8 4.9-1.1 9.1-3.1 9.1-3.1l1.2 2.5c-.2.1-4.5 2.1-9.7 3.3-3.1.7-5.8.9-8.1.7-.1 0-.2 0-.4-.1zM690.2 189c-3.2-.4-6.2-1.6-8.9-3.7-2.8-2.1-5-5.2-6.5-9-1.2-3-1.9-6.5-2.2-10.4-.5-6.6.4-12 .4-12.3l2.7.5c0 .2-3.4 20.9 7.2 29 4.4 3.3 9.5 4.1 15.3 2.4 4.4-1.3 7.6-3.6 7.7-3.6l1.7 2.2c-.1.1-3.5 2.6-8.5 4.1-3.1.9-6.1 1.2-8.9.8z" class="st6"/>
  <path d="m297.9 38.8 6.1 9.7 59.4-4.8-65.5-4.9zm65.5 4.9-54 13.4 9.5 14.6 44.5-28z" class="st4 a9"/>
  <path d="M363.4 43.7 304 48.5l2.2 21.6 3.2-13 54-13.4z" class="st5 a9"/>
  <path d="m315 65.6-8.8 4.5 3.2-13 5.6 8.5z" class="st6 a9"/>
  <path d="M160.1 259.9c-4.3 0-8.5-.1-12.6-.4l.2-3.3c4 .3 8.1.4 12.4.4v3.3zm-38.4-4.6c-4.1-1.1-8.2-2.4-12.1-3.8l1.2-3.1c3.8 1.4 7.8 2.7 11.8 3.7l-.9 3.2zm-35.4-15.5c-3.5-2.2-7-4.6-10.4-7.2l2-2.7c3.3 2.5 6.7 4.9 10.1 7.1l-1.7 2.8zm-29.6-25c-2.6-3.1-5.3-6.5-7.8-10l2.7-1.9c2.5 3.4 5 6.7 7.6 9.8l-2.5 2.1zm-21.1-32.4c-1.9-3.9-3.5-7.9-4.9-11.7l3.1-1.1c1.3 3.7 2.9 7.6 4.7 11.4l-2.9 1.4zm-9.8-37.5v-1.4c0-3.5.2-7.2.6-11.2l3.3.3c-.4 3.9-.6 7.5-.6 10.9v1.4h-3.3zm8.6-37.4-3.2-.9c1.2-4.1 2.5-8.2 4-12l3.1 1.2c-1.5 3.7-2.8 7.6-3.9 11.7zm15.5-34.3-2.7-1.9c2.4-3.6 5.1-6.9 7.9-10l2.5 2.3c-2.8 3-5.4 6.2-7.7 9.6zm176-2c-4.5-.4-8.7-1-12.6-1.9l.8-3.2c3.7.9 7.8 1.5 12.1 1.9l-.3 3.2zm26-.5-.3-3.3c3.9-.4 8-.9 12.3-1.6l.5 3.3c-4.3.6-8.5 1.2-12.5 1.6zm-62.2-13.1c-3.4-2.8-6.2-5.7-9.2-8.8l2.4-2.3c2.8 3 5.6 5.8 8.9 8.5l-2.1 2.6zM77.2 47.8l-1.7-2.9c3.5-2.1 7.3-4.1 11.2-5.9l1.4 3c-3.8 1.8-7.5 3.8-10.9 5.8zm35-14.2-.8-3.2c4.1-1.1 8.3-1.9 12.4-2.6l.5 3.3c-4 .6-8.1 1.5-12.1 2.5zm48.9-.3c-3.5-1.5-7.3-2.6-11.5-3.1l.5-3.3c4.6.6 8.6 1.7 12.4 3.4l-1.4 3z" class="a7"/>
  <path d="m535 483.7-3 11.1-58.4 12.3 61.4-23.4zm-61.4 23.4 55.6-2.5-5 16.7-50.6-14.2z" class="st3 a10"/>
  <path d="m473.6 507.1 58.4-12.3 3.9 21.4-6.7-11.6-55.6 2.5z" class="st1 a10"/>
  <path d="m526.3 514.3 9.6 1.9-6.7-11.6-2.9 9.7z" class="st2 a10"/>
  <path d="M614 316.4c4.3 0 8.5.1 12.6.4l-.2 3.3c-4-.3-8.1-.4-12.4-.4v-3.3zm38.4 4.6c4.1 1.1 8.2 2.4 12.1 3.8l-1.2 3.1c-3.8-1.4-7.8-2.7-11.8-3.7l.9-3.2zm35.4 15.5c3.5 2.2 7 4.6 10.4 7.2l-2 2.7c-3.3-2.5-6.7-4.9-10.1-7.1l1.7-2.8zm29.6 25c2.6 3.1 5.3 6.5 7.8 10l-2.7 1.9c-2.5-3.4-5-6.7-7.6-9.8l2.5-2.1zm21.1 32.4c1.9 3.9 3.5 7.9 4.9 11.7l-3.1 1.1c-1.3-3.7-2.9-7.6-4.7-11.4l2.9-1.4zm9.8 37.5v1.4c0 3.5-.2 7.2-.6 11.2l-3.3-.3c.4-3.9.6-7.5.6-10.9v-1.4h3.3zm-8.6 37.4 3.2.9c-1.2 4.1-2.5 8.2-4 12l-3.1-1.2c1.5-3.7 2.8-7.7 3.9-11.7zm-15.5 34.3 2.7 1.9c-2.4 3.5-5 6.9-7.9 10l-2.5-2.3c2.8-2.9 5.4-6.2 7.7-9.6zm-175.9 2c4.5.4 8.7 1 12.6 1.9l-.8 3.2c-3.7-.9-7.8-1.5-12.1-1.9l.3-3.2zm36.1 13.6c3.4 2.8 6.2 5.7 9.2 8.8l-2.4 2.3c-2.8-3-5.6-5.8-8.9-8.5l2.1-2.6zm112.5 9.8 1.7 2.9c-3.5 2.1-7.3 4.1-11.2 5.9l-1.4-3c3.8-1.8 7.5-3.8 10.9-5.8zm-35 14.2.8 3.2c-4.1 1.1-8.3 1.9-12.4 2.6l-.5-3.3c4-.6 8.1-1.5 12.1-2.5zm-48.8.3c3.5 1.5 7.3 2.6 11.5 3.1l-.5 3.3c-4.6-.6-8.6-1.7-12.4-3.4l1.4-3z" class="a8"/>
  <path d="M120.6 121.9h557v336.6h-557V121.9z" class="st4"/>
  <path d="M120.5 121.9h557.2v29.8H120.5v-29.8z" class="st6"/>
  <path d="M138.5 136.8c0 2.3-1.9 4.2-4.2 4.2s-4.2-1.9-4.2-4.2 1.9-4.2 4.2-4.2 4.2 1.9 4.2 4.2z" style="fill:#8fff3c"/>
  <path d="M150.1 136.8c0 2.3-1.9 4.2-4.2 4.2s-4.2-1.9-4.2-4.2 1.9-4.2 4.2-4.2 4.2 1.9 4.2 4.2z" style="fill:#ffff3c"/>
  <path d="M161.5 136.8c0 2.3-1.9 4.2-4.2 4.2-2.3 0-4.2-1.9-4.2-4.2s1.9-4.2 4.2-4.2c2.3 0 4.2 1.9 4.2 4.2z" style="fill:#da0100"/>
  <path d="M141.6 172.2h246.1v149H141.6v-149zm0 169.1h246.1v95.8H141.6v-95.8zm268.6-41h246.1v136.8H410.2V300.3zm0-128.2h246.1v108H410.2v-108z" style="fill:#fff"/>
  <path d="M157.3 189.4h56.8v23.7h-56.8v-23.7z" class="st3 a6"/>
  <path d="M157.3 223.4h56.8v3.3h-56.8v-3.3z" class="st4 a6"/>
  <path d="M157.3 230.8h56.8v3.3h-56.8v-3.3zm0 7.4h56.8v3.3h-56.8v-3.3z" class="st3 a7"/>
  <path d="M266.7 199.9h3.3v43.8h-3.3v-43.8z" class="st6 a1 b"/>
  <path d="M272.3 198.1h3.3v45.7h-3.3v-45.7z" class="st4 a1 b"/>
  <path d="M277.8 207.3h3.3v36.4h-3.3v-36.4zm5.6-20.3h3.3v56.8h-3.3V187z" class="st3 a1 b"/>
  <path d="M289 198h3.3v45.7H289V198z" class="st6 a1 b"/>
  <path d="M294.5 205.5h3.3v38.3h-3.3v-38.3z" class="st4 a1 b"/>
  <path d="M300.1 198h3.3v45.7h-3.3V198zm5.5 3.7h3.3v42h-3.3v-42z" class="st3 a1 b"/>
  <path d="M311.1 207.4h3.3v36.4h-3.3v-36.4z" class="st6 a1 b"/>
  <path d="M316.7 211h3.3v32.7h-3.3V211z" class="st4 a1 b"/>
  <path d="M322.2 205.4h3.3v38.3h-3.3v-38.3zm5.5-11.1h3.3v49.4h-3.3v-49.4z" class="st3 a1 b"/>
  <path d="M333.3 199.9h3.3v43.8h-3.3v-43.8z" class="st6 a1 b"/>
  <path d="M338.9 203.6h3.3v40.1h-3.3v-40.1z" class="st4 a1 b"/>
  <path d="M344.4 214.7h3.3v29h-3.3v-29z" class="st3 a1 b"/>
  <path d="M175 258.1h39v3.3h-39v-3.3z" class="st6 a5 l"/>
  <path d="M175 265.5h29.8v3.3H175v-3.3z" class="st3 a5 l"/>
  <path d="M157.3 257.4h11.5v11.5h-11.5v-11.5z" class="st3"/>
  <path d="M175 276.1h24.2v3.3H175v-3.3z" class="st6 a5 l"/>
  <path d="M175 283.5h35.3v3.3H175v-3.3z" class="st4 a5 l"/>
  <path d="M175 294h31.6v3.3H175V294zm0 7.4h18.7v3.3H175v-3.3z" class="st3 a5 l"/>
  <path d="M157.3 275.3h11.5v11.5h-11.5v-11.5z" class="st3"/>
  <path d="M157.3 293.3h11.5v11.5h-11.5v-11.5z" class="st6"/>
  <path d="M272.1 283.5h11.1v21.3h-11.1v-21.3zm15-5.4h11.1v26.6h-11.1v-26.6z" class="st3 a3 b"/>
  <path d="M302 271.3h11.1v33.5H302v-33.5z" class="st4 a3 b"/>
  <path d="M316.8 277h11.1v27.7h-11.1V277z" class="st6 a3 b"/>
  <path d="m415.5 258.9 64.7-41.5 43.4 7.2 52.9-17.2 22.2 7.3 37.6-14.8v59H415.5z" class="st3 a2"/>
  <path d="m433.5 258.9 45.8-22 42.4 9 51.4-16.6 19 8.9 44.2-16.1v36.8H433.5z" class="st6 a2"/>
  <path d="M331.6 266.2h11.1v38.5h-11.1v-38.5z" class="st3 a3 b"/>
  <path d="M175 370.6h68.6v3.3H175v-3.3z" class="st6 a4 l"/>
  <path d="M157.3 366.5h11.5V378h-11.5v-11.5z" class="st3"/>
  <path d="M175 388.5h37.2v3.3H175v-3.3z" class="st3 a4 l"/>
  <path d="M157.3 384.4h11.5v11.5h-11.5v-11.5z" class="st6"/>
  <path d="M175 406.4h53.8v3.3H175v-3.3z" class="st4 a4 l"/>
  <path d="M157.3 402.3h11.5v11.5h-11.5v-11.5z" class="st3"/>
  <path d="M261.7 366.5h30.5v25.3h-30.5v-25.3z" class="st4 a6"/>
  <path d="M301.7 366.5h30.5v25.3h-30.5v-25.3z" class="st3 a7"/>
  <path d="M342.5 366.5H373v25.3h-30.5v-25.3z" class="st6 a8"/>
  <path d="M261.7 397.4h30.5v1.3h-30.5v-1.3zm0 3.7h30.5v1.3h-30.5v-1.3zm0 3.7h30.5v1.3h-30.5v-1.3zm0 3.7h30.5v1.3h-30.5v-1.3z" class="st3 a6"/>
  <path d="M301.7 397.4h30.5v1.3h-30.5v-1.3zm0 3.7h30.5v1.3h-30.5v-1.3zm0 3.7h30.5v1.3h-30.5v-1.3zm0 3.7h30.5v1.3h-30.5v-1.3z" class="st6 a7"/>
  <path d="M342.5 397.4H373v1.3h-30.5v-1.3zm0 3.7H373v1.3h-30.5v-1.3zm0 3.7H373v1.3h-30.5v-1.3zm0 3.7H373v1.3h-30.5v-1.3z" class="st4 a8"/>
  <path d="m511.5 347.2-5.8 4.4a30.88 30.88 0 0 1-5.6 43.3c-5.4 4.2-12.1 6.4-18.9 6.4-8 0-15.3-3-20.7-8-2.9-2.6-5.3-5.8-7-9.3l-6.5 3.2a38.06 38.06 0 0 0 34.3 21.3 38.2 38.2 0 0 0 38.2-38.2c-.1-8.6-3.1-16.6-8-23.1z" class="st6 a7"/>
  <path d="m453.4 384-6.5 3.2c-2.5-5.1-3.9-10.8-3.9-16.8 0-5.7 1.3-11.2 3.5-16.1l6.6 3c-1.9 4-2.9 8.4-2.9 13.1.1 4.9 1.2 9.5 3.2 13.6z" class="st6 a7"/>
  <path d="m511.5 347.2-5.8 4.4c-3-3.8-6.8-7-11.2-9.1a30.73 30.73 0 0 0-32.4 3.6c-3.8 3-6.9 6.8-9 11.3l-6.6-3c1.2-2.5 2.6-4.8 4.2-7 7-9.2 18-15.1 30.4-15.1 9.4 0 18 3.4 24.6 9 2.2 1.8 4.1 3.8 5.8 5.9zm-51.1 46.2-4.8 5.4c-3.6-3.2-6.6-7.1-8.7-11.5l6.5-3.2c1.7 3.5 4.1 6.7 7 9.3z" class="st3 a7"/>
  <path d="m496.1 325-.8-.8 7.1-7.1h30.8v1.1h-30.3l-6.8 6.8zm61.2 87.5h-39l-7.3-7.3.8-.7 7 6.9h38.5v1.1zm-116.7-6.6h-20.7v-1.1h20.2l7.7-7.7.8.7-8 8.1zm.7-48.2-7.9-7.9h-17.9v-1.1h18.4l8.2 8.2-.8.8z" class="a7"/>
  <path d="M415.4 343h17.7v3.3h-17.7V343z" class="st6 a7"/>
  <path d="M503.6 312.3h26.8v3.3h-26.8v-3.3zm-82.1 86.5h17.7v3.3h-17.7v-3.3z" class="st3 a7"/>
  <path d="M520.9 405.3h34.4v3.3h-34.4v-3.3z" class="st6 a7"/>
  <path d="M569.4 312.3h74.9v53.1h-74.9v-53.1z" class="st4 a6"/>
  <path d="M569.4 376.1h30.5v1.3h-30.5v-1.3zm0 3.7h30.5v1.3h-30.5v-1.3zm0 3.7h30.5v1.3h-30.5v-1.3zm0 3.7h30.5v1.3h-30.5v-1.3zm44.3-11.1h30.5v1.3h-30.5v-1.3zm0 3.7h30.5v1.3h-30.5v-1.3zm0 3.7h30.5v1.3h-30.5v-1.3zm0 3.7h30.5v1.3h-30.5v-1.3z" class="st3 a6"/>
  <path d="M569.4 400.5h30.5v1.3h-30.5v-1.3zm0 3.7h30.5v1.3h-30.5v-1.3zm0 3.7h30.5v1.3h-30.5v-1.3zm0 3.7h30.5v1.3h-30.5v-1.3z" class="st6 a6"/>
  <path d="M613.7 400.5h30.5v1.3h-30.5v-1.3zm0 3.7h30.5v1.3h-30.5v-1.3zm0 3.7h30.5v1.3h-30.5v-1.3zm0 3.7h30.5v1.3h-30.5v-1.3z" class="st4 a6"/>
  <path d="M56.5 331.3c.5.5-.2 2.5.9 4l2.7-3.7c-1.5-1.5.1-3-1.6-5.4-2.2-3.1-6.4-1.3-6.8-.4-.3.9 3 3.6 4.8 5.5z" class="st11"/>
  <path d="m41.9 369.4-7.3 1.4c-.1-5-4-10.8-6.1-13.9-2-3.1-.1-9.5 7-10.7 7-1.2 8 3.7 9.7 8.8 1.6 5.1.6 6.9-2.1 7-2.8 0-1.2 7.4-1.2 7.4" class="st12"/>
  <path d="M42.6 354.2c-1.5.7-2.2-2-3.7-1.2-1.5.9 2.4 7.7 1.4 10.2s-7.4 3.3-10-2.1c-2.7-5.4-6.1-9.6 2.1-14.5 4.1-2.4 12.3-2.3 9.9 1.4-.6 1.1 1.7 5.5.3 6.2z"/>
  <path d="M14.7 329.1c.8.5-.6 4.5-1.2 7.2-.1.6-.2 1.7-.3 3.2l-4.7.6c1.2-3.5.4-3.6.7-7.1.2-3.8 4.7-4.5 5.5-3.9zm10.2 167.1v2.8l-4.1-.4.4-3.3 3.7.9z" class="st11"/>
  <path d="M35.9 505.2s-15-2.1-16.6-3.3c-.3-.2-.5-.5-.5-.8 0 0 2.1 1.1 17.4 3.4-.1.4-.3.7-.3.7z" class="st4"/>
  <path d="M36.2 504.5c-15.2-2.3-17.4-3.4-17.4-3.4-.2-1.3 1.2-3.1 1.2-3.1l4.2.3c11.1 1.8 12.2 4.8 12 6.2z" class="st13"/>
  <path d="m29 499.3-.2 1.4-1.2-.2.3-1.5 1.1.3zm-3.4.7.3-1.5 1.2.2-.3 1.5-1.2-.2z" class="st4"/>
  <path d="M45.6 432.3s2-10.2-11-9.4c0 0-2.8.6-7.2-2.8-7.2 9.4-.8 21.8-4.4 34.7-3.6 12.9-2.5 40.4-2.5 40.4l4.7 1.5s6.5-31.2 9.3-38.1c2.9-6.7 11.1-26.3 11.1-26.3z" class="st1"/>
  <path d="m53.5 499.4-.3 3-4.3-.7.6-3.5 4 1.2z" class="st11"/>
  <path d="M64.5 509.6s-15.8-3.2-17.4-4.6c-.3-.3-.5-.6-.5-.9 0 0 2.2 1.3 18.2 4.7-.1.5-.3.8-.3.8z" class="st4"/>
  <path d="M64.7 508.9c-15.9-3.4-18.1-4.7-18.1-4.7-.2-1.4 1.5-3.2 1.5-3.2l4.4.6c11.6 2.5 12.5 5.8 12.2 7.3z" class="st13"/>
  <path d="m57.6 502.9-.4 1.5-1.2-.3.4-1.6 1.2.4zm-3.7.6.4-1.5 1.3.3-.4 1.5-1.3-.3z" class="st4"/>
  <path d="M56.9 416s6.1 26.4 3.3 45.7c-2.8 19.3-6.1 38-6.1 38l-4.9-1.4s-2.8-30.5 0-38.7c2.8-8.3-11.2-30.4-10.6-36.4 0-.1 5.7 0 18.3-7.2z" class="st3"/>
  <path d="M77.6 356.8c-.4.8-2.2 2.6-4.7 4.9-6.8 6-14.1 11.6-17.2 16.5-4.3 6.8 2.3 37.5 2.3 37.5s-8 7.2-18.8 8.4c-11 1.2-14.4-3.5-14.4-3.5s3-27.7.6-33.1c-2.3-5.3-21.7-22.4-22.5-24.4C2.1 361 5.3 348 6.3 344c1.2-5 .8-3.8.8-3.8l1.3-.2 4.7-.6 1.3-.2s.3.7-.8 7.7c-.6 3.7-2.4 11-1.8 12.1s10.1 11.4 12.3 11.4c.7 0 3.4-.4 5.4-.4s3-2.2 3.8-2.3c3.1-.4 5.3 0 8.4-.4.8-.1 1.1.8 3 .8s6.6-1.2 6.6-1.2 12.9-8.6 13.5-11.7c.1-.3.1-.6.1-1.1-.1-2.9-8.5-18.4-8.7-20.4l4.3-3c0 .3 18 23.9 17.1 26.1z" class="st4"/>
  <path d="m118.6 344.6-7.5-1.9-1.3 5.7s5.3 3.2 7.9 2.8c2.7-.4.9-6.6.9-6.6" class="st14"/>
  <path d="M131.9 456.7c1.6 4.5-1.4 12.5-.2 22.3s3.7 23 3.7 23l6.2-.3s8.1-46 4.5-55.7c-3.5-9.7-14-37.6-14-37.6l-19.8 3.9s3.8 14.2 9.6 27.4c2.8 6.3 9.3 15.2 10 17z" class="st13"/>
  <path d="M123.5 407.3 107.1 503h-6.4s-3.6-35.1-.9-47.8c.2-13-5.7-33.5-.9-47.8h24.6v-.1z" class="st6"/>
  <path d="m106.1 503-.4 3.8-4.1-.4.3-3.4h4.2zm34.4-1.7.2 3.3-4.2-.3-.1-2.5 4.1-.5z" class="st12"/>
  <path d="m133.4 368.1-.1.1c.3 9.6.9 34.1 0 39.1-1.1 6.1-34.4 0-34.4 0s-2.3-27.2-.2-32.4l-4.8-1.1s5.8-18.9 12.1-24.1c6.4-5.2 20.7-.6 24.3 2.2.3-.2.5-.3.8-.5 1.9-.9 3.7-.9 3.7-.9l1.3 7 .8 4.4.8 3.9h-.1l-4.2 2.3z" class="st3"/>
  <path d="M154.8 508.2s-16.6.9-18.5-.1c-.4-.2-.6-.5-.7-.8 0 0 2.5.8 19.4 0 0 .6-.2.9-.2.9z" class="st4"/>
  <path d="M135.6 507.4s2.5.8 19.4 0c-.1-1.3-1.3-3.6-8.8-4-.4 0-.8 0-1.3-.1h-4l-4.6.5s-1.3 2.2-.7 3.6z" class="st13"/>
  <path d="M144.9 505h1.3v-1.6c-.4 0-.8 0-1.3-.1v1.7zm-2.3-1.7h1.3v1.7h-1.3v-1.7zm-23.7 7s-16.6.3-18.5-.7c-.4-.2-.6-.5-.7-.8 0 0 2.5.8 19.4.6 0 .5-.2.9-.2.9z" class="st4"/>
  <path d="M99.7 508.8s2.5.8 19.4.6c0-1.3-1.2-3.6-8.6-4.3-.4 0-.8-.1-1.3-.1-1.2-.1-2.5-.1-4-.1l-4.6.4c-.1 0-1.4 2.2-.9 3.5z" class="st13"/>
  <path d="M109.1 506.7h1.3v-1.6c-.4 0-.8-.1-1.3-.1v1.7zm-2.4-.1.1-1.7h1.3v1.7h-1.4z" class="st4"/>
  <path d="m105.1 374.7-10.3-.7s-2.8 9.6-3.1 17.7c-2.4 6 .3 12.8 1.4 17.7 1.1 5 3.1 14.8 2.8 17.4s-1.3 8 2.5 9.8 7.9-.7 4.7-4-3.2-5.8-2.5-12.8 1.6-20.5 1.6-20.5-1-4.4.1-6.5c3.1-6.1 4.6-13.9 2.8-18.1zm28.3-6.6 4.2-2.2c-2 1.1-3.6 1.9-4.2 2.2zm46.1-45.9c.2.5.3 1 .5 1.7 1 4.1-3.7 6.8-5.9 8.3-2.2 1.4-8.5 9.3-11.5 13.3-3.1 4.1-6.5 10.5-12.6 12.5-3.6 2.9-8.6 5.8-12.2 7.8l-.8-3.9-.8-4.4-1.3-7c3.3-.6 7.4-1 9.2-1.3 2.4-.4 5-4.1 5-4.1s10.9-8 16.7-12 6-5.3 8.9-8.8c1.8-2.1 2.8-3.2 3.6-3.3.3 0 5.3-4.5 6-3.4.6 1-5 4.2-4.8 4.6z" class="st12"/>
  <path d="M122 329s.2-3.1-6-4.9c-11.9-3.4-10.9 6.2-10 10.2s3.8 4.7 5.3 4.8c1.5.1 10.7-10.1 10.7-10.1z" class="st15"/>
  <path d="m111 343 .5-6.1s-3 .1-2.8-1.9c.4-3.1 3.3-.6 3.3-.6s-.7-4.7.5-5.2 9-1.1 9.4-.2 4.6 9.4 2.3 12.6c-2.2 3.2-5 3.4-5 3.4s-6.8-2-8.2-2z" class="st12"/>
  <path d="M384.1 424.5s-5.3 12.9-2.8 18.1c-3.6-3.6-1-18.9-1-18.9l3.8.8z" class="st14"/>
  <path d="m392.9 552 .3 3.3 4-1-.3-2.5-4 .2z" class="st12"/>
  <path d="M380.1 561.1s16.2-1.9 18-3.1c.3-.2.5-.5.6-.9 0 0-2.3 1.1-18.8 3.2 0 .5.2.8.2.8z" class="st2"/>
  <path d="M398.6 557.1s-2.3 1.1-18.8 3.2c-.1-1.3.7-3.7 7.8-5.3l1.2-.3c1.2-.2 2.5-.4 3.9-.6l4.5-.2c.2-.1 1.7 1.8 1.4 3.2z" class="st3"/>
  <path d="m389.2 556.3-1.3.2-.2-1.6 1.2-.3.3 1.7zm.7-1.8 1.3-.2.3 1.7-1.3.2-.3-1.7z" class="st2"/>
  <path d="m396 398.9 7.7-1.3 1.5 2.6s-8.2 2.6-10.7 2.8 1.5-4.1 1.5-4.1" class="st14"/>
  <path d="M388.2 387.1s-5.9-2.1-1.1-5.3c4.9-3.3 13.3-3.7 15.9 4 1.1 3.5-1.4 5.2-2.6 5.7s-12.2-4.4-12.2-4.4z" class="st15"/>
  <path d="M394.4 506.9c-.5 4.7 3.4 12.9 3.4 22.2 0 9.7.2 23.1.2 23.1l-6 1.1s-11.9-43.2-10.8-53.3 4.7-39.2 4.7-39.2l19.8-.9s-.3 14.4-2.8 28.4c-1.3 6.7-8.3 16.6-8.5 18.6z" class="st13"/>
  <path d="m395.4 459.9 16.1 94.1h6.3s3.6-34.5.9-47c-.2-12.8 5.6-32.9.9-47l-24.2-.1z" class="st6"/>
  <path d="m412.5 553.9.4 3.8 4-.4-.3-3.4h-4.1z" class="st12"/>
  <path d="M419.6 459.9s2.2-26.7.2-31.8l1.5-1.1s-3.1-19.7-9.3-24.9c-6.3-5.2-28.4 0-32.9 21.1 2.7 1.8 7.2 1.8 7.2 1.8s-1.6 28.9-.4 34.9c1 6 33.7 0 33.7 0z" class="st3"/>
  <path d="m372.3 441-9.3-5.3 6.2 6.8 3.1-1.5z" style="fill:#f1f2fb"/>
  <path d="m369.2 442.7-7.1-7.7 10.5 6-3.4 1.7zm-5.4-6.4 5.5 6 2.7-1.3-8.2-4.7z" class="st3"/>
  <path d="M399.9 561.1s16.3.3 18.2-.7c.4-.2.6-.5.7-.8 0 0-2.5.8-19 .6-.1.6.1.9.1.9z" class="st2"/>
  <path d="M418.8 559.7s-2.5.8-19 .6c0-1.3 1.2-3.6 8.5-4.2.4 0 .8-.1 1.3-.1 1.2-.1 2.5-.1 4-.1l4.5.4c-.1-.1 1.2 2.1.7 3.4z" class="st3"/>
  <path d="M409.5 557.6h-1.3V556c.4 0 .8-.1 1.3-.1v1.7zm1-1.7h1.3v1.7h-1.3v-1.7z" class="st2"/>
  <path d="m403.7 397.6-4.2-7.9s2.4-1 1.6-2.5c-1.4-2.4-2.9.7-2.9.7s-1.1-4-2.2-4-7.6 2.2-7.6 3.1 0 7 2.1 9.7c2.3 2.9 5.7 2.3 5.7 2.3s6.4-.8 7.5-1.4z" class="st12"/>
  <path d="M380.6 444s2 4.3 4.8 1.8 5.1-11.1 6-17.4 2.7-22.5 3.4-25.6c.7-3.1 2.5-7.8 1.6-8.5s-6.3 0-6.7 4.5c-.4 4.5.7 4.3-1.6 9.6-2.1 5.3-9 21.8-7.5 35.6z" class="st11"/>
  <path d="m381.1 452.9 10.4-3.8-12.1-11.8-10.5 5.1 12.2 10.5z" class="st3"/>
  <path d="m411.1 428.1 10.2-1.1s3.6 14-.9 18.5-8.4 4.6-13.4 5.5c-4.9.9-14.6 2.9-16.8 4.3-2.2 1.3-6.7 4.3-9.9 1.6-3.1-2.7-2.5-7.4 1.8-5.8s6.5.7 12.5-2.7c6-3.4 17.9-9.4 17.9-9.4s-1.4-5-1.4-10.9z" class="st12"/>
</svg>
