<svg xmlns="http://www.w3.org/2000/svg" xml:space="preserve" version="1.1" viewBox="0 0 600 420">
  <style>
    .st0{fill:#aecee8}.st1{fill:#fff}.st2{fill:#d72d2d}.st3{fill:#90aade}.st4{fill:#9bc5e8}.st5{fill:#ceeaff}.st6{fill:#7eb0d9}.st7{fill:#7495d6}.st8{fill:#a4cbeb}.st20{fill:#9db7eb}.st22{fill:#8eace6}.st23{fill:#5f71ad}.st24{fill:#e1effc}.st25{opacity:.5}.st27{fill:#6088d6}.st28{fill:#c6dff2}.st32{fill:#b4bfe3}.st34{fill:#5e86d6}
  </style>
  <path d="M122.4 207.1h-1v-.4c0-1.7-.2-3.3-.6-4.8.3-.1.6-.1 1-.2 1.9-.6 3.1-1.9 2.8-2.9s-2.1-1.3-4-.7c-.3.1-.6.2-.8.4-.7-1.6-1.6-3.1-2.7-4.5.3-.2.6-.4.8-.6 1.5-1.3 2.1-3 1.3-3.8-.7-.8-2.5-.4-3.9.9-.3.2-.5.5-.7.7-1.3-1.2-2.7-2.2-4.3-3.1.2-.3.4-.6.5-.9.8-1.8.7-3.6-.3-4s-2.4.7-3.2 2.5c-.1.3-.2.6-.3 1-1.6-.6-3.4-.9-5.1-1.1.1-.3.1-.7.1-1 0-2-.9-3.5-1.9-3.5-1.1 0-1.9 1.6-1.9 3.5 0 .4.1.7.1 1-1.8.2-3.5.5-5.1 1.1-.1-.3-.2-.6-.3-1-.8-1.8-2.2-2.9-3.2-2.5s-1.1 2.2-.3 4c.1.3.3.6.5.9-1.5.9-3 1.9-4.3 3.1-.2-.3-.4-.5-.7-.7-1.5-1.3-3.2-1.7-3.9-.9-.7.8-.1 2.5 1.3 3.8.3.2.5.4.8.6-1.1 1.4-2 2.9-2.7 4.5-.3-.1-.5-.3-.8-.4-1.9-.6-3.6-.3-4 .7-.3 1 .9 2.3 2.8 2.9.3.1.6.1 1 .2-.4 1.6-.6 3.2-.6 4.8v.4h-1c-1.9.2-3.4 1.2-3.3 2.3.1 1.1 1.8 1.7 3.7 1.5.3 0 .6-.1.9-.2.3 1.8.9 3.4 1.7 5-.3.1-.6.2-.9.4-1.7 1-2.6 2.5-2.1 3.4s2.3.9 4-.1c.3-.2.5-.4.8-.6 1 1.4 2.2 2.7 3.6 3.9-.2.2-.5.5-.7.8-1.1 1.6-1.4 3.4-.5 4s2.5-.2 3.6-1.7c.2-.3.4-.6.5-.9 1.5.9 3.1 1.6 4.8 2.1-.1.3-.2.6-.3 1-.4 1.9.1 3.6 1.1 3.9 1 .2 2.2-1.2 2.6-3.1.1-.4.1-.7.1-1 .9.1 1.7.3 2.6.3.9 0 1.8-.2 2.6-.3 0 .3 0 .7.1 1 .4 1.9 1.6 3.3 2.6 3.1 1-.2 1.5-1.9 1.1-3.9-.1-.4-.2-.7-.3-1 1.7-.5 3.3-1.2 4.8-2.1.1.3.3.6.5.9 1.1 1.6 2.8 2.4 3.6 1.7.9-.6.6-2.4-.5-4-.2-.3-.5-.5-.7-.8 1.3-1.2 2.6-2.4 3.6-3.9.2.2.5.4.8.6 1.7 1 3.5 1 4 .1s-.4-2.5-2.1-3.4c-.3-.2-.6-.3-.9-.4.7-1.6 1.3-3.2 1.7-5 .3.1.6.2.9.2 1.9.2 3.6-.5 3.7-1.5.4-1-1.1-2.1-3.1-2.3zM100.2 220c-7.3 0-13.2-5.9-13.2-13.2 0-7.3 5.9-13.2 13.2-13.2s13.2 5.9 13.2 13.2c0 7.2-5.9 13.2-13.2 13.2z" class="st0"/>
  <path d="m45.6 210.3-1.8 1.3-.8-2.2-1.7 1.6-1.1-2-1.5 1.8-1.4-1.8-1.1 2-1.7-1.6-.8 2.2-1.9-1.3-.4 2.3-1.5-.8 2.1 2.1.4-2.1 1.8 1.2.7-2 1.5 1.4 1-1.8 1.3 1.6 1.3-1.6 1 1.8 1.6-1.4.7 2 1.7-1.2.5 2.1 2.1-2.1-1.5.8z" class="st1"/>
  <path d="M42.8 240.4h-8.2c-1.3 0-2.6-.6-3.4-1.6-1.6-2-2.5-4.6-3.2-6.8v-.1c-.6-1.9-1.2-3.7-2.1-4.6a17.8 17.8 0 0 1-5.3-12.6c0-4.8 1.9-9.3 5.3-12.6 3.4-3.4 8-5.2 12.9-5.2s9.5 1.9 12.9 5.2c3.4 3.4 5.3 7.9 5.3 12.6 0 4.8-1.9 9.3-5.3 12.6-.9.9-1.5 2.7-2.1 4.6-.7 2.2-1.6 4.9-3.2 6.9-.9 1-2.2 1.6-3.6 1.6z" class="st2"/>
  <path d="M40.9 240.6h.9c-.1-4.1-.5-18.1 4.8-22.3 0 0-1.8.5-2.1.8-4 4.5-3.9 17.6-3.8 21.5h.2zm-5 0H37c.2-3.8.6-16.1-4.2-21.7-.3-.3-1.9-.7-1.9-.7 6.2 6.3 5.2 18.6 5 22.4zm9.7-30.3-1.8 1.3-.8-2.2-1.7 1.6-1.1-2-1.5 1.8-1.4-1.8-1.1 2-1.7-1.6-.8 2.2-1.9-1.3-.4 2.3-1.5-.8 2.1 2.1.4-2.1 1.8 1.2.7-2 1.5 1.4 1-1.8 1.3 1.6 1.3-1.6 1 1.8 1.6-1.4.7 2 1.7-1.2.5 2.1 2.1-2.1-1.5.8z" class="st1"/>
  <path d="M45 240.1H32.4c-.5 0-.9.4-.9.9s.4.9.9.9H45c.5 0 .9-.4.9-.9.1-.5-.4-.9-.9-.9zm-.9 1.8H33.4c-.5 0-.9.4-.9.9s.4.9.9.9h10.7c.5 0 .9-.4.9-.9 0-.4-.4-.9-.9-.9zm-1.4 1.9h-8c-.5 0-.9.4-.9.9s.4.9.9.9h.9c0 .5.4.9.9.9h4.4c.5 0 .9-.4.9-.9h.9c.5 0 .9-.4.9-.9.1-.5-.4-.9-.9-.9z" class="st3"/>
  <path d="M226.2 59.5c-.1-7.5 5-13.8 12-15.4L235.6 33c-12.1 2.8-21 13.8-20.8 26.7.1 10.1 5.8 18.8 14.1 23.3l5.5-10c-4.9-2.6-8.1-7.6-8.2-13.5z" class="st4"/>
  <path d="m255 67.6 9.6 6.1v-.1c-2.7-1.7-6.2-3.9-9.6-6zm-4.7-2.9c-4.8-3-8.5-5.4-8.5-5.4l8.5 5.4z" class="st2"/>
  <path d="M239.5 49.5c-4.5 1.1-7.8 5.1-7.8 10 .1 3.8 2.2 7 5.2 8.7l4.8-8.8-2.2-9.9z" class="st4"/>
  <path d="M241.6 49.2c3.4 0 6.4 1.6 8.3 4.1l4.4-3.3c-2.9-3.9-7.6-6.4-12.8-6.4-1.2 0-2.3.2-3.4.4l1.3 5.4c.8-.1 1.5-.2 2.2-.2z" class="st5"/>
  <path d="M241.6 43.7c5.2-.1 9.9 2.4 12.8 6.4l9.2-6.8A27 27 0 0 0 235.7 33l2.6 11.1c1-.2 2.1-.4 3.3-.4zm8.3 9.6a10.1 10.1 0 0 0-10.5-3.8l2.3 9.8 8.2-6z" class="st2"/>
  <path d="M257.4 59.1c0 3.1-.8 6-2.4 8.5 3.4 2.1 6.9 4.3 9.7 6.1 2.7-4.3 4.2-9.3 4.1-14.7a27.1 27.1 0 0 0-5.3-15.6l-9.2 6.8c1.9 2.4 3.1 5.5 3.1 8.9zm-7.5-5.8-8.1 6s3.8 2.3 8.6 5.3c1-1.6 1.6-3.5 1.5-5.5-.1-2.1-.8-4.1-2-5.8z" class="st6"/>
  <path d="M241.9 69.4c-1.8 0-3.5-.4-5-1.2l-2.7 4.8c2.3 1.3 4.9 2 7.7 1.9 5.5-.1 10.3-3 13-7.3l-4.7-2.9a9.5 9.5 0 0 1-8.3 4.7z" class="st5"/>
  <path d="m264.6 73.7-9.6-6.1c-2.7 4.3-7.5 7.2-13 7.3-2.8 0-5.4-.7-7.7-1.9l-5.5 10c4 2.2 8.5 3.4 13.4 3.3 9.5-.1 17.7-5.1 22.4-12.6zm-27.7-5.5c1.5.8 3.2 1.3 5 1.2 3.5-.1 6.6-1.9 8.4-4.7l-8.5-5.4-4.9 8.9z" class="st7"/>
  <path d="m303.7 90.4-5.8.8c-.5-.9-1.1-1.7-1.8-2.4l2.5-5.3-3.2-2.3-4.2 4c-.9-.4-1.9-.7-2.9-.9l-1.1-5.7h-3.9l-1.1 5.7c-1 .2-2 .5-2.9.9l-4.2-4-3.2 2.3 2.5 5.3c-.7.7-1.3 1.6-1.8 2.4l-5.8-.8-1.2 3.7 5.1 2.8c-.1.5-.1 1-.1 1.5s0 1 .1 1.5l-5.1 2.8 1.2 3.7 5.8-.8c.5.9 1.1 1.7 1.8 2.4l-2.5 5.3 3.2 2.3 4.2-4c.9.4 1.9.7 2.9.9l1.1 5.7h3.9l1.1-5.7c1-.2 2-.5 2.9-.9l4.2 4 3.2-2.3-2.5-5.3c.7-.7 1.3-1.6 1.8-2.4l5.8.8 1.2-3.7-5.1-2.8c.1-.5.1-1 .1-1.5s0-1-.1-1.5l5.1-2.8-1.2-3.7zm-18.4 16.8a8.7 8.7 0 1 1 8.7-8.7c.1 4.8-3.8 8.7-8.7 8.7z" class="st8"/>
  <path d="M200.4 127.6c.6-.1 1.2-.3 1.8-.5l4.9 5.6 4.3-2.5-2.6-7c.9-.9 1.8-1.8 2.5-2.9l7.2 1.6 2-4.6-6.2-4.1c.2-1.2.4-2.5.4-3.8l6.8-2.9-1.1-4.9-7.4.3c-.5-1.2-1.2-2.3-2-3.3l3.8-6.4-3.7-3.3-5.8 4.6c-1.1-.6-2.3-1.1-3.5-1.5l-.7-7.4-5-.5-2 7.1-1.9.3c-.6.1-1.2.3-1.8.5l-4.9-5.6-4.3 2.5 2.6 7c-.9.9-1.8 1.8-2.5 2.9l-7.2-1.6-2 4.6 6.2 4.1c-.2 1.2-.4 2.5-.4 3.8l-6.8 2.9 1.1 4.9 7.4-.3c.5 1.2 1.2 2.3 2 3.3l-3.8 6.4 3.7 3.3 5.8-4.6c1.1.6 2.3 1.1 3.5 1.5l.7 7.4 5 .5 2-7.1c.6 0 1.3-.1 1.9-.3zm1-2-.8-3.5c2.1-.7 4-2 5.4-3.6l3 1.9c-1.9 2.4-4.5 4.2-7.6 5.2zm-14.6-13.8a9.86 9.86 0 1 1 11.8 7.4 9.73 9.73 0 0 1-11.8-7.4zm24.3 5.4-3-1.9c1-2 1.4-4.3 1.3-6.7l3.4-.8c.3 3.4-.3 6.6-1.7 9.4zm.9-13-3.4.8c-.8-2.2-2.3-4.1-4-5.5l1.9-2.9c2.4 1.8 4.4 4.5 5.5 7.6zm-8.8-9.7-1.9 3c-2-.8-4.3-1.1-6.6-.8l-.8-3.5c3.3-.5 6.5 0 9.3 1.3zm-13-.3.8 3.5c-2 .9-3.7 2.2-4.9 3.9l-3-1.9c1.8-2.4 4.2-4.4 7.1-5.5zm-9 8.8 3 1.9c-.7 1.8-1 3.9-.9 5.9l-3.4.8c-.3-3 .2-6 1.3-8.6zm-.4 12.3 3.4-.8c.8 1.9 1.9 3.6 3.4 4.9l-1.9 3c-2.1-1.9-3.8-4.3-4.9-7.1zm8.1 9.2 1.9-3c1.8.9 3.9 1.3 6 1.2l.8 3.5c-3 .3-6-.3-8.7-1.7z" class="st7"/>
  <path d="m194.8 71.4-1.4-3.9c.5-.5 1-1 1.4-1.6l4.1.9 1.1-2.6-3.5-2.3c.1-.7.2-1.4.2-2.1l3.8-1.6-.6-2.7-4.2.2c-.3-.7-.7-1.3-1.1-1.9l2.1-3.6-2.1-1.9-3.3 2.6c-.6-.3-1.3-.6-2-.9l-.4-4.2-2.8-.3-1.1 4c-.4 0-.7.1-1.1.2-.4.1-.7.2-1 .3l-2.7-3.1-2.4 1.4 1.4 3.9c-.5.5-1 1-1.4 1.6l-4.1-.9-1.1 2.6 3.5 2.3c-.1.7-.2 1.4-.2 2.1l-3.8 1.6.6 2.7 4.2-.2c.3.7.7 1.3 1.1 1.8l-2.1 3.6 2.1 1.9 3.3-2.6c.6.3 1.3.6 2 .9l.4 4.2 2.8.3 1.1-4c.4 0 .7-.1 1.1-.2.4-.1.7-.2 1-.3l2.7 3.1 2.4-1.3zm-14.6-10.2c-.8-3.3 1.4-6.7 4.7-7.4 3.3-.8 6.7 1.4 7.4 4.7.8 3.3-1.4 6.7-4.7 7.4-3.3.7-6.6-1.4-7.4-4.7z" class="st2"/>
  <path d="M550.3 265.5h8.6v8.6h-8.6zm13.9 0h23.5v3h-23.5zm0 5.3h15v3h-15zm20 0H597v3h-12.8z" class="st0"/>
  <path d="M564.2 278.9H594v3h-29.8zm0 5.3h20.9v3h-20.9z" class="st3"/>
  <path d="M564.2 292.2h10.4v3h-10.4zm15.6 0H597v3h-17.2zm-15.6 5.4h24.2v3h-24.2z" class="st2"/>
  <path d="M550.3 278.9h8.6v8.6h-8.6z" class="st3"/>
  <path d="M550.3 292.3h8.6v8.6h-8.6z" class="st2"/>
  <path d="M384.9 24.3h3v7.4h-3z" style="fill:#7ca0e6"/>
  <path d="M379.2 26.5h3v6.1h-3z" style="fill:#87abed" transform="rotate(-12.23 380.7 29.57)"/>
  <path d="M389.3 27.9h6.2v3h-6.2z" style="fill:#648cde" transform="rotate(-74.12 392.41 29.44)"/>
  <path d="M399.7 33.7h6.2v3h-6.2z" style="fill:#6a82d4" transform="rotate(-39.53 402.84 35.18)"/>
  <path d="M404.9 43.6h6.2v3h-6.2z" style="fill:#546dc4" transform="rotate(-10.08 408 45.11)"/>
  <path d="M368.4 32.2h3v6.1h-3z" style="fill:#92c1e8" transform="rotate(-44.37 369.94 35.23)"/>
  <path d="M362.9 42.8h3v5.7h-3z" style="fill:#c1e1fa" transform="rotate(-79.74 364.4 45.67)"/>
  <path d="M372.9 27.3h3v7.6h-3z" style="fill:#8abbe3" transform="rotate(-30.03 374.4 31.1)"/>
  <path d="m361.66 39.24 1.5-2.6 6.58 3.8-1.5 2.6z" class="st8"/>
  <path d="M359.3 49.6h7.4v3h-7.4zm53.9 3.5h-8.5V49h8.5v4.1zm-7.4-1.1h6.3v-1.9h-6.3V52z" class="st5"/>
  <path d="M403 37.7h7.6v3H403z" style="fill:#6379c7" transform="rotate(-30.01 406.8 39.23)"/>
  <path d="M394.7 29.7h7.6v3h-7.6z" style="fill:#5a84d6" transform="rotate(-59.99 398.49 31.24)"/>
  <path d="M400.3 45.6 385.5 49l1.6 5.3 13.4-8z" class="st2"/>
  <path d="M389.2 51.6c0 1.5-1.3 2.8-2.8 2.8s-2.8-1.3-2.8-2.8 1.3-2.8 2.8-2.8 2.8 1.3 2.8 2.8z" class="st8"/>
  <linearGradient id="SVGID_1_" x1="341.72" x2="421.64" y1="584.65" y2="584.65" gradientTransform="matrix(1 0 0 -1 0 602)" gradientUnits="userSpaceOnUse">
    <stop offset="0" style="stop-color:#fff"/>
    <stop offset=".63" style="stop-color:#ceeaff"/>
    <stop offset=".99" style="stop-color:#a4cbeb"/>
  </linearGradient>
  <path d="M343.7 29.5c1.9-3.8 3.7-7.2 6.3-10.3a45.2 45.2 0 0 1 19.6-13.7c4.7-1.6 9.6-2.5 14.6-2.5a44.84 44.84 0 0 1 31.9 13.2l.3.3c.4.4 2.1 1.7 2.1 1.7l3.9-2.9c.4 4.2.9 10.5 1.3 14.9-4.1-1.8-9.5-3.4-13.3-4.4l4-3.5-1.7-1.7c-7.6-7.6-17.9-12-28.4-12-3.4 0-6.9.5-10.2 1.4-7.3 2-13.9 6.2-19 12-2 2.3-3.8 4.9-5.1 7.5-.3.5-.5 1.1-.8 1.7l-.2.5-5.3-2.2z" style="fill:url(#SVGID_1_)"/>
  <path d="m43.5 152.8-.5-3.4 5.4-.7.2-10.7 7.9 2.4 3.3-6 3 1.7-4.6 8.3-6.3-1.8-.1 9.1z" class="st8"/>
  <path d="m57.2 134.1 7.4-3.9.1 8.4z" class="st8"/>
  <path d="M123.1 82.8h-13.6c-3.3-4.1 7.6-11.1 3.2-15.2h7.3c-4.6 3.9 6.3 11.1 3.1 15.2zm-.3-15.2h-12.9c-.3 0-.5-.2-.5-.5v-.8c0-.3.2-.5.5-.5h12.9c.3 0 .5.2.5.5v.8c0 .2-.2.5-.5.5z" class="st3"/>
  <path d="M124.1 80.3h-15.7c-.3 0-.5-.2-.5-.5v-.7c0-.3.2-.5.5-.5h15.7c.3 0 .5.2.5.5v.7c0 .3-.2.5-.5.5zM122 65.8h-11.2c-.2 0-.4-.2-.4-.4v-.6c0-.2.2-.4.4-.4H122c.2 0 .4.2.4.4v.6c0 .2-.2.4-.4.4z" class="st3"/>
  <path d="M125.9 82.9h-19.3a.9.9 0 0 1-.9-.9v-.9c0-.5.4-.9.9-.9h19.3c.5 0 .9.4.9.9v.9c0 .5-.4.9-.9.9zm.4 3.1h-20c-.3 0-.5-.2-.5-.5v-.6c0-.3.2-.5.5-.5h20c.3 0 .5.2.5.5v.6c0 .3-.2.5-.5.5zm-6.8-21.6H113l-2-5.9h10.5zm-1.1-8.4v-.1c0 .4-.1.7-.2.7h-3.4c-.1 0-.2-.3-.2-.7v-.1c0-1.6.9-2.9 2-2.9 1 0 1.8 1.4 1.8 3.1z" class="st3"/>
  <path d="M119.8 55.9c0 .3-.5.6-1 .6H114c-.6 0-1-.3-1-.6s.5-.6 1-.6h4.7c.6.1 1.1.3 1.1.6z" class="st3"/>
  <path d="m486.3 100-39.1-5.1c-.2 2-.2 4-.1 6 .4 9 3.6 17.3 8.6 24.1l30.6-25z" class="st20"/>
  <path d="M463.5 133c8 6.3 18.1 9.9 29.1 9.4 3.8-.2 7.5-.9 11-2l-13.3-37-26.8 29.6z" class="st5"/>
  <path d="m531 117-39-16.6 22.6 35.6a39.9 39.9 0 0 0 16.4-19z" class="st7"/>
  <path d="M465.3 62.1a39.2 39.2 0 0 0-15.1 18.5l33.3 12-18.2-30.5z" class="st6"/>
  <path d="M533.8 102.5c.1-1.8.2-3.7.1-5.6-.4-9-3.6-17.3-8.6-24l-29.8 25.3 38.3 4.3z" class="st5"/>
  <path d="m494.1 91.3 23.3-27.5c-4.1-3.1-8.8-5.5-14-6.8l-9.3 34.3z" class="st20"/>
  <path d="M492.4 55.5c-2-.1-4 0-6 .2l4.2 38.1 1.8-38.3z" class="st5"/>
  <path d="m486.68 42.03 1.4-.06.23 5-1.4.06zm-27.93 9.37 1.18-.75 2.7 4.2-1.18.76zM439.3 73.38l.64-1.24 4.45 2.3-.65 1.24zm-5.93 27.24 5-.24.06 1.4-5 .24zm8.57 28.03 4.2-2.7.76 1.17-4.2 2.7zm21.36 19.98 2.3-4.44 1.24.64-2.3 4.44zm28.39 1.81 1.4-.07.23 5-1.4.06zm25.67-7.88 1.18-.76 2.7 4.21-1.18.76zm18.35-19.47.65-1.24 4.44 2.3-.64 1.23zm5.96-27.57 4.99-.24.07 1.4-5 .23zm-8.41-25.37 4.2-2.7.76 1.18-4.2 2.7zM513.14 52.4l2.3-4.45 1.24.64-2.3 4.44z" style="fill:#c3d5fa"/>
  <path d="m481.2 44.72 1.18-.18.66 4.35-1.18.18zm-5.62 1.31 1.16-.3 1.12 4.25-1.16.3zm-5.4 1.72 1.12-.42 1.56 4.12-1.13.42zm-5.21 2.35 1.08-.55 1.97 3.94-1.07.53zm-9.6 6.25.94-.75 2.75 3.44-.94.75zm-4.23 3.91.85-.84 3.1 3.12-.86.85zm-3.84 4.36.76-.93 3.4 2.8-.76.92zm-3.26 4.6.65-1 3.68 2.42-.66 1zm-5.07 10.08.44-1.11 4.1 1.6-.44 1.11zm-1.83 5.56.32-1.16 4.24 1.17-.32 1.15zM436 90.32l.2-1.18 4.34.7-.2 1.2zm-.54 5.8.07-1.2 4.4.25-.08 1.2zm.5 10.22 4.35-.66.18 1.18-4.35.67zm1.07 5.64 4.25-1.12.3 1.17-4.25 1.1zm1.61 5.44 4.12-1.56.42 1.13-4.11 1.55zm2.24 5.23 3.93-1.97.54 1.07-3.93 1.97zm6.12 9.64 3.44-2.75.75.93-3.44 2.75zm3.78 4.31 3.12-3.09.85.85-3.13 3.1zm4.14 3.9 2.79-3.4.93.76-2.79 3.4zm4.58 3.5 2.43-3.68 1 .66-2.42 3.68zm10.03 5.35 1.6-4.1 1.11.44-1.6 4.1zm5.48 1.78 1.16-4.24 1.16.32-1.16 4.24zm5.6 1.41.72-4.34 1.18.2-.71 4.33zm5.66.69.26-4.4 1.2.07-.26 4.4zm10.77-4.82 1.19-.18.66 4.35-1.18.18zm5.11-.98 1.16-.3 1.12 4.25-1.16.3zm5.02-1.56 1.13-.42 1.55 4.11-1.12.43zm4.88-1.97 1.08-.54 1.97 3.93-1.07.54zm8.88-5.6.93-.76 2.75 3.44-.94.75zm4.01-3.46.85-.85 3.1 3.13-.86.85zm3.56-3.85.76-.93 3.4 2.79-.76.92zm3.17-4.29.66-1 3.68 2.41-.66 1zm4.83-9.23.43-1.12 4.1 1.6-.43 1.12zm1.8-4.92.32-1.15 4.24 1.16-.31 1.16zm1.21-5.15.2-1.19 4.34.71-.2 1.19zm.63-5.2.07-1.2 4.4.25-.08 1.2zm-.59-11.66 4.35-.67.18 1.2-4.35.65zm-1.05-5.17 4.26-1.12.3 1.16-4.25 1.12zm-1.67-4.97 4.11-1.55.43 1.12-4.12 1.56zm-2.18-4.83 3.93-1.98.54 1.08-3.93 1.97zm-5.77-8.77 3.44-2.75.75.93-3.44 2.75zm-3.54-3.86 3.13-3.1.84.86-3.13 3.09zm-4.05-3.59 2.78-3.4.93.76-2.79 3.4zm-4.28-2.9 2.42-3.68 1 .66-2.42 3.68zm-9.28-4.81 1.6-4.1 1.12.44-1.6 4.1zm-5.03-1.58 1.16-4.24 1.16.31-1.17 4.25zm-5.14-1.08.72-4.34 1.18.2-.71 4.34zm-5.2-.52.26-4.4 1.2.08-.26 4.39zM140.1 355.9h282.5l58.2 33.5H82.6z" class="st5"/>
  <path d="m411.9 363.2 29 17H125.5l29.1-17zM82.6 393h398.2v10.9H82.6z" class="st22"/>
  <path d="M82.6 389.4h398.2v4H82.6z" class="st1"/>
  <path d="M137.1 361.8H433v2.3H137.1zm295.8 11.4H133.6l3.5-2.3h295.8z" class="st5"/>
  <path d="M142.6 355.8a4.7 4.7 0 0 1-4.7-4.7V176.5c0-2.6 2.1-4.7 4.7-4.7h278.1c2.6 0 4.7 2.1 4.7 4.7v174.6c0 2.6-2.1 4.7-4.7 4.7H142.6z" class="st23"/>
  <path d="M145.2 179.1h273v169.4h-273z" class="st5"/>
  <path d="M151.5 185.4h260.4v156.8H151.5z" class="st1"/>
  <path d="m194.5 235.5 7.7 13.8a26.84 26.84 0 0 1-38.2-24.4c0-13.8 10.4-25.2 23.7-26.7l.7 15.8c-5 1.1-8.8 5.6-8.8 11 0 6.2 5 11.2 11.2 11.2 1.3-.1 2.5-.3 3.7-.7z" class="st4"/>
  <path d="m192.4 213.7-.7-15.8a27 27 0 0 1 21.3 11.6l-13.6 8c-1.8-2-4.2-3.4-7-3.8z" class="st7"/>
  <path d="M217.8 224.8c0 9.4-4.8 17.7-12.1 22.5l-7.7-13.8a11.32 11.32 0 0 0 3.4-12.6l13.6-8c1.8 3.6 2.8 7.7 2.8 11.9z" class="st6"/>
  <path d="M191.2 244.3a20.1 20.1 0 1 1 20.1-20.1c0 11-9 20.1-20.1 20.1zm0-38.7c-10.2 0-18.5 8.3-18.5 18.5s8.3 18.5 18.5 18.5 18.5-8.3 18.5-18.5-8.3-18.5-18.5-18.5z" class="st1"/>
  <path d="M303.7 239.9h5v5h-5z" class="st7"/>
  <path d="M303.7 248.7h5v5h-5z" class="st6"/>
  <path d="M303.7 257.5h5v5h-5z" class="st4"/>
  <path d="M313.8 239.9h31.9v5h-31.9z" class="st7"/>
  <path d="M313.8 248.7h31.9v5h-31.9z" class="st6"/>
  <path d="M313.8 257.5h31.9v5h-31.9z" class="st4"/>
  <path d="M164.4 323h3.5v1.8h-3.5zm59.9 1.8H219V323h5.3v1.8zm-7 0H212V323h5.3v1.8zm-7.1 0h-5.3V323h5.3v1.8zm-7 0h-5.3V323h5.3v1.8zm-7.1 0h-5.3V323h5.3v1.8zm-7 0h-5.3V323h5.3v1.8zm-7 0h-5.3V323h5.3v1.8zm-7.1 0h-5.3V323h5.3v1.8zm50.2-1.8h3.5v1.8h-3.5zm-60.8-8.8h3.5v1.8h-3.5zm59.9 1.8H219v-1.8h5.3v1.8zm-7 0H212v-1.8h5.3v1.8zm-7.1 0h-5.3v-1.8h5.3v1.8zm-7 0h-5.3v-1.8h5.3v1.8zm-7.1 0h-5.3v-1.8h5.3v1.8zm-7 0h-5.3v-1.8h5.3v1.8zm-7 0h-5.3v-1.8h5.3v1.8zm-7.1 0h-5.3v-1.8h5.3v1.8zm50.2-1.8h3.5v1.8h-3.5zm-60.8-8.8h3.5v1.8h-3.5zm59.9 1.8H219v-1.8h5.3v1.8zm-7 0H212v-1.8h5.3v1.8zm-7.1 0h-5.3v-1.8h5.3v1.8zm-7 0h-5.3v-1.8h5.3v1.8zm-7.1 0h-5.3v-1.8h5.3v1.8zm-7 0h-5.3v-1.8h5.3v1.8zm-7 0h-5.3v-1.8h5.3v1.8zm-7.1 0h-5.3v-1.8h5.3v1.8zm50.2-1.8h3.5v1.8h-3.5zm-60.8-8.8h3.5v1.8h-3.5zm59.9 1.8H219v-1.8h5.3v1.8zm-7 0H212v-1.8h5.3v1.8zm-7.1 0h-5.3v-1.8h5.3v1.8zm-7 0h-5.3v-1.8h5.3v1.8zm-7.1 0h-5.3v-1.8h5.3v1.8zm-7 0h-5.3v-1.8h5.3v1.8zm-7 0h-5.3v-1.8h5.3v1.8zm-7.1 0h-5.3v-1.8h5.3v1.8zm50.2-1.8h3.5v1.8h-3.5zm-60.8-8.8h3.5v1.8h-3.5zm59.9 1.8H219v-1.8h5.3v1.8zm-7 0H212v-1.8h5.3v1.8zm-7.1 0h-5.3v-1.8h5.3v1.8zm-7 0h-5.3v-1.8h5.3v1.8zm-7.1 0h-5.3v-1.8h5.3v1.8zm-7 0h-5.3v-1.8h5.3v1.8zm-7 0h-5.3v-1.8h5.3v1.8zm-7.1 0h-5.3v-1.8h5.3v1.8zm50.2-1.8h3.5v1.8h-3.5zm-60.8-8.8h3.5v1.8h-3.5zm59.9 1.8H219V279h5.3v1.8zm-7 0H212V279h5.3v1.8zm-7.1 0h-5.3V279h5.3v1.8zm-7 0h-5.3V279h5.3v1.8zm-7.1 0h-5.3V279h5.3v1.8zm-7 0h-5.3V279h5.3v1.8zm-7 0h-5.3V279h5.3v1.8zm-7.1 0h-5.3V279h5.3v1.8zm50.2-1.8h3.5v1.8h-3.5zm-60.8-8.8h3.5v1.8h-3.5zm59.9 1.8H219v-1.8h5.3v1.8zm-7 0H212v-1.8h5.3v1.8zm-7.1 0h-5.3v-1.8h5.3v1.8zm-7 0h-5.3v-1.8h5.3v1.8zm-7.1 0h-5.3v-1.8h5.3v1.8zm-7 0h-5.3v-1.8h5.3v1.8zm-7 0h-5.3v-1.8h5.3v1.8zm-7.1 0h-5.3v-1.8h5.3v1.8zm50.2-1.8h3.5v1.8h-3.5z" class="st24"/>
  <path d="M164.4 333a.9.9 0 0 1-.9-.9V267c0-.5.4-.9.9-.9s.9.4.9.9v65.1c0 .5-.4.9-.9.9z" class="st24"/>
  <path d="M229.6 332.7h-65.1c-.5 0-.9-.4-.9-.9s.4-.9.9-.9h65.1c.5 0 .9.4.9.9s-.4.9-.9.9z" class="st24"/>
  <path d="M172.6 299.6h11.1v31.7h-11.1zm17.9-12.3h11.1v44h-11.1zm18-9.5h11.1v53.5h-11.1z" class="st4"/>
  <path d="M172.6 299.6h11.1v13.2h-11.1zm17.9-12.3h11.1v19.9h-11.1zm18-9.5h11.1v20.4h-11.1z" class="st6"/>
  <path d="M172.6 299.6h11.1v7.6h-11.1zm17.9-12.3h11.1v9h-11.1zm18-9.5h11.1v10.4h-11.1z" class="st7"/>
  <path d="M225.8 199.2H295v2.6h-69.2zm0 6.7H295v2.6h-69.2zm0 6.8H295v2.6h-69.2zm127.4 27.1h43.1v2.6h-43.1zm0 6.7h43.1v2.6h-43.1zm0 6.8h43.1v2.6h-43.1zm0 6.7h43.1v2.6h-43.1zm-115.8 11H295v2.6h-57.6zm0 6.8H295v2.6h-57.6zm0 6.7H295v2.6h-57.6zm0 6.7H295v2.6h-57.6zm0 19.7H295v2.6h-57.6zm0 6.7H295v2.6h-57.6zm0 6.1H295v2.6h-57.6zm0 6.7H295v2.6h-57.6zm65.1-132.5h92.6v32.7h-92.6z" class="st24"/>
  <path d="M302.5 230.4v-12.7s8.6-10 14.2-10c5.5 0 11.4 5.7 15.3 5.7s12.3-10 20-10 13.8 6.9 19.9 6.9 12-11.4 23-11.4v31.5h-92.4z" class="st7"/>
  <path d="M302.5 230.4v-8.5s8.6-6.7 14.2-6.7c5.5 0 11.4 3.9 15.3 3.9s12.3-6.8 20-6.8 13.8 4.7 19.9 4.7 12-7.7 23-7.7v21.2h-92.4v-.1z" class="st6"/>
  <path d="M302.5 230.4v-4.6s8.6-3.8 14.2-3.8c5.5 0 11.4 2.2 15.3 2.2s12.3-3.8 20-3.8 13.8 2.6 19.9 2.6 12-4.3 23-4.3v11.7h-92.4z" class="st4"/>
  <g class="st25">
    <path d="M315.8 198h1.9v32.4h-1.9z" class="st1"/>
  </g>
  <g class="st25">
    <path d="M350.1 198h1.9v32.4h-1.9z" class="st1"/>
  </g>
  <g class="st25">
    <path d="M390.2 198h1.9v32.4h-1.9z" class="st1"/>
  </g>
  <path d="M311.1 298.2h36.1v2.6h-36.1zm0 6.7h36.1v2.6h-36.1zm46.2-6.7h36.1v2.6h-36.1zm0 6.7h36.1v2.6h-36.1z" class="st24"/>
  <path d="M336.1 281.5c-.6 1-1.1 2-1.4 3.2a9.83 9.83 0 0 0-9.1-6.2c-5.5 0-9.9 4-9.9 9.7h-2.9c0-6.7 5.7-12.6 12.8-12.6 3.4 0 6.5 1.5 8.7 3.7.7.6 1.3 1.5 1.8 2.2z" class="st4"/>
  <path d="M361.2 280.2c-.6.9-1.2 1.8-1.6 2.8a13.16 13.16 0 0 0-12.1-7.7c-4.8 0-9 2.4-11.4 6.3a11.69 11.69 0 0 0-1.9 6.7h-2.9c0-1.9.6-4.5 1.6-6.6.4-.8.9-1.6 1.4-2.3 2.9-4.2 7.8-6.9 13.2-6.9 4.7 0 8.9 2.1 11.9 5.3.6.7 1.3 1.5 1.8 2.4z" class="st6"/>
  <path d="M390.9 288.2H388c0-7.6-6.6-14.6-14.8-14.6-4.9 0-9.3 2.7-12 6.5-.6.9-1.2 1.7-1.6 2.7-.8 1.8-1.2 3.6-1.2 5.5h-2.9c0-2.9.8-5.8 2.2-8.3.4-.8 1-1.5 1.5-2.2 3.2-4.1 8.3-7 13.9-7 9.9-.1 17.8 7.9 17.8 17.4z" class="st7"/>
  <path d="M368.8 279.7h8.8v8.8h-8.8z" class="st7"/>
  <path d="M342.9 281.9h6.6v6.6h-6.6z" class="st6"/>
  <path d="M322 283.7h4.9v4.9H322z" class="st4"/>
  <path d="M371.1 282.9h4.2v2.4h-4.2zm-26.4 1.4h3.2v1.9h-3.2zm-21.5 1.1h2.5v1.4h-2.5zm48 48.5-17.4-18.7-15.8 12.4-13.5-6.5-11.5 8.1-1.1-1.5 12.4-8.8 13.5 6.4 16.2-12.6 17.1 18.2 14.5-19.1 8.1 10.5-1.5 1.2-6.6-8.5z" class="st24"/>
  <path d="M315.3 328.4a2.9 2.9 0 1 1-2.9-2.9c1.6.1 2.9 1.4 2.9 2.9z" class="st8"/>
  <path d="M312.4 332.2a3.8 3.8 0 1 1 0-7.6 3.8 3.8 0 0 1 0 7.6zm0-5.7c-1 0-1.9.9-1.9 1.9s.9 1.9 1.9 1.9 1.9-.9 1.9-1.9-.8-1.9-1.9-1.9z" class="st24"/>
  <path d="M327.7 319.9a2.9 2.9 0 1 1-5.8 0 2.9 2.9 0 0 1 5.8 0z" style="fill:#78a8cf"/>
  <path d="M324.8 323.7a3.8 3.8 0 1 1 0-7.6 3.8 3.8 0 0 1 0 7.6zm0-5.7c-1 0-1.9.9-1.9 1.9s.9 1.9 1.9 1.9 1.9-.9 1.9-1.9c0-1.1-.8-1.9-1.9-1.9z" class="st24"/>
  <path d="M340.1 325.6a2.9 2.9 0 1 1-5.8 0 2.9 2.9 0 0 1 5.8 0z" class="st27"/>
  <path d="M337.2 329.4a3.8 3.8 0 1 1 0-7.6 3.8 3.8 0 0 1 0 7.6zm0-5.7c-1 0-1.9.9-1.9 1.9s.9 1.9 1.9 1.9 1.9-.9 1.9-1.9c0-1.1-.8-1.9-1.9-1.9z" class="st24"/>
  <path d="M356.3 314.1a2.9 2.9 0 1 1-2.9-2.9c1.6.1 2.9 1.4 2.9 2.9z" class="st8"/>
  <path d="M353.4 317.9a3.8 3.8 0 1 1 0-7.6 3.8 3.8 0 0 1 0 7.6zm0-5.7c-1 0-1.9.9-1.9 1.9s.9 1.9 1.9 1.9 1.9-.9 1.9-1.9-.8-1.9-1.9-1.9z" class="st24"/>
  <path d="M374.4 332.3a2.9 2.9 0 1 1-5.8 0 2.9 2.9 0 0 1 5.8 0z" class="st6"/>
  <path d="M371.5 336.1a3.8 3.8 0 1 1 0-7.6 3.8 3.8 0 0 1 0 7.6zm0-5.7c-1 0-1.9.9-1.9 1.9s.9 1.9 1.9 1.9 1.9-.9 1.9-1.9c0-1.1-.8-1.9-1.9-1.9z" class="st24"/>
  <path d="M388.7 313.2a2.9 2.9 0 1 1-5.8 0 2.9 2.9 0 0 1 5.8 0z" class="st8"/>
  <path d="M385.8 317a3.8 3.8 0 1 1 0-7.6 3.8 3.8 0 0 1 0 7.6zm0-5.7c-1 0-1.9.9-1.9 1.9s.9 1.9 1.9 1.9 1.9-.9 1.9-1.9c0-1.1-.8-1.9-1.9-1.9z" class="st24"/>
  <path d="M395.3 322.7a2.9 2.9 0 1 1-5.8 0 2.9 2.9 0 0 1 5.8 0z" class="st27"/>
  <path d="M392.5 326.5a3.8 3.8 0 1 1 0-7.6 3.8 3.8 0 0 1 0 7.6zm0-5.7c-1 0-1.9.9-1.9 1.9s.9 1.9 1.9 1.9 1.9-.9 1.9-1.9c0-1-.9-1.9-1.9-1.9zm-157.7-80.7-3-7.6a8.05 8.05 0 0 0-5.2 7.6c0 4.5 3.7 8.2 8.2 8.2s8.2-3.7 8.2-8.2c0-1.6-.5-3.1-1.3-4.4l-6.9 4.4z" class="st24"/>
  <path d="M242.7 232.6a8.2 8.2 0 0 0-6.9-3.8c-1 0-2 .2-3 .6l3 7.6 6.9-4.4z" class="st28"/>
  <path d="M254.9 232.5a8.05 8.05 0 0 0-5.2 7.6c0 4.5 3.7 8.2 8.2 8.2 3.4 0 6.3-2 7.5-5l-7.5-3.2-3-7.6z" class="st24"/>
  <path d="M259.9 229.9c-1 0-2 .2-3 .6l3 7.6 7.5 3.2c.4-1 .7-2.1.7-3.2 0-4.6-3.7-8.2-8.2-8.2z" class="st28"/>
  <path d="M277.9 232.5a8.05 8.05 0 0 0-5.2 7.6c0 4.5 3.9 8.2 8.4 8.2s8.4-3.7 8.4-8.2v.1h-8.7l-2.9-7.7z" class="st24"/>
  <path d="M283 229.8c-1 0-2 .2-3 .5l3 7.6h8.2c0-4.6-3.7-8.1-8.2-8.1z" class="st28"/>
  <path d="M470.2 359.6h98.5c3.3 0 5.9-3.7 5.9-8.2v-2.2c0-4.5-2.7-8.2-5.9-8.2h-98.5c-.7 0-1.2.9-1 1.8.1.3.1.6.2 1 .9 1.2 1.4 3.9 1.4 6.5 0 2.9-.7 5.1-1.3 6.5-.1.4-.1.7-.2.9-.3 1 .2 1.9.9 1.9z" class="st7"/>
  <path d="M469.3 343.8h24.9s1.4 2.4 1.4 6.5c0 4.3-1.4 6.5-1.4 6.5h-24.9s1.1-3.1 1.1-6.5c0-4.3-1.1-6.5-1.1-6.5z" style="fill:#ebf2ff"/>
  <path d="M561.6 359.6h2.9a32.7 32.7 0 0 0 0-18.6h-2.9a32.7 32.7 0 0 1 0 18.6zm-6.3 0h2.9a32.7 32.7 0 0 0 0-18.6h-2.9a32.7 32.7 0 0 1 0 18.6zm-45.3 0h2.9a32.7 32.7 0 0 0 0-18.6H510a32.7 32.7 0 0 1 0 18.6zm-6.3 0h2.9a32.7 32.7 0 0 0 0-18.6h-2.9a32.7 32.7 0 0 1 0 18.6z" style="fill:#e0eaff"/>
  <path d="M496.3 364.8c-2.9 0-5.7 3.3-5.7 6.6v7.7c0 3.3 2.8 6.4 5.7 6.4h94.1s-4-8-4-10.6c0-2.5 4-10 4-10h-94.1v-.1z" class="st1"/>
  <path d="M591.4 364.8s-2.4 5.2-2.4 10.7c0 5.1 2.4 11.1 2.4 11.1h-32.9s-2-5.4-2-11.1c0-5.6 2-10.7 2-10.7h32.9z" class="st5"/>
  <path d="M590.6 386.7h-94.3c-3.8 0-6.9-3.5-6.9-7.7v-7.7c0-4.3 3.1-7.7 6.9-7.7h94.3c1 0 1.7.8 1.7 1.7 0 .9-.8 1.7-1.7 1.7h-94.3c-1.9 0-3.5 1.9-3.5 4.3v7.7c0 2.4 1.6 4.3 3.5 4.3h94.3c1 0 1.7.8 1.7 1.7s-.7 1.7-1.7 1.7z" class="st6"/>
  <path d="m501.1 382.1 3.8-2.9 3.8 2.9v-7.3h-7.6zM59 334.2h3.4v2.8H59z" class="st2"/>
  <path d="M65.4 334.2h10.7v2.8H65.4z" class="st6"/>
  <path d="M59 341.9h3.4v2.8H59zm6.4 0h10.7v2.8H65.4z" class="st3"/>
  <path d="M59 349.6h3.4v2.8H59zm6.4 0h10.7v2.8H65.4z" class="st0"/>
  <path d="m70.9 295.6 2.9-4.8a10.23 10.23 0 0 1 1.7 15.6c-3.6 3.7-9.8 3.6-13.3 1.1l4-4.1c1.4.6 3.9.6 5.3-.9 1.7-1.8 1.7-4.7-.1-6.4-.2-.2-.3-.4-.5-.5z" class="st2"/>
  <path d="m64.1 301.4-3.9 4.1c-2.8-3.2-2.9-6.9-1.4-10.4l4.8 2.9c-.4 1.2-.4 2.3.5 3.4z" class="st0"/>
  <path d="M61 292.2c2.9-3 7.2-3.8 10.8-2.5l-3.1 5c-1.3-.1-2.7.3-3.7 1.4l-.1.1-4.8-2.9c.2-.4.5-.7.9-1.1z" class="st3"/>
  <path d="M19 340.8h3.7v12.7H19z" class="st0"/>
  <path d="M25.1 336.3h3.7v17.2h-3.7z" class="st3"/>
  <path d="M31.3 320.3H35v33.2h-3.7z" class="st2"/>
  <path d="M37.4 323.6h3.7v29.9h-3.7z" class="st0"/>
  <path d="M43.5 313.7h3.7v39.8h-3.7z" class="st3"/>
  <path d="M49.7 308.8h3.7v44.7h-3.7z" class="st2"/>
  <path d="M7.1 269.4v95.2h82.6v-95.2H7.1zm3.4 92.9v-81.4H85v81.4H10.5z" class="st8"/>
  <path d="M18.3 290.7h14.9v1.9H18.3zm-1.9 4.8h14.2v.8H16.4zm17.8 0h8.7v.8h-8.7zM18.5 299h8.7v.8h-8.7zm.5 36.7h3.2v1.4H19zm6.4-4.6h3.2v1.4h-3.2zm6.2-15.8h3.2v1.4h-3.2zm6 3h3.2v1.4h-3.2zm6.2-10.2H47v1.4h-3.2zm6.2-5.6h3.2v1.4H50z" class="st8"/>
  <path d="M502.9 194.9h-2.3V224h-4.9v-29.1h-2.3l2.4-3.1 2.3-3.1 2.4 3.1zm10.8-17h-2.4V224h-4.8v-46.1h-2.4l2.4-3.1 2.4-3.1 2.4 3.1zm-22.6 34.5h-2.4V224h-4.8v-11.6h-2.4l2.4-3.1 2.4-3.1 2.4 3.1z" class="st22"/>
  <path d="M100.3 342.3 85.8 326c-.3-.3-.3-.8 0-1.1l3.2-3c.3-.3.8-.3 1.1 0l14.5 16.3c.3.3.3.8 0 1.1l-3.2 3c-.3.4-.8.3-1.1 0z" class="st2"/>
  <path d="m86.3 324.5-5.3-5.7 2.3-2.2 5.4 5.7z" style="fill:#c8e1f7"/>
  <path d="M68.1 274.1c-14.1 0-25.6 11.3-25.6 25.3s11.5 25.3 25.6 25.3c14.2 0 25.6-11.3 25.6-25.3s-11.4-25.3-25.6-25.3zm0 44.9c-11 0-19.9-8.8-19.9-19.6s8.9-19.6 19.9-19.6S88 288.6 88 299.4 79.1 319 68.1 319z" class="st23"/>
  <path d="M332.3 171.8h86.9v25.7h-86.9z" class="st32"/>
  <path d="M339.4 112.3h125.1v77.3H339.4z" class="st1"/>
  <path d="M465.6 190.8H338.3v-79.6h127.4v79.6h-.1zm-125-2.3h122.8v-75H340.6v75z" class="st8"/>
  <path d="M339.4 112.3h125.1v9.6H339.4z" class="st8"/>
  <path d="M341.7 114.4h4v4h-4zm6.2 0h14.3v4h-14.3z" class="st5"/>
  <circle cx="426.3" cy="133.5" r="1.3" class="st20"/>
  <path d="M427.6 137.3c0 .7-.6 1.3-1.3 1.3-.7 0-1.3-.6-1.3-1.3s.6-1.3 1.3-1.3 1.3.6 1.3 1.3zm0 3.8c0 .7-.6 1.3-1.3 1.3-.7 0-1.3-.6-1.3-1.3s.6-1.3 1.3-1.3 1.3.6 1.3 1.3zm0 3.7c0 .7-.6 1.3-1.3 1.3-.7 0-1.3-.6-1.3-1.3s.6-1.3 1.3-1.3c.7.1 1.3.6 1.3 1.3zm0 3.8c0 .7-.6 1.3-1.3 1.3-.7 0-1.3-.6-1.3-1.3s.6-1.3 1.3-1.3 1.3.6 1.3 1.3zm18.7-13.8h-15.4c-.7 0-1.3-.6-1.3-1.3 0-.7.6-1.3 1.3-1.3h15.4c.7 0 1.3.6 1.3 1.3-.1.7-.6 1.3-1.3 1.3zm-18.7 36.1c0 .7-.6 1.3-1.3 1.3-.7 0-1.3-.6-1.3-1.3 0-.7.6-1.3 1.3-1.3.7.1 1.3.6 1.3 1.3zm18.7 1.3h-15.4c-.7 0-1.3-.6-1.3-1.3 0-.7.6-1.3 1.3-1.3h15.4c.7 0 1.3.6 1.3 1.3-.1.7-.6 1.3-1.3 1.3zm7.9-33.6h-23.4c-.7 0-1.3-.6-1.3-1.3 0-.7.6-1.3 1.3-1.3h23.4c.7 0 1.3.6 1.3 1.3 0 .7-.6 1.3-1.3 1.3zm-11.7 3.7h-11.6c-.7 0-1.3-.6-1.3-1.3 0-.7.6-1.3 1.3-1.3h11.6c.7 0 1.3.6 1.3 1.3-.1.8-.6 1.3-1.3 1.3zM427.6 175c0 .7-.6 1.3-1.3 1.3-.7 0-1.3-.6-1.3-1.3 0-.7.6-1.3 1.3-1.3s1.3.6 1.3 1.3zm14.9 1.2h-11.6c-.7 0-1.3-.6-1.3-1.3 0-.7.6-1.3 1.3-1.3h11.6c.7 0 1.3.6 1.3 1.3-.1.8-.6 1.3-1.3 1.3zm7.3-30.1h-19c-.7 0-1.3-.6-1.3-1.3 0-.7.6-1.3 1.3-1.3h19c.7 0 1.3.6 1.3 1.3 0 .7-.6 1.3-1.3 1.3zm-10.3 3.7h-8.8c-.6 0-1.1-.5-1.1-1.1v-.3c0-.6.5-1.1 1.1-1.1h8.8c.6 0 1.1.5 1.1 1.1v.3c0 .6-.5 1.1-1.1 1.1z" class="st20"/>
  <path d="M427.6 152.6h2.6v2.6h-2.6zm0 4.6h2.6v2.6h-2.6zm4.9-4.6h9.4v2.6h-9.4zm0 4.6h21.3v2.6h-21.3zm-4.9 4.8h2.6v2.6h-2.6zm4.9 0h18.3v2.6h-18.3z" style="fill:#b3d6ff"/>
  <path d="M382.5 173c-3.9 0-7.7-1.1-10.5-3.1l-1-.7 7.4-8.5.8.3c2.1.8 6 1 7.8-.9a6.13 6.13 0 0 0-.1-8.8c-.3-.3-.5-.4-.7-.5l-1-.6 6-9.7 1 .6c.9.6 1.8 1.3 2.6 2.1 7 6.7 7.1 17.9.4 24.9-3.4 3.3-8.1 4.9-12.7 4.9zm-8-4.3c5.4 3 14 2.9 19-2.3a15.3 15.3 0 0 0-.3-21.6c-.4-.4-.8-.8-1.3-1.1l-3.6 5.8.1.1c1.6 1.6 2.6 3.7 2.6 6s-.8 4.4-2.4 6.1c-2.4 2.5-6.7 2.5-9.5 1.7l-4.6 5.3z" class="st2"/>
  <path d="m369.3 167.5-.8-.9c-4.5-5.1-5.3-11.4-2.5-18l.5-1.2 9.6 5.8-.2.8c-.4 1.7-.4 3.1.7 4.7l.6.8-7.9 8zm-1.7-16.9c-1.3 3.7-1.8 8.7 1.8 13.4l4.9-5c-1-1.7-1-3.4-.7-4.9l-6-3.5z" class="st0"/>
  <path d="m377.5 152.4-9.9-6 .7-1c.5-.6 1-1.3 1.6-1.9 4.8-5 12.2-6.7 18.7-4.3l1.3.5-6.1 9.9-.7-.1c-1.9-.2-3.7.5-5.1 1.9l-.5 1zm-6.6-6.7 6 3.6c1.6-1.4 3.5-2.2 5.7-2.1l3.9-6.3c-5.3-1.4-11.1.2-15 4.2l-.6.6zm1.3-11.1c0 .5-.4.8-.8.8-.5 0-.8-.4-.8-.8 0-.5.4-.8.8-.8.4-.1.8.3.8.8z" class="st3"/>
  <path d="M400.8 170.1c0 .5-.4.8-.8.8-.5 0-.8-.4-.8-.8 0-.5.4-.8.8-.8.5 0 .8.4.8.8z" class="st2"/>
  <path d="M361.9 158.6c0 .5-.4.8-.8.8-.5 0-.8-.4-.8-.8 0-.5.4-.8.8-.8s.8.4.8.8zm8-3.4c0 .5-.4.8-.8.8-.5 0-.8-.4-.8-.8s.4-.8.8-.8.8.4.8.8zm-1.2 3.4c0 .5-.4.8-.8.8-.5 0-.8-.4-.8-.8 0-.5.4-.8.8-.8.5 0 .8.4.8.8zm3.5 0c0 .5-.4.8-.8.8-.5 0-.8-.4-.8-.8 0-.5.4-.8.8-.8s.8.4.8.8zm-1.2 3.5c0 .5-.4.8-.8.8-.5 0-.8-.4-.8-.8 0-.5.4-.8.8-.8.5 0 .8.3.8.8zm2.3-8c0 .5-.4.8-.8.8-.5 0-.8-.4-.8-.8 0-.5.4-.8.8-.8.5-.1.8.3.8.8zm-3.4-2.3c0 .5-.4.8-.8.8-.5 0-.8-.4-.8-.8 0-.5.4-.8.8-.8s.8.3.8.8z" class="st0"/>
  <path d="M375.8 126.6h16.3v2h-16.3z" class="st3"/>
  <path d="M375.8 130.8h16.3v1h-16.3zm0 1.9h10.7v1h-10.7zm12.6 0h8.6v1h-8.6zm-12.6 2h12.9v1h-12.9z" class="st5"/>
  <path d="M396.6 173h16.3v2h-16.3z" class="st2"/>
  <path d="M396.7 177.1H413v1h-16.3zm0 2h10.7v1h-10.7zm12.5 0h8.6v1h-8.6zm-12.5 1.9h12.9v1h-12.9z" class="st5"/>
  <path d="M346.4 162.8h16.3v2h-16.3z" class="st0"/>
  <path d="M346.4 166.9h13.8v1h-13.8zm0 2h10.7v1h-10.7z" class="st5"/>
  <path d="m388.33 151.06 5.35-7.86.9.62-5.34 7.86zm-13.08 19.18 5.37-7.96.9.61-5.35 7.96zm14.58-16.3 6.05-8.82.9.62-6.05 8.82zm-11.96 17.22 6.34-9.23.9.62-6.33 9.24zm3.28.21 16.12-23.63.9.62-16.1 23.63zm3.37.03 13.88-20.06.9.62-13.87 20.07zm3.79-.15 10.57-15.06.9.63-10.57 15.06z" class="st2"/>
  <path d="M382.2 160.4c-2.4 0-4.3-1.9-4.3-4.3s1.9-4.3 4.3-4.3 4.3 1.9 4.3 4.3-1.9 4.3-4.3 4.3zm0-6.3c-1.1 0-2 .9-2 2s.9 2 2 2 2-.9 2-2-.9-2-2-2z" class="st5"/>
  <path d="M131.6 214h36.9v61.9h-36.9z" class="st32"/>
  <path d="M106.5 206.9h54.4v61.9h-54.4z" class="st1"/>
  <path d="M162 270h-56.7v-64.2H162V270zm-54.3-2.3h52.1V208h-52.1v59.7z" class="st8"/>
  <path d="M106.5 206.9h54.4v7.7h-54.4z" class="st8"/>
  <path d="M108.1 208.2h4v4h-4zm6.2 0h14.3v4h-14.3z" class="st5"/>
  <path d="M112.5 234.5h-1.1c-.3 0-.6-.3-.6-.6s.3-.6.6-.6h1.1c.3 0 .6.3.6.6s-.3.6-.6.6zm41.3 0h-2.3c-.3 0-.6-.3-.6-.6s.3-.6.6-.6h2.3c.3 0 .6.3.6.6-.1.3-.3.6-.6.6zm-4.6 0h-2.3c-.3 0-.6-.3-.6-.6s.3-.6.6-.6h2.3c.3 0 .6.3.6.6s-.3.6-.6.6zm-4.6 0h-2.3c-.3 0-.6-.3-.6-.6s.3-.6.6-.6h2.3c.3 0 .6.3.6.6s-.3.6-.6.6zm-4.6 0h-2.3c-.3 0-.6-.3-.6-.6s.3-.6.6-.6h2.3c.3 0 .6.3.6.6s-.3.6-.6.6zm-4.6 0h-2.3c-.3 0-.6-.3-.6-.6s.3-.6.6-.6h2.3c.3 0 .6.3.6.6s-.3.6-.6.6zm-4.6 0h-2.3c-.3 0-.6-.3-.6-.6s.3-.6.6-.6h2.3c.3 0 .6.3.6.6s-.3.6-.6.6zm-4.6 0H124c-.3 0-.6-.3-.6-.6s.3-.6.6-.6h2.3c.3 0 .6.3.6.6-.1.3-.3.6-.7.6zm-4.5 0h-2.3c-.3 0-.6-.3-.6-.6s.3-.6.6-.6h2.3c.3 0 .6.3.6.6-.1.3-.3.6-.6.6zm-4.6 0h-2.3c-.3 0-.6-.3-.6-.6s.3-.6.6-.6h2.3c.3 0 .6.3.6.6-.1.3-.3.6-.6.6zm39 0H155c-.3 0-.6-.3-.6-.6s.3-.6.6-.6h1.1c.3 0 .6.3.6.6-.1.3-.3.6-.6.6z" class="st8"/>
  <path d="M111.4 249.5c-.3 0-.6-.3-.6-.6s.3-.6.6-.6c3.1 0 3.9-7.2 4.5-13.5.7-6.6 1.3-12.2 4.3-12.2 3.4 0 4 4.7 4.7 9.2.5 3.2 1 6.7 2.5 6.7 1.6 0 2.1-2.3 2.6-5.7.4-2.8.8-5.5 2.8-5.5s2.3 3.4 2.6 7.4c.3 3.5.7 7.8 2.4 7.8 1.6 0 2.3-6.7 2.8-11.6.8-7.5 1.4-12.1 3.7-12.1 2.6 0 3.2 4.5 3.8 9.2.4 2.8.9 7 1.9 7s1.5-4.6 1.9-7.6c.7-5.5 1.3-10.6 4.1-10.6.3 0 .6.3.6.6s-.3.6-.6.6c-1.8 0-2.5 5.6-3 9.6-.6 4.8-1 8.6-3 8.6s-2.5-3.5-3.1-7.9c-.5-3.5-1.1-8.2-2.7-8.2-1.4 0-2.1 6.6-2.6 11-.7 6.8-1.3 12.6-3.9 12.6-2.7 0-3.1-4.5-3.5-8.9-.2-2.7-.5-6.3-1.5-6.3s-1.3 2.4-1.7 4.5c-.5 3.1-1 6.6-3.7 6.6-2.5 0-3-3.7-3.6-7.7-.6-3.8-1.2-8.2-3.6-8.2-2 0-2.6 5.9-3.2 11.2-.6 7.2-1.4 14.6-5.5 14.6z" class="st22"/>
  <path d="M121.4 223.2c0 .7-.5 1.2-1.2 1.2s-1.2-.5-1.2-1.2.5-1.2 1.2-1.2 1.2.5 1.2 1.2zm12.6 4.6c0 .7-.5 1.2-1.2 1.2s-1.2-.5-1.2-1.2.5-1.2 1.2-1.2 1.2.5 1.2 1.2zm11.5-8c0 .7-.5 1.2-1.2 1.2s-1.2-.5-1.2-1.2.5-1.2 1.2-1.2 1.2.5 1.2 1.2zm11.5-2.3c0 .7-.5 1.2-1.2 1.2s-1.2-.5-1.2-1.2.5-1.2 1.2-1.2c.6 0 1.2.5 1.2 1.2z" class="st2"/>
  <path d="M111.3 255.2h19.6v8.6h-19.6zm25.1 0H156v8.6h-19.6z" class="st20"/>
  <path d="M117.3 259.5c0 1.1-.9 2-2 2s-2-.9-2-2 .9-2 2-2a2 2 0 0 1 2 2z" class="st2"/>
  <path d="M120.2 257.5h8.3v1.5h-8.3zm0 2.9h6v1.5h-6z" class="st1"/>
  <path d="M142.6 259.5c0 1.1-.9 2-2 2s-2-.9-2-2 .9-2 2-2a2 2 0 0 1 2 2z" class="st2"/>
  <path d="M145.4 257.5h8.3v1.5h-8.3zm0 2.9h8.3v1.5h-8.3z" class="st1"/>
  <path d="M102 163.4h-3.4c-.6 0-1.1-.5-1.1-1.1s.5-1.1 1.1-1.1h1.1c0-1.1.5-1.1 1.1-1.1s1.1.5 1.1 1.1l.1 2.2zm-9.2 0h-3.4c-.6 0-1.1-.5-1.1-1.1s.5-1.1 1.1-1.1h3.4c.6 0 1.1.5 1.1 1.1 0 .6-.5 1.1-1.1 1.1zm-9.2 0h-3.4c-.6 0-1.1-.5-1.1-1.1s.5-1.1 1.1-1.1h3.4c.6 0 1.1.5 1.1 1.1.1.6-.5 1.1-1.1 1.1zm17.2-6.9c-.6 0-1.1-.5-1.1-1.1V152c0-.6.5-1.1 1.1-1.1s1.1.5 1.1 1.1v3.4c.1.6-.5 1.1-1.1 1.1zm0-9.2c-.6 0-1.1-.5-1.1-1.1v-3.4c0-.6.5-1.1 1.1-1.1s1.1.5 1.1 1.1v3.4c.1.6-.5 1.1-1.1 1.1zm0-9.2c-.6 0-1.1-.5-1.1-1.1v-3.4c0-.6.5-1.1 1.1-1.1s1.1.5 1.1 1.1v3.4c.1.6-.5 1.1-1.1 1.1zm0-9.1c-.6 0-1.1-.5-1.1-1.1v-3.4c0-.6.5-1.1 1.1-1.1s1.1.5 1.1 1.1v3.4c.1.6-.5 1.1-1.1 1.1zm0-9.2c-.6 0-1.1-.5-1.1-1.1v-3.4c0-.6.5-1.1 1.1-1.1s1.1.5 1.1 1.1v3.4c.1.6-.5 1.1-1.1 1.1zm0-9.2c-.6 0-1.1-.5-1.1-1.1V106c0-.6.5-1.1 1.1-1.1s1.1.5 1.1 1.1v3.4c.1.7-.5 1.2-1.1 1.2zm53.9-3.4h-2.3c-.6 0-1.1-.5-1.1-1.1s.5-1.1 1.1-1.1v-1.1c0-.6.5-1.1 1.1-1.1s1.1.5 1.1 1.1l.1 3.3zm-8 0h-3.4c-.6 0-1.1-.5-1.1-1.1s.5-1.1 1.1-1.1h3.4c.6 0 1.1.5 1.1 1.1s-.5 1.1-1.1 1.1zm-9.2 0h-3.4c-.6 0-1.1-.5-1.1-1.1s.5-1.1 1.1-1.1h3.4c.6 0 1.1.5 1.1 1.1s-.5 1.1-1.1 1.1zm-9.2 0h-3.4c-.6 0-1.1-.5-1.1-1.1s.5-1.1 1.1-1.1h3.4c.6 0 1.1.5 1.1 1.1.1.6-.4 1.1-1.1 1.1zm-9.1 0h-3.4c-.6 0-1.1-.5-1.1-1.1s.5-1.1 1.1-1.1h3.4c.6 0 1.1.5 1.1 1.1s-.5 1.1-1.1 1.1zm-9.2 0h-3.4c-.6 0-1.1-.5-1.1-1.1s.5-1.1 1.1-1.1h3.4c.6 0 1.1.5 1.1 1.1s-.5 1.1-1.1 1.1zm43.6-8c-.6 0-1.1-.5-1.1-1.1v-3.4c0-.6.5-1.1 1.1-1.1s1.1.5 1.1 1.1v3.4c0 .5-.5 1.1-1.1 1.1zm0-9.2c-.6 0-1.1-.5-1.1-1.1v-3.4c0-.6.5-1.1 1.1-1.1s1.1.5 1.1 1.1v3.4c0 .6-.5 1.1-1.1 1.1zm135 47c-.6 0-1.1-.5-1.1-1.1s.5-1.1 1.1-1.1h3.4c.6 0 1.1.5 1.1 1.1s-.5 1.1-1.1 1.2l-3.4-.1zm9.2 0c-.6 0-1.1-.6-1.1-1.2s.5-1.1 1.1-1.1h3.4c.6 0 1.1.4 1.1 1s-.5 1.2-1.1 1.2l-3.4.1zm9.2 0c-.6 0-1.1-.7-1.1-1.3s.5-1.1 1.1-1.1h3.4c.6 0 1.1.3 1.1.9 0 .6-.5 1.2-1.1 1.2l-3.4.3zm9.2 0c-.6 0-1.1-.7-1.1-1.4 0-.6.5-1.3 1.1-1.3l3.4-.1c.7 0 1.2.5 1.2 1.1s-.5 1.4-1.1 1.4l-3.5.3zm7.1-3.8c-.6 0-1.1-.5-1.1-1.1v-3.4c0-.6.5-1.1 1.1-1.1s1.1.5 1.1 1.1v3.4c0 .6-.5 1.1-1.1 1.1zm0-9.1c-.6 0-1.1-.5-1.1-1.1v-3.4c0-.6.5-1.1 1.1-1.1s1.1.5 1.1 1.1v3.4c0 .6-.5 1.1-1.1 1.1zm0-9.2c-.6 0-1.1-.5-1.1-1.1v-3.4c0-.6.5-1.1 1.1-1.1s1.1.5 1.1 1.1v3.4c0 .6-.5 1.1-1.1 1.1zm0-9.2c-.6 0-1.1-.5-1.1-1.1v-3.4c0-.6.5-1.1 1.1-1.1s1.1.5 1.1 1.1v3.4c0 .6-.5 1.1-1.1 1.1zm0-9.2c-.6 0-1.1-.5-1.1-1.1V92c0-.6.5-1.1 1.1-1.1s1.1.5 1.1 1.1v3.4c0 .6-.5 1.1-1.1 1.1zm0-9.1c-.6 0-1.1-.5-1.1-1.1v-3.4c0-.6.5-1.1 1.1-1.1s1.1.5 1.1 1.1v3.4c0 .6-.5 1.1-1.1 1.1zm0-9.2c-.6 0-1.1-.5-1.1-1.1v-3.4c0-.6.5-1.1 1.1-1.1s1.1.5 1.1 1.1v3.4c0 .6-.5 1.1-1.1 1.1zm88.6-6.6h-3.4c-.6 0-1.1-.5-1.1-1.1s.5-1.1 1.1-1.1h3.4c.6 0 1.1.5 1.1 1.1s-.5 1.1-1.1 1.1zm-9.2 0h-3.4c-.6 0-1.1-.5-1.1-1.1s.5-1.1 1.1-1.1h3.4c.6 0 1.1.5 1.1 1.1.1.6-.4 1.1-1.1 1.1zm-9.2 0h-3.4c-.6 0-1.1-.5-1.1-1.1s.5-1.1 1.1-1.1h3.4c.6 0 1.1.5 1.1 1.1.1.6-.4 1.1-1.1 1.1zm-9.1 0H381c-.6 0-1.1-.5-1.1-1.1s.5-1.1 1.1-1.1h3.4c.6 0 1.1.5 1.1 1.1s-.5 1.1-1.1 1.1zm-9.2 0h-3.4c-.6 0-1.1-.5-1.1-1.1s.5-1.1 1.1-1.1h3.4c.6 0 1.1.5 1.1 1.1 0 .6-.5 1.1-1.1 1.1zm-9.2 0h-3.4c-.6 0-1.1-.5-1.1-1.1s.5-1.1 1.1-1.1h3.4c.6 0 1.1.5 1.1 1.1.1.6-.4 1.1-1.1 1.1zm-9.1 0h-3.4c-.6 0-1.1-.5-1.1-1.1s.5-1.1 1.1-1.1h3.4c.6 0 1.1.5 1.1 1.1s-.5 1.1-1.1 1.1zm-9.2 0h-3.4c-.6 0-1.1-.5-1.1-1.1s.5-1.1 1.1-1.1h3.4c.6 0 1.1.5 1.1 1.1 0 .6-.5 1.1-1.1 1.1zm-9.2 0h-3.4c-.6 0-1.1-.5-1.1-1.1s.5-1.1 1.1-1.1h3.4c.6 0 1.1.5 1.1 1.1.1.6-.5 1.1-1.1 1.1zm-9.2 0h-3.4c-.6 0-1.1-.5-1.1-1.1s.5-1.1 1.1-1.1h3.4c.6 0 1.1.5 1.1 1.1.1.6-.4 1.1-1.1 1.1zm255.9 154.9c-.6 0-1.1-.5-1.1-1.1V222c0-.6.5-1.1 1.1-1.1s1.1.5 1.1 1.1v3.4c0 .6-.5 1.1-1.1 1.1zm0-9.2c-.6 0-1.1-.5-1.1-1.1v-3.4c0-.6.5-1.1 1.1-1.1s1.1.5 1.1 1.1v3.4c0 .6-.5 1.1-1.1 1.1zm0-9.1c-.6 0-1.1 0-1.1-1.1H583c-.6 0-1.1-.5-1.1-1.1s.5-1.1 1.1-1.1h3.4v2.3c-.1.5-.6 1-1.2 1zm-8-1.2h-3.4c-.6 0-1.1-.5-1.1-1.1s.5-1.1 1.1-1.1h3.4c.6 0 1.1.5 1.1 1.1s-.5 1.1-1.1 1.1zm-9.2 0h-3.4c-.6 0-1.1-.5-1.1-1.1s.5-1.1 1.1-1.1h3.4c.6 0 1.1.5 1.1 1.1s-.5 1.1-1.1 1.1zm-9.2 0h-3.4c-.6 0-1.1-.5-1.1-1.1s.5-1.1 1.1-1.1h3.4c.6 0 1.1.5 1.1 1.1.1.6-.5 1.1-1.1 1.1zm-9.2 0h-3.4v-2.3c0-.6.5-1.1 1.1-1.1s1.1 0 1.1 1.1h1.1c.6 0 1.1.5 1.1 1.1.2.7-.3 1.2-1 1.2zm-2.3-6.9c-.6 0-1.1-.5-1.1-1.1v-3.4c0-.6.5-1.1 1.1-1.1s1.1.5 1.1 1.1v3.4c.1.6-.4 1.1-1.1 1.1zm0-9.1c-.6 0-1.1-.5-1.1-1.1v-3.4c0-.6.5-1.1 1.1-1.1s1.1.5 1.1 1.1v3.4c.1.6-.4 1.1-1.1 1.1zm0-9.2c-.6 0-1.1-.5-1.1-1.1v-3.4c0-.6.5-1.1 1.1-1.1s1.1.5 1.1 1.1v3.4c.1.6-.4 1.1-1.1 1.1zm0-9.2c-.6 0-1.1-.5-1.1-1.1V168c0-.6.5-1.1 1.1-1.1s1.1.5 1.1 1.1v3.4c.1.7-.4 1.2-1.1 1.2zm0-9.2c-.6 0-1.1-.5-1.1-1.1v-3.4c0-.6.5-1.1 1.1-1.1s1.1.5 1.1 1.1v3.4c.1.6-.4 1.1-1.1 1.1zm-1.1-8h-3.4c-.6 0-1.1-.5-1.1-1.1s.5-1.1 1.1-1.1h3.4c.6 0 1.1.5 1.1 1.1s-.5 1.1-1.1 1.1zm-9.2 0h-3.4c-.6 0-1.1-.5-1.1-1.1s.5-1.1 1.1-1.1h3.4c.6 0 1.1.5 1.1 1.1.1.6-.4 1.1-1.1 1.1z" class="st8"/>
  <path d="M520.4 316.7h-41.9c-1.4 0-2.6-1.2-2.6-2.6V244c0-1.4 1.2-2.6 2.6-2.6h41.9c1.4 0 2.6 1.2 2.6 2.6v70.1c.1 1.4-1.1 2.6-2.6 2.6z" class="st7"/>
  <path d="M479.4 246.7h40.2v64.6h-40.2z" class="st5"/>
  <path d="M481.5 248.8h35.9v60.3h-35.9z" class="st8"/>
  <path d="M494.6 243.5c0 .4-.3.6-.6.6s-.6-.3-.6-.6c0-.4.3-.6.6-.6s.6.3.6.6zm10.7.5h-7.7c-.2 0-.4-.2-.4-.4v-.2c0-.2.2-.4.4-.4h7.7c.2 0 .4.2.4.4v.2c0 .2-.2.4-.4.4z" class="st23"/>
  <path d="M487.6 272.1h4.8v31h-4.8zm9.5-13.8h4.8v44.8h-4.8z" class="st34"/>
  <path d="M487.6 272.1h4.8v8.2h-4.8zm9.5-13.8h4.8v25.2h-4.8z" class="st1"/>
  <path d="M506.6 265.9h4.8v37.2h-4.8z" class="st34"/>
  <path d="M506.6 265.9h4.8v12.5h-4.8z" class="st1"/>
  <g class="st25">
    <path d="M518.6 277.4v3.2l-27.8 30.8h-3zm0-30.7v18.5l-37.4 45v-19.6z" class="st1"/>
  </g>
</svg>
