<?xml version="1.0" encoding="utf-8"?>
<svg version="1.1" id="Layer_1" xmlns="http://www.w3.org/2000/svg" xmlns:xlink="http://www.w3.org/1999/xlink" x="0px" y="0px"
	 viewBox="0 0 800 800" style="enable-background:new 0 0 800 800;" xml:space="preserve">
<style type="text/css">
	.st0{fill:#FFFFFF;}
	.st1{fill:#1A73E8;}
	.st2{fill:#F5F5F5;}
</style>
<circle class="st0" cx="400" cy="400" r="400"/>
<path class="st1" d="M643.8,437.5l-93.8-100l-93.8,198.8l-187.5-98.8L81.2,625v16.6C154.3,737.8,269.9,800,400,800
	c220.9,0,400-179.1,400-400c0-69.9-18-135.6-49.5-192.8L643.8,437.5z"/>
<circle class="st1" cx="268.8" cy="437.5" r="25"/>
<path class="st2" d="M268.8,412.5c13.8,0,25,11.2,25,25s-11.2,25-25,25s-25-11.2-25-25S254.9,412.5,268.8,412.5 M268.8,400
	c-20.7,0-37.5,16.8-37.5,37.5s16.8,37.5,37.5,37.5s37.5-16.8,37.5-37.5S289.4,400,268.8,400L268.8,400z"/>
<circle class="st1" cx="550" cy="337.5" r="25"/>
<path class="st2" d="M550,312.5c13.8,0,25,11.2,25,25s-11.2,25-25,25s-25-11.2-25-25S536.2,312.5,550,312.5 M550,300
	c-20.7,0-37.5,16.8-37.5,37.5S529.3,375,550,375s37.5-16.8,37.5-37.5S570.7,300,550,300L550,300z"/>
<path class="st2" d="M81.2,637.5c-3.2,0-6.4-1.2-8.8-3.7c-4.9-4.9-4.9-12.8,0-17.7l187.5-187.5c3.9-3.9,9.8-4.8,14.7-2.2l175.9,92.8
	l88.2-187c1.8-3.8,5.3-6.4,9.3-7c4.1-0.7,8.2,0.8,11.1,3.8l81.1,86.5L734.1,212c2.9-6.3,10.1-7.7,16.4-4.9c6.3,2.9,7.3,9.9,4.4,16.1
	l-99.8,219.5c-1.7,3.8-5.2,6.4-9.4,7.1c-4.1,0.6-8.3-0.8-11.1-3.8l-81.2-86.6l-85.9,182.2c-1.4,3.1-4.1,5.4-7.3,6.5
	c-3.2,1.1-6.8,0.8-9.8-0.8l-179.3-94.5l-181,181C87.7,636.3,84.4,637.5,81.2,637.5z"/>
<path class="st2" d="M639.1,415.4L734,212.3c2.9-6.3,9.1-8.1,15.4-5.2"/>
</svg>
