<svg xmlns="http://www.w3.org/2000/svg" xml:space="preserve" viewBox="0 0 512 512">
  <path d="m509.6 487.3-22.3 22.2a8.27 8.27 0 0 1-11.8 0 8.27 8.27 0 0 1 0-11.8l8-8H52.9a30.6 30.6 0 0 1-30.6-30.6V28.5l-8 8A8.37 8.37 0 0 1 2.5 36c-3-3.2-3-8.1 0-11.3L24.7 2.4c3.3-3.3 8.5-3.3 11.8 0l22.3 22.3c3.4 3.1 3.6 8.4.5 11.8s-8.4 3.6-11.8.5c-.2-.1-.3-.3-.5-.5l-8-8v430.6c0 7.7 6.2 13.9 13.9 13.9h430.6l-8-8a8.36 8.36 0 0 1-.3-11.8c3.2-3.3 8.5-3.5 11.8-.3l.3.3 22.3 22.3c3.2 3.2 3.2 8.5 0 11.8z" style="fill:#423f3f"/>
	<path d="M278.3 434.1h-44.5c-12.3 0-22.3-10-22.3-22.3V22.3c0-12.3 10-22.3 22.3-22.3h44.5c12.3 0 22.3 10 22.3 22.3v389.6c-.1 12.2-10 22.2-22.3 22.2z" style="fill:#ff6029"/>
	<path d="M144.7 434.1h-44.5c-12.3 0-22.3-10-22.3-22.3v-256c0-12.3 10-22.3 22.3-22.3h44.5c12.3 0 22.3 10 22.3 22.3v256c0 12.3-10 22.3-22.3 22.3z" style="fill:#237b9e"/>
	<path d="M411.8 434.1h-44.5c-12.3 0-22.3-10-22.3-22.3V278.3c0-12.3 10-22.3 22.3-22.3h44.5c12.3 0 22.3 10 22.3 22.3v133.6c0 12.2-10 22.2-22.3 22.2z" style="fill:#bc49bf"/>
</svg>
